<?xml version="1.0" encoding="UTF-8" standalone="no"?>
<svg
   width="96"
   height="128"
   viewBox="0 0 96 128"
   fill="none"
   version="1.1"
   id="svg83"
   sodipodi:docname="event.svg"
   inkscape:version="1.1.2 (b8e25be8, 2022-02-05)"
   xmlns:inkscape="http://www.inkscape.org/namespaces/inkscape"
   xmlns:sodipodi="http://sodipodi.sourceforge.net/DTD/sodipodi-0.dtd"
   xmlns="http://www.w3.org/2000/svg"
   xmlns:svg="http://www.w3.org/2000/svg">
  <sodipodi:namedview
     id="namedview85"
     pagecolor="#ffffff"
     bordercolor="#666666"
     borderopacity="1.0"
     inkscape:pageshadow="2"
     inkscape:pageopacity="0.0"
     inkscape:pagecheckerboard="0"
     showgrid="false"
     inkscape:zoom="4.859375"
     inkscape:cx="48.051447"
     inkscape:cy="64"
     inkscape:window-width="1312"
     inkscape:window-height="844"
     inkscape:window-x="0"
     inkscape:window-y="38"
     inkscape:window-maximized="0"
     inkscape:current-layer="g61" />
  <g
     clip-path="url(#clip0_2266_28665)"
     id="g61">
    <path
       d="M0 4C0 1.79086 1.79086 0 4 0H92C94.2091 0 96 1.79086 96 4V124C96 126.209 94.2091 128 92 128H4C1.79086 128 0 126.209 0 124V4Z"
       fill="#FFFBF2"
       id="path9" />
    <rect
       opacity="0.3"
       width="96"
       height="73.6"
       fill="#faction"
       id="rect11" />
    <path
       d="M23.9999 75.1999L-3.42871 49.6V131.2H99.4284V49.6L71.9999 75.1999H23.9999Z"
       fill="#faction"
       id="path13" />
    <path
       d="M29.1427 -3.20001L-3.42871 27.2V-3.20001H29.1427H66.857H99.4284V27.2L66.857 -3.20001H29.1427Z"
       fill="#faction"
       id="path15" />
    <path
       d="M29.1427 -3.20001L-3.42871 27.2V-3.20001H99.4284V27.2L66.857 -3.20001M-3.42871 49.6L23.9999 75.1999H71.9999L99.4284 49.6V131.2H-3.42871V49.6Z"
       stroke="#border"
       id="path17" />
    <path
       fill-rule="evenodd"
       clip-rule="evenodd"
       d="M6.67497 84.1393C5.21219 86.7818 3.42871 90.0038 3.42871 96C3.42871 102.051 4.94218 105.277 6.18842 107.933C7.90796 111.598 9.11874 114.179 5.143 121.6C10.2265 116.855 11.6921 117.739 14.1888 119.243C15.9018 120.275 18.1003 121.6 22.2859 121.6H47.0001H49.0001H73.7144C77.9 121.6 80.0985 120.275 81.8115 119.243C84.3082 117.739 85.7738 116.855 90.8573 121.6C86.8816 114.179 88.0923 111.598 89.8119 107.933C91.0581 105.277 92.5716 102.051 92.5716 96C92.5716 90.0038 90.7881 86.7818 89.3253 84.1393C87.2752 80.4357 85.8551 77.87 90.8573 70.4C86.0967 73.7324 82.9886 73.209 79.2385 72.5773C77.587 72.2992 75.811 72 73.7144 72H49.0001H47.0001H22.2859C20.1893 72 18.4133 72.2992 16.7618 72.5773C13.0117 73.209 9.9036 73.7324 5.143 70.4C10.1452 77.87 8.72506 80.4357 6.67497 84.1393Z"
       fill="#FFFBF2"
       id="path19" />
    <path
       d="M6.67497 84.1393L7.11242 84.3814L6.67497 84.1393ZM6.18842 107.933L6.64107 107.721L6.18842 107.933ZM5.143 121.6L4.70226 121.364L5.48416 121.966L5.143 121.6ZM14.1888 119.243L14.4468 118.815H14.4468L14.1888 119.243ZM81.8115 119.243L81.5535 118.815L81.8115 119.243ZM90.8573 121.6L90.5161 121.966L91.298 121.364L90.8573 121.6ZM89.8119 107.933L90.2645 108.145L89.8119 107.933ZM89.3253 84.1393L89.7628 83.8971L89.3253 84.1393ZM90.8573 70.4L91.2727 70.6782L90.5706 69.9904L90.8573 70.4ZM79.2385 72.5773L79.3216 72.0843L79.2385 72.5773ZM16.7618 72.5773L16.6787 72.0843L16.7618 72.5773ZM5.143 70.4L5.42973 69.9904L4.72754 70.6782L5.143 70.4ZM3.92871 96C3.92871 90.1297 5.66456 86.997 7.11242 84.3814L6.23751 83.8971C4.75981 86.5667 2.92871 89.8779 2.92871 96H3.92871ZM6.64107 107.721C5.40795 105.092 3.92871 101.944 3.92871 96H2.92871C2.92871 102.158 4.47641 105.461 5.73576 108.145L6.64107 107.721ZM5.58374 121.836C7.58898 118.093 8.32332 115.505 8.30141 113.353C8.27948 111.198 7.49593 109.543 6.64107 107.721L5.73576 108.145C6.60045 109.988 7.28206 111.456 7.30147 113.363C7.3209 115.273 6.67276 117.686 4.70226 121.364L5.58374 121.836ZM14.4468 118.815C13.226 118.079 12.0835 117.37 10.5665 117.583C9.08518 117.791 7.34824 118.858 4.80184 121.235L5.48416 121.966C8.02122 119.598 9.55882 118.734 10.7054 118.573C11.8162 118.418 12.6549 118.903 13.9307 119.671L14.4468 118.815ZM22.2859 121.1C18.2347 121.1 16.1304 119.829 14.4468 118.815L13.9307 119.671C15.6733 120.721 17.9659 122.1 22.2859 122.1V121.1ZM47.0001 121.1H22.2859V122.1H47.0001V121.1ZM47.0001 122.1H49.0001V121.1H47.0001V122.1ZM49.0001 122.1H73.7144V121.1H49.0001V122.1ZM73.7144 122.1C78.0344 122.1 80.327 120.721 82.0696 119.671L81.5535 118.815C79.8699 119.829 77.7656 121.1 73.7144 121.1V122.1ZM82.0696 119.671C83.3454 118.903 84.1841 118.418 85.2949 118.573C86.4415 118.734 87.9791 119.598 90.5161 121.966L91.1984 121.235C88.6521 118.858 86.9151 117.791 85.4338 117.583C83.9168 117.37 82.7743 118.079 81.5535 118.815L82.0696 119.671ZM91.298 121.364C89.3275 117.686 88.6794 115.273 88.6988 113.363C88.7182 111.456 89.3998 109.988 90.2645 108.145L89.3592 107.721C88.5044 109.543 87.7208 111.198 87.6989 113.353C87.677 115.505 88.4113 118.093 90.4165 121.836L91.298 121.364ZM90.2645 108.145C91.5239 105.461 93.0716 102.158 93.0716 96H92.0716C92.0716 101.944 90.5923 105.092 89.3592 107.721L90.2645 108.145ZM93.0716 96C93.0716 89.8779 91.2405 86.5667 89.7628 83.8971L88.8879 84.3814C90.3357 86.997 92.0716 90.1297 92.0716 96H93.0716ZM89.7628 83.8971C88.7286 82.0288 87.9337 80.5729 87.9467 78.6855C87.9596 76.7941 88.7904 74.3852 91.2727 70.6782L90.4418 70.1218C87.9219 73.8849 86.9617 76.4938 86.9467 78.6786C86.9317 80.8674 87.872 82.5461 88.8879 84.3814L89.7628 83.8971ZM90.5706 69.9904C88.2465 71.6172 86.3573 72.2825 84.6132 72.4783C82.8531 72.676 81.2071 72.4018 79.3216 72.0843L79.1555 73.0704C81.0201 73.3844 82.8032 73.6879 84.7248 73.4721C86.6623 73.2545 88.7075 72.5152 91.144 70.8096L90.5706 69.9904ZM79.3216 72.0843C77.6715 71.8064 75.8577 71.5 73.7144 71.5V72.5C75.7642 72.5 77.5025 72.792 79.1555 73.0704L79.3216 72.0843ZM73.7144 71.5H49.0001V72.5H73.7144V71.5ZM49.0001 71.5H47.0001V72.5H49.0001V71.5ZM22.2859 72.5H47.0001V71.5H22.2859V72.5ZM16.8448 73.0704C18.4978 72.792 20.2361 72.5 22.2859 72.5V71.5C20.1426 71.5 18.3288 71.8064 16.6787 72.0843L16.8448 73.0704ZM4.85627 70.8096C7.29282 72.5152 9.33794 73.2545 11.2755 73.4721C13.1971 73.6879 14.9802 73.3844 16.8448 73.0704L16.6787 72.0843C14.7932 72.4018 13.1472 72.676 11.3871 72.4783C9.64298 72.2825 7.75378 71.6172 5.42973 69.9904L4.85627 70.8096ZM7.11242 84.3814C8.12832 82.5461 9.0686 80.8674 9.05359 78.6786C9.03861 76.4938 8.07836 73.8849 5.55845 70.1218L4.72754 70.6782C7.20987 74.3852 8.04065 76.7941 8.05362 78.6855C8.06656 80.5729 7.27171 82.0288 6.23751 83.8971L7.11242 84.3814Z"
       fill="#border"
       id="path21" />
    <circle
       cx="16"
       cy="16"
       r="11.5"
       fill="#FFFBF2"
       stroke="#4F5A60"
       id="circle39" />
    <ellipse
       cx="16"
       cy="13.75"
       rx="10.5"
       ry="9.75"
       fill="#4F5A60"
       id="ellipse41" />
  </g>
  <defs
     id="defs81">
    <filter
       id="filter0_d_2266_28665"
       x="72"
       y="2"
       width="24"
       height="24"
       filterUnits="userSpaceOnUse"
       color-interpolation-filters="sRGB">
      <feFlood
         flood-opacity="0"
         result="BackgroundImageFix"
         id="feFlood63" />
      <feColorMatrix
         in="SourceAlpha"
         type="matrix"
         values="0 0 0 0 0 0 0 0 0 0 0 0 0 0 0 0 0 0 127 0"
         result="hardAlpha"
         id="feColorMatrix65" />
      <feOffset
         dy="2"
         id="feOffset67" />
      <feGaussianBlur
         stdDeviation="2"
         id="feGaussianBlur69" />
      <feColorMatrix
         type="matrix"
         values="0 0 0 0 0 0 0 0 0 0 0 0 0 0 0 0 0 0 0.25 0"
         id="feColorMatrix71" />
      <feBlend
         mode="normal"
         in2="BackgroundImageFix"
         result="effect1_dropShadow_2266_28665"
         id="feBlend73" />
      <feBlend
         mode="normal"
         in="SourceGraphic"
         in2="effect1_dropShadow_2266_28665"
         result="shape"
         id="feBlend75" />
    </filter>
    <clipPath
       id="clip0_2266_28665">
      <path
         d="M0 4C0 1.79086 1.79086 0 4 0H92C94.2091 0 96 1.79086 96 4V124C96 126.209 94.2091 128 92 128H4C1.79086 128 0 126.209 0 124V4Z"
         fill="white"
         id="path78" />
    </clipPath>
  </defs>
</svg>
