<?xml version="1.0" encoding="utf-8"?>
<!-- Generator: Adobe Illustrator 26.0.3, SVG Export Plug-In . SVG Version: 6.00 Build 0)  -->
<svg version="1.1" id="Layer_1" xmlns="http://www.w3.org/2000/svg" xmlns:xlink="http://www.w3.org/1999/xlink" x="0px" y="0px"
	 viewBox="0 0 1893 988" style="enable-background:new 0 0 1893 988;" xml:space="preserve">
<style type="text/css">
	.st0{fill:#ABABAB;}
	.st1{fill:url(#SVGID_1_);}
	.st2{fill:url(#SVGID_00000131324966585867748770000011536542721482457223_);}
	.st3{clip-path:url(#SVGID_00000173162166913257060600000015234707691758993580_);}
	.st4{fill:#727955;}
	.st5{fill:url(#SVGID_00000052801427563981037960000007203656854388977333_);}
	.st6{fill:url(#SVGID_00000106134057943419308740000017950585621629979276_);}
	.st7{fill:url(#SVGID_00000027587487233694752020000003135943785779778486_);}
	.st8{fill:url(#SVGID_00000156573168907913029050000013164739640334201759_);}
	.st9{fill:url(#SVGID_00000136399197827248960670000009263815915216892089_);}
	.st10{fill:url(#SVGID_00000027571661969147525670000009372304226971098525_);}
	.st11{fill:url(#SVGID_00000048485272935533229200000001439051043303322515_);}
	.st12{fill:url(#SVGID_00000027563952664401914610000008553224972990568340_);}
	.st13{fill:url(#SVGID_00000135686355054170193520000017799734887735108763_);}
	.st14{fill:url(#SVGID_00000109027035627490860750000009525976627926965632_);}
	.st15{fill:url(#SVGID_00000144336676156991535330000000921865274141377971_);}
	.st16{fill:url(#SVGID_00000028307515353319469530000000783879275339826085_);}
	.st17{fill:url(#SVGID_00000034065867656044864430000006255632203882552195_);}
	.st18{fill:none;stroke:#000000;stroke-linecap:square;}
</style>
<rect y="0" class="st0" width="1893" height="988"/>
<linearGradient id="SVGID_1_" gradientUnits="userSpaceOnUse" x1="0" y1="491.7998" x2="1892.8101" y2="491.7998" gradientTransform="matrix(1 0 0 -1 0 985.8898)">
	<stop  offset="0" style="stop-color:#9FA795"/>
	<stop  offset="0.1229" style="stop-color:#B9BAA3"/>
	<stop  offset="0.26" style="stop-color:#B9BAA3"/>
	<stop  offset="0.3234" style="stop-color:#95A090"/>
	<stop  offset="0.3464" style="stop-color:#7B8E83"/>
	<stop  offset="0.3666" style="stop-color:#939F8F"/>
	<stop  offset="0.4444" style="stop-color:#B9BAA3"/>
	<stop  offset="0.6015" style="stop-color:#B9BAA3"/>
	<stop  offset="0.6361" style="stop-color:#7B8E83"/>
	<stop  offset="0.6635" style="stop-color:#9AA493"/>
	<stop  offset="0.7298" style="stop-color:#B9BAA3"/>
	<stop  offset="0.8004" style="stop-color:#B9BAA3"/>
	<stop  offset="0.8998" style="stop-color:#7B8E83"/>
	<stop  offset="0.9574" style="stop-color:#7B8E83"/>
</linearGradient>
<rect y="0" class="st1" width="1892.8" height="988.2"/>
<linearGradient id="SVGID_00000121977727279232875160000011324003670426747527_" gradientUnits="userSpaceOnUse" x1="951.0901" y1="985.8454" x2="941.5911" y2="-15.8346" gradientTransform="matrix(1 0 0 -1 0 985.8898)">
	<stop  offset="3.519140e-02" style="stop-color:#7B8E83"/>
	<stop  offset="0.2038" style="stop-color:#95A090;stop-opacity:0.5"/>
	<stop  offset="0.5338" style="stop-color:#B9BAA3;stop-opacity:0"/>
	<stop  offset="0.7715" style="stop-color:#95A090;stop-opacity:0.5"/>
	<stop  offset="0.9517" style="stop-color:#7B8E83"/>
</linearGradient>
<rect y="0" style="fill:url(#SVGID_00000121977727279232875160000011324003670426747527_);" width="1892.8" height="988.2"/>
<g>
	<g>
		<defs>
			<path id="SVGID_00000138567956681432323760000000133152930437596070_" d="M1085.7,6.8c2.3,10.7,0.2,2.2,8.9,2.4
				c10.5,5.1-2.2,1.8-2.6,6.2c-3.2-0.2-5.2,0.8-2.6-2.4c-3.7,1.8-6.7,1.7-11,1.7c-0.5-2.7-1.5-2.1-3.1-1.2c-0.9-0.8,1-1.1,0.2-1.7
				c-1.9-0.2-0.7,1.3-1.9,1.4c0.7-3.6-2.7,0.7-3.8,1.4C1056.8,14.8,1082.5,4.9,1085.7,6.8z M1100.3,7.5c0.2,2-3.9,1.3-4.8,0.7
				C1095.6,6.6,1099.2,7.3,1100.3,7.5z M1090.5,9.2c-0.5-0.1-1.7,0.4-1.4-0.5C1089.6,8.5,1090.6,8.2,1090.5,9.2z M1217.9,10.6
				c1.3,5.5,8,1.7,12,3.8c5.7,4.6,4.7,8.3-3.8,5.3c-8.8-1.6-22.7-0.4-27.4-6.5C1201.3,7.9,1210.9,8.7,1217.9,10.6z M1208.3,15.6
				c0.6-0.2,1.5-0.1,1.4-1C1208.9,14.6,1208.1,14.7,1208.3,15.6L1208.3,15.6z M1195.1,9.7c0,1.9-4.6,1.4-5.3,0.5
				C1190.3,8.7,1194.2,8.5,1195.1,9.7z M1107.8,9.2c3.6,3.2-8.8,4.2-8.6,1.4C1101.9,9.6,1104.8,9.2,1107.8,9.2z M1058.6,9.7
				c4,1.9,5.9,3.3-0.7,3.1c6.3,4-15.3,0.2-17.5-0.7C1045.9,9.4,1053.1,11.8,1058.6,9.7z M1049.7,12.6c0.1-0.6-0.3-0.8-1-0.7
				C1048.7,12.5,1049.1,12.6,1049.7,12.6z M1158.6,10.9c-0.1,1.5-4.1,1.3-4.6,0.2C1154.1,9.6,1158.3,9.8,1158.6,10.9z M1001.7,14.2
				c-1.8,0.7-3.8,0.7-5.5,0C996.7,12.8,1001.4,12.4,1001.7,14.2z M551.2,13.8c0.7,2.9-3.4,2.5-5.3,1.7
				C545,13.3,549.5,12.6,551.2,13.8z M1063.6,15.4c-0.8,0.4-3.3,0.5-3.8-0.2C1060,13.5,1063.8,13.1,1063.6,15.4z M1154.1,16.9
				c-0.1,1.5-2.9,1.1-2.9-0.2C1151.4,15.4,1153.9,16,1154.1,16.9z M1244.6,18.8c2.8-2.1,9.9,0.1,12,2.4c-3.7,2.5-13.5,1.8-19.4,2.4
				C1234.5,18.2,1242.4,13.4,1244.6,18.8z M539,21c-3,8.1-12.4-0.3-19.9,1.4c-0.8-3.4,4-0.9,2.6-4.8C527.4,16.3,535.9,17.2,539,21z
				 M827.2,17.8c-0.5,0.8-0.7,1.7-1.9,1.7C823.8,18.4,826,16.4,827.2,17.8z M989.9,18.8c-0.6,1.9-3.6,1.3-5.3,1.4
				C984.6,17.4,988,18.2,989.9,18.8z M504.4,21.2c-2.2,2.4-7.9,3.2-10.8,5.5c-7,1.8-15.1-3-3.8-3.6
				C488.9,19.9,503.4,17.9,504.4,21.2z M554.8,22.4c-6.8,2.3-0.9,1.2,1.4,2.4C541,34.7,536,10.6,554.8,22.4z M981.3,20.2
				c-0.4,0.9-1.5,0.5-1.9,0C979.2,19,981.4,19,981.3,20.2z M1261.4,22.6c-0.9,0-1.7,0.2-1.7-1C1260.3,21.2,1261.8,21.4,1261.4,22.6z
				 M1266.2,22.9c-0.4,1.6-3.1,0.7-4.1,0.2C1262.7,22.2,1265.6,21.6,1266.2,22.9z M824.8,23.6c0,1.5-1.2,2.6-2.6,1.9
				C822,23.7,823.6,22.7,824.8,23.6z M528.6,23.8c0.5,2.6-3.7,2.1-5,1.4C522.3,22.8,527.4,23,528.6,23.8z M513,24.4
				c2,3.3-0.9,4.3-3.8,2.9C509.3,25,510.3,23.8,513,24.4z M474.4,25.8c0.4,3.3-5,0.9-5.3,3.6c3-0.6,3.6,2.9,7.7,1.9
				c2.7,5.7,7.5,2,9.4,1c0-1.3-0.7-2.5,1.7-1.9c2.5-2,11.2-3.6,5.5,1.7c7.8,0.3,10.3,1.2,0.7,5.8c-11.5-0.5-22.6,3.7-34.1,2.6
				c0.8-5.2-5.8-0.2-14.4-7.4C420.4,35.6,469.9,22.5,474.4,25.8z M462.9,31c0.4,0.4,1.4,0.2,2.2,0.2C465.2,30.1,463.1,30.5,462.9,31
				z M458.1,33.2c5.3-0.4,1.6-2.2-1.4-2.4C456.8,32,458.2,31.8,458.1,33.2z M452.3,35.1c1.1,0.5,3.5,0.4,3.6-1
				C455.2,34.9,452.9,34.2,452.3,35.1z M461,37.8c0.7,1,3.8,0.5,3.6-1C463,36.7,463,38.3,461,37.8z M631.1,25.8
				c-0.1,1.2-2.2,1.1-2.9,0.5C628.1,24.9,630.7,25,631.1,25.8z M1206.9,27.2c-0.7,0.5-1.5,0.8-2.4,0.7
				C1204,26.2,1206.8,25.5,1206.9,27.2z M1232.3,27c0.6,2-3.3,2.5-4.1,1.2C1228.7,27,1231.3,26.1,1232.3,27z M1135.1,29.8
				c-14.7,8.3-26.6,1.8-38.4,19.7c-0.4,7,19.3,9,7,10.8c-3.6-1.8-10.9,1.1-12.7-3.8c-1.9,2.3-9-0.7-9.8-4.1c1.7-2.7,5.5,0.5,2.6-4.1
				c1.8-3.7,7.6-2.8,2.9-4.1c0.7-2.6,7.4-4,4.3-7.4c9.1-4.5,18.8-6,29.3-6.5C1124.8,28.1,1130.8,24.8,1135.1,29.8z M478,29.4
				c-1,0.6-4.4,1-5-0.2C473.8,27.7,477.8,27,478,29.4z M1424.1,28.6c0.5,1.8-1.1,2.3-2.6,1.7C1421,28.5,1422.8,28,1424.1,28.6z
				 M1233.8,30.4c-0.7,0.2-0.9-0.3-1.4-0.2C1232.4,29.3,1234.1,29,1233.8,30.4z M1237.1,29.8c1.4-0.4,1.1,1.2,0.5,1.7
				C1236.7,31.2,1237,30.7,1237.1,29.8z M1419.3,37.3c-3.2,1.3-6.6,2.3-9.6,0.5c-3.2,0.6-9.5,3.2-12.5,1
				c-13.2-0.8-13.5-11.4,0.7-5.5C1400.8,31.7,1419.8,31.8,1419.3,37.3z M1188.9,32.7c0.3,1-1.5,0.9-1.9,0.5
				C1186.7,32.2,1188.5,32.3,1188.9,32.7z M1385.2,34.9c0.1,2.8-4.4,0.6-4.1-0.7C1381.4,32.1,1384.3,33.7,1385.2,34.9z M1442.1,36.3
				c1.5,5.4-18.9,2.5-19.9-1.7C1428.2,34.3,1435.2,36.1,1442.1,36.3z M1188.2,35.8c0,1.3-2,1-2.9,0.7
				C1184.7,34.3,1187.9,34.6,1188.2,35.8z M503.4,35.8c0.2,2.4-3.5,2.1-5.3,1.7C498.1,35.3,502.1,34.3,503.4,35.8z M821.4,37.5
				c-1.6,0.3-5.2,0.6-6.5-0.2C815.2,34.1,821.3,34.7,821.4,37.5z M1180.7,40.3c-0.2,0-0.4,0-0.5,0c-0.2,0-0.3-0.1-0.5-0.2
				c-0.1-0.1-0.3-0.3-0.3-0.4c-0.1-0.2-0.1-0.3-0.1-0.5C1179.8,38.7,1181.3,39.8,1180.7,40.3z M523.1,39.7c0.1,1.3-2,1.3-1.9,0
				c0.1-0.1,0.3-0.2,0.4-0.3s0.3-0.1,0.5-0.1s0.4,0,0.5,0.1C522.8,39.4,523,39.5,523.1,39.7z M956.6,39.4v1.2
				C954.6,42.5,953.9,38,956.6,39.4z M1413.3,41.8c-0.5,2.7-3.5,1.4-4.8,0C1408.6,38.8,1412.4,40.8,1413.3,41.8z M1395.8,43.3
				c-1.4-0.7-5.8,0-4.6-2.4C1392.4,41.1,1396.3,40.6,1395.8,43.3z M519,41.6c1.9,3.5-0.5,2.4-2.4,4.1c3.2,5.6-14,12-18.7,10.1
				c1.6-4.5-10.8-5.5-3.8-8.6c2.7-2.5,10.4,5.5,7-2.4C506.1,42.3,513,41.5,519,41.6z M513.7,46.9c0,0.1,0,0.3,0,0.4s0.1,0.3,0.2,0.3
				c0.1,0.1,0.2,0.2,0.3,0.2s0.3,0.1,0.4,0C515.3,47.1,514.6,46.2,513.7,46.9L513.7,46.9L513.7,46.9z M1197.5,41.6
				c0.1,1.4-2,1.5-2.4,0.5C1195.2,40.8,1196.9,41,1197.5,41.6z M1200.9,41.8c0,0.6-0.9,0.6-1.2,0.2
				C1199.7,41.5,1200.6,41.5,1200.9,41.8z M1414.2,42.3c4.8,0,11,0.3,13.2,3.8c-4,1.5-11.1-0.3-15.1-1
				C1412.8,43.9,1414.3,44,1414.2,42.3z M1171.4,45.4c-0.8,0.3-2.5,0.5-2.4-0.7C1169.6,44.1,1171.6,43.9,1171.4,45.4z M1173.8,45.2
				c-0.2,0.5-1.8,0.3-1.4-0.5C1172.9,44.2,1173.4,44.8,1173.8,45.2z M1168.2,46.3c1.2,3-2.8,2.5-2.9,0.2c0.4-0.3,0.9-0.4,1.4-0.5
				S1167.8,46.2,1168.2,46.3z M1593.3,57.4c-3.2,0.3-16.8,4.1-14.2-2.6C1582.2,53.4,1592.6,53.5,1593.3,57.4z M852.2,56.2
				c0.9,1.7-3.1,2.8-4.3,1.9C849.2,57.3,849.8,56,852.2,56.2z M490,58.6c0.8,1.3,0,2.3-1.7,1.9C487.8,59.5,488.6,58.5,490,58.6z
				 M1083,66.8c-0.6,3.8-12.6,4.1-7.9-1.4C1077.1,63.5,1081.3,65.6,1083,66.8z M483.3,67.8c-0.6,1.1-2.3,2.3-3.8,1.7
				C478.9,67.2,482.5,66.3,483.3,67.8z M563.2,71.1c1.9-0.5,1.9,1.8,0.2,1.7c-0.1-0.1-0.3-0.2-0.3-0.3s-0.1-0.3-0.2-0.4s0-0.3,0-0.5
				C563,71.4,563.1,71.2,563.2,71.1z M817.4,82.2c0.8,0,0.9-0.9,1.9-0.7c5.4,7,7.1,6.8-1.4,12.2c-10,1.1-17.9,8.7-27.1,2.2
				c-2.3-0.5-8.1,2.6-6.7-1.4c3.4-0.2,3.8-0.7,1.9-3.6c-13.4-0.6-1.5-1,1.9-3.8c-14,1.5-7.4-1.9-0.5-6c11,2.8,0.1,6.2,8.4,4.8
				c0.1-3.3,1.9-3.8,3.8-1.4c2.2-2.5,6.3-2.5,8.6-1C811.2,82.6,814.8,78.5,817.4,82.2z M1030.2,88.3c0.3,1.5-1.2,1.6-1.9,1
				C1027.9,88.1,1029.4,87.8,1030.2,88.3z M555.3,96.8c0.8,2.9-3.7,2.3-3.4-0.2C552.5,96,554.5,96.2,555.3,96.8z M550.5,97.5
				c1.3,3.2-4.1,3.2-4.3,0.7C546.2,96.6,549.4,97.3,550.5,97.5z M530.3,100.3c-1.1,3.3-7.3,5.5-10.6,5
				C517.8,100.8,527.1,99.5,530.3,100.3z M563,101.6c0.1,1.2-1.7,1.2-2.2,0.5C561,101,562.1,101.1,563,101.6z M539.4,103.8
				c-0.4,2.9-2.9,3.8-5,5C529.9,106.6,536.6,101.8,539.4,103.8z M851.9,104.2c-0.8,2.3-2.4,3-4.3,1.7
				C847.6,102.8,850.4,103.9,851.9,104.2z M598.2,105.9c4.7,1.9-2.1,6.7-2.4,1.4C596.8,107,598.3,107.3,598.2,105.9z M849.3,107.8
				c0.9-0.2,1.4,1.5,0.5,1.7S848.9,108.2,849.3,107.8z M874.5,112.3c0.8,1.4-0.6,4.5-1.7,5.5C869.3,116.1,872.2,113.5,874.5,112.3z
				 M582.2,113.3c1.4,1.9-1.1,2.9-2.9,3.1C578.5,114.6,580.4,113.5,582.2,113.3z M1694.8,113.8c0.7,0.1,1.3,0.5,1.7,1
				C1695.9,116.2,1694.7,115.1,1694.8,113.8z M240.2,114.8c0.1,1.3-1.7,0.9-2.9,1C236.8,113.7,239.6,113.8,240.2,114.8z
				 M153.5,114.8c1.8,7.4-16,1.9-5,0.5C150,115,152.3,113.3,153.5,114.8z M965.7,114.3c3.2,1.3,0.3,3.8-1.9,1.9
				C963.9,115.1,965.2,115.1,965.7,114.3z M1607.2,124.2c-2.6,1.9-3.3,2.4-4.3-1.2C1603.5,120.6,1607.9,120.7,1607.2,124.2z
				 M1543.4,122c0.8-0.1,1.3,0.3,1.2,1.2C1543.6,123.4,1543.2,123,1543.4,122z M200.3,127.5c-4.9,1.5-7.2,5.7-12.5,7.2
				c-4.1-0.7-5.8,4.3-7.4-0.2c0.2-4.1,7.2-4.6,10.1-5.3C192.9,128.4,201.1,122.1,200.3,127.5z M850.5,125.8
				c-0.3,2.8-2.2,4.1-4.6,4.8C840.8,141.1,844.4,123.3,850.5,125.8z M963.8,128.7c-1.3,2-2.1,5-4.3,6.7
				C956.1,132.5,959.2,127.5,963.8,128.7z M179.9,136.9c-0.5,0.9-2.8,0.7-3.8,1.2C175.1,136.1,178.7,136,179.9,136.9z M520.5,137.6
				c0.6,2.7-1.9,1.9-3.4,2.4C508.2,145.4,514.9,133.7,520.5,137.6z M1635.3,143.4c2.3,1.1,6,2.1,6.5,4.6
				C1639,147.5,1634,146.2,1635.3,143.4z M847.4,152.5c0.9,6.6-0.5,12.1-7.2,11.3c-4.9,2.8-9.1,5-14.2,1.7
				c-0.5-4.6,10.3-7.2,2.6-9.8c1.3-2.6,1.2-2.2,1-5c1.8-1.9,9.9,1.5,6.2-2.6C838,139.7,859.3,146.2,847.4,152.5z M945.8,144.8
				c0.6,2.9-3,2.3-2.4-0.2c0.4-0.2,0.8-0.3,1.2-0.3S945.4,144.5,945.8,144.8z M1505.2,145.5c0.3,1.5-1.2,1.7-2.2,1.2
				C1502.4,145.1,1504.4,145,1505.2,145.5z M1645.1,146.5c1.8,0.4,3.8,0.6,4.1,2.4C1647.7,149.2,1644.7,148.9,1645.1,146.5z
				 M856.5,151c-0.3,0.7-1.9,1-2.6,0.5C853.4,149.4,856.8,148.4,856.5,151z M112,151.3c-1.5-0.3-1.5,1.5-3.6,1.2
				C107.2,150,111.5,149.9,112,151.3z M267.5,151.5c-2.2,4-8.3,5.8-6.5,11.5C254.9,163.3,257.5,146.2,267.5,151.5z M106.7,152.5
				c-4.2,5-13.1,4.4-18.7,5.8c2.8-1.8,6.7-5.4,9.8-3.1C101.1,154.4,103.6,149.7,106.7,152.5z M1680.2,157.3c2.4-0.3,3.7,0.5,4.3,1.9
				C1682.9,160.5,1679.4,159.1,1680.2,157.3z M1688.8,161.8c-0.5,0.5-1.7,0.1-1.7-0.7C1687.3,159.8,1689.1,160.6,1688.8,161.8z
				 M1747.6,162.8c1.3-0.9,5.7-0.8,4.6,1.4C1744,165.6,1742.9,158,1747.6,162.8z M1754.6,161.8c-0.1,1.3-2.1,1-1.7-0.2
				C1753.2,161.3,1754.6,161.1,1754.6,161.8z M503.2,163.3c0.6,1.8-2.5,1.9-2.4,0.5c0.3-0.4,0.7-0.6,1.1-0.7
				C502.4,163,502.8,163.1,503.2,163.3z M1708.2,163.3c2.4-0.5,1.9,2.3-0.2,1.9C1708,164.5,1707.9,163.6,1708.2,163.3z M1720.2,164
				c-0.2,1.1-1.2,0.7-1.9,0.5C1717.9,162.9,1719.7,163,1720.2,164z M1739.9,164.5c0,3-9.7,2.9-9.8,0
				C1734.3,165,1735.5,163.2,1739.9,164.5z M1716.9,165.4c1.6,0.7,5.1,0.8,4.3,2.9C1719.6,167.6,1716.5,167.4,1716.9,165.4z
				 M1611.3,170.2c0.1,0,0.3,0,0.4,0s0.3,0.1,0.3,0.2c0.1,0.1,0.2,0.2,0.2,0.3c0,0.1,0.1,0.3,0,0.4
				C1611.4,171.9,1610.6,171.1,1611.3,170.2z M578.6,181.3c-5.6,2.1-8.9-1.9-11.8-4.1C569.4,173.9,577.5,177.5,578.6,181.3z
				 M1614.9,177.9c0.7,0.4,0.8,2.8-0.2,2.9C1613.3,180.8,1613.3,177.6,1614.9,177.9z M576.2,189.9c-1.2,1.1-1.8,2.7-3.6,3.1
				C572.4,190.7,574.9,190,576.2,189.9z M1612.5,193.3c0.8,0.1,1,1.6,0.5,2.2C1611.2,195.8,1611.7,194,1612.5,193.3z M562.2,193.5
				c-0.1,2.6,1,2.5,3.1,3.6c6.3-0.3,6.1,0.1,1.9,3.6C563.4,200.8,555.8,195,562.2,193.5z M1609.1,198.6c-0.3,2.1-2,5.6-3.8,3.6
				C1605.7,200.3,1606.6,197.6,1609.1,198.6z M1604.3,204.4c-3.1,2.3-15.1,10.2-7.2,12.2c-0.7,1.9-3.2,1.9-4.6,3.1
				c-6.5-1,0.3,8-6.2,5c-2.1-1.7-4.6-2.8-7.2-3.1c-1.9,1.8-3,0.7-5.3,0.2c4,3.6,9.1,2.1,2.2,7c-2-1.5-4.6-5.2-6.2-7.4
				c2.7-3-2.7-7.4,4.8-4.1c-1.6-4.3-2.8-12.2-7.9-12c5.4-6.4,13,7.3,19.9,6c3.2,3.7,5.2-5.7,5.8,2.2c1.9-1.3,0.6-6,4.1-4.1
				c1.7-0.9,1.9-3.7,2.6-5.8C1601.2,205,1603.4,200.4,1604.3,204.4z M1600.7,213.2c0.1,1.1-0.3,1.6-1.4,1.4
				C1598.2,213.8,1599.5,212.4,1600.7,213.2z M920.1,218.5c0.4,3.2,1,9.6-3.1,10.1C913,225.8,915.2,218.4,920.1,218.5z M924.4,219.2
				c0.7,1.3-0.7,1.9-1.7,1.2C922.5,219.2,923.2,219.1,924.4,219.2z M919.8,229.5c3.7,6.1,1.2,16.8-6.2,13.9
				C914.8,237,909.5,228.9,919.8,229.5z M1001.2,233.6c0.1,0.8-0.2,1.1-1,1c-0.1-0.1-0.2-0.3-0.2-0.5s0.1-0.4,0.2-0.5
				s0.3-0.2,0.5-0.2S1001.1,233.5,1001.2,233.6z M1003.1,235.5c0.5,1.7-2.4,1.6-1.9,0c0.3-0.2,0.6-0.3,1-0.3
				C1002.5,235.3,1002.8,235.3,1003.1,235.5z M893.2,236.5c0.2,0.6,0.5,1.7,0,2.2C890.2,239.4,890.2,234.9,893.2,236.5z
				 M1000.5,236.7c0.3,2-1.1,2.2-2.4,1.7C997.4,236.4,999.5,235.6,1000.5,236.7z M889.4,238.9c-0.4,4.3-4,2.4-6.2,1.4
				C883.3,237.1,887.9,236.2,889.4,238.9z M879.8,242.7c-0.1,0.8-0.5,1.6-1,2.2C875.6,245.1,877.7,240.5,879.8,242.7z M997.1,244.6
				c-0.6,0.5-2,0.2-1.9-0.7C995.3,242.7,997.6,243.2,997.1,244.6z M733.6,245.4c-0.7,0.5-1,0.4-1.9,0.2
				C731,243.6,734,243.4,733.6,245.4z M727.4,247.8c-1.5-0.3-3.5-0.9-3.4-2.4C727.3,244.8,731.4,244.3,727.4,247.8z M978.4,251.1
				c-2,2.5-2.2-2.2-3.6-2.9C975.4,243.7,978,249.5,978.4,251.1z M1577.4,247.3c1,0.6,2.5,1.7,1.7,3.4c-0.4,0.1-0.9,0-1.3-0.1
				c-0.4-0.2-0.7-0.5-0.9-0.9c-0.2-0.4-0.3-0.8-0.2-1.2C1576.9,247.9,1577.1,247.6,1577.4,247.3z M742.5,250.1
				c0.6,2.3-2.7,1.9-3.6,1.2C737.8,248.6,740.9,249.8,742.5,250.1z M1006,251.8c0,1.1-2,1.3-2.2,0.2
				C1003.7,251,1005.8,250.8,1006,251.8z M1001.9,254.2c1.6,2.8-1,1.8-2.6,1C999.2,253.9,1001.1,254.6,1001.9,254.2z M996.6,258.1
				c-0.7,0.3-1.1,0.1-1.2-0.7C995.9,256.9,996.9,257.1,996.6,258.1z M944.3,261.4c1.2,0,1.7,0.7,1.7,1.9c-0.3,0.1-0.6,0.2-0.9,0.2
				c-0.3,0-0.6-0.2-0.8-0.4c-0.2-0.2-0.3-0.5-0.3-0.8C944,262,944.1,261.7,944.3,261.4z M1010.3,263.1c1.1-0.2,1.4,1.9,0.5,2.2
				C1009.7,265.5,1010,263.5,1010.3,263.1z M1049.2,263.4c-2.7,12.2-21.8,4.6-5,1.9C1045.8,264.9,1047,262.6,1049.2,263.4z
				 M1006.7,266.7c-2.2,4.5-11,0.9-14.9-0.2C992.2,261.4,1003.5,266.4,1006.7,266.7z M1542.4,270.4c-0.1,1.5-0.5,1.6-0.2,3.1
				C1540.4,274.4,1539.7,267.9,1542.4,270.4z M248.3,273.4c0.3,0.8,0.1,0.6-0.2,1.2C246.4,274.7,246.7,273,248.3,273.4z
				 M1531.4,276.8c0.8,3.1-4.6,4.1-4.3,1C1528.4,277.4,1529.9,275.5,1531.4,276.8z M254.1,278.2c-0.6,0.6-2,0.6-1.9-0.7
				C252.8,277,254.2,277.2,254.1,278.2z M1543.6,279.9c1.2,1.5-2.1,5.9-2.2,1.7C1542.3,281.1,1543.5,281.1,1543.6,279.9z
				 M1558.5,293.8c4.8,3.9-7.4,4.5-0.7,2.4C1557.7,295.1,1557.8,294.2,1558.5,293.8z M798.4,304.4c-1.7,2.7-1.8,6.3-5.5,7.2
				C793,309.3,796,303,798.4,304.4z M784,308c-0.7,7.4-8.9,0.9-2.2,0.2C783,308,783.2,307.1,784,308z M1556.3,308.5
				c-0.1,1.5-1.3,2.7-2.4,2.4C1553,309.2,1555.1,307.4,1556.3,308.5z M259.1,309.2c0.7,1.3,0.1,2.6-1.4,2.2
				C257.6,310.1,257.7,309,259.1,309.2z M788.1,310.9c0.3,4.1-4.9,3.2-2.6-0.7c0.5-0.1,1-0.1,1.4,0
				C787.3,310.3,787.7,310.5,788.1,310.9z M459.3,321c-1,4.5-4.8,4.9-2.2,0C453.6,316.4,457,317.6,459.3,321z M1552,318.8
				c0.5,1.9-2.1,2.4-1.9,4.8C1546.7,323.8,1549.6,317.4,1552,318.8z M454.2,318.8c0.8,2.7-3.1,1.4-4.1,2.9
				C446.6,319.5,452.2,318.6,454.2,318.8z M1138.7,322.4c0.3,0.3,0.6,0.8,0.6,1.3c0,0.5-0.1,1-0.4,1.4
				C1137,325.5,1136,321.8,1138.7,322.4z M459.5,327c0.7,0.3,1.8,0.3,1.7,1.4C459.8,328.6,459.3,328.2,459.5,327z M1518.2,349.5
				c-8-3.1-8.7-19.7,0.5-21.4C1523.4,334.2,1518.5,344,1518.2,349.5z M453.5,332.7c-1.8,1.6-0.3,1.9,0.7,3.1
				c-1.5,5.8-3.2-1.7-5.3-2.6C450.1,328.8,452.7,326.6,453.5,332.7z M461.4,330.1c1.1-0.2,0.8,1.7,0.5,2.2
				C460.7,332.1,461,330.8,461.4,330.1z M464.1,332.7c1.4-0.5,1.9,2.6,0.7,2.9C463.4,335.5,464,333.8,464.1,332.7z M1533.5,333.4
				c0.4,1.7-2.8,1.7-3.4,1C1530,332.9,1532.8,333.3,1533.5,333.4z M465.3,339.2c0.8,0.5,2,2.8,1.7,3.8
				C464.6,343.4,465.2,340.9,465.3,339.2z M472.2,344.7c0.5,2.3-4,3.5-1.4,1.2C468.5,343.3,470,342.4,472.2,344.7z M476.1,345.7
				c1-0.1,1.3,0.7,1.4,1.4c-0.2,0.2-0.5,0.3-0.7,0.3s-0.5-0.1-0.7-0.3s-0.3-0.5-0.3-0.7C475.8,346.1,475.9,345.9,476.1,345.7z
				 M424,352.6c-2.5,0.3-3.6,0-3.1-2.9C422.6,347.4,425.9,350.2,424,352.6z M475.6,353.4c0.5,2.7-2.7,2.7-4.6,2.2
				C470.9,353.3,473.6,352.7,475.6,353.4z M1466.6,360.5c2.8,6.6-5.8,17.2-11.8,9.4C1453.2,362.3,1460,359.4,1466.6,360.5z
				 M491,363.2c0.6,2.2,1.2,2.2,3.4,1.9c-0.8,3.3,4.4,1.3,4.6,4.8c-0.7,2-2.3,4-4.1,1.7c-2.9-1.2-6.8,2.7-9.4,0.2
				c-7,9.5-5.4-3.6-17,1.9c-10.2-7,5-2.3,7.7-4.3c-2.2-2-0.4-5.8-4.6-6.2C473.2,359.3,487.8,361.9,491,363.2z M474.6,369.4
				c-1.1,0.6-2-0.3-2.6-1C471.9,366.1,475.4,367.6,474.6,369.4z M1529.7,370.4c1.3,2.5-0.6,6.1,2.6,8.2c0.4,4.3-1,6.5-4.1,8.4
				c-0.3,2.8,0.5,8.7,2.2,4.6c4.5,2.9-1.1,2.3,0,5.5c4.1-0.4,7.6-0.4,12,2.4c0.8-1.2,1.4-2,2.9-1c0.6,4.7-1.5,2.3-3.8,2.4
				c6.1,6,0,5.8,3.8,11.5c-2,1.1-2.8-1-3.8-1.7c-4,2.3-3.3-4.6,1-4.1c-0.1-0.3-0.3-0.5-0.5-0.7c-0.2-0.2-0.5-0.3-0.8-0.3
				c-0.3,0-0.6,0-0.8,0.1c-0.3,0.1-0.5,0.3-0.7,0.5c-4.6-0.7,1.6-3.2-2.9-4.6c-0.4,3.3-1.5,1.8-3.1,0.2c-0.4,4.7-5.4-0.5-0.7-0.7
				c-7.2-4.7-1.2,4.1-2.6,8.4c-2.8,1.1-4.6-2.8-5.5-5.3c-6.2-4.3,6.1-2.4-0.5-4.6c-1.2-1.9,0.3-3.5,1-4.8c-3.1,2.9-2.4,0-5.3-1.7
				c-6-17.7,3.1-4,0-10.6C1520.2,369.9,1516.2,368.7,1529.7,370.4z M512.8,370.6c3,4.2-4.6,4.5-8.4,3.8
				C501.4,368.8,509.3,369.8,512.8,370.6z M455.7,374.2c-4.3,1.4-9,1.9-11.8-1.9C444.7,367.6,455.3,370.6,455.7,374.2z M518.1,374.7
				c-0.1,0.9-0.8,1.1-1.7,1.2C515.7,374.9,517.1,374,518.1,374.7z M732.4,378.4c0,1.1,0.8,2.4,0.5,3.1
				C730.4,381,728.4,378.5,732.4,378.4z M533.4,378.5c0.2,0.2,0.3,0.4,0.4,0.6c0,0.3,0,0.5-0.1,0.7c-0.1,0.2-0.3,0.4-0.5,0.5
				c-0.2,0.1-0.5,0.1-0.8,0C531.8,379.8,531.9,378.3,533.4,378.5z M1094.3,380.2c1.1,0.5,2.5,0.7,2.6,2.2
				C1095.5,383,1094.4,381.7,1094.3,380.2z M737.4,381.9c0,1.2-0.8,1.6-2.2,1.4C734.1,381.7,736.7,380.4,737.4,381.9z M535.1,382.9
				c1.7,1.8-0.8,3.6-2.9,3.8C530.8,384.6,533.3,383.2,535.1,382.9z M745.1,386.5c-0.3,0.1-0.7,0.2-1.1,0.2s-0.7-0.1-1.1-0.2
				C741.6,383.9,745.9,383.5,745.1,386.5z M535.4,388.9c0.6,3.6-2,2.8-2.4,0c0.1-0.2,0.3-0.4,0.5-0.5c0.2-0.1,0.4-0.2,0.7-0.2
				s0.5,0.1,0.7,0.2C535,388.5,535.2,388.7,535.4,388.9z M739.6,390.4c0.4,0.4,0.6,0.9,0.7,1.5c0.1,0.6,0,1.1-0.2,1.6
				C738.5,394.7,736.3,389.7,739.6,390.4z M736.2,392.2c0.3,1.6-0.7,1.5-2.2,1.4C733.1,392.2,735.3,391.1,736.2,392.2z M537,396.4
				c-2.1,0.6-3.3-2.9-1.4-3.4c0.3,0.1,0.6,0.3,0.9,0.5c0.3,0.2,0.5,0.5,0.6,0.8s0.2,0.7,0.2,1C537.2,395.7,537.2,396,537,396.4z
				 M535.1,398.2c2.1-0.5,1.8,2.9,0,2.4c-0.2-0.4-0.3-0.8-0.3-1.2C534.8,399,534.9,398.6,535.1,398.2z M1657.1,400.9
				c0.7,1.4-0.2,2.7-1.9,2.4c-0.2-0.3-0.2-0.6-0.2-0.9s0.2-0.6,0.4-0.9c0.2-0.3,0.5-0.4,0.8-0.5
				C1656.5,400.8,1656.8,400.8,1657.1,400.9z M1375.1,401.4c0.2,4.2-0.3,8.4-1.2,12.5c-2.7,0.4-2.5-2.7-1.2-4.1
				C1374,407.2,1370.5,400.1,1375.1,401.4z M535.1,402.4c0.2,0.2,0.2,0.5,0.2,0.8c0,0.3-0.2,0.5-0.3,0.7c-0.2,0.2-0.5,0.3-0.7,0.4
				c-0.3,0-0.5,0-0.8-0.2C533,403.1,533.5,401.9,535.1,402.4z M542.3,402.5c1.1,0.2,2,0.5,1.9,1.9c-0.3,0.2-0.6,0.4-0.9,0.3
				c-0.3,0-0.7-0.1-0.9-0.4s-0.4-0.6-0.4-0.9C542,403.1,542.1,402.8,542.3,402.5z M1165.1,408.4c-1.8,1.1-6.6,2.6-7-0.7
				C1158.3,405.4,1165.1,405.1,1165.1,408.4z M1534.5,407.8c1.3-1.3,3.9,0.5,2.4,1.9c-3-1.1-1.5-1.8-3.8,0.5
				C1530.3,409.4,1533.9,404,1534.5,407.8z M1553.9,417.2c-5.5-2.2-0.5,3.9-2.2,6.2c-2.7-0.1-6.9-7.7-5.5-11
				c1.5-0.2,1.1,1.6,2.4,1.7c0.4-2.9-4-3.1-3.8-6.5C1551.3,404.3,1553.8,412.4,1553.9,417.2z M486.6,408.1c-0.4,0.4-1.6,0.4-1.4-0.5
				C485.6,407.2,486.9,407.2,486.6,408.1z M492.4,410.5c-0.3,0.1-0.6,0.2-0.9,0.2s-0.6-0.1-0.9-0.3c-0.3-0.2-0.5-0.4-0.6-0.7
				s-0.2-0.6-0.1-0.9c0.3-0.1,0.6-0.2,0.9-0.2s0.6,0.1,0.8,0.3c0.2,0.2,0.4,0.4,0.6,0.7C492.4,409.9,492.4,410.2,492.4,410.5z
				 M1521.3,408.5c4.2-0.1,3.3,5.9-0.2,3.6C1522.4,410.8,1520,410.1,1521.3,408.5z M494.6,409.3c1.1-0.1,1.8,0.1,1.7,1.2
				c-0.2,0.1-0.4,0.2-0.6,0.2c-0.2,0-0.5-0.1-0.7-0.2c-0.2-0.1-0.3-0.3-0.4-0.6C494.5,409.7,494.5,409.5,494.6,409.3z M532.2,409.8
				c-0.1,0.4-0.3,0.8-0.7,1.1c-0.3,0.3-0.8,0.4-1.2,0.4C529.2,409.8,531.4,408.5,532.2,409.8z M1540,413.8c1,2-1.5,3.7,1.7,3.4
				c0.8-0.2-0.2-1.5,0.7-1.9c6.5-0.7,0.8,14.8-2.6,14.2c-8.9-6.9,2-5.6-3.6-9.4c-5.8,3.5-2-5.9-4.1-8.6
				C1535,410.6,1536.9,414,1540,413.8z M1519.4,414.5c3.2,1.2,0.1,4.2,3.8,5.5c-4.7,2-6.6,7.4-10.6,11.3
				C1501.3,437.8,1520.8,420,1519.4,414.5z M537,415.3c0.2,1.2-0.5,1.3-1.7,1.2C535.1,415.1,536.3,415,537,415.3z M779.9,416
				c0.1,0.1,0.2,0.3,0.2,0.4c0,0.1,0.1,0.3,0,0.5s-0.1,0.3-0.2,0.5c-0.1,0.1-0.2,0.3-0.3,0.3c-0.1,0-0.3,0-0.4-0.1s-0.2-0.1-0.3-0.2
				s-0.2-0.2-0.2-0.3c0-0.1,0-0.3,0-0.4c0-0.1,0.1-0.3,0.1-0.4s0.2-0.2,0.3-0.3c0.1-0.1,0.2-0.1,0.4-0.1
				C779.7,415.9,779.8,415.9,779.9,416z M1372.5,417.4c1.2,0.1,1.3,2.6,0.5,3.1C1371,421.1,1371.6,417.6,1372.5,417.4z
				 M1554.2,420.5c0.6,2.1,1.8,2.8,0.2,4.6c1.7,1.1,0.9-2.1,2.4-1.9c2.2,1.9-2.5,3.7,1.4,4.6c0.3,4.9,2.7,7.8,3.1,13.2
				c-4.7,4.6,0.3,7.8-5.5,1.4c-1.6,2.1,1.7,4.6,0.5,7.9c-1.6,1.3-2.3,2.1-3.1-0.5c-10.6,0.5-4.4-16.6-10.1-10.3
				c-2.5,0.1-3.2,2-4.1-1c-2,0.7-1,5.5-4.1,3.8c-1.4-5.2,8.4-15.7,11.3-8.2c1.2-0.6,0.6-3.5,3.4-2.4c1.3-1.7-1.7-2.7-0.2-3.8
				c1.3,1.1,2.3,1.8,4.3,1c-0.6-0.9-1.8-4.4,0-4.8C1553,423.4,1551.8,420.5,1554.2,420.5z M1547.9,422.2c3.4,2.9-3.2,6.5-4.1,2.9
				C1543.7,423.7,1545,421.6,1547.9,422.2z M1308.6,449.6c-7.7-4.3-4.8-15.5-3.8-22.8C1306,417.2,1326.7,448.7,1308.6,449.6z
				 M1544.1,427.5c0.4,0.5,0.4,1.9-0.2,2.2C1542.5,429.8,1542.5,427.1,1544.1,427.5z M435.5,432.8c0.8-0.1,1,1.6,0.2,1.7
				C434.8,434.8,434.8,432.8,435.5,432.8z M1379.4,435c-0.2,0.6-0.1,1.6-1.2,1.4C1377.8,435.6,1378.3,434.9,1379.4,435z
				 M419.9,440.2c-1.4,0.2-1.5-1.7-0.7-2.2C420.6,437.7,420.7,439.8,419.9,440.2z M1380.2,439.5c1.8,0,2.9,2.6,1.7,4.1
				C1380.1,443.5,1379.5,441.2,1380.2,439.5z M1509.5,440c-1.4,3.7,5.1,4.3,2.9,7.9c5-0.1,14.3,8,4.1,7.2c3.1,4.9,0.9,3.2-3.4,5.8
				c1.2,1.9,0.8,3-0.5,4.8c0.5,2.8,4.7,4.7,2.2,7.7c-0.2,1.5,6.6,4.3,6.2,6.2c-4.2,3.1-8-1.3-8.6,7.9c2.5,3.2-1,3.6-2.4,6
				c-6.2,0.1-0.9,16.5-6,17c-0.5-4.7-4.6,1.6-7.7,1.2c-0.7-7.8-4.2-2.3-8.6-6.5c-1.3,1.9-8.7,4.4-7.4-0.2c-8.6,1.5-9.8-4.5-9.6-11.5
				c-2.5,0.9-3.3-1.1-3.6-3.6c-2.6-4.6-3.7-14.2,1.9-17.5c5.9,4.9,8.3,2.9,9.4-3.8c10.9-1.4,10.7-9.6,18.7-14.4
				c4.3,1.6,1.8-3.8,5.8-4.6C1503.6,446.5,1508.3,438.8,1509.5,440z M1537.4,443.6c0.1,0.7,0,1.5-0.2,2.2
				C1533.7,447.5,1533.9,441.6,1537.4,443.6z M1533,449.4c-1,0.4-2.1,0.4-3.1,0C1529.1,446,1533.5,447.1,1533,449.4z M1419.5,471.7
				c2.1-0.7,7.8,0,6.7,3.1c0.4,1,2.8,0.1,3.6,0.7c-0.2,3.3,5.3,2.4,3.6,5.8c1,0.7,1.1-1.9,2.6-0.7c0.2,1-0.8,0.8-1.2,1.2
				c1.2,0.9,2.4,1.6,2.9,3.1c-0.1,3-3.3,4.4-1.4,6.2c7.2-1.5,3.1,7.4,8.6,8.4c-2.8-3.1,4.1-7,5.5-3.4c-1.8,4.1,6.3,6,2.2,9.6
				c-3.1-2.3-2.6,0.1-4.3,2.2c0.4,5.4,2.2,18-6.7,13c-2,4.9-6.2-5.8-9.6-6.7c-9.6-10.1-18.2-25.9-23-38.6
				c-6-7.7-18.4-14.5-19.9-24.7c2.5-1.8,9.1,3.3,12.7,1.7C1407.5,459.4,1414.2,464.7,1419.5,471.7z M1445.9,499.5
				c0.4,0.9,1.4,1.3,1.9,2.2C1448.3,500.2,1447.4,498.8,1445.9,499.5z M1527,452.5c0,0.4-0.1,0.7-0.3,1s-0.4,0.6-0.8,0.7
				c-0.3,0.2-0.6,0.3-1,0.3c-0.3,0-0.7,0-1-0.2c0-0.4,0.1-0.8,0.2-1.1c0.2-0.3,0.4-0.6,0.8-0.8s0.7-0.3,1.1-0.3
				C1526.3,452.2,1526.7,452.3,1527,452.5z M1562.3,461.6c-0.6-0.8-1.2-4.6,0.7-4.3C1564.2,458.4,1563.8,461.1,1562.3,461.6z
				 M1460.3,463c-0.6-0.7-0.9-3.5,0.2-3.8C1462.5,459.4,1463.5,463.4,1460.3,463z M913.1,465.7c-0.7-1.9,1-3.1,2.2-3.8
				C917.8,462.7,915.9,467.2,913.1,465.7z M1557.3,462.8c0,0.9,0.3,1.8-0.5,2.2C1554.7,464.2,1555.1,461.1,1557.3,462.8z
				 M1397,471.4c-1.8-0.4-4.8-1.6-4.8-3.8C1394.1,466.7,1397.5,469.1,1397,471.4z M1571.2,473.6c-2.3-3.7,2.9-6,3.1-2.9
				C1574.4,472,1572.7,473.2,1571.2,473.6z M1402,472.4c-0.6,0.5-1.8,0.2-1.7-0.7C1400.9,471.1,1402.1,471.5,1402,472.4z
				 M1570,471.7c0.2,2,0.3,3.2,0.5,5.5c3.1-5,6.1,1.6,1.9,3.4c0.8,1.3,2.5,1.6,2.4,3.8c-8.2-2.5-2.4,3.6-2.9,7.2
				c-1.6-0.8-1.8-1.8-2.9,0c-3-0.2-6.9-5-1.7-4.3C1569,483.3,1563.3,473.7,1570,471.7z M1550.6,483.4c-7.3,3-34.4-7.2-19.4,10.6
				c1.8-0.5,1.6-3,3.4-3.6c2.1,1.8,14.5-5.4,9.8,2.2c4,3.2-3.9,5.1-3.4,1.2c-6.3,4-6.8,4.2-1.7,10.3c-2.1,7.5,5.2,4.5,4.1,10.6
				c-1.9,2.2-0.3,2.1-0.2,4.8c-3.6,3.2-3.4-0.5-7.9,0.2c-1.6-3.9,3.2-0.9,3.4-5c3.5-0.4,1.4-1.5-0.7-0.7c-1.3,5-6.7,1.2-4.1-2.4
				c-1.3-1.4-3.1-2.1-3.6-4.3c1.6-2.3,0.7-6.8-1.9-3.1c0.3,6.8,0.4,23.9-7.2,14.6c7-10.3-6.1-10.5-1.2-17.5
				c3.6-6.6,3.1-15.6,7.4-21.8c2.9,0.8,4-5,7.4-1.2c5.2,0.5,11.3,2.9,15.8-0.2C1556.8,468.6,1555.4,480,1550.6,483.4z M1403.9,482.5
				c-1.7-1.5-3-3.4-3.8-5.5C1403.1,473.9,1407.8,480.8,1403.9,482.5z M1441.8,478.1c2.1,4-2.1,1.1-4.1,1.9
				C1437,477.4,1439.6,478.5,1441.8,478.1z M904,482.7c1,1.3,0.5,3.5-1.4,2.9c-0.2-0.3-0.3-0.6-0.3-0.9c0-0.3,0-0.7,0.2-1
				c0.2-0.3,0.4-0.5,0.7-0.7C903.3,482.8,903.7,482.7,904,482.7z M1409.9,484.9c-2.9,1.4-0.2,2.8-2.2,4.8
				C1405.3,489.2,1407.7,482.8,1409.9,484.9z M365.9,484.9c3.5,5.4,0-1.8,6.5,3.8c-0.7,5.3-2.3-1-4.1-0.7c3.9,5.5-7.2,6.3-2.4,1
				C363.1,489.6,363.5,484.5,365.9,484.9z M1440.9,484.9c2,0.1,4.7,3.4,1.2,2.9C1439.2,492.6,1439.4,487.8,1440.9,484.9z
				 M1588,488.5c-2.8-0.1-3.9,1.5-5.5-1.4C1582.4,483.2,1590.7,485.2,1588,488.5z M1537.4,487.5c0.1,0.3,0.1,0.5,0,0.8
				c-0.1,0.2-0.2,0.5-0.4,0.6s-0.4,0.2-0.7,0.3c-0.3,0-0.5,0-0.7-0.2C1535.3,487.4,1536.3,487.2,1537.4,487.5z M1604.1,490.6
				c1.8,2.8-1.9,10.2,1.9,10.1c1.8,1.4,0.9,5.2,3.1,5.5c2.6,0,5.3-4.5,6-6.7c4.7,0,4.7-4,8.6-5.3c8.3,4.5,19.7,7.6,28.6,12
				c5.8-0.5,11.8,9.2,15.8,7.2c-2.4,6.6,1.4,7.2,7.7,8.9c9,11.8-11.6-2.8,3.4,16.1c0.9,2.5,2.4,3,5,3.1c-1,3.3,2.3,2.8,3.8,4.3
				c-2.9,2.5,1.7,2.1,3.4,3.6c-0.2,1.7,2.1,4.2-0.5,2.2c-4.8,2.1-9.9-3.7-16.6-2.9c-4.3-9.2-18.2-23.8-22.1-7.4
				c-9.4,8.6-15.3-4-23.3-4.6c-8.1,6.3-13.2-3.1-1.9-5.8c-0.8-17.2-16-13.6-26.4-22.8c-1.4,4.7-7.7,4.1-4.8-0.7
				c-0.7-2.4-4.1-2.2-4.3-4.6c4.6-1.2,8.4-2.4,0.7-3.4c-1.4-5.6-7.3-3.1-9.1-8.9C1595,490.5,1590.3,484.2,1604.1,490.6z M1601.9,500
				c-0.7-0.5-2.3-0.1-3.4-0.2C1598.7,501.2,1601.7,501.9,1601.9,500z M1613,490.1c-0.3,2.2-2.4,1.4-2.6-0.2
				C1610.5,488.6,1612.9,489.2,1613,490.1z M377.4,489.9c0.1,0.3,0,0.6-0.1,0.9c-0.1,0.3-0.3,0.5-0.6,0.7c-0.3,0.2-0.6,0.3-0.9,0.3
				s-0.6-0.1-0.9-0.3C374.7,489.9,376.6,488.9,377.4,489.9z M1411.1,491.4c0.4,1.9,2,3.5,1,6
				C1408.7,497.5,1405.9,490.4,1411.1,491.4z M1607,491.4c1.8-0.6,2.4,1.8,0.2,1.7C1606.9,492.7,1607,492,1607,491.4z M1567.4,492.8
				c1.2,1.3,3.7,1.3,3.8,3.6C1567.2,497.3,1564.7,496.5,1567.4,492.8z M371.2,493.5c0.1,0.8-0.2,1.1-1,1c-0.1-0.1-0.1-0.1-0.1-0.2
				c0-0.1,0-0.2,0-0.3s0-0.2,0-0.3c0-0.1,0.1-0.2,0.1-0.2c0.1-0.1,0.1-0.1,0.2-0.1c0.1,0,0.2,0,0.3,0s0.2,0,0.3,0
				S371.1,493.4,371.2,493.5z M1688.1,494c1.2,0,2.1,0.1,1.9,1.4C1688.8,496.2,1687,495.4,1688.1,494z M1560.4,496.6
				c-3.6,11,0.7-3.1-9.8,2.2c-3.1-4.4,1.8-3,4.3-2.9C1556.4,497.2,1559.3,495.1,1560.4,496.6z M1618.5,496.9c-1.4,2-6.2,0.5-7.4-0.7
				C1611.7,494,1618,495.4,1618.5,496.9z M1579.8,498.4c-1.1-1.8,1.8-3.1,3.4-2.6C1584.6,498.2,1581.7,499.7,1579.8,498.4z
				 M1676.3,497.6c0.7,2.8-3.8,2.6-5.3,1.7C1671.1,497,1674.5,496.6,1676.3,497.6z M1415.2,498.4c0.2,0.6,0.5,1.9,0,2.4
				C1412.8,500.6,1412.3,497,1415.2,498.4z M1693.4,500.7c0.9,3.1-4.1,2-3.1-0.2C1691,500,1693,500.1,1693.4,500.7z M1418.8,506
				c-2.1,0.1-3.8-3.9-2.6-5C1417.5,501.6,1420,504,1418.8,506z M1460.8,505.8c-9.4,0.6,0.3-9.3,1.4-1.9
				C1462.1,504.8,1461.3,504.5,1460.8,505.8z M1695,501.7c3.7,1.5,7.6,3.7,9.6,7.2c4.9,0,2.6,11.2-0.7,4.8
				C1705.6,506.2,1695.1,506.6,1695,501.7z M1584.2,504.4c4.4,12.1-3.8,0.1-6.7,3.4c-1.8,0.3-1.8-1.3-3.6-1c0.7,2.7-2.6,1.3-4.6,2.9
				C1565.5,500.5,1578.8,502.2,1584.2,504.4z M1559.2,504.5c2.2-1.2,6.3-0.1,7,2.4C1565.9,512.7,1554.8,507.7,1559.2,504.5z
				 M1702.2,511.3c4.7,7-7.2,13.7-13.9,14.4c-2.2-2.4-8.8-1.6-8.2-6.2c7.5,1.8,12.7-6.2,10.3-0.7c3,2.2,6.3-2.3,8.4-3.8
				C1696.8,511.6,1698.7,511.2,1702.2,511.3z M1086.4,516.5c0,1.6,0.4,3.4-1.7,3.1C1084,518.4,1083.9,514.8,1086.4,516.5z
				 M1716.2,517c0.9,5,9.5,9.3,4.1,13.7C1719.7,528.2,1710.2,518.2,1716.2,517z M1673.4,517.5c0.8,0.4,1.9,0.5,1.7,1.9
				C1673.5,520.5,1672.1,518.7,1673.4,517.5z M1429.1,519.4c-0.2,0.2-0.4,0.4-0.7,0.5c-0.3,0.1-0.6,0-0.8-0.1
				c-0.3-0.1-0.5-0.3-0.6-0.6s-0.2-0.5-0.1-0.8C1427.8,517.9,1429.2,518.3,1429.1,519.4z M1597.8,518.7c0.1,6.5-7.5,3-2.4,1.9
				C1596.2,519.9,1596.2,518.5,1597.8,518.7z M1606.2,519.7c0.8,3.5-1.4,11.7-5.3,7.9C1602.6,525,1602,518,1606.2,519.7z
				 M1677.5,519.2c1.8-0.4,2,1.9,1.4,3.1C1677,522.2,1676,520.1,1677.5,519.2z M1082.8,521.3c1.2,0.8,2.1,3.1,1.2,4.6
				C1081.7,526.7,1080.9,521.8,1082.8,521.3z M1527.5,521.6c1.5,0.2,1.2,3.5-0.2,3.6C1526.8,524.5,1526.3,521.9,1527.5,521.6z
				 M1461,524.2c8.5,10.4,13.3-2.3,16.1,2.4c5.1,1.3,25,2.2,8.2,4.3c1.1,4.5,9.1-0.2,10.3,5.3c2.2-1.1,4.6-1.4,5.5,1.4
				c-1.4,3.7-3.8,2.8-6.5,0.5c1.1,5-5.3,0.4-7.4-0.5c-7.3,2-15.5-1.2-22.3-3.8c-4.8,1.3-10.7-0.7-14.9-2.2c0.7-3.8-3.9-2.3-6-3.4
				C1447.5,520,1453.5,522.2,1461,524.2z M1730.3,531.9c-2.9,0.8-6-2.5-6.2-5.3C1727.5,526.1,1728.9,529.6,1730.3,531.9z
				 M1500.4,529.3c-0.4,0.4-1.4,0.2-2.2,0.2C1497.2,527.6,1500.9,526.3,1500.4,529.3z M1590.2,529.8c-2.1,4-4.7,9.5-5.8,2.4
				C1585.8,532.3,1587.5,528.3,1590.2,529.8z M1561.1,532.3c2.5,3-6.1,5.5-5.3,1.2C1557.4,533.3,1559.2,531.9,1561.1,532.3z
				 M1741.8,538.9c-2.4-0.3-10.6-6.7-5.3-6.7C1737.8,534.6,1743.5,535,1741.8,538.9z M1724.1,532.3c2.6,0.1,2.9,3.3,6,2.6
				c2.6,2.5,3.9,8.3-0.5,3.6c-0.5,0-0.1,1-0.2,1.4c-2.4,0.2-1.3-6.8-4.8-3.8C1724.6,535.3,1723.3,533.9,1724.1,532.3z M1578.4,535.5
				c-0.3,0.2-0.7,0.2-1,0.2c-0.3,0-0.7-0.2-0.9-0.4C1576.2,532.7,1579.4,533.8,1578.4,535.5z M1519.6,536.7c-1.1,5.2,8.8-3.5,12,1.4
				c3.6,0.8,22.5-6.1,20.2,0.5c-8.4-0.8-11.3,1.8-19.7,2.4c-8,0.8-14.9-2.6-22.6,1.7c-4.4,1.5-3.2-4.8-4.8-1c-6,1.3-3-7,1.4-5.3
				C1505.2,539.7,1512.7,534.2,1519.6,536.7z M1568.8,537.2c-0.4,0.3-0.8,0.4-1.3,0.3c-0.4,0-0.8-0.3-1.2-0.6
				C1566.2,534.8,1569.3,534.8,1568.8,537.2z M1584.9,536.2c0.3,1.3-0.7,1.7-1.7,1C1583.2,536.3,1583.9,536.1,1584.9,536.2z
				 M1564.2,537.4c-1.6,5.1-8.7,4.4-12.5,7.2c-1.6,3.8-5.7,5.9-9.6,6c0.1,1.8-1.4,3.2-4.1,3.1C1542.3,545.6,1552,535.8,1564.2,537.4
				z M1747.8,537.2c0.6,3.4,3.5,6.1,3.4,9.4C1748.3,546.7,1742.8,536.9,1747.8,537.2z M1693.1,544.6c-1.3,2.6,3.5,2.8,0.7,4.6
				C1689.9,546.9,1684.2,539,1693.1,544.6z M1746.9,547c-2.6,2.2-9.3-1-6.5-4.1C1743.1,543.6,1747.5,543.8,1746.9,547z M1528,549.2
				c-3.2,1.8-5.4-1.1-7-2.4C1509.5,543.8,1530.2,540.3,1528,549.2z M1754.3,553.5c-0.7,0.1-1.3,0-1.9-0.1c-0.6-0.2-1.2-0.5-1.7-0.9
				s-0.9-0.9-1.3-1.5c-0.3-0.6-0.5-1.2-0.6-1.8C1751.5,548.7,1754.8,550.7,1754.3,553.5z M1534.2,550.3c0.4,1.6-1.2,1.7-2.2,1
				C1531.8,550.1,1533.5,549.9,1534.2,550.3z M1643.9,551.3c6.7,3.1,5.7,16.6,6.5,23.8c6.9-3.6,9.2,7.5,7,12.2
				c3.1,5.4,2.1,11.1,1.9,15.8c2.4,3.1,14.4,6.6,11,11c3,2.8,1.2,7,2.6,10.3c1.1-0.6,1.6-2.3,2.9-0.2c6.3-1-1.7,7.2,3.4,7.2
				c0.5,0.8-0.2,1.6,0.2,2.2c5.9,4.9,6.9,12,4.8,19.2c-1,7.7-2.9,16.3-8.9,22.8c-7.1,16.2-28.1,25.3-35.3,42.5
				c-5.8,4.9-19.2,3.6-24.2,10.8c-1.3-1.4-3.9-1.4-3.8-4.1c-1.7,0.5-1.9,1.1-3.1-0.5c-5,1.3-7.3,5.4-11.5,0.2
				c-20.4,0.5,0.6-18.7-13.7-17c-1.3,3.2-5.1,2.2-8.2,2.9c-3.3-6.3,14.2-0.5,11.5-10.6c-2.6,2.7-5.1,6.1-9.1,5.5
				c-0.1-2.3,1-3.3,3.4-3.1c2.2-3.3,5-6.2,6.7-10.1c-4.1,2.5-8.4,6.4-12.7,8.6c0.6,4.9-3.4,1.8-4.6,0c2.4-2.8,1.3-4,1.2-7.7
				c-4-1.5-0.9-4.1-2.9-7c-3,1.2-3.9-2.8-6.5-0.5c-12.6-9.3-40.7,4.1-52.1,12c-9.4-3.1-20.2,0.3-27.8,6c-6.4,2.5-20-3.3-14.2-9.6
				c10.3-2.6,4.6-18.9,7.4-27.1c-0.8-3.1-6.6-24.2-1.7-17.3c-2.7-5.8,0.6-7.6,2.4-0.7c1.4-4.8-2.5-7.9-1.7-13.7
				c4.1-3.6,1.6-12.7,7.2-14.2c0.3,5,10.9-8.8,17.3-7.9c2.6,1.4,8-2.2,11-4.1c9.4,1.7,13.1-5.9,18.7-11c-1.8-5.9,2.9-7.8,5.5-10.8
				c2.4,1.9,0.2,5.5,4.1,3.8c-1.2-1.2-1.7-4-0.2-5.3c8.1,2.2,1.5-4.3,9.4-7.4c0.1-2.6,3.4-4.8,4.8-3.4c0.2-2.2,2-4.4,3.8-1.9
				c2.5-4.8,7.3,0.3,8.6,4.8c2.5-2.2,9.7,2.7,5.8-3.1c1.5-2.4,3.1-4.8,5.3-6.5c-0.3-10.7,16-3.8,14.4-10.6
				c-10.3-1.7,3.5-5.8,1.2-1.9c5.4,2.1,11.1,7,17,3.1c-0.1,5.3,3.6-2.2,5.5,2.6c-0.5,4.1-2.9,6.2-6.2,7.7c1.3,3.6-2,6.2-3.6,8.4
				c6.8,7.7,15.4,11.2,21.8,17.5c10.7-3.2,10.3-20,12.5-29C1640,561.6,1643.7,556.4,1643.9,551.3z M1610.1,723.2
				c0.2,0,0.4,0,0.6-0.1c0.2-0.1,0.3-0.2,0.5-0.3s0.3-0.3,0.3-0.5c0.1-0.2,0.1-0.4,0.1-0.6c-0.2,0-0.4,0-0.6,0.1
				c-0.2,0.1-0.3,0.2-0.5,0.3s-0.3,0.3-0.3,0.5C1610.1,722.8,1610.1,723,1610.1,723.2z M1585.6,555.4c1.2,4.6-4.9,5.3-8.6,3.8
				C1577.6,553.8,1581.4,555.3,1585.6,555.4z M1105.1,560c-0.9,0.4-1.4-0.3-2.2-0.7C1101.5,554.7,1106.9,556.2,1105.1,560z
				 M1703.9,556.2c2-0.4,3.5,0.8,2.4,2.4C1704.8,558.5,1703.7,557.9,1703.9,556.2z M1136.3,560c4.2,2.3,9.7,30.5,2.4,23
				c0.7,13.8-3,3-2.4,14.9c-9.2,15.1-6.2,42.4-25.4,47.5c-7.2-1.8-10.2-7.5-8.9-14.9c-3.1-4.3-2.1-7.9,0-12.5
				c8.5-6.6,3-16.7,3.8-25.4c4.2-9.7,8.4-7.1,16.8-12.5c7-4.2,3.8-13.5,7.9-10.1c-1.3-1.8-0.3-3.7,1.2-1.4
				C1135.2,566.5,1132.4,561.6,1136.3,560z M1779,570.5c1.3-0.4,1.5,1.1,1,1.9C1778.7,572.7,1778.6,571.3,1779,570.5z M1780.2,574.6
				c-0.3,0.2-0.6,0.3-1,0.3s-0.7-0.1-1-0.3c0-0.2-0.1-0.3,0-0.5c0-0.2,0.1-0.3,0.2-0.4s0.2-0.2,0.3-0.3s0.3-0.1,0.4-0.1
				c0.2,0,0.3,0,0.4,0.1c0.1,0.1,0.3,0.2,0.3,0.3s0.2,0.3,0.2,0.4C1780.3,574.3,1780.3,574.5,1780.2,574.6z M1773.3,576.8
				c3.5,0.7,5.3,7.2,0.2,6.5C1772.4,582.3,1772.5,578.1,1773.3,576.8z M1781.2,579c3.5,0.2-3.3,6.3-2.4,1.7
				C1779.8,580,1781.1,580.7,1781.2,579z M1781,585c-0.3-0.5-0.3-1-0.3-1.5s0.3-1,0.7-1.4C1782.8,582.1,1782.9,585.5,1781,585z
				 M1776.6,584.2c1,5.1,5-1.5,4.6,3.4C1775.3,591.3,1773.1,584,1776.6,584.2z M1844.6,586.2c0.2,5.2-4.4,3.9-7.7,5.5
				C1832.5,588.8,1842,585.8,1844.6,586.2z M1835.2,598.3c-1.7,0.7-3.2,1.6-6,1.2C1821.4,595.3,1838.2,588.3,1835.2,598.3z
				 M1781.2,596.2c-0.4,0.3-0.8,0.5-1.3,0.5s-0.9-0.2-1.3-0.5c-0.1-0.2-0.1-0.5-0.1-0.7c0-0.2,0.1-0.5,0.2-0.6s0.3-0.3,0.5-0.5
				c0.2-0.1,0.4-0.2,0.7-0.2s0.5,0.1,0.7,0.2c0.2,0.1,0.4,0.3,0.5,0.5c0.1,0.2,0.2,0.4,0.2,0.6
				C1781.3,595.8,1781.3,596,1781.2,596.2z M1781.2,601.3c2.2-0.6,2.8,1.5,1.7,2.6c-0.3,0.1-0.7,0.1-1.1,0c-0.3-0.1-0.6-0.3-0.8-0.7
				c-0.2-0.3-0.3-0.7-0.2-1C1780.8,601.9,1780.9,601.5,1781.2,601.3z M1832.3,603.7c0.2,1.3-1.8,1.4-2.6,1
				C1829.3,603,1831.7,602.8,1832.3,603.7z M1783.4,606.1c0.4,2.1-1.1,2.3-2.2,1.2c-0.1-0.3-0.1-0.6-0.1-0.9
				c0.1-0.3,0.3-0.5,0.6-0.7c0.3-0.2,0.6-0.2,0.9-0.1C1782.9,605.6,1783.2,605.8,1783.4,606.1z M1177.4,613.8c-1.4-1.6,0.6-3,1-4.3
				C1181.6,609.3,1180.2,614.4,1177.4,613.8z M1752.4,610.6c6.5,2.4,9.2,8.7,13.9,13.2C1760.8,627.5,1752.5,616,1752.4,610.6z
				 M1770.2,616.9c-0.2,0.2-0.3,0.4-0.6,0.5s-0.5,0.2-0.8,0.2c-0.3,0-0.5-0.1-0.8-0.3c-0.2-0.2-0.4-0.4-0.5-0.6
				C1766.9,614.4,1770.3,612.7,1770.2,616.9z M1169.2,618.5c-0.8,0.3-1.6,0.4-2.4,0.1c-0.8-0.3-1.5-0.8-1.9-1.6
				C1165.2,613.8,1170.7,615.4,1169.2,618.5z M1773.3,618.8c0.2,1.3-0.3,2.1-1.9,1.9c-0.2-0.1-0.3-0.3-0.4-0.4
				c-0.1-0.2-0.1-0.4-0.2-0.6c0-0.2,0-0.4,0.1-0.6s0.2-0.3,0.3-0.5s0.3-0.2,0.5-0.3c0.2-0.1,0.4-0.1,0.6-0.1c0.2,0,0.4,0.1,0.6,0.2
				C1773,618.5,1773.2,618.6,1773.3,618.8z M1768,699.4c0.2,4.3,5.7,3.8,4.3,8.4c-2.2,2-3.4,11.6,0.2,4.6c4.2,2.3-2.9,7.2,3.1,8.9
				c11.9-5.9,10.3,0.3,2.2,5.5c-1.9,1.8-1.7,4-4.1,1.9c-5.9,3.2-8.5,9.2-15.6,12.5c-11.5,9.1-4.4-5.5-14.4,5.5
				c-3.2,4.7-13.2,5.5-12.5,11.3c-2.8,1.1-5.3,0.2-8.2,1.7c-9.7,3.8-20.9,22.7-31.7,13c-20.9,2.1,48.1-29.5,51.6-35.5
				c2.8,8.1,4.9-3.2,6.5,4.6c14.1-7.3,1.2-7.2,4.8-13.4C1773.1,725.2,1760.7,701.5,1768,699.4z M1767.3,711.9c0.7,0.3,0.7-1.1,0-0.7
				V711.9z M1775,709.8c0.7,1.1,0,2-1.4,1.7C1773.4,710.3,1773.9,709.8,1775,709.8z M1602.2,731.3c0.7,2.1-0.9,3.7-2.9,3.8
				c-0.1-0.5-0.2-0.9-0.1-1.4c0.1-0.5,0.3-0.9,0.6-1.3s0.6-0.7,1.1-0.9C1601.2,731.5,1601.7,731.3,1602.2,731.3z M1620.2,732.3
				c3.9,0.3,1.3,3.3,1,5.3C1617.3,739,1620.1,734.5,1620.2,732.3z M1607.7,741c24.8-8.9-0.7,19.1-10.6,15.4
				C1597.6,750.8,1597,731.2,1607.7,741z M506.6,757.5c0.1,1-0.5,1.3-1.4,1.2C504.2,757.7,505.6,756.7,506.6,757.5z M1691.9,775.5
				c-0.2,2.9-2.5,3.8-5,2.9C1687.8,776.7,1690.1,774,1691.9,775.5z M603,806.2c-3,0.8-9,6.5-8.2,0.2c-1.7,2.1-7.3,3.7-7.2-0.5
				c1.8,0.5,3,2,2.2-1c0,0.2-0.6-1.3-0.7-1C591.4,802.5,603.5,800.9,603,806.2z M711.8,824.5c-2.3,0.9-4.6-1.8-6.7-2.9
				C691.9,818.8,711.4,817.2,711.8,824.5z M582.2,824.2c-0.9,0.3-2.7,0.9-3.4,0C578.7,822.8,582.2,822.9,582.2,824.2z M570.2,829.3
				c-0.1,0.8-0.9,0.9-1.7,1C567.3,829.1,570,827.6,570.2,829.3z M682.2,858.1c-1.2,1.7-4.5,0.3-4.3-1
				C678.2,855.1,681.8,856.5,682.2,858.1z M683.4,858.3v-0.7C685.3,856.5,685.3,859.4,683.4,858.3z M641.4,859.8
				c0.3,1.9-2.5,2.5-3.6,1.4C637.1,858.8,640.5,858.9,641.4,859.8z M645.3,860.7c0.1,1-1.2,0.9-1.4,0.2
				C643.8,860.3,645,860.3,645.3,860.7z M631.4,864.5c-2.7,4.5-10.1,4.5-14.2,6c-0.5-2.7,3.2-4,5-2.6
				C625,866.6,628.4,862.8,631.4,864.5z M1294.2,878c1,3.5-4.4,3.2-5.3,1.4C1287.8,875.1,1292.7,875.9,1294.2,878z M633.3,882.3
				c0.4,1.6-1,1.7-2.2,1.2C630.7,881.9,632.4,881.9,633.3,882.3z M1301.2,883.8c1.3,2.7-5.6,4-5.3,0.7
				C1297.8,884.3,1299.3,882.3,1301.2,883.8z M609,884.5c0.1,1.5-0.3,2.6-1.9,2.4C606.3,885.3,607.3,883.4,609,884.5z M1280.3,887.6
				c0.5,2-1.9,2.4-2.9,1.4C1276.9,887.1,1279.4,886.6,1280.3,887.6z M607.1,889.5c-1.2,0.2-1.4-0.7-1.7-1.4
				C605.9,886.4,608.1,888.3,607.1,889.5z M589.4,909c-1.2,2.2-3.9,0.9-6,0.2C583,906.1,589.2,906.9,589.4,909z M584.8,914
				c3.7-5.5,18.4-0.3,5,0.7C587.9,915,585.7,916.6,584.8,914z M586.5,920.5c0,3.8-3.2,0.9-5.5,1
				C581.1,918.5,584.7,920.3,586.5,920.5z M522.4,921.9c-0.1,1.1-2.6,0.8-3.4,0.5C518.4,920.6,522.2,920.8,522.4,921.9z
				 M527.9,921.7c-0.1,0.4-0.3,0.8-0.6,1s-0.7,0.4-1.1,0.4C525.6,922.3,527,920.8,527.9,921.7z M487.8,925.3c-1.3,1-3.9,0.3-3.8-1.4
				C484.9,922.2,487.8,923.7,487.8,925.3z M809.2,929.3c0.4,2.1,3.2,6.3-0.7,3.4C803.1,932.3,805,928.7,809.2,929.3z M1490.1,944.5
				c0.5,3.8-8.1,0.6-15.1,5C1477.1,943.3,1484.4,943.3,1490.1,944.5z M740.1,955.8c-0.2,5.7-44.3,8.5-35.3,1.4
				c10.5,1,4.1-4.6,8.6-8.9C724.2,944.7,733.3,947.9,740.1,955.8z M335,953.8c-3,2.3-18.1,0-16.8-5.5
				C323.5,948.8,331.2,950.6,335,953.8z M755.2,951.2c-3.9,0.8-11,0.9-13.9-1.2C744.8,948.2,752.1,949.8,755.2,951.2z M651.5,949.5
				c-0.8,3.9-9.1,9.2-12.7,4.1C640.9,949.7,647.1,949.2,651.5,949.5z M683,960.5c-6.5-1.9-19,2.2-23.3-3.8c5.2-0.4,11,1.1,16.8,0.5
				C677.2,950.7,687.8,957.3,683,960.5z M959,13.3c3.1,0.5,21.7-2.5,22.3,2.2c-10.1,4.8-19.6,2.7-30,0.5c7.1,4.5,18.5,4.4,23,9.4
				c-4.4,1.9-9.3,2.2-13.9,1c2.6-3-1.7-5.2-5.5-4.6c-3.2,2.3-6.8,10.7-11,8.2c-8.1-0.4-8.6-9.3-15.8-7c-2.6-0.6-6.6-5.1-1.2-2.9
				c-4.6-4.3-0.3-5.9,5-4.8c1-0.4,4.3-2.3,4.3,0.5c0.9-0.4,1.9-0.5,2.8-0.4s1.9,0.4,2.7,0.9c0.8-3.5,6.4-2.1,8.2-0.2
				c-0.5-2.1-0.8-4.7,2.2-2.6C953.9,12.8,958.3,10.7,959,13.3z M937.9,21.9c0.5,0.4,1.8,0.2,2.6,0.2C940.8,20.6,937.7,20,937.9,21.9
				L937.9,21.9z M792.9,50.7c14.7,5.4,0,16.3-5,6.5c-6-3.7-1.8,1.9-5,2.6c0.8,1,3.7,0,4.1,1.4c27.7-2-29.9,16.5-33.8,10.6
				c-7.3,7.2-18.6,12.7-28.8,14.9c-10.4-3-12.7,6.8-19.2,12.7c-9.5,3.6-10.6,16.1-19.4,19.2c-10.3-2.3-3.3-8-17-5.3
				c1.4-3.9-3.5-3.8-2.9-8.2c-2-0.9-2.8-2.2-1-3.8c-5.2-4.7-0.1-5.8-3.8-8.2c0.2-2.6,2.8-4.1,1-7c-3,2.7-0.6-2.3-1.9-4.1
				c3-2.4,0.9-8,6.2-9.1c2.8-6.8,14-0.1,12.7-9.6c-5.4-2.4,2.6,1.2-5.8,3.4c-17.3,1-2.1-13.1,7-7.7c0.7-3.7-4.3-0.9-3.6-4.8
				c-2.4,0.2,0.8,4.1-3.1,3.4c0.4-3.6-4.9,0-6-3.6c1.4-2.1,3.6-2.2,2.6-5.5c0.6-0.6,1.3,0.1,2.2,0c-0.1-6.6,2.1,1.8,1.2-4.8
				c-3.2,1-1.4,0.3-2.6-2.2c1.9-0.5-0.1-2.3,2.4-2.6c-8-14.9-31.7,0.7-39.8-9.1c-5-0.7-1.3-2.8,0.2-4.6c1.9-0.3,2,1.2,3.8,1
				c-22-9.3,22.3-4.9,27.4-11.3c-3.8,0.1-9.9-1.2-2.6-3.1c-6.5-0.3-11.8,2.6-18.2,4.1c-7.3,0.7-15.1,1.9-21.1,6.7
				c-6.7,1.4-14.5,2.7-19.7,5.3c7.7-1,1.5,4.1-2.6,2.9c-2,0.5-2.9,4.5-5.5,2.9c2.9-4.3-0.6-0.3-3.4-1.2c1.3-4.1-13.3,0.4-17-0.7
				c-3.1-1.4-6.4,1.2-9.1-1c-1.6,0.8-1.9,0.1-3.4-0.2c-0.7,1.4-0.7,2.7-3.4,2.2c8.8,6.5,27.4-5.7,34.6,3.8c0,5-66.1,7-45.4-2.4
				c1.6-4-4.2-1.9-6.5-2.4c-0.4,2.9-0.8,6.5-3.6,7.9c-4,0.8-7.2-2-8.2,1c-1.2,0.1-1.2-1.5-0.5-1.9c-0.6-1.4-1.7-2,0.2-2.9
				c-3.3-0.2-18.2,5.2-14.2-0.2c-3.2,0.3-7.6,0.1-9.4-3.6c3.5-4.4,7.3-3.2,8.4,1.2c1.5-1.7,1-3.6,4.6-2.9c0.8-1.5,9.1-2.7,8.4-0.5
				c13.3-2.5-5.8,6.9,11.5,4.3c2.5-3.1-1.4-2.7-1.7-6c7.4-2.5,15.3,1.2,22.1,1.7c1.1-1.2,3.2-2.8,4.3-0.7c3.9-1.8-2-1.5-3.4-1.9
				c0.3-3.1,9.2-4.2,6.5,0c3-0.5,8.2,1.6,7-2.6c1-1.7,5-0.4,5.8-2.4c-3.2,0.4-9,0-11.5,1.4c-14.8-3.7-11.3-11.5,2.4-13.9
				c1.9,1.2,2.9-0.1,4.1-1.4c4.3-0.6,19.1,8.2,11.8,2.2c-4.7-6.7,15.8-3.3,21.1-5c12.1-1.4,30.4-4.7,42.2-2.2
				C664,0.1,681.3,3.3,693,6.3c9-2.2,18.2-0.8,25.2-1c5.1,3.3,2.2-4.1,15.8-0.2c-7.5-3.7,32.1-4,36.5-4.1c16.4-2.5,33.3,0.1,49,2.6
				c-0.4,3.6-4.4,0.1-3.1,4.6c4.2,1.3,7.4-6.9,6.2,0c8.8-1.3,16.5-3.1,26.4-0.7c-1.6,3.8-10.9,3.1-14.9,4.3
				c-3.6,5.1-15.8,1.3-13.9,8.9c-4.4-3.4-12.8,3.6-2.9,2.4c2.1,1.6,2.3,2.5-0.5,2.9c1,0.6,3.5-0.1,4.6,0.5c2.2,1.4-3.4,5.9-4.3,6.2
				c0.4-3.8-3.2-5.6-6.2-3.1c2.6,1.4,6.3,6.2,1.2,7.9c5.5,2.8,2.3,3.6-3.4,4.6c-0.3,5.2-6.3,2.8-8.9,4.8
				C801.9,52.2,796.5,52.9,792.9,50.7z M805.9,7c0.4,0.2,0.9,0.3,1.3,0.3c0.5,0,0.9-0.1,1.3-0.3C808.6,5.8,806.2,6.5,805.9,7
				L805.9,7z M677,7.8c-8.5,0.8,3.9,2.1,6.7,1.4C689,5,680.5,8.2,677,7.8z M666.2,10.6c-7.7,0.7,4.3,0.8,6.2-0.7
				C670.2,9,668.2,10.3,666.2,10.6L666.2,10.6z M591.3,12.8c-0.2,0.2-0.4,0.4-0.5,0.6c-0.1,0.3-0.1,0.6-0.1,0.8s0.2,0.5,0.4,0.8
				s0.5,0.4,0.7,0.4C593,12.9,595.8,12.3,591.3,12.8L591.3,12.8L591.3,12.8z M581,24.1c1.3,1.2,2.6,2.7,3.1-0.2
				C583.4,23.2,581.3,23,581,24.1z M809.5,30.5c-0.7-0.2-1-0.8-1.9-0.7C807.1,31.4,809.2,31.7,809.5,30.5L809.5,30.5z M521.2,32.2
				c0.1-1.3-0.7-1.7-1.7-1.9c0,0.2,0,0.5,0,0.7s0.2,0.5,0.3,0.6c0.2,0.2,0.4,0.3,0.6,0.4C520.7,32.2,521,32.2,521.2,32.2z M794.3,45
				c0-0.6-0.4-0.8-0.7-1C792.9,44.6,793.8,45.5,794.3,45z M789.3,46.6c0.2,2,1.6,1.9,2.2,0.2C791,46.5,789.9,46.1,789.3,46.6
				L789.3,46.6z M1666,85.8c-12.1,2.3,6.2,4.2-1,7.9c-8.4-2-15.5-3.1-22.8-7c-4.3-0.1-7.9,1.6-11.8-1.2c2.4,3.9,0.1,6.9-5.8,6.2
				c3.1,1.8,7.6,1.4,11,3.8c0.4,3.2,14.8,3.7,10.3,8.9c-7.8-3.1-10.4,0.5-17.3,3.4c-6.9,8.1,1.4,12.8-9.4,7.7
				c-12.2-5.6-7.6,7.8-15.8-0.2c0.7,8.4-11.8-4.2-4.1,7c-2.2,9.9,9.9,3.2,9.8,10.3c1.1,0.4,2.2,3.4,4.3,2.6c14,8.4-10.2,1,7.4,11.8
				c2.9,5.1-12.3-0.1-2.9,7.9c1,0.6,2.4,0.8,2.2,2.6c-1.6-0.6-4.2-1.2-4.1,1.9c2.9,3,3.4,5.7,1.9,9.4c-1.8,1.7-1.5,3.9-2.2,6.5
				c-5.5,2.6-2.5-4.1-0.2-5.5c-13.3-12.1-31.2-23.2-36.5-40.1c7.2-0.9,5.6-9.4,6.2-14.9c5.9-5.1,1.2-4.4-2.6-10.3
				c1.7-2.8-1.7-1.3-3.8-1.7c-0.7,3.2,4.9,2.8,4.6,5.8c-7.8-1.2-1.9,13.8-14.4-1.4c-3.2,1-8.1-0.6-12,1c1.8,3.4-4.5,13.4,2.9,11
				c9.9,4-10.9,5.8-13.7,3.8c1-2.8-2.5-3.2-4.6-2.2c-7.1-4.3-5.5,2.1-10.6,0.2c-3.7,0.9-8.1,2.1-11.3-0.2
				c-16.5-0.3-11.1,4.2-17.8,15.1c1.8,7.1-11.7,12.9,3.4,12.2c1.9,0.9,1.8,3.6,3.8,4.3c-1.1-2.3-0.1-1.3,0.5-3.4
				c-6.8-0.7-3.6-8.2,0.2-2.4c-0.2,3,1.3,4.2,3.1,5.5c-0.1,4.9,3.9,0,2.6-2.4c2.1,0.9,4.4,0,6.7,0.5c2.9,3.5,8.5,3.8,11.5,6.5
				c0.3,1.5,2.2,5.3,4.6,5.3c-0.5-3.2-6.7-5.5-2.6-8.6c-0.9-1.2-6-2.9-1.9-4.3c12,11.5,23.4,23.6,35.3,34.8c-8.7-5.9-10.4-3.7-6.2,5
				c3.2,3.4,10.9,5.2,10.8,10.1c-4.1-2.2-6.6-4.3-5.3,1.7c-4.9-1.5-7-9-9.1-13.4c-4.2-4.6-23.2-33.7-18.2-15.4
				c11,10.1,7.9,26,2.9,38.9c0.1,12-9.8,8.7-16.8,8.2c0.4,3.6-4.5,4.6-4.3,7.7c4,4.1,0.7,9.6-4.6,11.5c2.9,8.1,17.6,11.8,19,22.6
				c4.7,1.6,0.2,11.6-2.9,7.9c-2.4,1.1-7.9,6.2-10.3,2.2c0.2-0.6,1.2-0.4,1.2-1.2c-2.8,0-2.1-5.2-1.7-7c-2.3-3-7.1-5.3-3.4-8.2
				c-3.3-5.7-8.5-1.9-12.5-5.8c1.2-14.9-11.8-11.1-19.7-3.6c-3.1-1.1,0.3-2,0.5-3.6c-3.2-0.6-2.7-3-1-4.8c-4-15.9-9.6,10.3-17.5,6
				c-0.2,4.8,3.9,6,8.2,5.5c2.8,1.1,1,7,6,6c0.7-3.5,4.1-5.4,6.5-3.1c2.7,1.3,5.7,0.9,8.4,1.4c0.2,2.4,1.8,5.4-2.2,3.8
				c-4.8,2.5-8.6,6.6-8.9,12.7c6.2,1.3,10.5,7.3,13,12.7c4.7,2.6,8.6,6.1,8.9,11.8c-0.5,1.5-4.6,1.4-4.1,3.6c2.6-0.3,4.3,0.2,5,1.7
				c2.4-1.9,4.2,0,1.7,2.2c3.7,1.9-5.3,21.6-6.5,19c2.2,5.1-0.6,13.2-6,13.7c1.1,2.9-3.1,4.8-5.3,6.2c-1.1,2.8-1.9,4.2-5.3,4.1
				c-7.5,0.8-7.2,6.9-11.5,0.7c4,8.6-20.2,3.9-13.9,13.9c-4.5,4.4-6.1-3.5-6-6.7c-2.5,1.4-3.4,0.2-5.5-1.2c-3.2,1.2-5.8,4.8-9.1,5.5
				c-12.6,15.9,11.1,23.3,16.6,36c4.3,8.7,7.2,21.6-2.9,27.1c-2.8,2.7-7.2-0.6-6.2,4.1c-3.3,6-14.8,15.8-10.3,0.2
				c-3.6-2.6-3-3.7-5.3-0.7c-1,0-0.6-1.5-1-2.2c-2,0-2.1-1.2-1.4-2.9c-5.3,3.7-2.3-9.7-7.9-6.7c0.2-5.6-6.5-2-8.4-4.8
				c-0.5-10.2-5.3-0.4-3.6,4.6c-8.7,14.5,4,17,4.6,29.3c6,3.2,13.7,7.5,16.6,14.9c-0.4,10.4,14.5,32.4-6.7,17.3
				c-8-6.7-9.7-17.2-12.2-26.6c-0.9,3-4.7-1.9-0.5-0.7c-1.8-1.8-3.1-3.9-4.1-6.2c-4-2.6-2.4-6-5.5-1.2c-1.3-4.3-1.1-9,0.5-13.2
				c-1.9-3.7,0.5-6.3-0.2-10.3c-4,0.9-3.2-1.3-0.5-2.4c-2.5-0.7,0.5-1.1,0-2.6c-2.7-0.2-3.4-2.5-0.2-2.4
				c-4.2-8.4-6.6-19.4-11.3-27.6c-2.6,10-19.1,14-13.7-2.2c-2.8-14.1-8.4-1.9-6.2-13c-11-6.5-8.4-10.7-14.6-17.5
				c-0.1-4.1-1.3,0.1-1,1.9c-1.8-0.4-1.9,1.1-3.4,0.5c-1.2,1.8-1.6,1.6-3.1,0.2c-1.2,1.4-3.5,1.8-5.5,2.4c-2.2-1.7-1-0.3-3.6,0
				c-1-2.8-3.4,1.1-6,1.4c1.2,5-2,12.1-7.9,10.1c-1.8,7.2-9,12.3-14.2,17.3c2,6.7-15.6,5.2-10.1,14.2c2.3,9.9-1.3,16.8,0,26.9
				c-2.5,0.8-5.5,3.3-4.3,6.7c-2,1.2-4.9,1.5-4.6,5c-10.6,10.6-13.8-21.6-20.6-27.1c-5.8-17.8-16.2-36-15.6-55
				c-6.3-6.7,3.7,4.3-9.4,6.5c-3.6-1.5-12.3-8.3-10.8-11.8c2.2,0.9,5.2,0.2,6-1.7c-6.2,1.4-15.9-5.9-17.3-11.8
				c-7.8-5.2-1.5-5.7-14.4-2.9c-5.7-1.8-12.7,1.3-19.2,0.2c-3.1-1.3-6.5-1.8-9.8-1.4c-23.8-3.4-1-16.1-24.2-6.7
				c-12.6-3.6-20.5-12-27.6-22.8c-5.2,1.4-1.8-2.1-7.7,1c0.5,3-3.9,1.6-0.5,4.6c3.3,8.8,11.2,14.8,14.6,23.3c2.6-8,5.5-3.5,6,1.9
				c-1.8,3,0,4.9,1.7,7c20-2.5,9.6-3.4,23-14.6c-0.3,7.9,2.8,16.6,13,16.6c8.2,6.1,8.3,11.9,1.7,19.2c4.5-0.7,1,4.3-3.1,1.2
				c-1.7,15.5-0.1,4.1-8.9,16.1c-4.9-1.7-3.6,4.9-7,6c-4.4-0.5-11,1.4-13.9,5c1.1,6.7-11.1,6.8-15.4,9.1c-5,6.9-16.6,5.7-23.8,11.8
				c-15.3,5.8-9.2-21.6-15.6-29c-5.8-11.5-19.3-18.3-18.7-32.2c-1.8-6.8-7.8-8.9-11-14.4c-1-3.8-11-25.3-16.6-17.8
				c-12.5-9.6,20,39.9,18.2,42c0.4,14.5,11.7,20.3,15.1,34.6c1.6-1.2,1.5-6.1,3.4-0.5c-5.4,1.6,9.4,7.3,11,11.8
				c2.1,4.2,11.6,8.4,3.4,12c5.9,0.2,4.4,7.9,11.3,7.2c8.5-5.1,19.3-4.2,29-7.2c6.4-7.9,5.1,5.2,6.5,8.2c-0.4,0.7-1.3-0.1-1.9,0
				c0.9,7.9-5.4,11.5-6,17.8c-12.1,31.8-45,47.1-57.8,76.3c-4.9,15,3.5,6.5,0.7,25.4c7.3,11.2,6.7,25.3,6,38.4
				c-2,13-19.4,12.7-24.5,23.8c-11.2,4.9-7.7,10.4-6.5,19.7c6.3,19.7-8.1,14.9-15.1,25c4.3,4.1-1.7,10.3-1.9,15.8
				c-2.3,2.4-5.6,2.9-7,6.2c-7.3,14.7-21.5,26.2-36.7,29c-10.5-5.4-23.1,9.1-30.7-0.5c-0.5-0.6-0.5,1.4-1.7,1
				c-1-1.4,0.4-2.2,0.2-3.6c-0.5-2.6-2.2-3.2-2.6-5.3c5.7-10-7.7-24.6-13-34.6c-1.9-9.8-4.8-19.5-3.8-29.5
				c-4.9-12.4-17.8-26.1-14.4-39.6c-0.6-5.5,3.6-11.1,3.4-16.8c2.8-4.4,6.3-7.4,7.7-12.2c1.3-6.3-7.9-13.2-2.6-18
				c-4-15.2-8.7-28.6-20.9-39.6c-5.9-10.1-0.8-9.1-1-18.2c0-0.9,1.7-0.1,1.4-1.2c-3.9-3.6,5.5-11.9-0.2-17.8c1.5-3.5-4,0.3-3.4-4.8
				c-6.1-2.9-15.5,5.3-19.2-2.4c-0.6-4.1-3-9-7.9-9.4c-12.6-0.2-22.2,5.1-32.9,10.6c-9.4-6.3-19.5-3-29.3,1.9
				c-9.1-0.2-14-10.4-21.6-14.2c-5.7-5.1-11.8-6.8-10.6-16.1c-3.3-5.7-10.9-8.8-11.8-15.8c-1.8-0.5-1.6,1.1-2.4,1.7
				c-1.1-0.3,0.5-1.1-0.2-1.7c-2.3-0.6-2.9-2.7-4.3-4.1c0.3-1.9,0-3.4-0.2-5.8c3-2.9-0.6-6.7-3.1-8.9c10.5-9.4,6.5-23.2,7.4-35.3
				c-8.8-4.6,0.5-13.9,3.6-20.6c3.3-5.4,6.2-10.9,8.9-16.6c6.3-3.2,5.4-12,13.9-11.3c9.2-6,12.3-10.4,11.5-20.6
				c3.8-11.9,17.3-12.8,21.1-24.5c-0.5-1.9,1.3-2,1.9-3.4c-7.7-9.4-3.9-6-16.3-6.2c1.1-5.3,2.4-7.6-1.9-10.6
				c2.4-8.1,8-18.3,3.1-26.6c7.6-8,25.7-2.8,35.5-1.9c9-4.1,6-20.8-1.7-25.2c-1.3-1.5-10.6-0.7-7.2-4.6c-6.1-2.2,4.6-3.8,6.2-4.3
				c3.7,3.4,9.5,1.2,6.2-3.8c2.6-3.9,7.3,5.3,12-2.2c6,0.7,3.5-5.6,7-7c4-0.1,6.8-2.1,9.6-4.3c3.6-8.7,9.6-10,18.7-11.8
				c2.5,2.7,2.6,0,4.6-1.4c0-1-1.2-0.7-1-1.9c0.1-0.6,1.1-0.1,1-1c-1.6-4-4.1-6.6-3.8-11.5c0.5-4,17.7-12.2,10.8-1.7
				c6.3,2.7,0.6,3.3-1.2,6.2c2.2,0.5,4.4,1.1,3.8,4.3c0.7,0.5,1.8-0.3,3.1,0c-8.6-5.6,3.5-5.2,5.3-9.4c-3.3-3.4-7.4-8.8-7.7-13.7
				c-3.5-4.8-1.9,0.8-7,0.5c-2.2,7.4-24.2,6-15.4-2.6c-4.2,2.1-5.4-1-2.9-4.3c-3.9-1.9,0.3-7.1-1.7-10.1c2.1-1.7,3.2-3.8,6.2-3.1
				c1.9-2.7,4.8-3.8,7.9-4.1c0-0.8-1.7-0.1-1.4-1.7c0.5-0.9,1.6,0,2.2-0.5c0.8-2,1.6-2.2,3.4-0.7c0.6,3,1.4,0.4,2.2-1
				c1.6-2.3,8.2-4.2,5.8-6c1.5,0.6,5.6-1.1,4.6-3.1c3.6-0.4,0.3-2.2,1.2-3.8c1-0.8,1.4,1.1,2.2,0.5c0.4-5.7,8.6-4.6,8.2-10.3
				c1.2,0.2,2,0.3,2.6-0.5c-3.8-2.2-17,4.7-7.7-1.2c2.4,0.4,2.8,0.1,2.6-2.4c2.6-0.7,4.6-3.4,7.2-2.2c-1.1,2.6-0.9,1.8,1.4,1.2
				c3.8,3.7-1.5-5.9,6-2.9c0.9-1.4,1.8-2.1,2.2-3.4c2.5,0.9,6-1.8,4.6,1.7c2.5-1.1,2.3-3.4,4.6-0.5c1.8-2.4,5.5-5.7,9.4-4.1
				c2.1-1.6,1.2-1.3,2.6,0.5c-0.3-2.5,9.9-4.4,6.5-0.7c3.3-1.4,2.7-2.1,3.6,1.4c3.6-5.9,7-1.5,12.5-1.4c12.6,3.5-6.9,4.4,7,5
				c4.2-2.6,5.4,1.2,8.4,2.4c10.6,0.6,28.8,3.7,34.6,13c-6.2,14.1-47.4-7.4-25,6.5c-5,7.9,19.8,11.6,11,7.9
				c-12.7-9.7,8.2-1.2,11.5-2.6c-3.1-3.6-4.1-4.5,1.2-7.2c4.8-2,7.5-4.1,12.2-1c3.7-3-1.1-3.8-2.6-5.8c2.4-2.7,0.2-5.3-2.6-6.7
				c3.7-1.3,12.9-0.7,14.6,4.3c-10.5,0.2-2,6.5,4.3,3.8c0.8-6.1,11.2-7,16.8-8.2c4.5-5.8,6,1.7,10.3,1.4c2.6-3.7,7-1.1,10.6-2.9
				c5-2,5.8-1.2,8.2,2.2c10.3-6-8-4.5-8.2-10.1c2.5-2.3,58,15,42,7.4c-2.2-3.3-7.5-1.5-8.6-4.8c1.7-2.2-0.7-4.5-3.1-5
				c-1.3-3.1,2.6-2.9,3.8-4.3c-0.9-4,1.6-6.3,1.9-9.4c3.6-0.8,7.1,0.5,6.7,2.6c4.6,0.1,10.3,2.2,7.2,8.2c5.9,1.3,6.9,6.5,8.6,11.8
				c6.4,1.9,8.6,7,3.1,11.8c-1.2,7.8,8.2-0.8,9.4-4.8c-5.1-3.7-4.7-4.4,0.5-7c-4.1,2-14.1-0.2-10.6-7.2c-3.9-2.1-11.7-6-2.9-8.6
				c0-2-3.5-2-1.2-3.8c6.3,0.3,2.7,8.5,9.1,8.2c-0.3-1.3-2.3-0.9-2.2-2.6c2.1-1.3,1.2-3.8,4.6-4.3c2.5,1.5,4.3,1.7,1.7-0.7
				c1.4-2.7,6.1-0.6,3.6,2.2c5.1-0.5,9.7,4,14.9,2.9c-5.2-2.1-10.5-2.9-13.7-7.2c4.6-5,15.6-0.8,22.1-3.4c-0.4-2.3-6.2,0.6-2.4-3.1
				c-3.2,3.6-10.3-2.3-3.6,0c4.5-5.3,14.8-3.6,21.4-7.2c8.1-1.2,16,0.2,24-1.9c-0.8-1.1-0.7-4,1.4-4.8c8.3-3.7,13.4,3.7,19.7,1.2
				c2.5,6.1,9.5,0.2,15.8,1.9c25,6,19.4,7.7,1.9,17.8c4.1-0.2,9.2,0.3,8.2-3.6c4-0.2,9.1-7,12.2-1.4c-0.8,1.1-2.1,1.7-4.3,1.4
				c2.5,2.5,7.4-2.3,8.4,2.4c9-4.3,20.8,0.3,29,2.2c19.3,2.2-3.6-7.8,20.9-2.2c15.8-2.7,18.8,13.3,33.6,13c-3.3-4.6-1.5-7.2,3.4-3.6
				c7.9,0.9,15.6-1.2,23.5,0c-18.3-8.6,17-7.2,24.5-3.4c13.7-3.4,24.7,9.5,39.1,6.2c15.4-5.4,27.3,9.3,42.2,6.7
				c5.5-2.1,14.6,4,17.8-1.7c4.6-1.2,10.6,3.4,4.1,2.9c4.8,1.4,8,2.9,13.2,3.1c-33.4-16.5,66.2,2.8,74.2,10.1
				C1646.6,75.8,1658.6,79.7,1666,85.8z M1684.2,98.8c-3.2-0.5-8.1,1.2-8.4-2.6C1678.9,95.8,1681.9,96.8,1684.2,98.8L1684.2,98.8z
				 M1495.8,973.3c-97.1,31.3-206.7,7.6-309.1,14.4c-236.5-13.4-668.7,25-810.7-12.5c16-0.3,33.3,2.6,48.5-0.5
				c-12.8-0.8-24.7-0.1-33.8-8.2c-9.2-0.8-18.9-2.1-27.1-5.5c9.5-4.3,23,5,31.2-2.4c-14-3.4-29.3-3.4-43.7-6
				c-2.7-0.5-12.8-0.1-6-3.8c-6-0.1-12.8,1.8-18.7-1.2c-2.4-2.7-7.8-6,0-3.4c5.5-3.6,12.9,1.5,17.5,0c4.9,0,0.1-1-0.7-2.2
				c0.4-1.7,1.9-0.2,1-2.6c3.1-1.5,5.8-0.8,8.9-1.2c-0.4-0.9-2.3-0.2-2.2-1.7c1.9-1.9,3.2,1.4,6,0.7c12.3-3.3,24.4-6.8,38.4-5
				c-7.8-1.4-2.8-3.2,2.6-1.7c-2.8,3.1,9.2,1.7,10.3,1.2c-1.1-0.4-2.4-0.7-2.2-2.4c7.2,1.3,15.1,3,22.3,2.4c-2.4-1-5.8-5.7-7.4-1.4
				c-5.9-0.6-21.9-2-16.8-6c5.7,1.5,11.4,1.6,16.6,3.8c-6.4-3.6,29.7-1.4,16.6,2.4c-13.9,1.5-2.5,1.8,5.3,0.7
				c0.7-1.6,3.7-0.2,3.1-2.9c4.1-1.7,5.6,1.2,1.9,2.6c7.3,1.7,9.2-8,17,1c9.9,0.9-3.7-2.9,7.4-3.1c-6.7-1.3-3.9-6.4,1.9-3.6
				c2,2.5,10,1.5,10.6,4.6c-2.2,3.3-7.9-0.4-11-0.2c6.6,9,21,2.6,33.6,3.6c20.4,3.9-13.4-4.2-18-10.6c2.6-2.3,12,4.1,9.6-1.7
				c-25.8-1,12.1-5.9,14.6-1.7c3-0.4,4.4,2.5,1.7,3.4c-1.8,0.5-4.5-1.8-5,0.2c2.9,1.4,6.3,1.5,9.4,2.4c5.5-2.1,10-0.2,16.3-1
				c-5.2-5.3,3.6-3.8,3.1,1c3.9-2.9,5.8-6.3,10.1-1c10.3-0.7,18.3,3.6,28.8,3.4c-2.1-6.3,6.1-2.7,10.1-1.9c-1.5-1.3,0.8-1.8,2.4-1.4
				c0.5,2.5,2.7,1.9,5,1.9c0.6,1,4.3,1.6,4.8,0.5c-8.3-0.6-1.7-7.6,2.9-3.1c0.9,3.2,0.6,0.3,2.9,0.5c1.2,2.5,1.7,2.7,4.1,1.2
				c20.9-1,20.7-4,4.8-14.6c15.1,11.8,0.6,13.5-10.6,11.8c-1.9-3.7,2.9-0.8,3.4-3.1c-4.2-3.3-14,5.3-15.4-2.9c4-0.7,5.7-1.1,8.9-3.1
				c0.9,0.3,2.9,1.8,3.8,0.5c-0.5-2.4-6.1,0.3-6-2.6c0.2-0.8,0.8-1.1,1.9-1c-1.5-1-2.5-4.3-4.3-2.4c-9.4,0,4.4-10.7,7.2-3.6
				c4.1,0.1,5.2,4.5,8.4,4.8c-0.5-2.6-5.4-3-0.7-4.8c3.8,1.4,4.3-0.3,1-1c1.2-2.4-1.8-3.8-2.4-5.8c-2.7,1.1-3.9-1.6-3.8-4.6
				c-0.6,2.6-2.4,7.2-5.8,3.1c1.7-8.9,2.6-4.6,8.4-3.8c-1.4-2.8,3.6-5.2,5.5-7.4c0.2-1.2-1.1-0.8-1.2-1.7c1.9-2-1.6-1.3-1.9-3.1
				c2.4-6.4,7,2.7,5.5-3.4c3.8-2.6,3.3,8.2,6.7-0.5c-3.5-1.5,2.3-3.3,0.5,0c2.2-1,5.2-0.8,7.2-2.9c3.6-0.5,4.7-3.1,8.2-0.7
				c-1.1-2.7,1.3-3,2.6-1.2c2.1,0.2,5.3-0.9,4.6,2.2c-4.8,1.4-10.3-0.6-4.8,5.5c-2.1,2.7-6.4-1.3-7.9-1.7c2.1,5.4-8.8-1.8-10.1,9.6
				c4.2-0.8,12.8,0.7,4.8,2.4c-0.6,2.7-2.9-0.8-4.6-0.5c0.3,1.2,1.8,1,1.7,2.6c-2.7,1.4-4.1-3.6-6.2-1.2c2.8,2.4,2.4,2.4-1.4,2.4
				c0,0.8,0.8,0.8,0.7,1.7c-4.8,4.6,4.9,2.8,1.4,6c2.4,3.5,7.4-4.4,9.6-0.2c-0.3,1.1-5,0.6-1.4,1.4c1.7,2.7,4.7,5.1,6.2,1.7
				c4.9,1.7,1.3,7.2,7.2,7.4c1.3,3.4,0.9-0.1,2.9-0.2c1.6,1.8,4.1,3,1.9,5.3c3.1,1.8,4.4,5.8,8.2,7.4c3.1-2,4.6,3,0.7,2.9
				c3.5,1.2-1.1,5.5,1.2,7.2c-1.5,1.9-6.3-0.8-3.4,2.9c-14.1,6.2-25.5,6.2-41.5,5.5c-2.6-1.2-7.4-4.2-9.4-1.9
				c5.9,4.3,41.5,7.4,16.8,9.1c-3.7-0.8-8.1-2.3-11.8-0.7c6.3-0.2,13.7,1.7,5,4.6c13.6-0.8,16.1,6.8,28.8,6.5
				c18.7,4.6,40.8,1.3,58.1,9.1c25.3-7.2,53.9-5.5,80.4-9.1c2.1-2.5,10.2,1,11.5-2.4c-3.1,0.6-9.8-1.2-5.3-2.9
				c-3.9-0.1-30.6,3.5-24.2-5.5c17.1-8.2,37.8-11.6,57.1-11c-2-6.8,15.7-6.3,2.4-8.4c-0.2-3.7,4.6-5,8.6-4.6c-1.8-3.2,2-1.9,4.6-2.2
				c8.4-3.4,3.6-1.8,1.2-6.7c2.9-1.7,2.9,0.9,6,0.7c1.4-5.1,7.9-2.9,9.1,1c1,0.1,2.5-0.2,3.1,0.2c-2.3-4,5.5-3.5,4.6-7.2
				c2.3-0.3,2.7,1.6,4.1,2.6c0.1,1.4-1.7,1.1-1.7,2.4c17.8-0.7,3.6-0.8,10.8-5.5c1.3,2.3,5.8,2.4,2.6,4.8c0.7,1.1,4,0.9,5,0.2
				c2.3,2.6,5,0.9,6.5-1c2,0.6,4.2-0.8,7-0.7c0.4-0.8-1-1-0.2-1.4c2,1.4,1.6,0.2,1.9-1.2c1.9-0.7,3.3-0.2,2.4,1.9
				c6.2-0.8,13.8-3.4,19.7-2.2c0.8-6.1,15.3,7.6,16.1-1.9c21.6-0.4,43.3,5.1,65.5-1c17.8,2.7,16.2-15.6,30-1c2-1,6.6-4.5,5.3,0.7
				c2.8-2,3.4,0.5,6.7-1.2c2.9-8.3,16.7-5.9,23.3-9.6c5.1,1.7,6.9-5.5,11.3-1.4c-1.3,3.3,2.2-0.3,4.3,0.5c-2.8-5,5.5-3.5,8.2-2.2
				c-0.2-1.7-1.6-2.7,0.7-3.8c23.7-10.1,24,4.9,41.3,5c6.7,3.1,45.2-1.3,32.9,7.4c-1.4,2.5-1.6,4.6-5,3.8c1.2,3.4-2.3,3.9-5.3,3.1
				c-0.8,1-1.3,1.8,0.2,2.4c10.6-3.5-6.1,6.5-7.4,8.2c8.7,3.8,18.3-6.7,25.2-11c8.8-2.9,18.8-1.1,25.4-7.7c4.6-2.1,8-3.8,13.7-3.4
				c3.7-0.7,6.1-6,9.6-2.9c7-2.9,21.4,0.7,27.1-7.2c2.7,7.2,1,2,9.4,3.1c10.3,0.2,23.2-1.1,33.1,0.5c12.8-8.2,29.7-1.2,42.2-0.5
				c4.8,0.8,6.7-2.8,11-4.1c4.3,0.8,10.3-3.7,11.5,3.1c4.3,0,7.3-1.5,8.6,2.9c10.6-1,20.4-1,30-2.9c2.1,2.8,5.2,0,8.4-1
				c2.6-0.3,2.9,1.9,2.9,3.6c2.2,0.3,4.5,0.4,6.7,0.2c6-5.8,16.7-3.3,23.3-5c1.5,1.5,3.5,0,3.4-2.4c0.8-1.1,3.3-2.3,4.1-3.4
				c4.4-2.1,4,5.3-0.2,5.3c6,4.4,17.7,2.6,25.2,5.5c2.4-1.7,4.9,0,7.2,1c0.9-2.3,6.8,0.8,2.4,1.9c1.4,4.2,10.8-0.3,6.2,4.1
				c1.4,0.4,4-0.7,5.3,1.2c1.4-0.4,4.8-0.3,2.4,1.9c3.3-0.5,4.9,0.1,8.6,0c1.8-1.4,3.1-4.7,5.3-1.4c-2,6.4,7.7-0.2,8.2,3.4
				c2-0.4,2.7,0.7,3.4,2.2c2.3-0.6,2.4,1.3,2.6,2.9c5-1.2,6.7,3.4,10.6,1c2.9,2,11.6-0.4,11.5,4.1c1.9-0.1,2.2,1.5,3.6,1.9
				c0.9-0.3,2.1-2,3.1-0.7c-0.6,4.9-19.6,7.8-18,11c-9.2,1.5-20.2-0.3-28.1,6.2c-5.6-2.1-39.8,13.2-25,16.3
				c-2.6,3.6-6.8,0.8-11.8,1.7c-10.6,2.3-19.7,1.8-29,7.2c0.5,2.6-3,2-4.3,3.1c2.7,0.3,1.9,2.3-1.2,1.7
				C1443.9,976,1473.5,971.8,1495.8,973.3L1495.8,973.3L1495.8,973.3z M1444.7,52.2c0,0.9,1.3,1.5,1.7,0.7
				C1446,52.5,1445.3,51.7,1444.7,52.2z M1419,56.2C1419.7,55.6,1419.7,56.4,1419,56.2z M1193.2,70.6c3.2,4-0.3-3.2-4.3-2.9
				C1189.6,69.4,1192,69.5,1193.2,70.6L1193.2,70.6z M1639.8,79c-0.3,0-0.3-0.3-0.7-0.2C1638.8,79.3,1639.9,79.5,1639.8,79
				L1639.8,79z M1640.5,80c0.4,0.3,0.9,0.3,1.4,0.2C1642.1,79.4,1640.6,79.2,1640.5,80L1640.5,80z M1625.4,83.2
				c-0.5,1.4,2.7,1.9,4.3,2.2C1628.6,83.9,1627.3,82.5,1625.4,83.2L1625.4,83.2z M980.8,85.6c-14.3-1.4-6.7,10.3-20.4,14.2
				c-2.8,0.1-3.2,3.8-5.8,4.1c0.3,1.4,0.3,4-1.2,4.3c-0.8,7.1,7.8,4.8,8.9,10.8c-4.4,5.1-11.4,6-10.1,14.6c3.9-3.4,1.2,4.7-0.7,5.3
				c-1.4-1.5-3,2.2-7,1c-3,0.8-1.5,3.5-3.1,4.8c-3.4-0.4-6.5,1.2-7-3.4c-0.5,1.6-1.8,3.2-0.7,5c-1.1,3.1-8.8,2-5.8,5.8
				c5.9-3.1,10.5-5.6,14.4,0.7c4.1-2.6,8.6-2.5,12.7-5.5c5.4-3,12,7.5,13-0.5c11.8-1.3-0.2-4.9,4.8-14.2c4.6-7.9,9.4,4.7,13.2,0.2
				c0.5-4.3-1.8-5.3-4.6-7.7c-0.7,1.5-1.3,3.1-3.8,2.6c-1.3,3-2.8,0.4-2.9-1.9c2.3-1.3,2.8-0.6,1-3.1c2-1.4,5.5-0.2,3.4,2.4
				c1.9-0.6,2.7-1,2.2-3.4c6.4-3.7,12.7-2.4,19.4-1.9c0.3-3,4.4-1.1,5.3-3.1c-4-2.7-4.9-2.2-10.3-1.9c-8.3,2.3-21.2,7.1-24.5-3.4
				c1.7-4.4-3.9-8.2-0.5-12c-4,0.5,11.2-5.4,12.5-9.4c-0.9-3.1,1.4-0.7,2.4-1C985.2,86.5,983.3,86.3,980.8,85.6L980.8,85.6z
				 M1030.7,103.1c0.3,0.3,1.7,0.5,1.7-0.2C1031.9,102.7,1030.9,102.2,1030.7,103.1L1030.7,103.1z M1033.1,105.5
				c-11.3,0.9,4.1,2.3,1.4,6.7c5.2-1.1,0.5-3.8-0.7-5.5C1034.4,104.4,1033.1,102.3,1033.1,105.5L1033.1,105.5z M1017.7,110.8
				c-9.3-6.3-5.7,2.8-1,6.5c1.7-2.2,2.4-1.4,4.8-1C1023.6,113.5,1021.5,111,1017.7,110.8L1017.7,110.8z M1377.5,142.9
				c-3.4-1.9,0,4.7-1.2,6.7c0.2,5.9-3.8,15.9-11.3,16.1c7.6,4.1,7.9-6.1,14.6-7.4c1.1-3.4,1.3-2-0.7-4.1
				C1382.6,150.8,1378.7,147.4,1377.5,142.9L1377.5,142.9z M922.5,148.7c4.7,2.6,5.3-2.3,1-1.4C922.4,145.3,922.5,147,922.5,148.7
				L922.5,148.7z M1052.8,195.9c-16.8,4.5-7.4,8.2,4.3,7.9c5-8.4-4.4-5.5,4.3-9.6C1067,192.6,1054.2,193.9,1052.8,195.9
				L1052.8,195.9L1052.8,195.9z M1127,195.7c-5.5-3.5-12.7,1.5-15.4,5.5c-16.8,5.5,4.6,22.9,11,31.9c5.5,0.2,3.5,2.6-0.2,3.1
				c1.5,5.8-4.2,7.3-1,11.8c-0.5,3.5,3.2,4.6,6,4.3c5.2,7.5,13.5,3.3,20.2,3.8c-2.8-5.6-0.7-12.3-6.7-15.6c1.5-2.9,1.1-2.9-2.4-3.1
				c-3.8-10.1,4.2-3.9,7.4-7.4c-3.5-3.8-10.4-11-8.4-0.7c-2.4-1-5-5.1-2.6-7.9c-1.4-2.6-7.9-1.8-8.2-5.8c-1.8-2.9-4.6-4.2-6.7-6.5
				c6.4-1.6,2.2-7.3,11-5.8C1132.8,199.7,1132.4,192.7,1127,195.7L1127,195.7z M1233.5,202.2c3.2,4.1,3-4.8,7-6
				C1236.2,194.6,1234.7,199.1,1233.5,202.2L1233.5,202.2z M1244.5,196.4c0.1-1.2-1.7-0.5-2.6-0.7
				C1242.1,196.6,1243.5,196.3,1244.5,196.4L1244.5,196.4z M1255.8,197.1c1,0.4,3.2,0.3,2.9-1.4
				C1257.2,195.6,1256.3,196.1,1255.8,197.1L1255.8,197.1z M1030.7,199.8c-9.1-11.2-9.4,9.8-15.1,8.2c-0.5,10.3-11.3,15.2,3.1,21.4
				c7.7,1.5,13-2,19.4-5c13.2-2.8,30.5,15.9,42.5,1c-5.3-9.9-19.7-13.3-28.1-20.4c-0.7,4-4.8,0.1-6.7,2.9c-3.6,0.8-9.8,6.1-7.9-1.2
				C1023.2,202.1,1047.2,200,1030.7,199.8L1030.7,199.8z M1164.6,202.7c1.7,1.7,0.7,5.4-0.2,7.2c1.4,2.6,7.2,2.3,7-1.9
				c-2.4-1.9-2-4.9-5.3-5.3C1168.8,198.7,1165.5,199,1164.6,202.7L1164.6,202.7z M935.4,203.7c-3.4,0-1.2,1.1-0.7,3.1
				c-4.8,5.3,6.6,5.6,6.7,10.8c1.7,7.8,8.7,5,12,8.4c-3.1,4.3,18.3,6.7,10.3,12.7c-1.9-1.6-3.2-3.3-5.5-3.8
				c-7.4,2.1,5.8,7.7-1.9,10.1c-0.7,2.9-3.4,7.1-6,4.8c-1.6,11.3-4.2,8-13,3.1c-12-5.3,9.5-4.4,13.9-5.8c4.9-13-16.1-17.3-23.5-24.5
				c-4.6-4.2-4-12.6-12.7-11.8c-17.4,16.3-17.3-1.3-27.1,7.9c4.5,10.7-10.2,9.9-14.2,16.1c-2.4,3.1-5,6.1-1.4,10.1
				c-1,1.9-5.8,3.6-5,7.2c-3.7,0.3-5.3,3-7.7,5.5c-21.4-1.3-22.5,9.8,0,9.4c10.4-6.2,21.7-11.3,35-11.3c3.3,2,5.8,0.9,8.9-1
				c11.7,3.6,16-5.3,21.4,1.4c7.5-3.5-0.2,3.3,0.5,5.8c0.3,1.1,2.6,1.8,2.9,3.4c1.5,3.4-11.5,12.5-1.2,8.9c2,8.8,14.8,5.8,21.6,9.1
				c3.2,4.3,3.8,9,11,7.9c5.1,1.5,12.1,10.3,15.4,1.2c-6.9-9.4,13.5-17.3,16.6-7.7c9.4,2.8,16.4,4,26.2,7.4c5.6,3,8.6-3,13.2-2.2
				c1.6-2.1,6.3-0.9,7,1.2c4.1,0.6,11.8,1.4,13-3.6c0.9-5.9,2.7-11.6,5.3-17c-0.3-5.3-2.4-9.2-0.2-13.7c-3.6,2.9-3.7,0.9-7.9,0.7
				c-1.4,3.4-4.9,4.5-10.1,4.1c-9.8-9.1-6.3-2.5-14.4-0.2c-3.2-0.6-4-5.1-7.4-3.6c0.1,1.6,0.6,4.6-2.4,4.8c-3.5-3.1,5.1-3.8-1.9-5.5
				c0.3-1.8,2.6,0.5,2.9-0.7c-0.8-2.4-3.7,0.7-5.3,1.2c1-5.6,3.8-2.3-2.6-6.7c8.9-2.4-6.8-0.5-3.8-5.5c2.1-0.1,4.5,0.4,4.8-1.7
				c-2-0.1-4.4,0-5.3-1.7c1.5-2.1,0.5-5.9,2.4-8.2c-9-6.3-8,4.3-10.1-2.2c-6,3.3,3.9,1.9-2.2,5.8c-12.1-5.8-3.8,0.1-1.2,6.7
				c3.3-0.1,7.8,6,8.6,8.6c-2.6-1.4-5-6-6.2-1.2c-3-1.6-3.7-2.2-2.4,1.7c-7.2-0.3,2.3,4.3-2.9,7.7c-1.6-1,0.3-1.6,0.7-2.2
				c-1.8-1.7-1.6-0.2-3.6,0c-1.6-1.9-0.3-2.2-3.1-1.7c-0.6-0.4-1.1-1-1.3-1.7c-0.2-0.7-0.2-1.4,0.1-2.1c-1.4-2.1-3.6-3.4-1-5.5
				c-2.2-0.8-5.4-2-4.1-4.6c-1.6-2.5-7.1-2.4-4.6-5.8c-5.4-4.1,0.3-11.2-6-14.9c-8.5-3.4-17.9-6.7-20.4-15.8
				c-1.7-0.1,0.1,1.9-1.7,1.9c-0.7-0.2-0.8-1-0.7-1.9C938.2,210.5,940.6,198.7,935.4,203.7L935.4,203.7z M1162,209.8
				c0.2-2.3-0.1-4.3-1.4-5.5C1159.9,206.4,1160.4,209.2,1162,209.8z M1015.8,231.7c-1.6-1.8-6.4-0.1-7,2.4c2.9-0.4,4.9,0.4,7.9,0
				C1018.1,232.1,1019,231.1,1015.8,231.7z M1045.1,308.7c-1.1-2.4-2.4-6.7-4.3-7.2C1042.1,303.9,1043,307.9,1045.1,308.7
				L1045.1,308.7z M1049.7,483.9c-6.5,3.1-8,3.8-7.4,12.2c-3.6,7,4,2.9,8.9,4.3C1045.7,496.6,1062.6,487.1,1049.7,483.9
				L1049.7,483.9L1049.7,483.9z M1028.1,512.9c-0.7,3.4-0.6,6.8,0.3,10.2s2.6,6.3,5,8.8c0.8,2.7,1.1,6.3,3.8,7.2
				c-0.9-3.9-3.5-6.1-3.4-11c-2.3-2.3-5.9-2.8-2.9-6.7C1029.4,517.2,1026.3,502.3,1028.1,512.9L1028.1,512.9z M1055.2,550.5
				c-0.1,4.4-2.2,23.6,3.6,22.3c-4-8.3-0.6-14.7-2.9-24.5C1053,543.1,1053,547.7,1055.2,550.5L1055.2,550.5z M506.3,922.9
				c0.4,0.2,2.6,0.7,2.6-0.2C508.4,922.1,506.5,921.8,506.3,922.9z M507.5,926.7h-5C503,927.5,507.3,927.5,507.5,926.7z
				 M348.9,941.8c-0.5-0.4-1.6-0.2-2.4-0.2C346.2,942.7,348.8,942.5,348.9,941.8z M354.4,941.8c-1.3,2.2,4.5,1.9,4.1,0
				C357.1,941.6,356,943.2,354.4,941.8z M360.4,944c0.7,0.2,1.4,0.3,2.2,0.2C362.3,943.1,360,942,360.4,944z M350.8,945
				c0.8,0.5,2.5,0.2,2.2-1.2c-0.4,0-0.9,0.1-1.2,0.3C351.3,944.3,351,944.6,350.8,945L350.8,945z M353.4,946
				c0.4,0.4,1.2,0.2,1.9,0.2C355.7,944.6,353.6,945.2,353.4,946L353.4,946z M601.1,947.2c0.4,0,1.2,0.2,1-0.5
				C601.6,946.7,601,946.4,601.1,947.2L601.1,947.2z M594.4,949.8c0,1,1.7,0.3,2.4,0.5C596.8,949.3,595,949.3,594.4,949.8
				L594.4,949.8z M600.6,952.2c3.7-0.6,6.1,1.4,8.4,1.4C609.2,950.7,591.7,949.6,600.6,952.2L600.6,952.2z M430.2,975.2
				c1.9-0.3,5.1,0.6,6-0.5C434.4,975,431.2,974.1,430.2,975.2L430.2,975.2z M556.2,729.4c-2-3,0.8,1.4,1,3.1
				c-1.8,2.6-0.3,4.1,1.2,6.2c-4.8,9.1-18.4-6.3-12,7.2c1.8,1.6,4,3.3,5.3,1c11.5,3.4-6.4,6.7-1.4,11.8c1,3.1-0.9,3.6,0,6.5
				c-11.7,0-6,13.6,3.4,12c6.6,6.5-5.7,10.7-2.2,18c-6.8,3.5-2.9,5-1.7,9.6c3.5,1.1,7.5,6,1,4.3c5.2,2.1,10,7.3,15.8,11
				c3.4,2.3,10,0.7,10.6,4.3c-2,0.7-11,1.3-6,2.4c-1.3,1.2-5.4-0.3-5,2.4c-2.1,0.4-5.6-3.4-6.5-0.7c-3-0.5-5.2-5.7-5.5-1.9
				c-5-0.9-7.9-4.6-12.2-5.5c-1.5-2-4,1.2-2.9-2.2c-3.7,3.4-4.5-5.4-8.6-4.1c-0.8-1.6-3.6-1.2-3.8-3.4c2.1-0.5,5.5,3.1,6,0.5
				c-0.7-0.8-4.1,0.5-3.6-2.2c-9.3-7.5,0.1,2.8-6-1.9c-2.8-1.9-0.9-3.2,1.2-1.9c1.5-1,3-2.4,0.2-1.7c0.3-3.9-4.2,4.2-5-0.5
				c6.2-2-9.9-5.8-2.4-8.9c-4.7,0.3-6.7-7.2-7.9-11c0.7-1.2,1.9-0.4,0.5-2.4c5.4,1.8,0.1-5.2,3.8-3.4c-0.8-2-4.6-0.9-6-2.9
				c-2,4.8-4.6-1.8-0.7-2.9c-2.7-2.3,2.4-3.9,0.2-7.4c-4.6-2,1-9.1,1.7-2.6c5.6,0.1-0.7-2.5,1.7-4.8c-2.6-4.4-0.7-9.8-4.1-13.2
				c-4,2.9,1.8,6.9,0,11.3c-5.4,0.9-4.7-5.4-5.3-9.6c-0.3-0.9,0.8-0.5,1-1c-2.5-2-2.8-6.3-3.8-9.8c3.5-5.9-2.2-8-2.9-13
				c-3.1-6.4,1.5-18.8,1.7-27.4c-8.9-29-2.9-57.3-7.9-87.6c-2.2-13.5-18.1-18.5-28.8-24.7c-15-16.1-18.5-39.9-33.8-56.6
				c-2.4-0.7-6.4-2.6-2.9-5c-2.6-4-3.4-8.7,0.2-12.2c1.3-1.5,6.8-4.1,2.4-4.3c1-2.4-2.3-2.8-3.4-4.6c-0.9-7.8,4.4-12,4.3-19
				c2.1-2.9,8.8-1.6,6-6.2c2.2-3.4,12.5-8.7,9.1-14.4c1.9-4.7-0.8-10.1,1-14.6c-0.8-4.1-7.1-6.6-4.1-11.5c-5.2-6.9-6.1-2.1-11.5,1
				c5.1,7.1-1.9,6.4-6,3.6c-1.7-5.3-6.5-2.4-9.6-4.8c-2.2,0.4-3.9-2.1-1.9-3.6c-2.7-2-6-6.5-7.7-4.1c-4.7-1.1-4.6-5.8-3.4-9.4
				c-2-4.2-11-8.8-7.9-13.2c-6.1,1.8-13.5-3.7-20.1-3.8c-7.4-3.2-9.5-14.1-17.5-14.6c-8.7,6.6-17,0.6-25-2.4
				c-50.4-26.2-16.5-15.4-32.6-44.4c-3.5-3.5-4.8-7.7-8.2-10.8c-3.2-1.1-3.6-3.5-1-6c-1.4-2.5-7.3-4.9-4.8-8.2
				c-4.1-0.6-3.8-7.7-7.7-6.2c0.6-4.7,0.4-10.3,0.7-14.9c-2.8-2.6-9-5.5-7.7,1.7c-4.7,9.2,5.7,5.8,3.8,11.3c-4.4-3,1.9,3.9,0.2,7
				c3.8,6,5.5,10.6,5.3,16.8c4,1.1-1.1,3.2,0.7,5.5c4.6-1.4,7.2,8.7,1.4,9.1c-4.8-10.7-12.3-6.9-8.9-19.7c-3.1-4.8-9.1-5-11.8-11
				c13.4-0.9-0.1-9.5,0.7-15.1c-3.1-6,2-18.6-4.8-21.4c-8-10.7-8.2,3.6-10.1-13.9c-0.4-0.4-0.6-0.8-0.8-1.3c-0.2-0.5-0.3-1-0.2-1.5
				c0-0.5,0.2-1,0.5-1.5c0.3-0.5,0.6-0.9,1.1-1.2c-1.6-1.6-2.8-5-0.2-6c-2.7-3.2-3-9.4-0.5-12.5c-2.9-6.3,6.2-8.5,7.2-19
				c10.8-9.2,17-23.8,23-34.3c-2.9-4.1-14.4-14.2-4.8-14.9c1.6,0.3,3.7,3.6,5,1.2c-1.9-0.4-5.4-2-1.9-3.6c-3.4-0.9,0.8-3.7,1.2-5.5
				c-6.3-1.1,1.9-4.6-3.4-5.3c-1.1-3.3,1.9-3.4,1.2-5.8c4.3,1.5,2-2.6,4.8-3.1c-1.8-2.8-3.7,0.7-3.4-4.3c-4.4,8.8-3.6,1.4-7,4.8
				c-2.2-0.7,0.3-3.5-0.7-5.3c3.6,0.2,2-0.2,2.9-2.9c-5.8-0.4-0.3-4.5-3.4-6.7c4.6-3.2,1.8-6.3,1.2-10.6c-1.1-1.6-5.4-2.3-2.6-4.3
				c-3.9,1-7.4-1.1-10.3-2.2c-7.4,3.8-10-3.9-15.1-4.8c-5.1,1.9-6.7-0.5-2.4,4.6c-1.7,1.3-4.4-2.3-2.4,0.5c-2.5,2.4-5.8,0.8-9.1,0.5
				c-4.6,0-15.8,8.8-16.8,2.9c3-1,13.8-9.1,7.9-5.3c-4,1.9-20.1,6.3-16.1,7.9c-9.6,7.1-23.7,8.4-33.6,14.2
				c-5.8-0.2-7.5,3.3-12.5,4.6c-2.6-0.3-11.2,1-8.2,3.1c-4.1,3.8-7-3.8-13,2.6c-0.7-0.5-1.6-0.7-2.4-0.7c-0.9,0-1.7,0.4-2.4,0.9
				c0.9,2.4-0.3,2.6-1.2,1c-14.4,3.4-7.9-3.6,1-2.9c10.1-5.8,49.2-11.3,47.8-21.6c-2.1,0.3-5,5.5-4.6,0.2c-4.2-3.1-6.7,3.4-11.3,0.7
				c2.3-2.6,5.4-4.5,7.4-7c-2.8-0.1-9.6,2.8-8.9-4.1c0.8-1.5,6-1.7,2.9-3.1c0.9-5.5,9.4-7.1,13.9-8.4c3.8-3.1,7.7-4.9,12.5-3.4
				c4.6-4.1,13.7,0.5,16.6-7.2c-3.6-1.1-6,2.4-9.4,0c-4.2,1.6-15,0.3-7-4.1c-9.9-3,19.1-8.3,22.3-7.2c-4.2,3.7,4.6,2.4,7.2,1.2
				c-0.4-5.8-3.1-0.7-1.4-7.9c-8.8-5.2,9.2-6.4,13-6.7c13.1-5.1,23.7-8.9,37.2-9.1c4.4-1.2,14.1-5.1,15.6,0c1.6-0.9,5.4-1.5,7.4-0.5
				c-1.1,3,1,3,3.1,1.7c17.4,1.4,32,3.2,47.8,8.9c2.2-2.9,9.8-5,13-3.1c6.2,0.1,18.3-7.4,20.9-1.9c4.5-0.3,12.4-8.5,9.4,1.2
				c1.4,3.2,11.7-6.8,8.4,0.5c11.7-4.5,19.6,3.8,31.2,3.4c10.4,3.5-13.1,6.2,1.4,6c5.4-0.1,9.8-0.2,14.2-1.7
				c3.1,4.8,4.9,2.5,8.9,0.5c-2.6-0.7-2.4-2.8,0.5-2.9c-1-1.2-3.3-0.1-4.1,0.5c-2.3-1-19.9,3.1-14.4-3.1c-25-4.1,3.8-8.5,12.5-6.7
				c-2.1-2.8-32.8,0.2-13.2-4.8c-2.9-0.3-6.7-2.6-2.4-4.1c-3.6-0.9-22.4,11.1-21.6,2.9c-8-4.5,1.4-3.7,4.3-7.4
				c6.3-1.2,9.5-5.7,15.6-7.9c7-2.4,13.3,2.9,19.2,0.7c5.2,0,8,4.5,9.8,7c5.7-1.1,5.9,2,10.6,1.9c-0.4-4.3,5.5-1.7,6,1
				c-4.6,5.3,1.3,2.6,2.2-1.4c2.9-4.2,7.7-2.1,10.8-5.3c15.8-0.6,3.2,3-1.4,8.9c0,2.8-1.3,4.3-3.6,4.8c1.7,4.5,13.9,3.6,4.1,8.9
				c-5.5-4.9-1.6,0.6-5,2.2c-1.6,4.9-11-0.4-16.8-0.2c0.2,7.3,2.1-2.3,3.6,3.4c-5.5,1.9,11.4,3.5,14.9,2.2c4.4,3.3,7-2.8,11-3.1
				c-4-1.2-6-4,0.2-3.8c5.1-5,8.2-1.7,14.2-2.2c-3-9.3,16.1-7.7,16.1-16.6c3-2,5.9-4,8.9-6.2c4.6-0.2,21.3-1.3,15.4,3.4
				c-5.9,1.3-9.7,6.4-16.6,4.1c-0.5,3.1-3.8,3.4-6.7,4.1c4.9,2.3-0.3,5.7,2.4,8.9c-8.5,4.4-2.7,0,1.7,4.1c-3.8,0.6-6.9,8.4-2.6,3.1
				c6.3-6.3,13.8,1,3.8,4.3c0.7,8.5,4.8-0.7,7.4-2.2c3.9,3.3,3.9-3.1,8.6-2.4c1.4-1.3,0.8-4.7,2.6-5.5c-1.4-0.7-2.5-1.6-3.4,0.2
				c-2.7-0.6-3.6-2.7-6.5-2.9c-2.7-9.9,11.4-13.6,18.5-17.3c6.6-1.9,12.6,2,17.8,0c7,1.7,22.7-4.1,24.2,4.8c-3.1,1.7-0.5,1,1.4,1.2
				c0.1,1.9,0.6,1.6,2.2,2.2c-0.1,4.6,5.4,1.5,8.9,3.1c0.7,4.8,10.6,2.8,10.3,9.1c-2.7,1.4,3.2,5.8-5.8,3.6
				c-4.2,3.9,2.2,3.7,5.5,5.8c1.6-2.2,5.5,1.4,5,2.9c3,0.7,5.7,2,8.2,3.8c-1.5,3.4-6.7,2.4-7.4,6.5c-6.9-1.1-3.9,1.7-7.9,3.8
				c-4.8,0.4-9.1-14-11.5-5.5c-5.3,0.2-0.8,0.6-1.2,4.3c2.5,0.8,7.6,1.8,4.1,5c2.7,2,2.4,5.9-1.9,4.8c-0.6,1.1,0.4,3.2-1.9,2.9
				c-0.2,1,1.2,0.4,1,1.4c-1.6,3.2-7.8-5.2-11.5-4.6c-7-4.9,3.5,4.3,4.3,6.2c-1.3,4.6-5.9,0.3-8.9,1c-1.7-1.4-5.2-0.6-5.8-3.4
				c-6.7,1.2-4.1,2.3-7.4-4.3c1.3-1.1,3.7-1.1-0.5-1.7c-1.9-4.2-2.5-2.8-5-4.3c-16,6.3-24.4-4.2-5.8-4.8c19.7,0.8,4.4-5.7,17.5-7
				c4.9-0.8,10.2-9.9,3.1-8.4c6.2,5.6-7-0.1-7,4.8c-14.5,5-8.4-8.1,2.4-5.5c0.3-2.3-2.3-1.2-3.8-1.4c-3.5-5.6,5.5-4.8,0-5.8
				c1.5-3.9-4.6-2.7-1.7,0c-0.7,1.2-1.7,2.3-2.8,3.1s-2.5,1.4-3.9,1.7c-0.1,0.9,0.6,2.6-1.7,2.4c-0.9-4.5,2.8-4.6,6.2-7
				c-2.7-2.3-5.5,3.9-8.2,0.5c-16.5-3.6,3.3,5.1-12.5,7c3.9,8.9-7.8,7.3-11.8,11.5c-3.3-2.5-3.3,0.2-3.4,3.1c-3.3,0.7-3.4-3.5-6-4.6
				c-3.2,0.5-3.5-1.2-3.1,2.4c7.5-2,0.8,4.3,10.6,6.5c0.9,2.8-1.2,4.3,2.6,3.4c4.4,3.6-5.2,5.3-7.2,2.9c-1.9,0.3-2-1.6-3.4-2.2
				c-2.8,1.1-15.8,10-12.5,2.2c-15.1,3.6,3.9-5.8,6.5-10.8c-4.7-0.2-5.1,5.1-9.8,5.8c-6.1,4.8-12.2,3.4-18.7,6
				c1.1,6-7.9,1.4-8.4,5.8c-6.4-0.1-37.4,20.7-21.8,21.1c-7,18.9,5.8-0.9,15.4,15.4c14.1,8.9,25.6-2.6,14.6,15.8
				c1.8,1,5.9-0.3,5,3.4c-5.5,2.6-7.4-4.9-5.8,3.4c4.3,3.3,1.6,7.5,7.4,3.4c6.1,0.6,7.8-12.8,8.6-18.5c6.7-1.6,13.1-3.9,19-8.4
				c4.9-4.1,4.4-10.4,0.2-14.4c3.2-4.3,12.8-6.8,9.8-13c1.9-1.2,5.1-2.5,3.6-5c3.7-8.7,14.9-0.3,22.1-3.4c2.6,1.2,3.3,4,5.8,4.6
				c-0.1,1.1-1.7,0.7-1.7,1.9c3.5,1.2,6.1,1.3,8.9,1.7c-6,8.5-7.6,7.7-1.2,15.6c9-2.1,13.2-9.6,20.9-12.5c-1,2-0.1,7.5,2.2,9.4
				c-0.8,2.5-0.3,4.6,2.2,5.8c-0.9,1.7-3,3-0.5,4.1c0.1,2.7-4.9,5.9-0.7,5.8c-0.5,1.5,0.2,2.1,1.2,2.6c-0.6,2.6,0.5,2.7,2.9,2.4
				c2.1,1.8,11.9,2.9,6.2,5.5c0.8,2.9,3.2,3.9,6,5c-1.3,4-1.3,9.3-6.7,10.8c8.9,0-1.4,5.1-3.1,8.9c2.5,0.7,5.2,1.1,1.4,3.4
				c2,2.2,4.4-1.4,6.2,0.5c1.2-3.4,2.3,0.6,4.1,1.2c0.3,2.2-1.9,1.9-2.6,3.1c0,2.3,2.3,0.7,3.4,0.7c1.2,3-4.2,2.7-4.8,5.3
				c0.7-0.2,6-4.6,3.4,0c0.5,0.4,1.5,0.3,1.7,1c-2,6.3-5.3,7.7-9.8,5.5c0.3-2.2,4.5-7.3,0.7-3.8c-0.9,0.1-1.8,0.5-2.6,1
				c-0.8,0.5-1.5,1.1-2,1.9c-4.7,2.8-6.3-1.1-1-2.4c-4.6-2.6-11.6-0.6-18.6-1.8c-0.7-2.2,1.9-3.6,3.8-4.1c-1-1.4-1.6-3.2,1.4-2.9
				c1.2-0.7,1.3-2.6,3.6-2.2c0.7-6.3,20.3-16.5,3.8-12.5c-11.4,11.5-28.6,3.1-42.2,7c-3.6,5.2-12.1,5.4-16.6,10.3
				c3.8-0.5,6.2-4,11-3.8c8-5.4,23.3,0.3,8.6,5.8c2.2,3.5-2.9,4.8-1.2,10.1c3.2,0.4,6.5,6.1,11,2.6c1.2,2.7,14.2-14.5,9.4-2.9
				c8.5,4.2-16.1,9.9-19.9,11.8c-4.3-0.5-7.3,4.8-11,6c-8.6-1.5,0.8-8.6,4.6-10.3c6.9-2.2-6.1-0.2-7.4,1.2c-2.1-0.2-8.1,6-12.5,4.1
				c-3.9,4-11.8,3.5-12.7,10.6c-3.2,1.6-0.3,5.5,2.2,3.6c0.1,3.7-3.7,2.3-5,4.3c-2.5-3.2-5.8,1.6-8.9,0.7c0.4,0.5,1.7,0.1,1.7,1
				c-2.7,2.5-7.7,2.8-11.3,2.9c-0.2,3.2-6.7,12.9-9.6,8.2c0.3,2.5,0.9,5.9-2.2,7.2c-1.8,1.8-2.9,4.5-5.3,5.8c-2-2.8,4.6-5.1,0.5-7.2
				c-2.5,4.7-0.8,7.9-1.2,12.7c-4.6,0.6,4,5.1-6,5.8c0.9,3.1,0.4,4-3.4,4.1c-4.7,3.5-9.8,5-13.7,9.1c-33.4,12.5-0.4,46.8-22.6,50.2
				c-12.4-27.6,2.9-15.8-8.6-30.5c-5.6,4.6-7.8,0.5-12.5-2.2c-6.9,1.4-14.4-1.8-17.3,5c1.6,1,3.8,2.7,1.2,3.8c-2.3-0.5-3-4.3-5-0.7
				c-1.7-1.1-2.5,0-4.8-0.2c-1.5-0.9-1.6-4.3-3.4-1.9c-2.3-0.9-5.1-0.1-7.2-1.9c-3.1,0.3-6.1,2.3-8.6,1c-1.1,4.1-6.1,6.6-9.8,6
				c-0.7,1.3-1,3.1-3.6,2.9c-1.9,1.6-1.6,4.6-4.1,5.3c-2,4.5,1.6,10.4-3.8,13c0.3,1.4,1.2,2.8-1,2.9c-0.9,3.9-0.9,9.3-3.1,13.7
				c1.7,16,7.3,32.3,27.1,23.3c3.5,4.8,10.5-9.8,10.6-13.7c2.8-3.2,25.6-8.3,19.2,1.7c1.8,1.3-0.6,4.4-1.7,2.2
				c-3.3,3-2.3,10.3-5.8,13.2c-3.7-5.7,0,1.6-2.4,3.8c0.7,5.5-2.1,7.2-4.3,10.3c5.6,3.7,23.3-5.1,25.9,3.6
				c12.7,4.4-15.3,28.4,9.8,40.3c7.1-0.6,10.9-7.4,18.2-2.9c2.2,1.2,5.5,8.6,6.5,4.3c5.7-2.8,6.3-8.1,9.1-12.5
				c3.2-5.3,10.1-2,14.4-6.7c3.2-0.3,7.1-8.4,10.1-2.2c-2.3,3.1-6.2,3.4-3.8,7.7c6.9-4.6,6.5-0.5,8.6-8.6c2.9,2.3,4.8,5.1,9.4,6.2
				c0.2,8.1,5.6,2.6,11.3,3.6c2.8,3.9,8.5,3.9,12.2,0c-3.1-2.2-1.8-3.4,1.4-2.9c-1.9,5.6,6.8,0.4,9.8,2.4c-8.2,4.9,2,8.1,1.7,0
				c6.7-3.2,4.1,7.1-1.4,5.3c3.8,0.9,7.1,1.9,5,7.4c5.1-0.3,9.7,3.9,13,7.7c10.1,20.8,32.1-4.3,43.7,33.1c5.6,5.3-1.5,10.4,3.4,11.3
				c0.4,2.7,3.3,3.1,6.7,2.9c1.6,3.3-3.4,13.5,1.2,4.1c6.1-4.3,12.7,4.4,18,3.8c2.5,2.2,2.9,5.8,6,6.7c2.4-2.9,7,1,9.6,1.7
				c3.9,1.3,8-0.8,11.5,0.5c5.9,1.6,10.3,7.1,14.4,11.3c5,4.3,13.9-0.4,13.4,9.4c5.4,10.7-1,23.5-9.8,30c-2.5,3.8-2.9,12.7-8.2,12.7
				c-4.5,9.5,3.5,22.4-2.9,31.4c-0.8,2.7-0.8,5.5,0,8.2c-1,2.4-3.1,4.6-3.1,7.4c-2.5,1.6-3,5.3-3.1,9.4c-2.8,1.2-5,2.8-5,5.8
				c-4.3-0.7-7.3,1.8-10.3,0.2c-1.2,0.6-1.1,2.8-2.9,0.5c0,2.1-2.4,2.5-3.8,3.6c1.5,2.3-1.7,2-3.1,1c-2.3,1.4-4.4,2.1-6,4.6
				c-12.3,4.8-1.8,16.9-6.5,25.9c-6.8,5.5-4.3,16.6-13,21.1c-3.6,16.7-14.3,22.5-30,13c-1.2,2.5,4.5,3.5,6.5,5
				c2.7,2.8,0,8.5,5.3,7.9C582.8,725.3,567,728.3,556.2,729.4z M557.7,46.6c-2,1.6-3.8,2.2-4.3,4.8c1.2-0.2,2.3-0.7,3.1-1.4
				C557.1,46.3,564.8,45.3,557.7,46.6z M578.3,49.5c1.7,1.4,5.2,0.7,6.2-0.7C581.5,49.7,577.5,46,578.3,49.5z M427.3,50.7
				c-3.3,0.2,1.7,1,2.4,0.2C430,48.6,428.2,50.4,427.3,50.7L427.3,50.7z M577.3,49.7h-1.2C575.8,50.9,577.5,50.5,577.3,49.7
				L577.3,49.7z M552.8,54c0.3-0.6,0.1-2.5-1-2.2c-0.1,0.2-0.2,0.4-0.2,0.7c0,0.3,0,0.5,0.1,0.7c0.1,0.2,0.3,0.4,0.5,0.5
				S552.6,54,552.8,54L552.8,54z M537.7,57.2c1.1-0.2,2.9,0.3,3.6-0.2C540.7,56.7,538,56.3,537.7,57.2L537.7,57.2z M504.4,64.8
				c-1.2,3.4-6.9-1.1-3.1,4.3c-2.1,1.3-7.1,0.4-7,4.3c3.9-1.4,7.9-1.8,11-3.6c-5.6-1.5,2.1-2,1.7-4.6
				C506.1,65.4,505,64.5,504.4,64.8L504.4,64.8z M577.1,67.2c1.1-0.1,2.7,0.3,3.1-0.5C579.6,65.3,576.4,65.3,577.1,67.2L577.1,67.2z
				 M454.2,68.2c1.5-0.4,3.9,0.2,3.8-1.7C456.6,66.6,455.3,67.2,454.2,68.2L454.2,68.2z M447.7,69.2c0.6,0.4,2.3-0.3,3.6,0
				C451.2,68.4,447.9,68.4,447.7,69.2L447.7,69.2z M493.6,71.9c0-1-0.9-1-1.7-1.2C491.5,71.3,492.5,72.1,493.6,71.9L493.6,71.9z
				 M582.6,70.7c-1.1,0.5-2.5,0.7-3.1,1.7C580.6,72.4,584.6,72.7,582.6,70.7L582.6,70.7z M491,76.2c1.2,2.5,4.2-0.9,2.6-2.4
				C492.9,74.8,491.5,75,491,76.2z M441.6,78.6c0.9,0,2.4-2.1,0.7-1.9C441.9,77.2,441.9,78.1,441.6,78.6L441.6,78.6z M386.8,79.8
				c-4.3,0.8-9.4,1.4-13.7,2.6c1.9,0.8,7.3-1.9,7.4,1.4c-2.4,2.1-9.4,0.9-11,5c5.3,0.3,6.5-3.6,11.8-3.4c-0.1,2.5,2,2.2,1.9-0.2
				c4.1-1.9,8.2,2,11-2.6c-2.6-0.4-6.7,0.8-8.2-0.7C389.8,78.7,396.2,78,386.8,79.8L386.8,79.8z M588.4,81.9
				c1.6,1.1,11.5-0.4,3.8-1.4C592.1,77.3,588.7,80,588.4,81.9L588.4,81.9z M509.7,85c0.2,1.8,2.8,3.1,3.8,1.7
				C512.6,85.9,511,84.7,509.7,85L509.7,85z M407.2,102.8c0.8,0.5,1.7-0.6,2.6-0.7C409.5,100.5,407.3,101.9,407.2,102.8z
				 M385.1,107.6c-5.6-0.4-6.5,3.9-12.5,3.1c6.5,4.3,15.7-1.9,22.3-3.4c7-2.8-0.5-0.7-4.3-0.7C388.4,103.2,384.5,102.5,385.1,107.6z
				 M227.7,111.2c-0.2-1.3-3.2-0.6-3.6,0H227.7z M192.9,120.1c0.6,0.3,3.1,0.6,3.4-0.2C195.6,119.5,193.2,119.2,192.9,120.1
				L192.9,120.1z M275.9,132.6c-3,2.7,3.1-0.8,3.4-3.4C277.8,127.8,277.4,132,275.9,132.6z M414.6,157c2.9,0.9,0.4,1.3-0.2,2.4
				c0,1.6,1.4,1.8,1,3.8c3.1-1.8,2,2.1,4.3,1.9C421.8,158.5,422.1,147.6,414.6,157z M599.9,153.7h-1.4
				C598.2,154.7,600.2,154.7,599.9,153.7z M418.2,168.1c-0.4,2-3,1.8-2.9,4.3C416.5,171.8,420.6,168,418.2,168.1z M278.3,179.1
				c3.7,0.2,1.8,7,4.3,4.3c3.1,2.6,0-2.4,1.4-3.8c-1.4,0.3-4.2-0.3-5-1.7C280.9,174.2,277.3,175.6,278.3,179.1L278.3,179.1z
				 M454,183.7c-2.4-0.6-5.4,1.4-7.9,1.7c1.1,2.1-0.7,3.7-3.4,3.8c0.7-3.8-24.7,8.3-10.6,5.5c1.6,4.1,11.7-5.3,16.1-3.8
				c-0.2,2.1-3,1.6-3.6,3.4c3.9,1.3,5.4,3.7,9.6,1c3.6-1.6,6.2,3.4,7.7-0.2c-0.8-2,0.5-3.8,0.2-6.2C455.3,190.5,460.9,182,454,183.7
				z M281.7,185.6c-0.8-0.4-2-0.4-1.9,0.7C281.6,189.4,284.8,181.9,281.7,185.6z M443.4,187.3c0.2,0.1,0.5,0.1,0.7,0.1
				c0.3,0,0.5-0.1,0.7-0.3s0.4-0.3,0.5-0.5c0.1-0.2,0.2-0.4,0.2-0.7c-0.2-0.1-0.5-0.1-0.7,0s-0.5,0.1-0.7,0.3s-0.4,0.3-0.5,0.5
				S443.5,187,443.4,187.3z M557.9,188.9c-0.1-1.2-1.5-1.3-2.9-1.2C555.5,188.6,556.8,189.6,557.9,188.9z M473.4,200.9
				c-0.4,5.1-7.9,0.1-10.3-0.7c-5.4,0.9-3.9,1.1,0,3.6c1.1,4.6-3,7.2-6,10.1c4.5-3,7.9-3.7,5.5,3.4c4.2-0.8,6.1-7.6,9.1-10.3
				c0.1-1.3-0.8-2.5,0.7-2.6c1.6,1.1,1.5,4.2,4.6,4.6C486.6,198.4,456.7,198.4,473.4,200.9z M451.6,200.7c-1.6,2.6-6.1-0.4-7.2,3.6
				c1.9,3-7.5,8.8-8.9,13.2c-6.9,18.7,8.8,2.6,8.6-6.2C446.6,207,464.4,199.4,451.6,200.7z M491.9,211.7c-0.5,3.7-12-1-14.4,4.6
				c4.8-1.2,7.3-0.4,12.5,0C492.3,215.7,498.2,211.2,491.9,211.7L491.9,211.7L491.9,211.7z M470.6,221.6c-4.8-1-7.4,1.6-11.5,3.4
				c-2.6-0.1-6-0.4-3.4,2.4C462.7,229.2,485.8,215.9,470.6,221.6L470.6,221.6L470.6,221.6z M394,297.7c0.5,0.8,2.3,0.4,2.9,1.2
				C396.7,297.8,395,297.2,394,297.7z M403.6,416.7c0.5-3-2.4-4.5-4.1-6C398.5,414.1,400.9,416.2,403.6,416.7L403.6,416.7z
				 M475.6,428.7c4.1,0,2.5-6.1,0.7-7.4C473.6,422.4,474.3,426.6,475.6,428.7L475.6,428.7z M488.8,584.2c0.3-0.1,0.6-0.1,0.9-0.1
				c0.3,0,0.6,0.1,0.8,0.3c0.3,0.2,0.5,0.4,0.6,0.6c0.2,0.3,0.3,0.5,0.3,0.8C496.7,585.9,485.9,577.7,488.8,584.2L488.8,584.2
				L488.8,584.2z M600.6,674.7c-1,2.2-0.9,5.5-3.4,6.2C595.2,688.6,605.7,674.9,600.6,674.7L600.6,674.7z M549.3,750.8
				c0.3,1.1,1.3,1.4,2.6,1.4c0-0.3-0.1-0.6-0.3-0.8c-0.2-0.3-0.4-0.5-0.7-0.6c-0.3-0.1-0.6-0.2-0.9-0.2S549.5,750.6,549.3,750.8
				L549.3,750.8z M510.6,767.3c2.4,0.6,0.9-3-0.2-3.6C509.2,764.7,511.8,765.7,510.6,767.3z M518.6,799.3c3.3,0.1,0.1-1.4,0.5-3.4
				C517.5,795.5,518.1,798.3,518.6,799.3z M545.4,812c0.4,2.9,2.1,5.1,1.9,7c1.4-1.9,0.5-3.3-0.5-5C548.1,812.6,547.3,811,545.4,812
				z M540.2,814.4c1,0.9,2.4-0.3,2.6-1.7c-0.5,0-1.1,0.2-1.5,0.5C540.8,813.5,540.4,813.9,540.2,814.4L540.2,814.4z M549.3,816.3
				c0.2,2.2,2.7,0.6,3.4-0.5C551.5,815.1,550.2,816.1,549.3,816.3L549.3,816.3z M865.8,123.2c-6.1,8.8-8,6.2,3.4,7.2
				c1.5,4.1-6.1,5.9-3.6,9.8c4.2,0.3,3.9,5,5.5,7.9c4.3-0.4,4.6,5.3,6.2,7.9c0.2,1.1-0.6,1.2-0.5,2.2c6.1-3.3,9.4,3.6,4.1,7.4
				c-3.6,0.4-0.8,1.7,1,1.9c-2.4,7-12.7,2.8-17,5c-3.1,0.3-6.3-1.8-7,1.9c-4.3-1.1-7.7,2.9-11,0.7c10.3-11,17-5.1,3.1-10.1
				c0.5-3.2,7-1.8,5.8-6c-3.9,1.6-1.5-1.4-1.7-3.8c3.6,0.1,7.2,1.7,7.7-3.4c-5.3-7.1-4.2-2.4-9.8-4.8c-0.1-2,4.2-3.5,1.9-5
				c-1.7,2.5-5.7,3.8-3.4-0.7c-1.3,0.2-1.8,2.2-3.6,1.2c-2-3,7.5-2.9,1.9-4.1c-2.7-4.1,5.5-2.4-1.9-6.2c0.5-2.3,2.9-2.1,3.8-0.5
				c0.2-2.9,3.5-4,4.6-7C861.7,127.8,863.2,119.1,865.8,123.2z M1593.3,247.3c-5.3,1.5,4,6.2,1,10.6c-0.1,2.7,5.6,5.2,2.2,7.2
				c1.9,5-2.8,3.1-5.5,1.7c1.9,2.6-2,7-2.2,1.4c-4.2,7-14.7-3.1-7.4,3.8c-4.3,3.1-2,9.3-9.1,3.4c-1.7-5.8-0.8,1.5-2.6,3.4
				c-8-2.8-2.3,9.5-11.3-0.5c3.7-3-0.9-8.3-0.7-2.9c-1.2-0.3-6.8-2.1-4.8,1c12.1-1.9,5.5,29.8-1.9,9.6c-1.5-0.4-2.5-1.6-1.4-2.9
				c-2.6,0-3.2-3-5.3-3.8c8.1-7.6,10.2-16.8,24.5-16.1c3.4,4.9,4.5-7.2,2.6-8.9c4-5.9,2.4,0.8,4.3,1.9c6.5-2,7.4-11.4,5.5-17
				c-1.9-0.9-5.1-6.3-3.1-7.4c-0.4-1.6-1.8-2.6,0.7-2.4C1580.2,221,1595.5,243,1593.3,247.3z M1560.9,273.2c1.9,0.8,3,0.8,3.8-1.4
				c-0.7-0.1-1.4,0-2.1,0.2C1561.9,272.2,1561.3,272.7,1560.9,273.2z M451.6,349.8c20,9.7,23.1,13.5-3.1,12.5c0.5-3,7.2-4.6,0.2-4.6
				c-3.6-8.2-24.3-8.1-20.4-12.5c-6.2-1.8-10.4,6.7-16.3,5c5.3-11.3,22.9-11.3,33.4-4.1C448.2,343.8,450.5,347.1,451.6,349.8z
				 M1208.6,790.2c8.9-2.7,0.7,5.9-5.3,3.6C1201.8,789.8,1205.9,784.3,1208.6,790.2z"/>
		</defs>
		<clipPath id="SVGID_00000054249297187990621550000007496150485452394928_">
			<use xlink:href="#SVGID_00000138567956681432323760000000133152930437596070_"  style="overflow:visible;"/>
		</clipPath>
		<g style="clip-path:url(#SVGID_00000054249297187990621550000007496150485452394928_);">
			<rect y="0" class="st4" width="1892" height="988"/>
			
				<radialGradient id="SVGID_00000058557056165202319310000005741377612687511947_" cx="1310.022" cy="1.7993" r="1" gradientTransform="matrix(-107.968 0 0 -80.0311 143019.3594 782.0124)" gradientUnits="userSpaceOnUse">
				<stop  offset="0.4198" style="stop-color:#BBA260"/>
				<stop  offset="1" style="stop-color:#D0B46B;stop-opacity:0"/>
			</radialGradient>
			<rect y="0" style="fill:url(#SVGID_00000058557056165202319310000005741377612687511947_);" width="1892" height="988"/>
			
				<radialGradient id="SVGID_00000098198279874584468270000004652972672972338083_" cx="1288.8564" cy="-0.8997" r="1" gradientTransform="matrix(141.958 0 0 160.062 -182036.375 782.0159)" gradientUnits="userSpaceOnUse">
				<stop  offset="0.4198" style="stop-color:#BBA260"/>
				<stop  offset="1" style="stop-color:#D0B46B;stop-opacity:0"/>
			</radialGradient>
			<rect y="0" style="fill:url(#SVGID_00000098198279874584468270000004652972672972338083_);" width="1892" height="988"/>
			
				<radialGradient id="SVGID_00000087371767915140064100000004902205813736996225_" cx="1296.7592" cy="5.7451" r="1" gradientTransform="matrix(7.105707e-15 116.045 -225.933 1.383441e-14 2175.1045 -150144.5156)" gradientUnits="userSpaceOnUse">
				<stop  offset="0" style="stop-color:#C9B27A"/>
				<stop  offset="0.3573" style="stop-color:#C5AE73;stop-opacity:0.7731"/>
				<stop  offset="0.5344" style="stop-color:#BBA260;stop-opacity:0.8"/>
				<stop  offset="0.7115" style="stop-color:#C6AB66;stop-opacity:0.4369"/>
				<stop  offset="1" style="stop-color:#D0B46B;stop-opacity:0"/>
			</radialGradient>
			<rect y="0" style="fill:url(#SVGID_00000087371767915140064100000004902205813736996225_);" width="1892" height="988"/>
			
				<radialGradient id="SVGID_00000168083765014319614180000005496285087748045730_" cx="1296.8926" cy="4.5567" r="1" gradientTransform="matrix(1.9995 146.0573 -284.3643 3.8928 1.6123 -189180.5156)" gradientUnits="userSpaceOnUse">
				<stop  offset="0" style="stop-color:#C9B27A"/>
				<stop  offset="0.5344" style="stop-color:#BBA260;stop-opacity:0.9"/>
				<stop  offset="0.7115" style="stop-color:#C6AB66;stop-opacity:0.4369"/>
				<stop  offset="1" style="stop-color:#D0B46B;stop-opacity:0"/>
			</radialGradient>
			<rect y="0" style="fill:url(#SVGID_00000168083765014319614180000005496285087748045730_);" width="1892" height="988"/>
			
				<radialGradient id="SVGID_00000109715016464440161710000000303120921505904560_" cx="1293.001" cy="-0.553" r="1" gradientTransform="matrix(258.9235 -5.5022 6.5901 310.119 -334559.9375 7714.7446)" gradientUnits="userSpaceOnUse">
				<stop  offset="0" style="stop-color:#C9B27A"/>
				<stop  offset="0.5344" style="stop-color:#BBA260;stop-opacity:0.9"/>
				<stop  offset="0.7115" style="stop-color:#C6AB66;stop-opacity:0.4369"/>
				<stop  offset="1" style="stop-color:#D0B46B;stop-opacity:0"/>
			</radialGradient>
			<rect y="0" style="fill:url(#SVGID_00000109715016464440161710000000303120921505904560_);" width="1892" height="988"/>
			
				<radialGradient id="SVGID_00000072259516744377843360000013218403196486714301_" cx="1288.7183" cy="1.2757" r="1" gradientTransform="matrix(135.9601 32.0126 -28.2638 120.0384 -174033.1094 -41034.4023)" gradientUnits="userSpaceOnUse">
				<stop  offset="0" style="stop-color:#BBA260;stop-opacity:0.9"/>
				<stop  offset="0.451" style="stop-color:#C6AB66;stop-opacity:0.4369"/>
				<stop  offset="1" style="stop-color:#D0B46B;stop-opacity:0"/>
			</radialGradient>
			<rect y="0" style="fill:url(#SVGID_00000072259516744377843360000013218403196486714301_);" width="1892" height="988"/>
			
				<radialGradient id="SVGID_00000029741788750578002380000014194514719358650513_" cx="1292.0903" cy="-2.7575" r="1" gradientTransform="matrix(211.9376 -30.0117 16.5027 116.5394 -272757.9375 39256.9844)" gradientUnits="userSpaceOnUse">
				<stop  offset="0" style="stop-color:#9BA47F"/>
				<stop  offset="1" style="stop-color:#D0B46B;stop-opacity:0"/>
			</radialGradient>
			<rect y="0" style="fill:url(#SVGID_00000029741788750578002380000014194514719358650513_);" width="1892" height="988"/>
			
				<radialGradient id="SVGID_00000024695096405055312270000012941940741888802962_" cx="1291.8649" cy="-1.0249" r="1" gradientTransform="matrix(211.9372 4.0015 -2.2004 116.5422 -272489.5313 -4912.1333)" gradientUnits="userSpaceOnUse">
				<stop  offset="0" style="stop-color:#9BA47F"/>
				<stop  offset="1" style="stop-color:#D0B46B;stop-opacity:0"/>
			</radialGradient>
			<rect y="0" style="fill:url(#SVGID_00000024695096405055312270000012941940741888802962_);" width="1892" height="988"/>
			
				<radialGradient id="SVGID_00000088837802116504142740000004397806549617948565_" cx="1288.3105" cy="-0.6278" r="1" gradientTransform="matrix(133.96 0 0 229.353 -172043.875 667.9721)" gradientUnits="userSpaceOnUse">
				<stop  offset="0" style="stop-color:#9BA47F"/>
				<stop  offset="1" style="stop-color:#D0B46B;stop-opacity:0"/>
			</radialGradient>
			<rect y="0" style="fill:url(#SVGID_00000088837802116504142740000004397806549617948565_);" width="1892" height="988"/>
			
				<radialGradient id="SVGID_00000159444858715158960500000014207761901218691226_" cx="1306.9969" cy="2.7817" r="1" gradientTransform="matrix(-133.9602 30.0124 -33.3457 -148.8383 176204.8906 -38367.2031)" gradientUnits="userSpaceOnUse">
				<stop  offset="0" style="stop-color:#9BA47F"/>
				<stop  offset="1" style="stop-color:#D0B46B;stop-opacity:0"/>
			</radialGradient>
			<rect y="0" style="fill:url(#SVGID_00000159444858715158960500000014207761901218691226_);" width="1892" height="988"/>
			
				<radialGradient id="SVGID_00000129180547228228526210000015757326699951198613_" cx="1290.8646" cy="-0.5044" r="1" gradientTransform="matrix(182.4456 8.0031 -7.5575 172.2863 -235182.0625 -10030.6631)" gradientUnits="userSpaceOnUse">
				<stop  offset="0" style="stop-color:#C5BC9D"/>
				<stop  offset="0.3938" style="stop-color:#B3B290;stop-opacity:0.9156"/>
				<stop  offset="0.649" style="stop-color:#9BA47F;stop-opacity:0.8"/>
				<stop  offset="1" style="stop-color:#8D9768;stop-opacity:0"/>
			</radialGradient>
			<rect y="0" style="fill:url(#SVGID_00000129180547228228526210000015757326699951198613_);" width="1892" height="988"/>
			
				<radialGradient id="SVGID_00000157276426488943033500000004740029423712699560_" cx="1303.3101" cy="9.3585" r="1" gradientTransform="matrix(-65.4795 95.5374 -101.5432 -69.5958 87036.0703 -123849.2656)" gradientUnits="userSpaceOnUse">
				<stop  offset="0.5656" style="stop-color:#C3C4BC"/>
				<stop  offset="0.8156" style="stop-color:#C8BD9A;stop-opacity:0.5803"/>
				<stop  offset="1" style="stop-color:#D0B46B;stop-opacity:0"/>
			</radialGradient>
			<rect y="0" style="fill:url(#SVGID_00000157276426488943033500000004740029423712699560_);" width="1892" height="988"/>
			
				<radialGradient id="SVGID_00000128487618669448108340000009213034379089895566_" cx="1298.9408" cy="-1.3788" r="1" gradientTransform="matrix(9.372222e-15 -153.06 941.433 5.764615e-14 2199.0945 199804.0313)" gradientUnits="userSpaceOnUse">
				<stop  offset="0.5656" style="stop-color:#C3C4BC"/>
				<stop  offset="0.8156" style="stop-color:#C8BD9A;stop-opacity:0.5803"/>
				<stop  offset="1" style="stop-color:#D0B46B;stop-opacity:0"/>
			</radialGradient>
			<rect y="0" style="fill:url(#SVGID_00000128487618669448108340000009213034379089895566_);" width="1892" height="988"/>
		</g>
	</g>
</g>
<path class="st18" d="M906.9,150c1.6,0.4,9.8,2,12.5,2c9.4-0.1,18,0.2,26.6-3.9c3.6-1.7,10.1-6,10.9-10.1c0.9-4.2-0.5-7-3-11
	c8.5,0,17.2-1.6,25-5.5c10.5-5.2,18.1-3.1,23-2.5c4.9,0.6,15.5,10.7,20.6,11c10.9,0.7,19.7,9.5,29.9,10.5 M906.9,150
	c-9.5,0-16.6,11.1-20.5,14c-3.9,2.9-7,4-13,6 M906.9,150c-13.6-3-20.2-12.4-30.3-21.5l0,0c-10-9-21.1-10.9-34-12.4
	c-20.7-2.5-49.5-1.1-58-24.8c-13.8,35.2-59.5,75.2-94.2,91.7c-31.2,14.8-67.6,20.2-100.9,28c-16.5,3.9-35,8.6-52,9.1
	c-7.6,0.2-14.2,2.6-19.8,8 M517.6,228c0.2,8.3-0.4,37.5,22,57.6 M517.6,228c-11.8-18.1-10.9-30.5-34.1-33.5
	c-14-1.8-16.6-16.5-37.5-15.1c-11.2,0.8-22.3,1-33.6,0.9c-24.5-0.3-69.3-12.9-86.6-28.3c-11.7-10.4-25.6-17.8-37.1-28.7
	c-5.8-5.5-14.6-12.3-22.7-12.8c-15-1-28.6,2.5-43.6,4.5c0,24,9.2,134.9,21.7,135.6 M517.6,228c-21.4-5-42.4,18.5-44.4,29.5
	c-2,11-28,18.5-31,31c-2.4,10-6.1,21.6-9.4,26.1 M244.1,250.5c9,0,19.6-0.7,28.4-3.1c5.3-1.4,10.8-0.7,16.2-1.8
	c3.5-0.7,6.9-5.3,10.5-5.2c3.9,0.1,6.8,8.2,10.5,9.6c3.4,1.3,6.6,3.2,10,4.4c12.5,4.6,34.4,6,47.5,6c11.3,0,28.5-3.4,28.5,12.6
	c0,9.5-2.7,18.1-2.7,27.3c0-15.3,30.8-14.6,38.7-8.8c7.8,5.7,1.1,16.2,1.1,23 M244.1,250.5c0.8,9.1,9.2,18,15.9,22.9
	c3.5,2.5,7.5,4.1,10.7,6.8c5.5,4.7,11.5,8.3,17.8,11.9c5.6,3.2,10.8,6.6,16.7,9.3c6.8,3.1,21.7,9.1,27.9,13.2
	c9.5,6.3,13.5,3.9,16.5,15.4c21.6,2.7,55.7-2.8,75.8,7.5c3.2,1.6,6.6,6.5,6.8,10 M244.1,250.5c-84.9,0-143.1,10-243.1,10
	 M432.8,314.6c34.3-14,73-12.1,106.9-29 M432.8,314.6c1.6,11,4.7,22.3-0.6,32.9 M432.8,314.6c18.2,13.7,43.1,22,60.4,36.9
	c4.1,3.5,10,11,15.5,21 M539.7,285.6c-1.2,33.3-25.5,57.2-31,87 M539.7,285.6c68.1-64.3,196.8-73.8,283.2-96.1 M508.7,372.6
	c-4.7,1.4-16.8,5.3-21.5,7c-7.5,2.7-14.7,4.9-21.9,8.3c-14.9,6.8-44.3,21-35.7,42.2 M508.7,372.6c6.3-10.6,11.9-17.1,18-23
	c82-78.8,195.9-108.1,296.1-160 M508.7,372.6c-5,8.4,14.6,28.6,21.3,34c44.5,35.6,124.7,53.6,148,109.9
	c14.8,35.6-13.5,65.3-27.2,96.2 M508.7,372.6c-14.5,2-27.5-11-35.5-14.1c-8-3.1-24-18.9-41-10.9 M508.7,372.6
	c76.7-49.4,216.5-114.3,310.1-82.5 M432.2,347.6c1.4,8.3,1.5,16.9,1.5,25.3c0,19.3-15,39.7-4,57.2 M429.7,430.1
	c7.5,18.5-9.5,28.6-4,42c2.2,5.4,4.1,9.1,7.5,12.5 M433.2,484.6c-32.4,18.2-15,51.9-1.6,73c30.1,47.2,25.5,124.1,29.6,177.4
	c2.3,30.1,28.8,61.7,53,77.2c32.5,23.5,68.5,29.8,68.5,3c0-30.7-17.7-44.5-4.3-82.8c4.3-12.2,2.8-23.2-9.2-32.2 M433.2,484.6
	c-137.3,0-256.1-37-432.2-37 M569.2,700.1c20,10.5,27.1,0.4,32.9-7l0,0c13.8-17.8,34.8-22.7,41.1-47c1.4-5.6,0-16.5-3.5-21.5
	c6.2-4,10.1-9.8,11-12 M569.2,700.1c22.5,10.5,19,25.9,19,37.4c0,15.4,8,29,13.5,43c7.8,19.9,4.6,41.5-10.7,55.5
	c-18.6,17-57.7,1.6-77.8-7.6c-16.2-7.4-31.7-15.7-47-24.8c-18.8-11.3-36.6-23.9-56.4-33.5C331.1,731.8,145.1,685.6,1,685.6
	 M822.9,189.5c21.7-5.6,50.5-19.5,50.5-19.5 M873.4,170c3.8,0,9,10.2,14.7,11.6c12.3,3.1,22.9-2,29.2,12.9c2.6,6.2,7,9.1,13.6,10
	 M873.4,170c0,9,10.6,18.3,13.4,25.4c2.7,6.9,4.7,6.1,11.4,7.9c6.4,1.6,6.2,5.4,8.7,10.7 M818.8,290.1c-3.7,3.8-10.5,10.1-14,14
	c-15.7,17.4-27.3,27.1-36.1,49.3c-3.9,9.7-4.9,20.8-4.9,31.2c0,50.2,21.2,78.7,70.8,81.5c20,1.1,29.4-12.6,45.2-20.5 M818.8,290.1
	c-6.3-6-9.5-11-9.5-16.5c0-12.7,23.7-7.3,31.9-9.6c8.9-2.5,17.1-4.9,25.9-8.2 M867.1,255.8c1.3-7.3,10-20.4,16.8-23.2
	c5.8-2.4,17.3-6.2,20.9-11.6c1.9-2.9,2-3.9,2-6.9 M867.1,255.8c10.7-3.9,22.3-4.4,33.5-6.2c22.8,1,22.3-8.5,31.8-16.5 M906.9,214
	c1-1.9,4.3-5.3,9.5-4c6.5,1.6-0.5,13,19,19 M932.4,233c0.7-0.8,3.3-4.6,3-4 M932.4,233c-4,6-4.4,14-2.2,19c3.8,8.7,31.8,14,40.2,14
	 M935.4,229c1.9-2.1,3.5-5.9,2-8.7c-3-5.5-12.5-8.8-6.5-15.8 M970.4,266c11.2,0,22-6.2,26.9-16.1 M970.4,266
	c9.5,0,21.4,5.2,30.4,8.1c7.3,2.3,22.6,10.2,22.6,18.9 M997.3,249.9c-1.8,9.1,4.5,11.8,11,16.2c4,2.7,11.7,6.1,13,11.5
	c0.7,2.8,2.1,5.5,2.1,8.4v7 M997.3,249.9c0.9-4.7,0.1-7.5,3.5-10.9c2.5-2.6,10.5-3.6,11.6-8 M1023.4,293.1c0,7.1,5,10.9,9.8,14.9
	 M1012.4,231c-14.9-3.7-25.9-16.5-40.4-19.4c-4.1-0.8-8.5-1-12.6-0.4c-4.8,0.8-10.9,0.8-15.7-0.1c-4.3-0.8-9.2-4.1-12.8-6.6
	 M1012.4,231c-0.5-2.5,1-4.3,2.5-5.5 M930.9,204.5c2.5-4,8.8-7.3,12-8.2l0.1,0c5.2-1.5,10.3-3,13-8.3c1.9-3.7,2.7-8.4,5.9-11.3
	c4-3.6,7.6-7.6,11.8-11c5-4,9.4-8.9,17.2-7.1c6,1.4,15.9-1,22.5-3.1c9.6-3.1,15.6-5.8,24.5-10.5c1.9-1,10.5-4.5,14.5-4.5
	 M1052.4,140.5c-6.2,6.6-9.5,15.4-9,24.5c0.4,7.5,21.6,9.7,13,22c-2.5,3.6-5.3,5.8-8.3,8.8c-3.7,3.7,1.9,7.6,1.8,10.8
	c-0.4,6.6-14.9,4.6-19,6c-5.1,1.7-9.6,7.8-16,13 M1052.4,140.5c0,2.8-4.4,16.3-2.8,18c7,7.4,24.3,6.3,33.9,4.6
	c9.7-1.7,19.1,2.7,29.9-0.6c8.2-2.5,18.1-4.5,26.7-4.5c6,0,12.4-0.9,18.3-1.8c6.4-0.9,14.9-2.7,21.2-0.8c8.8,2.7,16.8,3.4,24.3,8.8
	 M1014.9,225.5c56.2-24.9,178.6-21.2,212.6,40.5 M1204,164.3c7.9-2.1,14.2-5,22.3-6c9.2-1.2,18.3,5.3,27.4-3.2
	c5.5-5.1,30.3-8,45.7-8.5c5.2-0.2,10.3-0.8,15.5-0.4c0.9,0.1,6,0.5,7,0.5 M1204,164.3c5.1,3.7,6.1,10.8,9,16.1
	c3.1,5.8,6.7,11.4,9.4,17.4c2.9,6.3,3.6,13.4,3.6,20.3c0,8.9,0.5,17.6,1.5,26.4c0.8,7.7,1.5,14,0,21.5 M1227.5,266
	c1.5,3.5,4.4,9.8,5.8,10.7c5.1,3.4,10.9,3.1,16.3,5.5c4.8,2.2,9.8,4.8,13.9,8.3c8.5,7.3,12.7,11.9,23.3,15.1
	c8.2,2.4,18.5,10.1,25.2,15.4c3,2.4,6.6,4,11.1,2 M1227.5,266c0,2.2-1.7,9-0.9,11.1c1.6,3.9,4.2,7.3,5.9,11.1
	c2.4,5.5,4.5,11.4,1.6,17c-2.8,5.4-10,5.4-13.1,11.1c-2.4,4.4-3.5,10.2-3.5,15.2 M1227.5,266c9.1-10.4,15.9-27.5,21.6-40
	c7.1-15.4,15.1-29.3,25.9-42.5c11.4-13.9,40.3-22.4,46.8-37.1 M1321.8,146.5c2.2-5,9.5-10.6,9.2-12.8c-0.5-4.2,3-9.2,8.5-9.7
	c4.2-0.4,10.3-1.6,11.9-3.6c1.6-2,6.6,1.2,4.6,2.5 M1356.1,123c-0.1,0,1.6,1.7,2,2.5c5.9,11.8-6.2,29,2.3,42.3
	c4.8,7.6,14.2,3.8,21.2,3.3c15.6-1.3,29.5-1.8,43.6-10c7.4-4.3,17.2-5.3,23.2-11.4c10.8-11.1,20.6,5.2,30.2,3.3
	c4.7-0.9,12.2,11.1,20.2,12.1c6.3,0.8,7.4,14,13,14c6.6,0,9.2,13.1,8,19.5c-1,5.5,6.8,14.9,8.5,21.5c2.4,9.5,10.5,21.7,14.7,31.1
	l0,0.1c1.8,4.1,4.4,9.8,1.3,14c-5.3,7.2-12.6,8.1-20,10.8c-11.9,4.2-17.4,5-19,16.5 M1356.1,123c-44.8,47-51.8,142.6-33,200.1
	 M1323.1,323.1c-1,3,1.1,5.4,0,9c-4.3,13.9,0,15,13.8,13.3c5.1-0.6,13.8,0.5,16.8,5.5c19.2,31.6,26.9,71.1,50,100.3 M1323.1,323.1
	c24.7-39.5,143.5-62.7,182.1-30.5 M1323.1,323.1c-3.3,5.3-18.5,9.8-19.5,15.3c-1.7,9.4-1.6,10.5-8.7,14.7c-3.1,1.9-8.8,3.5-12.4,3.5
	c-12.4,0-17.4,3.3-24.6,13 M1217.5,331.6c-13.6,27.2-36,42.7-62,57.5 M1217.5,331.6c8.6,8.6,10.9,20.2,22,26.8
	c6,3.6,14.5,5.3,18.4,11.3 M1033.2,307.9c1.7,1.4,3.3,3.7,4.5,5.6c2.4,3.9,7.2,6,11.7,6c8,0,15.3,21,20.3,26.8
	c8.7,9.8,14.4,28.6,19.8,40.7c3.4,7.8,11.5,22.6,21.3,22.6c8.6,0,37.3-16.2,44.7-20.5 M1033.2,307.9c-3,3.4-5.1,9.6-3.5,14.1
	c1.4,3.9,4.2,6.1,6.6,9.3c4.9,6.4,4.2,14.4,2.6,21.7c-0.9,4.4-9.8,11.5-1,15.7c13,6.3,0.1,9.3,3.6,13.1c2.5,2.7,4.4,7,4.4,10.7
	c0,5.9-4.5,12.8-4.5,20 M1155.5,389.1c29.2-8.3,53.8-21.2,84.8-22.5c4.4-0.2,13.4,2.7,17.7,3 M1258,369.6
	c-8.4,16.5-0.5,32.9,7.6,46.5c16.8,28.3,37.5,40,68.3,36.5c18.2-2.1,36.5-5,54.8-5c5.6,0,10.2,0.8,14.9,3.5 M1505.1,292.6
	c7.4,6.1,16.5,11.9,9,31.5c-5.4,14-25.1,30.7-41,24.5c21.5,43-24.7,90.7-53,119 M1505.1,292.6c18.7,0,34.9,3.3,54,0.5
	c13.8-2,25-6.7,25-23c41-59,225.6-9.5,307.6-9.5 M1505.1,292.6c58,23.8,71.7,101.6,81.1,157c1.5,9,8.9,30.9,11.5,39.6 M1597.7,489.1
	c-10.5-10.5-19.1-26-33-32c-11.6-5-22.6-7.7-34.8-11c-9.7-2.6-15-9.3-25.3-8.5c-23.9,2-49.2,15.5-71,24.5c-3.9,1.6-9.9,3.3-13.5,5.5
	 M1597.7,489.1c27.9-9.3,66.5,10.7,81.5,33.5c10.9,16.5,21.9,23.2,24.5,43.5c6.7,51.9-6.5,91.6-43.5,127.5 M1597.7,489.1
	c70.9-56.7,202.1-41.5,294.1-41.5 M1420.1,467.6c1.5,4,9,6,12.5,9.5c6.9,6.9,13.5,5,15.5,12.5c1,3.6,7.5,11.1,7.5,14.5
	c0,5.4-2.8,14.9-7.5,18c-5.6,3.6-12,7-14.5,13.2c-16.9,41.1,26.8,114.4,42.5,150.3 M1420.1,467.6c-4.6-6.9-9.3-12.4-16.5-16.5
	 M1476.1,685.6c-3.7,2.5-18.1,3.6-20.3,7.5c-11.1,19.8,72.8,13.5,79.3,13.5c13.6,0,28.3,8.2,40.7,13c15.3,5.9,26.3,9.5,43.4,9.5
	c22.6,0,40.9-10,40.9-35.5 M1476.1,685.6c-12.5,0-49-30.3-60.3-36.5c-33.2-18.3-66.1-37-100.3-53.6c-24-11.6-47.3-24.5-71.2-36.2
	c-38.2-18.8-110.7-61.2-153.9-57.7c-12.5,1-19.7-5.5-24.3-11.4c-2.7-3.5-6.3-6.3-9.2-9.6 M1660.2,693.6c68.9-18.9,155.6-8,231.6-8
	 M1041.4,412.5c0,5.9,3.9,10.8,2.9,16.9c-2.2,14.3,2.8,39.9,12.6,51.1 M1041.4,412.5c-11.5,4.4-19.8-3.7-31.8-2
	c-15.3,2.1-129.7,12-129.7,35 M1056.9,480.6c-31.2-3.1-65.7-32.8-99.7-38c-27.6-4.2-50.6-2.3-77.4,3 M879.9,445.6
	c-51.2,94.9-181.1,147.3-229.1,167"/>
</svg>
