<svg width="32" height="40" viewBox="0 0 32 40" fill="none" xmlns="http://www.w3.org/2000/svg">
<g filter="url(#filter0_d_2136_28737)">
<g clip-path="url(#clip0_2136_28737)">
<path d="M0 2C0 0.895431 0.895431 0 2 0H26C27.1046 0 28 0.895431 28 2V38C28 39.1046 27.1046 40 26 40H2C0.895431 40 0 39.1046 0 38V2Z" fill="#FFFBF2"/>
<rect opacity="0.5" width="28" height="23" fill="#faction"/>
<path d="M7 23.5L-1 15.5V41H29V15.5L21 23.5H7Z" fill="#faction"/>
<path d="M8.5 -1L-1 8.5V-1H8.5H19.5H29V8.5L19.5 -1H8.5Z" fill="#faction"/>
<path d="M8.5 -1L-1 8.5V-1H29V8.5L19.5 -1M-1 15.5L7 23.5H21L29 15.5V41H-1V15.5Z" stroke="#9B9B9B"/>
<circle cx="3.5" cy="3.5" r="2" fill="#656C6F" stroke="white"/>
<path fill-rule="evenodd" clip-rule="evenodd" d="M1.94682 26.2935C1.52018 27.1193 1 28.1262 1 30C1 31.8909 1.44143 32.899 1.80491 33.729C2.30645 34.8744 2.65959 35.6808 1.5 38C2.98268 36.5173 3.41015 36.7933 4.13835 37.2634C4.63799 37.586 5.27921 38 6.5 38H14H21.5C22.7208 38 23.362 37.586 23.8617 37.2634C24.5898 36.7933 25.0173 36.5173 26.5 38C25.3404 35.6808 25.6936 34.8744 26.1951 33.729C26.5586 32.899 27 31.8909 27 30C27 28.1262 26.4798 27.1193 26.0532 26.2935C25.4552 25.1361 25.041 24.3344 26.5 22C25.1115 23.0414 24.205 22.8778 23.1112 22.6804C22.6295 22.5935 22.1115 22.5 21.5 22.5H14H6.5C5.88851 22.5 5.3705 22.5935 4.8888 22.6804C3.79503 22.8778 2.88851 23.0414 1.5 22C2.95899 24.3344 2.54477 25.1361 1.94682 26.2935Z" fill="#FFFBF2"/>
<path d="M1.94682 26.2935L2.39104 26.523L1.94682 26.2935ZM1.80491 33.729L1.3469 33.9296H1.3469L1.80491 33.729ZM1.5 38L1.05279 37.7764L1.85355 38.3536L1.5 38ZM4.13835 37.2634L4.40955 36.8434V36.8434L4.13835 37.2634ZM23.8617 37.2634L23.5905 36.8434V36.8434L23.8617 37.2634ZM26.5 38L26.1464 38.3536L26.9472 37.7764L26.5 38ZM26.1951 33.729L25.7371 33.5285L26.1951 33.729ZM26.0532 26.2935L26.4974 26.064L26.0532 26.2935ZM26.5 22L26.924 22.265L26.2 21.6L26.5 22ZM23.1112 22.6804L23.0224 23.1725L23.1112 22.6804ZM4.8888 22.6804L4.9776 23.1725L4.8888 22.6804ZM1.5 22L1.8 21.6L1.076 22.265L1.5 22ZM1.5 30C1.5 28.2438 1.97854 27.3215 2.39104 26.523L1.50261 26.064C1.06183 26.9172 0.5 28.0086 0.5 30H1.5ZM2.26293 33.5285C1.91154 32.7261 1.5 31.7914 1.5 30H0.5C0.5 31.9904 0.971315 33.0719 1.3469 33.9296L2.26293 33.5285ZM1.94721 38.2236C2.54323 37.0316 2.78246 36.1675 2.77536 35.4196C2.76823 34.6688 2.5098 34.0923 2.26293 33.5285L1.3469 33.9296C1.60156 34.5111 1.77048 34.9105 1.7754 35.4291C1.78036 35.9505 1.61636 36.6493 1.05279 37.7764L1.94721 38.2236ZM4.40955 36.8434C4.07744 36.629 3.62806 36.3148 3.02782 36.405C2.46832 36.489 1.8891 36.9038 1.14645 37.6464L1.85355 38.3536C2.59358 37.6135 2.96944 37.425 3.17639 37.3939C3.34261 37.3689 3.47106 37.4278 3.86715 37.6835L4.40955 36.8434ZM6.5 37.5C5.42304 37.5 4.88081 37.1476 4.40955 36.8434L3.86715 37.6835C4.39518 38.0244 5.13538 38.5 6.5 38.5V37.5ZM14 37.5H6.5V38.5H14V37.5ZM14 38.5H21.5V37.5H14V38.5ZM21.5 38.5C22.8646 38.5 23.6048 38.0244 24.1328 37.6835L23.5905 36.8434C23.1192 37.1476 22.577 37.5 21.5 37.5V38.5ZM24.1328 37.6835C24.5289 37.4278 24.6574 37.3689 24.8236 37.3939C25.0306 37.425 25.4064 37.6135 26.1464 38.3536L26.8536 37.6464C26.1109 36.9038 25.5317 36.489 24.9722 36.405C24.3719 36.3148 23.9226 36.629 23.5905 36.8434L24.1328 37.6835ZM26.9472 37.7764C26.3836 36.6493 26.2196 35.9505 26.2246 35.4291C26.2295 34.9105 26.3984 34.5111 26.6531 33.9296L25.7371 33.5285C25.4902 34.0923 25.2318 34.6688 25.2246 35.4196C25.2175 36.1675 25.4568 37.0316 26.0528 38.2236L26.9472 37.7764ZM26.6531 33.9296C27.0287 33.0719 27.5 31.9904 27.5 30H26.5C26.5 31.7914 26.0885 32.7261 25.7371 33.5285L26.6531 33.9296ZM27.5 30C27.5 28.0086 26.9382 26.9172 26.4974 26.064L25.609 26.523C26.0215 27.3215 26.5 28.2438 26.5 30H27.5ZM26.4974 26.064C26.1911 25.4712 26.0021 25.0871 26.0052 24.5913C26.0084 24.0916 26.2129 23.4028 26.924 22.265L26.076 21.735C25.3281 22.9316 25.0102 23.8109 25.0052 24.5849C25.0003 25.363 25.3173 25.9584 25.609 26.523L26.4974 26.064ZM26.2 21.6C25.5616 22.0788 25.0688 22.2562 24.6353 22.3083C24.1849 22.3625 23.7582 22.2891 23.2 22.1884L23.0224 23.1725C23.558 23.2691 24.1314 23.3762 24.7548 23.3012C25.3952 23.2241 26.0499 22.9626 26.8 22.4L26.2 21.6ZM23.2 22.1884C22.72 22.1017 22.1616 22 21.5 22V23C22.0614 23 22.5391 23.0852 23.0224 23.1725L23.2 22.1884ZM21.5 22H14V23H21.5V22ZM6.5 23H14V22H6.5V23ZM4.9776 23.1725C5.46095 23.0852 5.93857 23 6.5 23V22C5.83845 22 5.28005 22.1017 4.80001 22.1884L4.9776 23.1725ZM1.2 22.4C1.95007 22.9626 2.60481 23.2241 3.2452 23.3012C3.86859 23.3762 4.44205 23.2691 4.9776 23.1725L4.80001 22.1884C4.24178 22.2891 3.8151 22.3625 3.36466 22.3083C2.93121 22.2562 2.43844 22.0788 1.8 21.6L1.2 22.4ZM2.39104 26.523C2.68272 25.9584 2.99973 25.363 2.99475 24.5849C2.9898 23.8109 2.67187 22.9316 1.924 21.735L1.076 22.265C1.78712 23.4028 1.99157 24.0916 1.99477 24.5913C1.99794 25.0871 1.80887 25.4712 1.50261 26.064L2.39104 26.523Z" fill="#9B9B9B"/>
<path d="M8 28H7.5V29H8V28ZM21 29H21.5V28H21V29ZM2.5 30.5H2V31.5H2.5V30.5ZM24.5 31.5H25V30.5H24.5V31.5ZM3.5 32.5H3V33.5H3.5V32.5ZM23.5 33.5H24V32.5H23.5V33.5ZM4.5 34.5H4V35.5H4.5V34.5ZM12.5 35.5H13V34.5H12.5V35.5ZM8 29H8.46429V28H8V29ZM9.39286 29H10.3214V28H9.39286V29ZM11.25 29H12.1786V28H11.25V29ZM13.1071 29H14.0357V28H13.1071V29ZM14.9643 29H15.8929V28H14.9643V29ZM16.8214 29H17.75V28H16.8214V29ZM18.6786 29H19.6071V28H18.6786V29ZM20.5357 29H21V28H20.5357V29ZM2.5 31.5H3V30.5H2.5V31.5ZM4 31.5H5V30.5H4V31.5ZM6 31.5H7V30.5H6V31.5ZM8 31.5H9V30.5H8V31.5ZM10 31.5H11V30.5H10V31.5ZM12 31.5H13V30.5H12V31.5ZM14 31.5H15V30.5H14V31.5ZM16 31.5H17V30.5H16V31.5ZM18 31.5H19V30.5H18V31.5ZM20 31.5H21V30.5H20V31.5ZM22 31.5H23V30.5H22V31.5ZM24 31.5H24.5V30.5H24V31.5ZM3.5 33.5H4V32.5H3.5V33.5ZM5 33.5H6V32.5H5V33.5ZM7 33.5H8V32.5H7V33.5ZM9 33.5H10V32.5H9V33.5ZM11 33.5H12V32.5H11V33.5ZM13 33.5H14V32.5H13V33.5ZM15 33.5H16V32.5H15V33.5ZM17 33.5H18V32.5H17V33.5ZM19 33.5H20V32.5H19V33.5ZM21 33.5H22V32.5H21V33.5ZM23 33.5H23.5V32.5H23V33.5ZM4.5 35.5H5V34.5H4.5V35.5ZM6 35.5H7V34.5H6V35.5ZM8 35.5H9V34.5H8V35.5ZM10 35.5H11V34.5H10V35.5ZM12 35.5H12.5V34.5H12V35.5Z" fill="black"/>
<line x1="2" y1="26.5" x2="26" y2="26.5" stroke="#9B9B9B"/>
<path d="M10.5 25.5V23.5H9.5V25.5H10.5ZM12 25.5V23.5H11V25.5H12ZM13.5 25.5V23.5H12.5V25.5H13.5ZM15 25.5V23.5H14V25.5H15ZM16.5 25.5V23.5H15.5V25.5H16.5ZM18 25.5V23.5H17V25.5H18ZM19.5 25.5V23.5H18.5V25.5H19.5Z" fill="black"/>
</g>
</g>
<defs>
<filter id="filter0_d_2136_28737" x="-4" y="-2" width="36" height="48" filterUnits="userSpaceOnUse" color-interpolation-filters="sRGB">
<feFlood flood-opacity="0" result="BackgroundImageFix"/>
<feColorMatrix in="SourceAlpha" type="matrix" values="0 0 0 0 0 0 0 0 0 0 0 0 0 0 0 0 0 0 127 0" result="hardAlpha"/>
<feOffset dy="2"/>
<feGaussianBlur stdDeviation="2"/>
<feColorMatrix type="matrix" values="0 0 0 0 0 0 0 0 0 0 0 0 0 0 0 0 0 0 0.25 0"/>
<feBlend mode="normal" in2="BackgroundImageFix" result="effect1_dropShadow_2136_28737"/>
<feBlend mode="normal" in="SourceGraphic" in2="effect1_dropShadow_2136_28737" result="shape"/>
</filter>
<clipPath id="clip0_2136_28737">
<path d="M0 2C0 0.895431 0.895431 0 2 0H26C27.1046 0 28 0.895431 28 2V38C28 39.1046 27.1046 40 26 40H2C0.895431 40 0 39.1046 0 38V2Z" fill="white"/>
</clipPath>
</defs>
</svg>
