<svg width="36" height="40" viewBox="0 0 36 40" fill="none" xmlns="http://www.w3.org/2000/svg">
<g filter="url(#filter0_d_2136_28738)">
<g clip-path="url(#clip0_2136_28738)">
<path d="M4 2C4 0.895431 4.89543 0 6 0H30C31.1046 0 32 0.895431 32 2V38C32 39.1046 31.1046 40 30 40H6C4.89543 40 4 39.1046 4 38V2Z" fill="#FFFBF2"/>
<path opacity="0.5" d="M32 13.5C32 8 27.5 3 18 3C9.5 3 4.5 8 4.5 13.5C4.5 20.5 10.5 24 18 24C26.5 24 32 19 32 13.5Z" fill="#faction"/>
<path d="M18 35C8.5 35 2.5 39.5 2.5 39.5V40.5H33.5V39.5C33.5 39.5 27.5 35 18 35Z" fill="#faction"/>
<path d="M18 3C27.5 3 32 8 32 13.5C32 19 26.5 24 18 24C27 24 33 19.5 33 19.5V0H3V19.5C3 19.5 10 24 18 24C10.5 24 4.5 20.5 4.5 13.5C4.5 8 9.5 3 18 3Z" fill="#faction"/>
<path d="M33 19.5L33.3 19.9L33.5 19.75V19.5H33ZM3 19.5H2.5V19.773L2.72962 19.9206L3 19.5ZM2.5 39.5L2.2 39.1L2 39.25V39.5H2.5ZM33.5 39.5H34V39.25L33.8 39.1L33.5 39.5ZM33 0H33.5V-0.5H33V0ZM3 0V-0.5H2.5V0H3ZM2.5 40.5H2V41H2.5V40.5ZM33.5 40.5V41H34V40.5H33.5ZM18 3.5C22.6649 3.5 26.0409 4.72711 28.2414 6.57076C30.437 8.41031 31.5 10.8933 31.5 13.5H32.5C32.5 10.6067 31.313 7.83969 28.8836 5.80424C26.4591 3.77289 22.8351 2.5 18 2.5V3.5ZM31.5 13.5C31.5 18.6229 26.337 23.5 18 23.5V24.5C26.663 24.5 32.5 19.3771 32.5 13.5H31.5ZM5 13.5C5 8.35536 9.68963 3.5 18 3.5V2.5C9.31037 2.5 4 7.64464 4 13.5H5ZM18 24.5C22.5833 24.5 26.4009 23.3543 29.072 22.2096C30.408 21.637 31.4594 21.0637 32.1791 20.6319C32.5391 20.4159 32.8163 20.2352 33.005 20.1073C33.0994 20.0434 33.1716 19.9927 33.221 19.9574C33.2457 19.9398 33.2647 19.926 33.2779 19.9163C33.2845 19.9115 33.2897 19.9077 33.2933 19.905C33.2952 19.9036 33.2967 19.9025 33.2978 19.9017C33.2983 19.9013 33.2988 19.9009 33.2992 19.9006C33.2993 19.9005 33.2996 19.9003 33.2997 19.9003C33.2998 19.9001 33.3 19.9 33 19.5C32.7 19.1 32.7001 19.0999 32.7002 19.0998C32.7002 19.0998 32.7003 19.0998 32.7003 19.0998C32.7003 19.0998 32.7002 19.0998 32.7 19.1C32.6997 19.1002 32.699 19.1008 32.6979 19.1016C32.6957 19.1032 32.6921 19.1058 32.6871 19.1095C32.677 19.1169 32.6612 19.1284 32.6398 19.1437C32.5969 19.1743 32.5315 19.2203 32.4442 19.2794C32.2696 19.3977 32.0078 19.5685 31.6646 19.7744C30.9781 20.1863 29.967 20.738 28.678 21.2904C26.0991 22.3957 22.4167 23.5 18 23.5V24.5ZM18 34.5C13.1705 34.5 9.2296 35.6438 6.49443 36.7888C5.12666 37.3613 4.05905 37.9347 3.33078 38.3669C2.96657 38.583 2.68701 38.7639 2.49697 38.892C2.40195 38.956 2.32928 39.0068 2.27959 39.0422C2.25474 39.0599 2.23564 39.0738 2.22235 39.0835C2.2157 39.0884 2.21051 39.0922 2.20678 39.095C2.20492 39.0963 2.20342 39.0974 2.20229 39.0983C2.20173 39.0987 2.20125 39.0991 2.20087 39.0993C2.20068 39.0995 2.20046 39.0997 2.20037 39.0997C2.20017 39.0999 2.2 39.1 2.5 39.5C2.8 39.9 2.79987 39.9001 2.79977 39.9002C2.79977 39.9002 2.79969 39.9002 2.79968 39.9002C2.79966 39.9003 2.79974 39.9002 2.7999 39.9001C2.80024 39.8998 2.80093 39.8993 2.80199 39.8985C2.8041 39.897 2.80766 39.8943 2.81266 39.8907C2.82265 39.8834 2.8384 39.8719 2.85981 39.8567C2.90265 39.8262 2.96817 39.7803 3.05576 39.7213C3.23096 39.6032 3.49437 39.4326 3.8411 39.2269C4.5347 38.8153 5.56084 38.2637 6.88057 37.7112C9.5204 36.6062 13.3295 35.5 18 35.5V34.5ZM18 35.5C22.6705 35.5 26.4796 36.6062 29.1194 37.7112C30.4392 38.2637 31.4653 38.8153 32.1589 39.2269C32.5056 39.4326 32.769 39.6032 32.9442 39.7213C33.0318 39.7803 33.0974 39.8262 33.1402 39.8567C33.1616 39.8719 33.1773 39.8834 33.1873 39.8907C33.1923 39.8943 33.1959 39.897 33.198 39.8985C33.1991 39.8993 33.1998 39.8998 33.2001 39.9001C33.2003 39.9002 33.2003 39.9003 33.2003 39.9002C33.2003 39.9002 33.2002 39.9002 33.2002 39.9002C33.2001 39.9001 33.2 39.9 33.5 39.5C33.8 39.1 33.7998 39.0999 33.7996 39.0997C33.7995 39.0997 33.7993 39.0995 33.7991 39.0993C33.7987 39.0991 33.7983 39.0987 33.7977 39.0983C33.7966 39.0974 33.7951 39.0963 33.7932 39.095C33.7895 39.0922 33.7843 39.0884 33.7777 39.0835C33.7644 39.0738 33.7453 39.0599 33.7204 39.0422C33.6707 39.0068 33.5981 38.956 33.503 38.892C33.313 38.7639 33.0334 38.583 32.6692 38.3669C31.9409 37.9347 30.8733 37.3613 29.5056 36.7888C26.7704 35.6438 22.8295 34.5 18 34.5V35.5ZM33.5 19.5V0H32.5V19.5H33.5ZM33 -0.5H3V0.5H33V-0.5ZM2.5 0V19.5H3.5V0H2.5ZM2 39.5V40.5H3V39.5H2ZM2.5 41H33.5V40H2.5V41ZM34 40.5V39.5H33V40.5H34ZM3 19.5C2.72962 19.9206 2.72975 19.9207 2.72992 19.9208C2.73 19.9208 2.73019 19.921 2.73037 19.9211C2.73073 19.9213 2.73119 19.9216 2.73176 19.922C2.7329 19.9227 2.73446 19.9237 2.73645 19.925C2.74043 19.9275 2.7461 19.9311 2.75344 19.9357C2.76811 19.945 2.78947 19.9584 2.81732 19.9756C2.87302 20.0101 2.95472 20.06 3.06095 20.1232C3.27338 20.2494 3.58404 20.4286 3.98118 20.6431C4.77518 21.0718 5.91639 21.6424 7.31068 22.2128C10.0943 23.3515 13.9115 24.5 18 24.5V23.5C14.0885 23.5 10.4057 22.3985 7.68932 21.2872C6.33361 20.7326 5.22482 20.1782 4.45632 19.7632C4.07221 19.5558 3.77349 19.3834 3.57186 19.2635C3.47106 19.2036 3.39455 19.1569 3.34381 19.1254C3.31844 19.1097 3.29951 19.0979 3.28721 19.0901C3.28106 19.0862 3.27657 19.0834 3.27376 19.0816C3.27235 19.0807 3.27136 19.08 3.2708 19.0797C3.27052 19.0795 3.27034 19.0794 3.27027 19.0793C3.27024 19.0793 3.27026 19.0793 3.27025 19.0793C3.2703 19.0794 3.27038 19.0794 3 19.5ZM18 23.5C14.3192 23.5 11.0568 22.64 8.7291 20.9688C6.42012 19.3111 5 16.8361 5 13.5H4C4 17.1639 5.57988 19.9389 8.1459 21.7812C10.6932 23.61 14.1808 24.5 18 24.5V23.5Z" fill="#BFA640"/>
<path d="M3 -0.5H33V3.5H3V-0.5Z" fill="#F5F0E1" stroke="#BFA640"/>
<circle cx="7.5" cy="3.5" r="2" fill="#656C6F" stroke="white"/>
<circle cx="28.5" cy="36.5" r="2" fill="white" stroke="#656C6F"/>
<path d="M12 25.5H11.5V26.5H12V25.5ZM25 26.5H25.5V25.5H25V26.5ZM6.5 28H6V29H6.5V28ZM28.5 29H29V28H28.5V29ZM7.5 30H7V31H7.5V30ZM27.5 31H28V30H27.5V31ZM6.5 32H6V33H6.5V32ZM14.5 33H15V32H14.5V33ZM12 26.5H12.4643V25.5H12V26.5ZM13.3929 26.5H14.3214V25.5H13.3929V26.5ZM15.25 26.5H16.1786V25.5H15.25V26.5ZM17.1071 26.5H18.0357V25.5H17.1071V26.5ZM18.9643 26.5H19.8929V25.5H18.9643V26.5ZM20.8214 26.5H21.75V25.5H20.8214V26.5ZM22.6786 26.5H23.6071V25.5H22.6786V26.5ZM24.5357 26.5H25V25.5H24.5357V26.5ZM6.5 29H7V28H6.5V29ZM8 29H9V28H8V29ZM10 29H11V28H10V29ZM12 29H13V28H12V29ZM14 29H15V28H14V29ZM16 29H17V28H16V29ZM18 29H19V28H18V29ZM20 29H21V28H20V29ZM22 29H23V28H22V29ZM24 29H25V28H24V29ZM26 29H27V28H26V29ZM28 29H28.5V28H28V29ZM7.5 31H8V30H7.5V31ZM9 31H10V30H9V31ZM11 31H12V30H11V31ZM13 31H14V30H13V31ZM15 31H16V30H15V31ZM17 31H18V30H17V31ZM19 31H20V30H19V31ZM21 31H22V30H21V31ZM23 31H24V30H23V31ZM25 31H26V30H25V31ZM27 31H27.5V30H27V31ZM6.5 33H7V32H6.5V33ZM8 33H9V32H8V33ZM10 33H11V32H10V33ZM12 33H13V32H12V33ZM14 33H14.5V32H14V33Z" fill="black"/>
<path d="M14.5 2.5V0.5H13.5V2.5H14.5ZM16 2.5V0.5H15V2.5H16ZM17.5 2.5V0.5H16.5V2.5H17.5ZM19 2.5V0.5H18V2.5H19ZM20.5 2.5V0.5H19.5V2.5H20.5ZM22 2.5V0.5H21V2.5H22ZM23.5 2.5V0.5H22.5V2.5H23.5Z" fill="black"/>
</g>
</g>
<defs>
<filter id="filter0_d_2136_28738" x="0" y="-2" width="36" height="48" filterUnits="userSpaceOnUse" color-interpolation-filters="sRGB">
<feFlood flood-opacity="0" result="BackgroundImageFix"/>
<feColorMatrix in="SourceAlpha" type="matrix" values="0 0 0 0 0 0 0 0 0 0 0 0 0 0 0 0 0 0 127 0" result="hardAlpha"/>
<feOffset dy="2"/>
<feGaussianBlur stdDeviation="2"/>
<feColorMatrix type="matrix" values="0 0 0 0 0 0 0 0 0 0 0 0 0 0 0 0 0 0 0.25 0"/>
<feBlend mode="normal" in2="BackgroundImageFix" result="effect1_dropShadow_2136_28738"/>
<feBlend mode="normal" in="SourceGraphic" in2="effect1_dropShadow_2136_28738" result="shape"/>
</filter>
<clipPath id="clip0_2136_28738">
<path d="M4 2C4 0.895431 4.89543 0 6 0H30C31.1046 0 32 0.895431 32 2V38C32 39.1046 31.1046 40 30 40H6C4.89543 40 4 39.1046 4 38V2Z" fill="white"/>
</clipPath>
</defs>
</svg>
