<svg width="36" height="40" viewBox="0 0 36 40" fill="none" xmlns="http://www.w3.org/2000/svg">
<g filter="url(#filter0_d_2136_28741)">
<g clip-path="url(#clip0_2136_28741)">
<path d="M4 2C4 0.895431 4.89543 0 6 0H30C31.1046 0 32 0.895431 32 2V38C32 39.1046 31.1046 40 30 40H6C4.89543 40 4 39.1046 4 38V2Z" fill="#FFFBF2"/>
<rect opacity="0.5" x="4" width="28" height="26" fill="#faction"/>
<rect x="4" y="26" width="28" height="14" fill="#FFFBF2" stroke="#BFA640"/>
<path d="M6.5 8.5C6.5 14 4.5 15 4.5 20.5C4.5 27.5 7 27.5 7 33C7 35.2898 6.45837 37.1372 5.7979 38.5H30.2979C30.9584 37.1372 31.5 35.2898 31.5 33C31.5 27.5 29 27.5 29 20.5C29 15 31 14 31 8.5C31 4.1 29.6667 1.5 29 1V-1H33V41H28.5H4H3V1H4.5C5.16667 1.5 6.5 4.1 6.5 8.5Z" fill="#faction"/>
<path d="M4.5 1L4.8 0.6L4.66667 0.5H4.5V1ZM29 1H28.5V1.25L28.7 1.4L29 1ZM29 -1V-1.5H28.5V-1H29ZM33 -1H33.5V-1.5H33V-1ZM33 41V41.5H33.5V41H33ZM3 41H2.5V41.5H3V41ZM3 1V0.5H2.5V1H3ZM30.2979 38.5V39H30.6112L30.7478 38.7181L30.2979 38.5ZM5.7979 38.5L5.34796 38.2819L4.99996 39H5.7979V38.5ZM5 20.5C5 17.8256 5.4823 16.2577 5.97789 14.647C6.4823 13.0077 7 11.3256 7 8.5H6C6 11.1744 5.5177 12.7423 5.02211 14.353C4.5177 15.9923 4 17.6744 4 20.5H5ZM7 8.5C7 6.25021 6.65921 4.44703 6.22481 3.1308C6.00779 2.47322 5.76581 1.93239 5.52787 1.51599C5.29715 1.11223 5.04803 0.786023 4.8 0.6L4.2 1.4C4.2853 1.46398 4.45285 1.65027 4.65963 2.01213C4.85919 2.36136 5.07554 2.83928 5.27519 3.4442C5.67412 4.65297 6 6.34979 6 8.5H7ZM4 20.5C4 24.0797 4.64394 25.8936 5.28576 27.4982C5.90772 29.0531 6.5 30.3521 6.5 33H7.5C7.5 30.1479 6.84228 28.6969 6.21424 27.1268C5.60606 25.6064 5 23.9203 5 20.5H4ZM29.5 20.5C29.5 17.8256 29.9823 16.2577 30.4779 14.647C30.9823 13.0077 31.5 11.3256 31.5 8.5H30.5C30.5 11.1744 30.0177 12.7423 29.5221 14.353C29.0177 15.9923 28.5 17.6744 28.5 20.5H29.5ZM31.5 8.5C31.5 6.25021 31.1592 4.44703 30.7248 3.1308C30.5078 2.47322 30.2658 1.93239 30.0279 1.51599C29.7971 1.11223 29.548 0.786023 29.3 0.6L28.7 1.4C28.7853 1.46398 28.9529 1.65027 29.1596 2.01213C29.3592 2.36136 29.5755 2.83928 29.7752 3.4442C30.1741 4.65297 30.5 6.34979 30.5 8.5H31.5ZM28.5 20.5C28.5 24.0797 29.1439 25.8936 29.7858 27.4982C30.4077 29.0531 31 30.3521 31 33H32C32 30.1479 31.3423 28.6969 30.7142 27.1268C30.1061 25.6064 29.5 23.9203 29.5 20.5H28.5ZM29.5 1V-1H28.5V1H29.5ZM29 -0.5H33V-1.5H29V-0.5ZM32.5 -1V41H33.5V-1H32.5ZM33 40.5H28.5V41.5H33V40.5ZM4 40.5H3V41.5H4V40.5ZM3.5 41V1H2.5V41H3.5ZM3 1.5H4.5V0.5H3V1.5ZM31 33C31 35.2093 30.4777 36.9825 29.848 38.2819L30.7478 38.7181C31.439 37.2919 32 35.3703 32 33H31ZM6.5 33C6.5 35.2093 5.97772 36.9825 5.34796 38.2819L6.24785 38.7181C6.93902 37.2919 7.5 35.3703 7.5 33H6.5ZM30.2979 38H5.7979V39H30.2979V38ZM4 41.5H28.5V40.5H4V41.5Z" fill="#BFA640"/>
<path d="M3 -0.5H33V3.5H3V-0.5Z" fill="#F5F0E1" stroke="#BFA640"/>
<mask id="path-7-inside-1_2136_28741" fill="white">
<path fill-rule="evenodd" clip-rule="evenodd" d="M9.2 2C9.2 2.6 8.6 3.2 8 3.2C7.4 3.2 6.8 2.6 6.8 2H5C5 3.65685 6.34315 5 8 5C9.65685 5 11 3.65685 11 2H9.2Z"/>
</mask>
<path fill-rule="evenodd" clip-rule="evenodd" d="M9.2 2C9.2 2.6 8.6 3.2 8 3.2C7.4 3.2 6.8 2.6 6.8 2H5C5 3.65685 6.34315 5 8 5C9.65685 5 11 3.65685 11 2H9.2Z" fill="white"/>
<path d="M9.2 2V1H8.2V2H9.2ZM6.8 2H7.8V1H6.8V2ZM5 2V1H4V2H5ZM11 2H12V1H11V2ZM8 4.2C8.62523 4.2 9.16676 3.89745 9.53211 3.53211C9.89745 3.16676 10.2 2.62523 10.2 2H8.2C8.2 1.98354 8.20374 1.98977 8.19069 2.01774C8.17761 2.04576 8.15361 2.08218 8.11789 2.11789C8.08218 2.15361 8.04576 2.17761 8.01774 2.19069C7.98977 2.20374 7.98354 2.2 8 2.2V4.2ZM5.8 2C5.8 2.62523 6.10255 3.16676 6.46789 3.53211C6.83324 3.89745 7.37477 4.2 8 4.2V2.2C8.01646 2.2 8.01023 2.20374 7.98226 2.19069C7.95424 2.17761 7.91782 2.15361 7.88211 2.11789C7.84639 2.08218 7.82238 2.04576 7.80931 2.01774C7.79626 1.98977 7.8 1.98354 7.8 2H5.8ZM5 3H6.8V1H5V3ZM8 4C6.89543 4 6 3.10457 6 2H4C4 4.20914 5.79086 6 8 6V4ZM10 2C10 3.10457 9.10457 4 8 4V6C10.2091 6 12 4.20914 12 2H10ZM9.2 3H11V1H9.2V3Z" fill="#656C6F" mask="url(#path-7-inside-1_2136_28741)"/>
<path d="M15.5 2.5V0.5H14.5V2.5H15.5ZM17 2.5V0.5H16V2.5H17ZM18.5 2.5V0.5H17.5V2.5H18.5ZM20 2.5V0.5H19V2.5H20ZM21.5 2.5V0.5H20.5V2.5H21.5ZM23 2.5V0.5H22V2.5H23ZM24.5 2.5V0.5H23.5V2.5H24.5Z" fill="black"/>
<path d="M12 27.5H11.5V28.5H12V27.5ZM25 28.5H25.5V27.5H25V28.5ZM8.5 30H8V31H8.5V30ZM28.5 31H29V30H28.5V31ZM9.5 32H9V33H9.5V32ZM27.5 33H28V32H27.5V33ZM8.5 34H8V35H8.5V34ZM18.5 35H19V34H18.5V35ZM12 28.5H12.4643V27.5H12V28.5ZM13.3929 28.5H14.3214V27.5H13.3929V28.5ZM15.25 28.5H16.1786V27.5H15.25V28.5ZM17.1071 28.5H18.0357V27.5H17.1071V28.5ZM18.9643 28.5H19.8929V27.5H18.9643V28.5ZM20.8214 28.5H21.75V27.5H20.8214V28.5ZM22.6786 28.5H23.6071V27.5H22.6786V28.5ZM24.5357 28.5H25V27.5H24.5357V28.5ZM8.5 31H9V30H8.5V31ZM10 31H11V30H10V31ZM12 31H13V30H12V31ZM14 31H15V30H14V31ZM16 31H17V30H16V31ZM18 31H19V30H18V31ZM20 31H21V30H20V31ZM22 31H23V30H22V31ZM24 31H25V30H24V31ZM26 31H27V30H26V31ZM28 31H28.5V30H28V31ZM9.5 33H10V32H9.5V33ZM11 33H12V32H11V33ZM13 33H14V32H13V33ZM15 33H16V32H15V33ZM17 33H18V32H17V33ZM19 33H20V32H19V33ZM21 33H22V32H21V33ZM23 33H24V32H23V33ZM25 33H26V32H25V33ZM27 33H27.5V32H27V33ZM8.5 35H9V34H8.5V35ZM10 35H11V34H10V35ZM12 35H13V34H12V35ZM14 35H15V34H14V35ZM16 35H17V34H16V35ZM18 35H18.5V34H18V35Z" fill="black"/>
</g>
</g>
<defs>
<filter id="filter0_d_2136_28741" x="0" y="-2" width="36" height="48" filterUnits="userSpaceOnUse" color-interpolation-filters="sRGB">
<feFlood flood-opacity="0" result="BackgroundImageFix"/>
<feColorMatrix in="SourceAlpha" type="matrix" values="0 0 0 0 0 0 0 0 0 0 0 0 0 0 0 0 0 0 127 0" result="hardAlpha"/>
<feOffset dy="2"/>
<feGaussianBlur stdDeviation="2"/>
<feColorMatrix type="matrix" values="0 0 0 0 0 0 0 0 0 0 0 0 0 0 0 0 0 0 0.25 0"/>
<feBlend mode="normal" in2="BackgroundImageFix" result="effect1_dropShadow_2136_28741"/>
<feBlend mode="normal" in="SourceGraphic" in2="effect1_dropShadow_2136_28741" result="shape"/>
</filter>
<clipPath id="clip0_2136_28741">
<path d="M4 2C4 0.895431 4.89543 0 6 0H30C31.1046 0 32 0.895431 32 2V38C32 39.1046 31.1046 40 30 40H6C4.89543 40 4 39.1046 4 38V2Z" fill="white"/>
</clipPath>
</defs>
</svg>
