<svg width="354" height="48" viewBox="0 0 354 48" fill="none" xmlns="http://www.w3.org/2000/svg">
<path d="M282 33.6C282.1 32.3 282.6 31.1 282.9 29.5C284.7 30.1 286.3 30.7 287.9 31.3C288.6 30.2 289.2 29.2 290.1 27.8C291.4 28.9 292.5 29.7 293.4 30.7C294.6 32.1 295.3 32.1 296 30.8C294.3 29.6 292.6 28.5 290.9 27.3C292.3 25 293.6 23 294.9 20.7C293.9 21 293.1 21.2 292.4 21.4C292.6 21.5 292.7 21.6 292.9 21.7C292.1 23.3 291.3 24.9 290.5 26.5C287.5 25.4 286.9 22 284 21.3C283.4 23.7 282.9 26 282.2 28.6C280.9 27.7 280 27.1 279 26.4C279.1 26.2 279.1 26 279.1 25.8C278.2 26.3 277.3 26.9 276.6 27.3C278.5 27.9 280.2 28.5 282.3 29.2C281.3 31.3 280.4 33.1 279.6 34.9C281.2 35.6 281.8 35.3 282 33.6ZM284.7 22.6C286.3 24.3 287.7 25.8 289.3 27.4C288.8 28.2 288.2 29.1 287.6 30C286.2 29.5 284.8 29 283.2 28.4C283.7 26.6 284.2 24.8 284.7 22.6Z" fill="currentColor"/>
<path d="M262.5 35.2C261.8 33.9 260.6 32.3 262.7 30.8C261.6 29.4 260.6 28.1 259.5 26.8C259.3 26.9 259.2 27 259 27C258.7 28.7 258.5 30.3 258.1 32C260.5 31.7 260.5 31.7 261.5 36.2C259.3 37.1 257 38 254.5 39C253.9 36.6 253.2 34.4 252.7 32.1C252.5 31.3 252.9 30.5 253 29.6C253.2 29.6 253.4 29.5 253.6 29.5C252.5 28.4 251.4 27.3 250 25.8C249.6 28 249.4 29.6 249.1 31.2C249.9 31 250.6 30.8 251.2 30.6C251.9 33.2 252.6 35.6 253.2 38.1C253.3 38.5 252.8 39.3 252.5 39.4C250.3 40.1 248.1 40.6 245.9 41.2C245.5 39.9 245 38.5 244.5 37C245 36.7 245.5 36.4 246.2 35.9C245 34.6 244 33.5 242.7 32.1C242.1 34.2 241.6 35.9 241.1 37.8C241.6 37.8 241.9 37.9 242.1 37.8C243.4 36.8 243.9 37.6 244.2 38.8C244.4 39.7 244.7 40.7 244.9 41.6C245.1 42.6 245.5 42.8 246.5 42.4C248.8 41.5 251.1 40.8 254 39.9C253.7 41.1 253.8 41.9 253.4 42.5C252.6 43.9 252.6 44.9 253.8 45.6C254.9 46.2 256.8 45.7 257.4 44.5C258 43.2 257.3 42.5 256.1 41.9C255.5 41.5 255 40.9 254.2 40.1C257 39 259.2 38.2 261.5 37.3C262.8 37 263.3 36.6 262.5 35.2ZM255.1 42.7C255.8 43.1 256.2 43.4 256.7 43.6C256.3 44 256 44.7 255.5 44.9C255.1 45 254.5 44.5 254 44.3C254.3 43.9 254.7 43.4 255.1 42.7Z" fill="currentColor"/>
<path d="M220.8 8.19998C220.9 8.59998 221.5 8.79998 221.9 9.09998C222.1 8.69998 222.6 8.29998 222.6 7.79998C222.6 7.39998 222 7.09998 221.4 6.49998C221.1 7.39998 220.6 7.89998 220.8 8.19998Z" fill="currentColor"/>
<path d="M323.7 48.1C323.6 47.7 323.1 47.5 322.7 47.2C322.6 47.7 322.2 48.2 322.3 48.7H323.8C323.8 48.5 323.7 48.3 323.7 48.1Z" fill="currentColor"/>
<path d="M316.9 19.5C316.8 19.8 317.4 20.2 318.1 21.1C318.5 19.9 318.8 19.2 318.8 18.5C318.8 18.2 318.1 17.9 317.8 17.6C317.5 18.2 317 18.8 316.9 19.5Z" fill="currentColor"/>
<path d="M270.1 4.49998C274.5 3.19998 278.8 1.89998 283.1 0.599976H278.9C278.5 0.599976 278.1 0.599976 277.8 0.599976H275.5C275.8 0.899976 276.1 1.19998 276.3 1.59998C274.8 2.09998 273.4 2.69998 271.4 3.39998C271.7 2.39998 272.1 1.49998 272.4 0.599976H271C271 0.799976 270.9 0.899976 270.9 1.09998C270.6 2.29998 270.3 3.39998 270.1 4.49998Z" fill="currentColor"/>
<path d="M240.1 0.699976H239.3C239.3 0.899976 239.2 0.999976 239.2 1.09998C239 3.09998 238.9 5.39998 240.7 6.79998C243.3 8.69998 246.4 9.09998 249.4 8.49998C252.1 7.99998 254.2 5.09998 254.3 2.49998C254.3 1.89998 254.2 1.29998 254 0.699976H253C253.5 1.69998 253.6 2.59998 253.2 3.79998C252.2 6.59998 250.2 7.99998 246.5 7.69998C241.3 7.19998 239.5 5.79998 239.9 1.09998C240 0.899976 240 0.799976 240.1 0.699976Z" fill="currentColor"/>
<path d="M245.9 0.899976C245.7 1.49998 245.9 2.29998 246.1 2.89998C246.2 3.09998 247.1 3.09998 247.5 2.99998C247.8 2.89998 248 2.49998 248.3 2.19998C247.8 1.79998 247.3 1.39998 246.8 0.999976C248.1 0.399976 249.1 0.999976 249.3 2.19998C249.4 2.69998 248.4 3.69998 247.6 4.09998C247.1 4.39998 246.2 4.29998 245.5 4.29998C244.2 4.29998 243.6 3.59998 243.5 2.39998C243.5 1.89998 243.6 1.29998 243.7 0.699976H243C242.6 2.09998 242.6 3.39998 243.1 4.09998C244.3 5.69998 246.1 5.19998 247.8 4.99998C247.9 4.99998 248 4.99998 248.2 4.99998C249.5 4.69998 250.6 3.09998 250.4 1.69998C250.3 1.29998 250.1 0.899976 249.9 0.599976H246C246 0.699976 246 0.799976 245.9 0.899976Z" fill="currentColor"/>
<path d="M4.2 3.59998C4.4 3.49998 4.6 3.49998 4.8 3.39998C4.5 2.39998 4.3 1.49998 4.1 0.699976H3C3.4 1.59998 3.8 2.59998 4.2 3.59998Z" fill="currentColor"/>
<path d="M340.6 46.6C338.9 47.3 338.6 47.7 338.8 48.6H342C341.4 48.3 340.8 47.7 340.6 46.6Z" fill="currentColor"/>
<path d="M339.5 11.1C340.6 11 341.7 11 342.9 10.9C343.4 12.4 343.9 13.9 344.4 15.4C344.6 15.9 344.6 16.4 344.8 17.1C344.4 17 344.1 16.9 343.8 17C343 17.3 341.9 17.5 341.4 18.1C341 18.6 340.9 20 341.3 20.3C342 20.8 343.1 21.2 344 21.1C345.6 20.9 347.3 20.5 348.7 19.7C349.4 19.3 350 18.1 350.1 17.1C350.3 15.9 349.1 15.7 348.2 15.9C347.3 16.1 346.5 16.6 345.7 17C345.1 14.9 344.6 12.8 344 10.7C345.4 10.1 346.7 9.59998 348 9.09998C347.9 8.89998 347.8 8.69998 347.7 8.49998C346.4 8.89998 345 9.19998 343.5 9.59998C343.3 8.89998 342.8 8.09998 343.1 7.79998C343.7 7.09998 344.5 6.69998 345.3 6.19998C345.3 5.99998 345.3 5.89998 345.2 5.69998C344.4 5.79998 343.5 5.79998 342.7 5.89998C342.4 5.09998 342.1 4.29998 341.8 3.49998C341.6 3.59998 341.4 3.59998 341.3 3.69998C341.4 4.59998 341.6 5.39998 341.7 6.29998C341 6.49998 340.5 6.69998 339.9 6.89998C339.9 6.99998 339.9 7.19998 339.9 7.29998C340.6 7.49998 341.3 7.59998 342 7.69998C342.2 8.49998 342.4 9.09998 342.6 9.79998C341.5 10.1 340.5 10.3 339.6 10.6C339.4 10.8 339.4 10.9 339.5 11.1ZM349 16.7C349.1 19 348.7 19.3 346.2 18.3C347.1 17.8 347.9 17.3 349 16.7ZM342.1 19.8C341.9 19.7 342 18.7 342.3 18.4C343.3 17.3 344.2 18.1 345.2 18.9C344.2 20.1 343.2 20.6 342.1 19.8Z" fill="currentColor"/>
<path d="M313.3 28.1C314.3 27.9 315.3 27.5 316.5 27C315.1 26.2 313.9 25.9 313.1 25.1C311 23.2 311 20.8 311.5 18.3C312 15.5 315.5 12.2 318.2 11.9C321.1 11.5 324.5 14.7 324.4 17.6C324.3 20.2 324.8 23.1 321.9 24.9C322.1 25 322.2 25.1 322.4 25.3C323.4 25 324.4 24.8 325.2 24.5C325.1 23.7 324.9 23.1 324.9 22.5C325 20.9 325.4 19.3 325.3 17.7C325.1 12.8 320.1 8.99998 315.2 12.1C310.6 15 308.8 20.3 311.2 24.6C311.7 25.5 313.2 26.1 312.5 27.6C312.5 27.7 313.1 28.2 313.3 28.1Z" fill="currentColor"/>
<path d="M350.2 48.7H351.3C352.1 47.1 352.8 45.4 353.6 43.7C353.2 43.5 352.5 43.1 351.8 42.7C351.9 43.2 352 43.8 352.1 44.3C352.1 44.5 352.1 44.7 352 44.8C351.4 46.1 350.8 47.4 350.2 48.7Z" fill="currentColor"/>
<path d="M348 47.2C349 45.8 348.6 43.4 347.2 42.6C346.7 42.3 345.8 42.3 345.2 42.5C345 42.6 344.9 43.6 345 44.2C345.3 45.7 345.8 47.2 346.2 48.7H347.3C347.4 48.2 347.6 47.8 348 47.2ZM346.1 43.4C347.7 44.5 347.9 45.3 347 46.8C346.7 45.6 346.4 44.6 346.1 43.4Z" fill="currentColor"/>
<path d="M226.6 39.4C224.9 35.8 220.5 34.7 217.4 37.2C216.1 38.2 215 39.6 214.3 41C212.8 44.1 213.7 47.1 216.3 48.6H219.1C217.1 48.4 215.5 47.2 214.8 45C213.9 42.3 216.6 38 219.7 37C221.8 36.3 225.2 38.1 225.9 40.2C226.9 43.2 224.8 47.4 221.9 48.3C221.3 48.5 220.7 48.6 220.1 48.6H223.3C223.5 48.4 223.7 48.3 224 48.2C226.5 46.9 227.7 41.9 226.6 39.4Z" fill="currentColor"/>
<path d="M185.5 10.2C184.5 10.2 183.5 10.2 182.5 10.3C182.2 10.3 181.7 10.8 181.7 11.1C181.8 12.4 182.1 13.7 182.2 15C182.4 15 182.6 15 182.9 14.9C182.9 14.1 182.9 13.2 182.9 12.2C185.6 13.4 188.1 14.4 190.6 15.5C189.3 18.1 188 20.4 186.7 22.9C186.1 22.1 185.6 21.5 185.1 20.8C185 20.9 184.9 21 184.7 21C185.4 22.3 186 23.7 186.8 25.1C188.2 24 189.5 22.9 190.8 21.9C190.7 21.7 190.6 21.6 190.4 21.4C189.6 21.9 188.8 22.3 188.1 22.8C188 22.7 187.9 22.7 187.8 22.6C189 20.4 190.2 18.1 191.4 15.8C193.9 16.8 196.3 17.8 198.6 18.8C198.1 19.5 197.8 19.8 197.6 20.2C198.1 20.2 198.6 20.3 199.1 20.3C199.5 20.3 200 20.2 200.3 20C200.7 19.6 201.3 18.9 201.2 18.6C200.6 17.5 199.7 16.5 198.9 15.5C198.7 15.7 198.5 15.8 198.3 16C198.8 16.7 199.3 17.3 199.9 18.2C197.4 17.2 195.1 16.3 192.9 15.3C192.6 15.2 192.4 14.3 192.6 13.9C193.3 12.4 194.1 11 194.8 9.59998C194.9 9.49998 195.1 9.39998 195.2 9.29998C195.4 9.69998 195.6 9.99998 195.7 10.4C195.9 10.4 196.1 10.3 196.4 10.3C196.3 8.89998 196.2 7.39998 196.1 5.49998C194.3 6.89998 192.9 7.79998 191.6 8.79998C191.7 8.99998 191.8 9.09998 192 9.29998C192.7 8.89998 193.4 8.59998 194.6 7.99998C193.3 10.5 192.3 12.6 191.2 14.7C188.8 13.7 186.5 12.7 184 11.6C184.6 11.2 185.1 10.9 185.6 10.6C185.6 10.5 185.5 10.4 185.5 10.2Z" fill="currentColor"/>
<path d="M188.4 46.6C188.2 46.7 187.9 46.8 187.7 46.9C187.9 47.5 188.1 48.1 188.4 48.6H189.3C189 48 188.7 47.3 188.4 46.6Z" fill="currentColor"/>
<path d="M130.2 25.1C128.2 26 126.2 27.1 124.2 28.1C125 28.9 125.8 29.7 126.6 30.5C126.1 28 126.3 27.7 128.6 26.5C128.9 26.3 129.2 26.2 129.6 26C131.3 25.1 131.7 25.3 132.1 27.1C133.3 31.8 134.4 36.5 135.6 41.2C135.8 41.9 136.1 42.5 136.3 43.1C136.5 43 136.7 43 136.9 42.9C135.3 37 133.7 31.1 132 24.7C134.7 24.6 137 24.6 139.5 24.5C139.2 25.4 139.1 25.8 138.9 26.2C139 26.3 139.1 26.3 139.3 26.4C139.9 25.5 140.5 24.6 141 23.8C139.8 23.9 138.8 24 137.8 24.1C136.5 24.1 135.2 24.1 133.9 24.1C133.2 24.1 132.1 24.2 132 23.9C131.7 23.1 131.5 22.1 131.7 21.2C132.2 19.4 133.5 18.4 135.5 18.3C132.7 17.7 131.7 19.9 130.5 21.6C127.8 20.1 126.7 20.1 125.5 21.6C127.8 20.7 129.4 21.6 130.6 23.4C131.2 24 131.2 24.6 130.2 25.1Z" fill="currentColor"/>
<path d="M153.8 21.7C156.4 22.8 159 24 161.7 25.2C160.4 27.9 158 30 157.2 33.3C157.8 33 158.1 33 158.2 32.8C159.5 30.8 160.7 28.8 162 26.7C162.6 25.7 163.1 25.4 164.3 26C166.3 26.9 168.5 27.5 170.6 28.2C170.7 28.1 170.8 27.9 170.8 27.8C170.5 27.6 170.2 27.2 169.9 27.1C168.4 26.5 167 26 165.5 25.5C163.4 24.8 163.5 24.8 164.6 23C165.8 21.1 166.8 19 167.9 17C167.7 16.9 167.4 16.7 167.1 16.6C165.6 19.2 164 21.7 162.4 24.4C159.6 23.3 156.8 22.2 154.1 21.1C154 21.3 153.9 21.5 153.8 21.7Z" fill="currentColor"/>
<path d="M160.8 20.8C162.5 20.4 163.3 19.4 162.9 18C162.5 16.5 160.4 15.4 158.7 15.9C157.1 16.3 156.4 17.4 156.8 19C157.2 20.3 159 21.2 160.8 20.8ZM158.8 16.7C159.9 16.1 162 17 162 18.1C162 18.8 161.3 19.5 161.2 19.8C159 20.4 157.7 19.9 157.7 18.5C157.7 17.9 158.3 17 158.8 16.7Z" fill="currentColor"/>
<path d="M77 15.2C78.4 14.8 79.4 14.6 80.4 14.3C80.6 14.2 80.8 13.6 81 13.3C80.6 13.2 80.1 13.1 79.5 13.1C79.8 9.89998 80.2 6.49998 80.5 3.09998C80.7 2.99998 80.9 2.89998 81 2.79998C82.9 4.79998 84.8 6.89997 86.8 8.89997C87.7 9.89997 88 10.8 86.9 11.8C86.7 12 86.7 12.5 86.5 13.3C87.2 12.7 87.5 12.5 87.7 12.3C88.3 11.3 89 11.3 90.2 11.3C91.7 11.4 93.4 10.9 94.7 10.1C97 8.69998 96.1 5.49998 94.2 4.19998C92.7 3.19998 91.5 3.79998 90.7 5.49998C90.2 6.69998 89.5 7.79998 88.7 9.09998C85.9 6.09998 83.4 3.19998 80.2 0.599976H79.4C79.4 2.49998 79.4 3.99998 79.2 5.39998C78.8 8.59998 79.5 12 77 15.2ZM90.1 8.79998C90.2 8.49998 90.3 8.29998 90.4 8.09998C91.4 7.99998 92.2 7.79998 93.2 7.69998C92.4 6.89998 91.9 6.59998 91.6 6.09998C91.5 5.89998 92.1 5.09998 92.3 5.09998C93 5.19998 93.7 5.39998 94.2 5.79998C95.7 7.09998 95.6 8.29997 93.9 9.39997C92.7 10.3 91.2 10.4 89.6 9.69998C89.9 9.39997 90 9.09998 90.1 8.79998Z" fill="currentColor"/>
<path d="M197 43.4C197.1 44.3 197.4 45.3 197.8 46.1C198.3 47.3 198.1 48 196.7 48.4C196.5 48.5 196.3 48.5 196.1 48.6H199.6C198.9 46.4 197.8 43.8 197 43.4Z" fill="currentColor"/>
<path d="M310.9 48.2C310.2 48.2 309.6 48.4 309.1 48.7H312.9C312.3 48.4 311.7 48.2 310.9 48.2Z" fill="currentColor"/>
<path d="M111.1 2.19998C111.8 3.59998 112.3 4.59998 112.6 5.19998C113.2 4.59998 113.6 4.09998 114.1 3.79998C115.6 2.99998 117 2.09998 117.7 0.599976H116.7C116.5 0.899976 116.3 1.29998 116.1 1.49998C114.9 2.99998 113.3 3.49998 111.1 2.19998Z" fill="currentColor"/>
<path d="M83.6 44.9C83.7 44.6 83.2 43.8 82.9 43.8C82.5 43.7 81.7 44.3 81.7 44.5C82 46.9 79.9 46.8 78.7 47.3C77.1 48 76.4 47.3 76.4 45.6C76.4 45 76.3 44.4 76.3 43.8C76.3 42.3 76.2 40.7 76.4 39.2C76.5 38.7 77.4 38.2 78.1 38.1C78.6 38 79.1 38.7 79.7 39C79.6 39.2 79.5 39.3 79.4 39.5C79.1 39.4 78.9 39.3 78.6 39.3C78.1 39.4 77.5 39.4 77.1 39.7C76.9 39.9 76.8 40.7 76.9 40.8C77.4 41 78.1 41.3 78.5 41.2C79.3 40.9 80.1 40.3 80.7 39.7C80.9 39.5 80.9 38.8 80.7 38.4C79.9 36.7 78.2 36.7 76.8 37.2C75.5 37.7 75 39.1 75.2 40.7C75.4 42.5 75.4 44.2 75.6 45.9C74 45.3 72.6 44.7 71.1 44C71.3 43.3 71.6 42.4 71.9 41.5C72.3 39.9 71.4 38.8 70.2 38.1C68.9 37.3 67.6 38 66.7 39C65.6 40.2 66.7 41.2 67.5 42C67.7 42.2 68.4 41.9 68.9 41.8C68.4 41.3 67.9 40.8 66.9 39.7C68.1 39.5 69.1 39 69.5 39.3C70.1 39.8 70.7 40.8 70.7 41.6C70.6 42.7 70 43.7 69.6 44.8C69.3 45.5 69.1 46.2 68.8 46.9C69.4 47 69.7 46.9 69.9 46.7C71.6 45.2 72.4 45.4 74.1 46.7C75 47.3 75.3 48.1 75.5 48.8H78.1C79.6 48.2 81 47.7 82.4 47C82.8 46.6 83.3 45.7 83.6 44.9Z" fill="currentColor"/>
<path d="M103.8 37.5C104.2 38.6 104.9 39.6 104.8 40.6C104.8 41.4 103.8 42.1 103.2 43C103.9 42.9 104.7 42.8 105.4 42.7C105.6 43.2 105.8 43.6 106 44.1C106.2 44.5 106.3 45 106.4 45.4C105.9 45.8 105.4 46.1 104.9 46.5C106.3 47.5 108.4 46.8 109 45.2C106.9 45.4 107.1 43.6 106.5 42.3C109.2 41.4 109.2 41.4 109.3 40.2C108.3 40.5 107.2 40.9 106.1 41.2C105.8 40.2 105.6 39.3 105.2 38.6C104.5 37.2 105.2 36.8 106.4 36.5C107.4 36.3 108.4 36.2 109.4 35.9C110 35.7 110.4 35.2 111 34.9C110.6 34.4 110.3 33.7 109.8 33.3C108.7 32.3 107.5 31.3 106.2 30.1C105.8 30.2 105.1 30.5 104.3 30.9C106.3 32.2 108.1 33.3 109.8 34.4C109.8 34.6 109.7 34.8 109.7 34.9C109.1 35.1 108.5 35.3 107.9 35.4C104.3 36.1 104.3 36.1 103 32.6C102.9 32.3 102.4 32.1 102 31.8C101.9 32.2 101.5 32.8 101.7 33.1C102 33.9 102.7 34.5 102.9 35.3C103.1 35.8 102.9 36.8 102.6 36.9C101.3 37.4 99.9 37.7 98 38.2C98.8 35.7 99.4 33.8 100 31.6C99.2 31.8 98.6 32 97.9 32.2C98.1 32.3 98.2 32.4 98.4 32.4C98 34.6 97.5 36.8 97 39.4C99.5 38.6 101.6 38.1 103.8 37.5Z" fill="currentColor"/>
<path d="M25.3 15.5C23.6 14.8 23.1 16 22.9 16.9C22.7 18 22.6 19.5 23.2 20.2C25.2 22.6 27.2 20.8 29.3 19.5C29.8 21.3 30.2 23 30.8 24.9C29.1 24.9 27.8 26.5 25.8 25.5C25.5 25.4 24.7 26 24.3 26.5C24.1 26.7 24.3 27.5 24.5 27.5C25.1 27.7 25.9 28 26.4 27.9C28 27.4 29.5 26.6 31.1 25.9C31.5 27.5 32.2 28.8 32.1 30C31.9 32.2 31.8 32.4 34.2 32.7C34.2 31.7 34.6 30 34.2 29.8C32.5 28.9 32.9 27.3 32.2 25.7C34.1 25.4 35.7 25.1 37.3 24.8C37.7 24.7 38.1 24.2 38.2 23.6C38.3 23.2 38 22.7 37.7 22.5C37.5 22.3 36.7 22.4 36.6 22.6C35.7 24.6 33.5 23.6 32.1 24.8C31.6 23 31.2 21.6 30.8 20.1C31.4 19.9 31.9 19.8 32.4 19.6C34 19 34.8 17.5 34.7 15.8C34.5 13.5 32.7 12.3 31.6 14C31.9 14.2 32.1 14.3 32.4 14.4C33.6 14.7 34.1 15.7 33.6 16.6C33.2 17.4 32.3 18.2 31.4 18.6C31 18.8 29.9 17.9 29.6 17.3C28.8 15.8 28.2 14.2 27.5 12.6C27.7 12.6 27.9 12.6 28.1 12.5C28.2 11.9 28.6 11 28.3 10.6C27.8 9.99998 27 9.69998 26.2 9.19998C25.6 10.2 25 11.3 24.4 12.3C25 12.4 25.6 12.6 26.5 12.7C26.9 13.8 27.3 15.2 27.8 16.5C28.5 18.3 27.7 19.7 25.7 19.7C25 19.7 24 19.4 23.7 18.9C23.4 18.4 23.8 17.5 24 16.8C24.3 16.3 24.8 16 25.3 15.5Z" fill="currentColor"/>
<path d="M39.6 48.6C39.6 48.4 39.3 48.1 39.1 48C38.6 47.8 37.6 48.1 36.8 48.7L39.6 48.6Z" fill="currentColor"/>
<path d="M215.5 7.99998C215.1 8.99998 214.7 9.49998 214.8 9.99998C214.9 10.4 215.5 10.7 216 11C216.3 10.4 216.8 9.89998 216.9 9.29998C216.9 9.09998 216.2 8.69998 215.5 7.99998Z" fill="currentColor"/>
<path d="M0.2 29.4C2.1 31 3.8 32.5 5.5 33.9C5.2 34.7 4.9 35.4 4.6 36.1C4.8 36.2 5 36.3 5.1 36.4C5.6 35.8 6.1 35.3 6.8 34.4C7.6 35 8.3 35.7 9.1 36.3C9.3 36.1 9.4 35.9 9.6 35.6C8.8 34.9 8 34.3 7.2 33.7C7.5 33 7.7 32.2 8 31.6C7.9 31.5 7.7 31.5 7.6 31.4C7.1 31.9 6.6 32.5 6 33.2C4.2 31.7 2.5 30.2 1.3 29.2C2.2 26.9 3.1 24.9 3.9 22.9C4.9 23.6 5.5 24 6.6 24.7C6.4 23.9 6.4 23.6 6.3 23.5C4.5 21.5 4.6 21.5 6.1 19.4C6.4 19 6.6 18.4 6.9 17.9C6.7 17.8 6.5 17.7 6.3 17.6C5.5 18.6 4.8 19.8 4 21C3.5 20.5 3 20.1 2.6 19.6C2.4 19.8 2.2 20 2.1 20.2C2.4 20.6 2.7 20.9 2.9 21.3C3.1 21.7 3.5 22.2 3.4 22.4C2.4 24.3 1.3 26.1 0.2 27.9C0.1 28 0.1 28 0 27.9V29.7C0.1 29.7 0.1 29.5 0.2 29.4Z" fill="currentColor"/>
<path d="M52.1 44.3C52.2 44.2 52.1 43.7 51.9 43.7C51.7 43.6 51.3 43.6 51.1 43.7C50.6 43.8 50.1 44 49.6 44.2C49.1 44.4 48.7 44.7 47.8 45.2C50.3 45.8 50.8 47.1 51.1 48.7H52.2C52.2 48.6 52.1 48.5 52.1 48.4C51.8 47.1 50.8 45.7 52.1 44.3Z" fill="currentColor"/>
<path d="M216 2.29998C215.7 2.89998 214.3 2.99998 213.4 3.29998C213.6 3.89998 213.6 3.89998 216.7 3.99998C217.2 5.89998 217.6 7.79998 218.3 9.69998C218.8 10.9 218.7 11.8 218.2 12.9C217.4 14.7 216.8 16.6 216.1 18.6C219.6 18.4 226.3 16.1 227.1 15C225.8 14.3 224.6 13.4 223.3 12.8C220.3 11.3 218.7 8.89998 218.2 5.59998C217.8 3.19998 217.6 3.29998 220 2.49998C220.3 2.39998 220.5 1.99998 220.7 1.79998C220.3 1.69998 219.9 1.39998 219.7 1.49998C219 1.69998 218.3 2.09998 217.6 2.49998C217.3 1.89998 217 1.39998 216.8 0.899976H216C216 1.29998 216.2 1.89998 216 2.29998ZM225 15.1C222.4 15.8 220.1 16.4 217.5 17.1C218.2 15.2 218.9 13.5 219.7 11.5C221.5 12.8 223.1 13.8 225 15.1Z" fill="currentColor"/>
<path d="M50.6 6.59998C51.4 6.59998 52.2 6.59998 53.1 6.59998C53.7 8.39997 54.8 10.3 53.5 12.5C53 12.3 52.6 12.1 52.1 12C51.6 11.9 51 11.8 50.5 11.7C50.5 12.3 50.4 13 50.6 13.5C51.1 14.9 51.9 16.2 52.4 17.6C52.8 18.8 53.3 19.5 54.6 19.5C56.5 19.6 57.3 20.6 57.5 22.4C57.7 23.7 58.2 25 58.5 26.4C58.7 26.4 58.9 26.3 59.1 26.3C59.1 25.8 59.2 25.2 59.2 24.7C59 23.6 58.7 22.6 58.4 21.6C58 20.4 58.2 19.5 59.4 18.8C60.1 18.4 61.1 17.4 61.1 16.7C61.1 14.2 60.7 11.6 60.4 9.09998C60.2 9.09998 60 8.99998 59.8 8.99998C59.4 9.39998 58.8 9.79998 58.5 10.3C57.7 11.6 56.7 11.7 55.9 10.6C55 9.49998 54.5 7.99998 53.8 6.49998C55.2 5.99998 56.2 5.59998 57.2 5.19998C57.1 4.99998 57 4.79998 57 4.59998C56 4.79998 55 4.89998 54.1 5.09998C53.6 3.89998 53.1 2.79998 52.6 1.69998C52.4 1.79998 52.1 1.89998 51.9 1.99998C52.2 3.09998 52.5 4.19998 52.8 5.39998C51.9 5.69998 51.2 5.99998 50.5 6.19998C50.5 6.29998 50.6 6.49998 50.6 6.59998ZM53.7 18.3C54.5 17.7 55.1 17.3 55.8 16.8C56.1 17.6 56.3 18.2 56.6 19.1C55.5 18.8 54.8 18.6 53.7 18.3ZM58.1 18.8C57.8 18.6 57.4 18.4 57.1 18.3C57.4 17.6 57.5 16.6 58 16.1C58.3 15.8 59.3 16.2 59.9 16.3C59.3 17.2 58.7 18 58.1 18.8ZM55 11.5C55.9 12.1 56.8 12.6 57.7 13.2C58.3 12.4 58.8 11.7 59.3 11C59.5 11.1 59.6 11.2 59.8 11.3C59.9 12.5 60 13.6 60.1 14.5C57.7 15.3 55.4 16.1 53 16.8C52.5 15.7 52 14.5 51.3 12.8C52.6 13.4 53.4 13.7 54.3 14.2C54.5 13.2 54.7 12.4 55 11.5Z" fill="currentColor"/>
</svg>
