<svg width="360" height="48" viewBox="0 0 360 48" fill="none" xmlns="http://www.w3.org/2000/svg">
<path d="M96.6 44.2001C96 42.4001 95.5 40.5 93.8 37.1C92.1 33.7 91.4 31.9001 90.7 30.2001C90 28.5 89.3 26.7 87.6 23.3C85.9 19.9 84.8 18.3 83.6 16.8C82.5 15.3 81.3 13.7 79.7 10.4C78.1 7.00005 77.5 5.20005 76.9 3.40005C76.6 2.40005 76.3 1.40005 75.7 4.88311e-05H75.1C75.7 1.40005 76 2.50005 76.3 3.50005C76.9 5.30005 77.4 7.20005 79.1 10.6C80.8 14 81.9 15.6 83.1 17.1C84.2 18.6 85.4 20.2001 87 23.5C88.7 26.9 89.4 28.7 90.1 30.4C90.8 32.1 91.5 33.9 93.2 37.3C94.8 40.7001 95.4 42.5 96 44.3C96.3 45.4 96.7 46.5 97.3 47.9001H97.9C97.3 46.5 97 45.3 96.6 44.2001Z" fill="currentColor"/>
<path d="M358.1 37.9001C355.6 40.7001 354.1 41.9 352.6 43.1C351.2 44.2 349.8 45.4001 347.5 47.9001H348.2C350.3 45.6001 351.7 44.5 353 43.5C354.5 42.3 356 41.1001 358.5 38.2001C359.1 37.5 359.6 36.9001 360 36.4001V35.5C359.5 36.3 358.9 37.1001 358.1 37.9001Z" fill="currentColor"/>
<path d="M355.8 46.1C355.1 46.7 354.4 47.2001 353.5 48H354.3C355 47.4001 355.5 47 356.1 46.5C357.2 45.6 358.4 44.7001 359.9 43.2001V42.5C358.2 44.2001 357 45.2 355.8 46.1Z" fill="currentColor"/>
<path d="M298.8 14.6C297 18 296.4 19.8001 295.9 21.7001C295.3 23.5 294.8 25.4001 293 28.7001C291.2 32 290.2 33.7001 289.2 35.2001C288.2 36.8 287.2 38.4 285.4 41.8C283.7 45.1 282.5 46.6 281.4 48.1H282.1C283.1 46.7 284.3 45.1 285.9 42C287.7 38.7001 288.7 37 289.7 35.5C290.7 33.9001 291.7 32.3 293.5 28.9C295.3 25.5 295.9 23.7 296.4 21.8C297 20 297.5 18.1 299.3 14.8C301.1 11.5 302.2 9.90005 303.3 8.40005C304.4 6.90005 305.6 5.30005 307.4 2.00005C307.8 1.30005 308.1 0.600049 308.4 4.88311e-05H307.8C307.6 0.500049 307.3 1.10005 306.9 1.80005C305.1 5.10005 304 6.70005 302.9 8.20005C301.8 9.60005 300.6 11.2 298.8 14.6Z" fill="currentColor"/>
<path d="M80.4 1.60005C80.9 3.40005 81.5 5.30005 83.1 8.70005C84.7 12.1 85.9 13.7 87 15.3C88.1 16.8 89.2 18.4 90.8 21.8C92.4 25.2 93.1 27 93.8 28.7001C94.5 30.4001 95.2 32.2001 96.8 35.7001C98.4 39.1001 98.9 41 99.5 42.8C99.9 44.2001 100.4 45.7001 101.3 48H101.9C100.9 45.7001 100.5 44.2001 100 42.7001C99.5 40.9001 98.9 39 97.3 35.6C95.7 32.2 95 30.4001 94.3 28.7001C93.6 27 92.9 25.2001 91.3 21.7001C89.7 18.3001 88.5 16.7 87.4 15.1C86.3 13.6 85.2 12 83.6 8.60005C82 5.20005 81.5 3.30005 80.9 1.50005C80.8 1.00005 80.6 0.500049 80.4 4.88311e-05H79.8C80 0.600049 80.2 1.10005 80.4 1.60005Z" fill="currentColor"/>
<path d="M98.2 10.5C99.2 12.1 100.3 13.7001 101.7 17.2001C103.1 20.7001 103.7 22.5 104.3 24.3C104.9 26.1 105.5 27.9 106.9 31.4C108.3 34.9 108.8 36.8 109.2 38.6C109.6 40.4 110.1 42.3001 111.5 45.9001C111.8 46.7001 112.1 47.4001 112.3 48H112.9C112.7 47.3 112.4 46.5 112 45.7001C110.6 42.2001 110.1 40.3 109.7 38.5C109.3 36.7001 108.8 34.8 107.4 31.2001C106 27.7001 105.4 25.9 104.8 24.1C104.2 22.3001 103.6 20.5 102.2 17C100.8 13.5 99.7 11.8 98.7 10.2C97.7 8.60005 96.6 7.00005 95.2 3.50005C94.6 2.10005 94.2 0.900049 93.9 4.88311e-05H93.3C93.6 1.00005 94.1 2.20005 94.7 3.70005C96.1 7.30005 97.1 8.90005 98.2 10.5Z" fill="currentColor"/>
<path d="M94.4 12.1C95.4 13.7 96.5 15.3 98 18.7C99.5 22.2 100.1 24 100.7 25.7C101.3 27.5 101.9 29.3 103.4 32.8C104.9 36.3 105.3 38.1001 105.8 39.9001C106.3 41.7001 106.8 43.6 108.2 47.1C108.3 47.4 108.4 47.6001 108.5 47.9001H109.1C109 47.6001 108.8 47.2001 108.7 46.9001C107.2 43.4001 106.8 41.6 106.3 39.8C105.8 38 105.3 36.1 103.9 32.6C102.4 29.1 101.8 27.3 101.2 25.6C100.6 23.8 100 22 98.5 18.5C97 15 95.9 13.4 94.9 11.8C93.9 10.2 92.8 8.60005 91.3 5.20005C90.3 3.00005 89.8 1.40005 89.4 0.100049H88.8C89.2 1.50005 89.7 3.10005 90.7 5.50005C92.2 8.90005 93.3 10.5 94.4 12.1Z" fill="currentColor"/>
<path d="M255.1 28.3C253.9 31.9 253 33.6001 252.1 35.2001C251.2 36.9001 250.3 38.6001 249.1 42.2001C248.1 45 247.3 46.6 246.6 48H247.2C247.9 46.7001 248.7 45 249.6 42.4001C250.8 38.8001 251.7 37.1 252.6 35.5C253.5 33.8 254.4 32.1 255.6 28.5C256.8 24.9 257.6 23.2 258.3 21.5C259 19.8 259.8 18 261 14.4C262.2 10.8 262.5 8.90005 262.8 7.00005C263.1 5.20005 263.3 3.40005 264.4 0.100049H263.8C262.7 3.30005 262.5 5.20005 262.2 6.90005C261.9 8.80005 261.7 10.7 260.4 14.2C259.2 17.8 258.4 19.5 257.7 21.3C257 22.9 256.3 24.7 255.1 28.3Z" fill="currentColor"/>
<path d="M98.6 2.20005C99.9 5.70005 101 7.40005 102 9.00005C103 10.6 104 12.3 105.4 15.8C106.8 19.3 107.3 21.2 107.9 22.9C108.5 24.7 109 26.5 110.4 30.1C111.7 33.6001 112.2 35.5 112.6 37.3C113 39.1 113.4 41.1 114.8 44.6C115.3 45.9 115.7 47 115.9 48H116.4C116.1 47 115.7 45.8001 115.2 44.4001C113.9 40.9001 113.4 39 113 37.2001C112.6 35.4001 112.2 33.4 110.8 29.9C109.4 26.4 108.9 24.5 108.3 22.8C107.7 21 107.2 19.2 105.8 15.6C104.4 12 103.4 10.4 102.4 8.80005C101.4 7.20005 100.4 5.50005 99 2.00005C98.7 1.30005 98.5 0.600049 98.3 4.88311e-05H97.7C98 0.700049 98.3 1.40005 98.6 2.20005Z" fill="currentColor"/>
<path d="M268.5 25.3C267.7 27 266.8 28.7001 265.4 32.2001C264 35.7001 263 37.4001 262 39C261 40.6 260 42.3 258.6 45.8C258.3 46.6 258 47.3 257.7 48H258.3C258.6 47.4001 258.9 46.8 259.2 46C260.6 42.5 261.6 40.8 262.6 39.2001C263.6 37.6001 264.6 35.9001 266 32.4001C267.4 28.9001 268.3 27.2 269.1 25.5C269.9 23.8 270.8 22.1 272.2 18.6C273.6 15.1 274 13.1 274.4 11.3C274.8 9.50005 275.1 7.50005 276.5 4.10005C277.2 2.40005 277.8 1.10005 278.3 0.100049H277.7C277.2 1.10005 276.6 2.30005 276 3.90005C274.6 7.40005 274.2 9.40005 273.8 11.2C273.4 13 273.1 15 271.7 18.4C270.1 21.9 269.3 23.6 268.5 25.3Z" fill="currentColor"/>
<path d="M358.8 28.5C358 30.3 357.2 32.1001 354.8 34.9001C352.3 37.7001 350.9 39 349.4 40.2001C348 41.4001 346.5 42.7 344 45.6C343.2 46.5 342.6 47.3 342.1 48H342.8C343.3 47.4001 343.8 46.7001 344.5 46C347 43.2001 348.4 41.9001 349.9 40.7001C351.3 39.5 352.8 38.2001 355.3 35.3C357.8 32.4 358.6 30.5 359.4 28.7001C359.6 28.2001 359.9 27.6 360.2 27.1V26C359.5 26.9 359.1 27.7001 358.8 28.5Z" fill="currentColor"/>
<path d="M310.9 3.90005C309.1 7.20005 307.9 8.70005 306.8 10.2C305.6 11.7 304.4 13.2001 302.6 16.6C300.8 19.9 300.1 21.8001 299.5 23.6C298.9 25.4 298.3 27.2001 296.5 30.5C294.7 33.8 293.6 35.4 292.6 37C291.6 38.6 290.5 40.2 288.7 43.5C287.6 45.6 286.7 46.9 285.9 48H286.5C287.2 46.9 288.1 45.6 289.1 43.7C290.9 40.4 292 38.8 293 37.2C294 35.6 295.1 34 296.9 30.7001C298.7 27.4001 299.4 25.5 300 23.7001C300.6 21.9001 301.2 20.1 303 16.8C304.8 13.5 306 12 307.1 10.5C308.3 9.00005 309.5 7.50005 311.3 4.10005C312.2 2.40005 312.8 1.10005 313.2 -0.0999512H312.6C312.3 1.10005 311.7 2.40005 310.9 3.90005Z" fill="currentColor"/>
<path d="M68.6 7.40005C69.2 9.20005 69.9 11 71.7 14.4C73.5 17.8 74.7 19.3 75.9 20.8C77.1 22.3 78.3 23.8001 80.1 27.1C81.9 30.4 82.7 32.2001 83.4 33.9001C84.2 35.6001 85 37.4001 86.7 40.7001C88.5 44 89.1 45.8 89.7 47.6C89.7 47.7 89.8 47.9001 89.8 48H90.4C90.3 47.8 90.3 47.6001 90.2 47.4001C89.6 45.6001 88.9 43.8001 87.1 40.4001C85.3 37.1001 84.5 35.3 83.8 33.6C83 31.9 82.2 30.1 80.5 26.8C78.7 23.4 77.5 21.9 76.3 20.4C75.1 18.9 73.9 17.4 72.1 14.1C70.3 10.8 69.7 9.00005 69.1 7.20005C68.5 5.40005 67.8 3.60005 66 0.200049C66 0.200049 66 0.100049 65.9 4.88311e-05H65.3C65.4 0.200049 65.5 0.300049 65.6 0.500049C67.4 3.90005 68 5.70005 68.6 7.40005Z" fill="currentColor"/>
<path d="M0.500024 48H1.30002C0.800024 47.6 0.400024 47.2001 2.44156e-05 46.8V47.5C0.200024 47.7001 0.300024 47.8 0.500024 48Z" fill="currentColor"/>
<path d="M11.2 38.9001C8.60003 36.1001 6.80002 35.1 5.10002 34.1C3.60002 33.3 2.10002 32.4 2.44156e-05 30.3V31C1.90002 32.9001 3.40002 33.7001 4.80002 34.5C6.50002 35.5 8.20003 36.4001 10.8 39.2001C13.4 42 14.5 43.5 15.5 45.1C16.1 46 16.7 46.9001 17.6 48H18.3C17.3 46.7001 16.6 45.8 16 44.8C14.9 43.2001 13.8 41.6001 11.2 38.9001Z" fill="currentColor"/>
<path d="M1.50002 37.7001C3.20002 38.6001 4.90002 39.6 7.50002 42.3C10.1 44.9 11.2 46.5 12.2 48H12.8C12.8 47.9001 12.7 47.9 12.7 47.8C11.6 46.3 10.5 44.7001 7.80002 41.9001C5.10002 39.2001 3.40002 38.2001 1.60002 37.2001C1.00002 36.9001 0.500024 36.6001 -0.0999756 36.2001V36.8C0.500024 37.2001 1.00002 37.5 1.50002 37.7001Z" fill="currentColor"/>
<path d="M2.44156e-05 41.3V42C1.20002 42.7001 2.60002 43.7001 4.30002 45.5C5.30002 46.5 6.10002 47.3 6.70002 48.1H7.40002C6.70002 47.3 5.80002 46.3 4.60002 45.1C2.80002 43.1 1.30002 42.1 2.44156e-05 41.3Z" fill="currentColor"/>
<path d="M359.2 18.9C356.7 21.8 356 23.7001 355.2 25.5C354.5 27.3 353.7 29.1 351.3 32C348.9 34.9001 347.4 36.2001 346 37.4001C344.6 38.6001 343.1 39.9 340.7 42.8C338.8 45 337.8 46.6001 337 47.9001H337.6C338.4 46.6001 339.3 45.2 341.1 43.1C343.5 40.2 345 38.9001 346.4 37.7001C347.8 36.5 349.3 35.2001 351.7 32.3C354.2 29.4 354.9 27.5 355.7 25.7001C356.4 23.9001 357.2 22.1 359.6 19.2001C359.7 19.1 359.8 18.9 360 18.8V18C359.8 18.3 359.5 18.6 359.2 18.9Z" fill="currentColor"/>
<path d="M19.2 41.9001C18.2 40.3001 17.1 38.7001 14.5 35.9001C12 33 10.2 32 8.50002 31C6.80002 30 5.10002 29 2.60002 26.2001C1.60002 25 0.700024 24.1 2.44156e-05 23.3V24.1C0.600024 24.8001 1.40002 25.6 2.20002 26.6C4.80002 29.4 6.50002 30.5 8.20002 31.5C9.90002 32.5 11.6 33.5 14.1 36.3C16.6 39.1 17.7 40.7001 18.7 42.3C19.7 43.8 20.8 45.4 23.2 48.1H23.9L23.8 48C21.3 45.1 20.2 43.4001 19.2 41.9001Z" fill="currentColor"/>
<path d="M321.5 1.40005C321 3.30005 320.6 5.20005 318.7 8.40005C316.8 11.6 315.5 13.1 314.3 14.6C313.1 16.1 311.8 17.6 309.9 20.8C307.9 24.1 307.3 25.9 306.6 27.7C306 29.5 305.3 31.3 303.3 34.5C301.4 37.7001 300.3 39.3 299.2 40.8C298.1 42.3 297 43.9001 295.1 47.2001C294.9 47.5 294.8 47.7001 294.6 48H295.2C295.3 47.8 295.4 47.7001 295.5 47.5C297.4 44.3 298.5 42.7001 299.6 41.2001C300.7 39.7001 301.8 38.1 303.7 34.8C305.7 31.5 306.3 29.7 307 27.9C307.6 26.1 308.3 24.3 310.3 21.1C312.2 17.9 313.5 16.4 314.7 15C315.9 13.5 317.2 12 319.1 8.80005C321.1 5.50005 321.5 3.50005 322 1.60005C322.1 1.10005 322.2 0.600049 322.4 0.100049H321.8C321.7 0.500049 321.6 1.00005 321.5 1.40005Z" fill="currentColor"/>
<path d="M310.5 30C311.2 28.2001 311.9 26.4 313.9 23.3C315.9 20.1 317.2 18.6 318.4 17.2001C319.6 15.8001 320.9 14.3 322.9 11.1C324.9 7.90005 325.4 5.90005 325.9 4.00005C326.2 2.80005 326.5 1.60005 327.2 4.88311e-05H326.6C325.9 1.50005 325.6 2.70005 325.3 3.80005C324.8 5.70005 324.3 7.60005 322.3 10.8C320.3 14 319 15.5 317.8 16.9C316.6 18.3 315.3 19.8 313.3 23C311.3 26.2001 310.6 28.1 309.9 29.8C309.2 31.6 308.5 33.4 306.5 36.6C304.5 39.8 303.4 41.4001 302.3 42.9001C301.3 44.2001 300.4 45.6 298.8 48H299.4C300.9 45.7001 301.8 44.4001 302.7 43.2001C303.8 41.7001 304.9 40.1001 306.9 36.9001C309.1 33.7001 309.8 31.8 310.5 30Z" fill="currentColor"/>
<path d="M355.6 15.9C353.2 18.9 352.4 20.8 351.7 22.6C351 24.4 350.3 26.2001 347.9 29.2001C345.5 32.1001 344.1 33.4001 342.7 34.7001C341.3 36 339.9 37.3 337.5 40.2001C335.1 43.2001 334.2 44.9 333.3 46.6C333 47.1 332.8 47.5 332.5 48.1H333.1C333.3 47.7 333.5 47.3001 333.8 46.9001C334.7 45.2001 335.6 43.5 338 40.6C340.4 37.7 341.8 36.4 343.2 35.1C344.6 33.8 346 32.5 348.4 29.6C350.8 26.6 351.6 24.7 352.3 22.9C353 21.1 353.7 19.3 356.1 16.3C358 13.9 359.2 12.5 360.1 11.2V10.3C358.9 11.7 357.8 13.2 355.6 15.9Z" fill="currentColor"/>
<path d="M212.4 33.4C211.9 37.1 211.2 39 210.6 40.7C210 42.5 209.3 44.3 208.8 47.9H209.3C209.8 44.4 210.4 42.6 211 40.8C211.6 39 212.3 37.1 212.8 33.4C213.3 29.7 213.9 27.8 214.4 26C214.9 24.2001 215.5 22.3001 216 18.6C216.5 14.9001 216.9 13 217.3 11.2C217.7 9.40005 218.1 7.50005 218.6 3.70005C218.8 2.20005 218.9 0.900049 219 -0.0999512H218.5C218.4 0.900049 218.3 2.10005 218.1 3.60005C217.6 7.30005 217.2 9.20005 216.8 11C216.4 12.8 216 14.7 215.5 18.5C215 22.2001 214.4 24.1 213.9 25.9C213.5 27.8 212.9 29.7 212.4 33.4Z" fill="currentColor"/>
<path d="M143.4 5.20005C144.1 8.90005 144.4 10.8 144.6 12.6C144.8 14.5 145.1 16.4 145.8 20.1C146.5 23.8001 146.6 25.7001 146.7 27.6C146.8 29.5 146.9 31.4001 147.6 35.2001C148.3 38.9001 148.3 40.8 148.3 42.7001C148.3 44.2001 148.3 45.7001 148.6 48H149.1C148.8 45.7001 148.8 44.1001 148.8 42.7001C148.8 40.8 148.8 38.8 148.1 35.1C147.4 31.4 147.3 29.5 147.2 27.6C147.1 25.7001 147 23.8 146.3 20C145.6 16.3 145.3 14.4 145.1 12.6C144.9 10.7 144.6 8.80005 143.9 5.10005C143.5 2.90005 143 1.30005 142.6 4.88311e-05H142C142.5 1.30005 143 2.90005 143.4 5.20005Z" fill="currentColor"/>
<path d="M137.1 14.2C137.4 16 137.7 17.9 138.6 21.6C139.4 25.3 139.6 27.2 139.7 29.1C139.8 31 140 32.9 140.8 36.6C141.6 40.3 141.7 42.2 141.8 44.1C141.8 45.3 141.9 46.4001 142.1 48H142.6C142.4 46.4001 142.3 45.2 142.3 44.1C142.2 42.2 142.2 40.2001 141.3 36.5C140.5 32.8 140.3 30.9 140.2 29C140.1 27.1 139.9 25.2 139.1 21.5C138.3 17.8 137.9 15.9 137.6 14.1C137.3 12.3 137 10.4 136.1 6.70005C135.3 3.40005 134.6 1.60005 134 0.100049H133.4C134.1 1.70005 134.8 3.50005 135.6 6.90005C136.5 10.4 136.8 12.3 137.1 14.2Z" fill="currentColor"/>
<path d="M159.7 10.3C159.8 12.2 159.9 14.1 160.4 17.9C160.9 21.6 160.8 23.6 160.7 25.4C160.6 27.3 160.6 29.2001 161.1 33C161.6 36.7001 161.4 38.7001 161.3 40.5C161.2 42.4001 161 44.3001 161.5 47.9001H162C161.6 44.3001 161.7 42.3 161.8 40.5C161.9 38.6 162.1 36.6001 161.6 32.9001C161.1 29.2001 161.2 27.2 161.3 25.4C161.4 23.5 161.4 21.6 160.9 17.8C160.4 14.1 160.3 12.1 160.2 10.3C160.1 8.40005 160 6.50005 159.5 2.80005C159.4 1.80005 159.2 0.900049 159.1 0.100049H158.6C158.8 0.900049 158.9 1.80005 159 2.90005C159.5 6.50005 159.6 8.50005 159.7 10.3Z" fill="currentColor"/>
<path d="M221.1 27.1C220.5 28.9 219.9 30.7001 219.2 34.5C218.5 38.2001 217.8 40 217.2 41.8C216.6 43.4 215.9 45 215.4 48H215.9C216.5 45.1 217.1 43.5 217.7 42C218.4 40.2001 219.1 38.4 219.8 34.6C220.5 30.9 221.1 29.1 221.7 27.3C222.3 25.5 222.9 23.7 223.6 19.9C224.3 16.2 224.7 14.3 225.2 12.5C225.6 10.7 226.1 8.80005 226.8 5.10005C227.2 2.90005 227.3 1.30005 227.4 4.88311e-05H226.9C226.8 1.30005 226.7 2.90005 226.3 5.00005C225.6 8.70005 225.2 10.6 224.7 12.4C224.3 14.2 223.8 16.1 223.1 19.8C222.3 23.5 221.7 25.4 221.1 27.1Z" fill="currentColor"/>
<path d="M186.5 8.80005C186.4 10.7 186.2 12.6 186.2 16.4C186.2 20.2 185.9 22.1 185.6 23.9C185.3 25.8 185 27.7001 185 31.5C185 35.3 184.6 37.2001 184.3 39C183.9 40.9001 183.5 42.8 183.5 46.6C183.5 47.1 183.5 47.5 183.5 47.9001H184C184 47.5 184 47 184 46.6C184 42.8 184.4 40.9 184.7 39.1C185.1 37.2 185.5 35.3 185.5 31.5C185.5 27.7001 185.8 25.8 186.1 24C186.4 22.1 186.7 20.2 186.7 16.4C186.7 12.6 186.8 10.7 187 8.90005C187.1 7.00005 187.3 5.10005 187.3 1.30005C187.3 0.800049 187.3 0.400049 187.3 4.88311e-05H186.8C186.8 0.400049 186.8 0.800049 186.8 1.30005C186.7 5.10005 186.6 7.00005 186.5 8.80005Z" fill="currentColor"/>
<path d="M155.9 10.8C156 12.7 156.2 14.6 156.7 18.3C157.2 22 157.2 24 157.2 25.8C157.2 27.7 157.2 29.6001 157.7 33.4001C158.2 37.1001 158.1 39.1001 158 40.9001C157.9 42.7001 157.8 44.6001 158.2 47.9001H158.7C158.3 44.6001 158.4 42.7001 158.5 40.9001C158.6 39 158.7 37 158.2 33.3C157.7 29.6 157.7 27.6 157.7 25.8C157.7 23.9 157.7 22 157.2 18.2001C156.7 14.5001 156.5 12.6 156.4 10.7C156.3 8.80005 156.1 6.90005 155.6 3.20005C155.4 1.90005 155.2 0.900049 155 4.88311e-05H154.5C154.7 0.900049 154.9 2.00005 155.1 3.30005C155.7 7.00005 155.8 8.90005 155.9 10.8Z" fill="currentColor"/>
<path d="M64.8 9.50005C65.5 11.3 66.1 13.1 68 16.4C69.8 19.7 71.1 21.2001 72.3 22.7001C73.5 24.1 74.7 25.6 76.6 28.9C78.4 32.2001 79.2 33.9 80 35.6C80.8 37.3 81.6 39 83.5 42.3C84.9 44.8 85.6 46.5 86.2 47.9001H86.8C86.2 46.4001 85.5 44.7 84 42.1C82.2 38.8 81.4 37.1001 80.6 35.4001C79.8 33.7001 79 32 77.1 28.7001C75.3 25.4001 74 23.9 72.8 22.4C71.6 21 70.4 19.5 68.5 16.2001C66.7 12.9001 66 11.1 65.4 9.30005C64.7 7.50005 64.1 5.70005 62.2 2.40005C61.7 1.50005 61.2 0.700049 60.7 4.88311e-05H60C60.5 0.700049 61.1 1.60005 61.7 2.60005C63.5 5.90005 64.2 7.80005 64.8 9.50005Z" fill="currentColor"/>
<path d="M139.5 5.90005C140.3 9.60005 140.6 11.5 140.8 13.3C141.1 15.1 141.3 17.1 142.1 20.8C142.9 24.5 143 26.4 143.1 28.3C143.2 30.2 143.3 32.1 144.1 35.9C144.9 39.6 144.9 41.5 144.9 43.4C144.9 44.7 144.9 46.1 145.2 48H145.7C145.4 46 145.4 44.7 145.4 43.3C145.4 41.4 145.3 39.4 144.6 35.7C143.8 32 143.7 30.1 143.6 28.2001C143.5 26.3001 143.4 24.4 142.6 20.6C141.8 16.9 141.5 15 141.3 13.2C141 11.4 140.8 9.40005 140 5.70005C139.4 3.00005 138.9 1.30005 138.3 -0.0999512H137.7C138.4 1.40005 138.9 3.10005 139.5 5.90005Z" fill="currentColor"/>
<path d="M163 2.40005C163.4 6.20005 163.5 8.10005 163.5 9.90005C163.6 11.8 163.6 13.7 164 17.5C164.4 21.2 164.3 23.2 164.2 25C164.1 26.9 164 28.8 164.4 32.6C164.8 36.3 164.6 38.3 164.4 40.1C164.2 42 164 44 164.4 47.8C164.4 47.9 164.4 47.9001 164.4 48H164.9C164.9 47.9001 164.9 47.8 164.9 47.8C164.5 44.1 164.7 42.1 164.9 40.3C165.1 38.4 165.3 36.4 164.9 32.6C164.5 28.9 164.6 26.9 164.7 25.1C164.8 23.2 164.9 21.3 164.5 17.5C164.1 13.8 164 11.8 164 10C163.9 8.10005 163.9 6.20005 163.5 2.40005C163.4 1.50005 163.3 0.800049 163.2 0.100049H162.7C162.8 0.700049 162.9 1.50005 163 2.40005Z" fill="currentColor"/>
<path d="M175 9.10005C175 11 174.9 12.9 175.1 16.7C175.3 20.5 175.1 22.4 174.9 24.2C174.7 26.1 174.5 28 174.7 31.8C174.9 35.5 174.6 37.5 174.3 39.3C174 41.2001 173.7 43.1001 173.9 46.9001C173.9 47.3001 173.9 47.6001 174 47.9001H174.5C174.5 47.6001 174.5 47.2001 174.4 46.9001C174.2 43.2001 174.5 41.2001 174.8 39.4001C175.1 37.5 175.4 35.6 175.2 31.8C175 28 175.2 26.1 175.4 24.3C175.6 22.4 175.8 20.5 175.6 16.7C175.4 12.9 175.4 11 175.5 9.20005C175.5 7.30005 175.6 5.40005 175.4 1.60005C175.4 1.10005 175.3 0.600049 175.3 0.100049H174.8C174.8 0.600049 174.9 1.10005 174.9 1.60005C175 5.30005 175 7.20005 175 9.10005Z" fill="currentColor"/>
<path d="M171.2 9.30005C171.2 11.2 171.2 13.1 171.5 16.9C171.8 20.7 171.6 22.6 171.5 24.4C171.3 26.3 171.2 28.2001 171.5 32C171.8 35.7001 171.5 37.7001 171.3 39.5C171.1 41.4001 170.8 43.4 171.1 47.1C171.1 47.4 171.1 47.6001 171.2 47.9001H171.7C171.7 47.6001 171.7 47.4 171.6 47.1C171.3 43.4 171.6 41.4 171.8 39.6C172 37.7 172.3 35.8 172 32C171.7 28.2001 171.9 26.3 172 24.5C172.2 22.6 172.3 20.7 172 16.9C171.7 13.1 171.7 11.2 171.7 9.40005C171.7 7.50005 171.7 5.60005 171.4 1.80005C171.4 1.20005 171.3 0.600049 171.2 0.100049H170.7C170.8 0.600049 170.8 1.20005 170.9 1.80005C171.2 5.50005 171.2 7.40005 171.2 9.30005Z" fill="currentColor"/>
<path d="M124.2 9.60005C125.2 13.2 125.6 15.1 126 16.9C126.4 18.7 126.8 20.6 127.8 24.3C128.8 27.9 129.1 29.8001 129.3 31.7001C129.5 33.6001 129.8 35.5 130.8 39.2001C131.8 42.8 132 44.7 132.2 46.6C132.2 47.1 132.3 47.5 132.3 48H132.8C132.7 47.5 132.7 47 132.7 46.6C132.5 44.7 132.4 42.7 131.3 39.1C130.3 35.5 130 33.6001 129.8 31.7001C129.6 29.8001 129.3 27.9001 128.3 24.2001C127.3 20.6 126.9 18.7 126.5 16.9C126.1 15.1 125.7 13.2 124.7 9.50005C123.7 5.80005 122.8 4.10005 121.9 2.40005C121.5 1.70005 121.2 0.900049 120.8 4.88311e-05H120.2C120.6 1.00005 121 1.80005 121.4 2.60005C122.2 4.30005 123.1 6.00005 124.2 9.60005Z" fill="currentColor"/>
<path d="M244.5 24.9C243.5 28.5 242.7 30.3 241.9 32C241.1 33.7001 240.3 35.5 239.2 39.1C238.2 42.7 237.3 44.4 236.4 46.1C236.1 46.7 235.8 47.3 235.5 48H236.1C236.4 47.4001 236.6 46.9001 236.9 46.4001C237.8 44.7001 238.7 43 239.7 39.3C240.7 35.7001 241.5 33.9001 242.3 32.2001C243.1 30.5 243.9 28.7001 245 25.1C246 21.5 246.7 19.7 247.3 17.9C247.9 16.1 248.6 14.3 249.6 10.7C250.6 7.00005 250.8 5.10005 251 3.20005C251.1 2.20005 251.2 1.30005 251.4 4.88311e-05H250.9C250.7 1.20005 250.6 2.20005 250.5 3.10005C250.3 5.00005 250.2 6.90005 249.1 10.5C248.1 14.1 247.4 15.9001 246.8 17.7001C246.2 19.5 245.6 21.3 244.5 24.9Z" fill="currentColor"/>
<path d="M128 8.60005C129 12.2 129.3 14.1 129.7 16C130.1 17.8 130.4 19.7 131.4 23.4C132.4 27 132.6 29 132.8 30.8C133 32.7 133.2 34.6 134.2 38.3C135.2 41.9 135.3 43.9001 135.4 45.7001C135.4 46.4001 135.5 47.2001 135.6 48H136.1C136 47.1 135.9 46.4001 135.9 45.7001C135.8 43.8 135.6 41.8 134.7 38.2001C133.7 34.6001 133.5 32.6 133.3 30.8C133.1 28.9 132.9 27 131.9 23.3C130.9 19.7 130.6 17.8 130.2 16C129.8 14.2 129.5 12.3 128.5 8.60005C127.5 4.90005 126.7 3.20005 125.8 1.40005C125.6 1.00005 125.4 0.500049 125.2 0.100049H124.6C124.8 0.600049 125.1 1.20005 125.3 1.60005C126.2 3.20005 127 5.00005 128 8.60005Z" fill="currentColor"/>
<path d="M61 11.6C61.7 13.4 62.4 15.2 64.3 18.5C66.2 21.8 67.5 23.3001 68.7 24.7001C69.9 26.1 71.2 27.6 73.1 30.8C75 34.1 75.8 35.8 76.7 37.5C77.5 39.2001 78.4 40.9001 80.3 44.2001C81.2 45.7001 81.8 46.9001 82.3 48H82.9C82.4 46.9001 81.7 45.6 80.8 44C78.9 40.7001 78.1 39 77.2 37.3C76.4 35.6 75.5 33.9001 73.6 30.6C71.7 27.3001 70.4 25.8 69.2 24.4C68 23 66.7 21.5 64.8 18.3C62.9 15 62.2 13.2 61.5 11.5C60.8 9.70005 60.1 7.90005 58.2 4.60005C56.9 2.40005 55.9 1.00005 54.9 4.88311e-05H54.2C55.3 1.10005 56.5 2.40005 57.8 4.80005C59.6 8.10005 60.3 9.90005 61 11.6Z" fill="currentColor"/>
<path d="M77.5 45.8C75.6 42.6 74.7 40.9001 73.8 39.2001C72.9 37.5 72.1 35.8 70.1 32.6C68.1 29.3 66.8 27.9 65.6 26.5C64.3 25.1 63.1 23.6 61.1 20.4C59.2 17.2 58.4 15.4 57.7 13.7C57 12 56.2 10.1 54.3 6.90005C52.3 3.60005 50.8 2.30005 49.3 1.00005C49 0.700049 48.6 0.400049 48.3 0.100049H47.5C48 0.600049 48.4 1.00005 48.9 1.40005C50.3 2.70005 51.8 4.00005 53.8 7.20005C55.7 10.4 56.5 12.2 57.2 13.9C57.9 15.6 58.7 17.5 60.6 20.7C62.6 24 63.9 25.4 65.1 26.8C66.4 28.2 67.6 29.7001 69.6 32.9001C71.5 36.1001 72.4 37.8 73.3 39.5C74.2 41.2001 75 42.9 77 46.1C77.4 46.8 77.8 47.4001 78.1 48H78.7C78.4 47.3 78 46.6 77.5 45.8Z" fill="currentColor"/>
<path d="M235.8 14.8C235.3 16.6 234.7 18.4 233.8 22.1C233 25.8001 232.2 27.6 231.5 29.3C230.8 31.1 230.1 32.9 229.2 36.6C228.4 40.3 227.6 42 226.8 43.7001C226.3 44.9001 225.7 46.1 225.1 48H225.7C226.2 46.3 226.8 45.1001 227.3 43.9001C228.1 42.2001 228.9 40.4001 229.7 36.7001C230.5 33 231.3 31.2001 232 29.5C232.7 27.7001 233.4 25.9001 234.3 22.2001C235.1 18.5 235.7 16.7 236.2 14.9C236.7 13.1 237.3 11.3 238.1 7.60005C239 3.90005 239 1.90005 239.1 4.88311e-05H238.6C238.5 1.90005 238.5 3.80005 237.6 7.50005C236.8 11.1 236.3 13 235.8 14.8Z" fill="currentColor"/>
<path d="M224.6 27.8C224 29.6 223.3 31.4 222.6 35.2C221.9 38.9 221.1 40.7 220.4 42.4C219.8 43.9 219.2 45.4 218.6 48H219.1C219.7 45.5 220.3 44 220.9 42.6C221.6 40.8 222.4 39 223.1 35.3C223.8 31.6 224.5 29.8 225.1 28C225.7 26.2001 226.4 24.4 227.1 20.6C227.8 16.9 228.3 15 228.8 13.2C229.3 11.4 229.8 9.50005 230.5 5.80005C231 3.20005 231.2 1.40005 231.2 -0.0999512H230.7C230.7 1.40005 230.5 3.10005 230 5.70005C229.3 9.40005 228.8 11.3 228.3 13.1C227.8 14.9001 227.3 16.8 226.6 20.5C225.9 24.2001 225.2 26 224.6 27.8Z" fill="currentColor"/>
<path d="M120.3 10.7C121.4 14.3 121.8 16.2001 122.3 18C122.7 19.8 123.2 21.7 124.3 25.3C125.4 28.9 125.7 30.8001 126 32.7001C126.3 34.6001 126.6 36.5 127.7 40.1C128.8 43.7 129 45.6 129.2 47.5C129.2 47.6 129.2 47.8 129.2 48H129.7C129.7 47.8 129.7 47.7001 129.6 47.5C129.4 45.6 129.2 43.6 128.1 40C127 36.4001 126.7 34.5 126.4 32.6C126.1 30.7 125.8 28.8001 124.7 25.2001C123.6 21.6 123.2 19.7 122.7 17.9C122.3 16.1 121.8 14.2 120.7 10.6C119.6 7.00005 118.7 5.20005 117.8 3.50005C117.3 2.50005 116.7 1.40005 116.1 4.88311e-05H115.5C116.1 1.60005 116.7 2.70005 117.3 3.80005C118.3 5.40005 119.3 7.20005 120.3 10.7Z" fill="currentColor"/>
<path d="M3.40002 5.60005C5.80002 8.60005 7.00002 10 8.20002 11.4C9.40002 12.8 10.6 14.3001 13 17.2001C15.4 20.2001 17.1 21.3 18.7 22.4C20.3 23.5 22 24.6 24.3 27.5C26.7 30.4 27.6 32.1001 28.6 33.7001C29.6 35.3 30.5 37 32.9 40C35.3 43 36.8 44.2001 38.3 45.5C39.2 46.2001 40 47 41.1 48H41.8C40.6 46.7001 39.6 45.9001 38.6 45C37.2 43.8 35.7 42.5 33.3 39.6C30.9 36.7 30 35 29 33.4001C28 31.8001 27.1 30.1 24.7 27.1C22.3 24.1 20.6 23 19 21.9C17.4 20.8 15.7 19.7 13.4 16.8C11 13.9 9.80002 12.4 8.60002 11C7.40002 9.70005 6.20002 8.20005 3.80002 5.30005C2.00002 3.10005 1.20002 1.50005 0.700024 4.88311e-05H0.100024C0.700024 1.60005 1.50002 3.30005 3.40002 5.60005Z" fill="currentColor"/>
<path d="M64.1 45.3C63.2 43.7001 62.2 42 60.1 38.9001C58 35.7001 56.6 34.4001 55.2 33C53.9 31.7001 52.5 30.3001 50.4 27.2001C48.3 24.1 47.5 22.3001 46.7 20.6C45.9 18.9 45.1 17.1 42.9 14C40.8 10.8 39.2 9.60005 37.6 8.30005C36.1 7.10005 34.5 5.90005 32.4 2.80005C31.7 1.70005 31.1 0.800049 30.5 4.88311e-05H30C30.6 0.800049 31.3 1.80005 32.1 3.10005C34.2 6.30005 35.8 7.50005 37.4 8.80005C38.9 10 40.5 11.2 42.6 14.3C44.7 17.4 45.5 19.2 46.3 20.9C47.1 22.6 47.9 24.4 50.1 27.5C52.2 30.7001 53.6 32.1001 55 33.4001C56.3 34.7001 57.7 36.1001 59.8 39.2001C61.9 42.3 62.9 44 63.8 45.6C64.2 46.3 64.7 47.1 65.2 48H65.8C65.1 47 64.6 46.1 64.1 45.3Z" fill="currentColor"/>
<path d="M314.8 6.10005C312.9 9.40005 311.7 10.9 310.5 12.3C309.3 13.8 308.1 15.3 306.2 18.6C304.3 21.9 303.6 23.8001 303 25.6C302.4 27.4 301.7 29.2001 299.9 32.5C298 35.8 296.9 37.4001 295.9 38.9001C294.9 40.5 293.8 42.1 291.9 45.3C291.3 46.4 290.7 47.2001 290.3 48H290.9C291.3 47.3 291.8 46.5 292.4 45.6C294.3 42.3 295.4 40.7001 296.4 39.2001C297.4 37.6001 298.5 36 300.4 32.8C302.3 29.5 302.9 27.6 303.6 25.8C304.2 24 304.9 22.2 306.7 18.9C308.6 15.6 309.8 14.1 311 12.7C312.2 11.2 313.4 9.70005 315.3 6.40005C316.9 3.60005 317.5 1.70005 317.9 4.88311e-05H317.4C316.9 1.60005 316.3 3.40005 314.8 6.10005Z" fill="currentColor"/>
<path d="M19.8 2.50005C20.9 4.00005 22.1 5.50005 24.3 8.60005C26.5 11.7 28.2 12.9 29.8 14.1C31.3 15.2 33 16.4 35.1 19.5C37.3 22.5 38.2 24.3 39.1 25.9C40 27.6 40.9 29.3001 43.1 32.4001C45.3 35.5 46.8 36.8 48.2 38.1C49.6 39.4 51 40.7001 53.2 43.8C54.6 45.7001 55.5 47 56.2 48.1H56.8C56 46.9 55.1 45.5 53.6 43.5C51.4 40.4001 49.9 39.1 48.5 37.8C47.1 36.5 45.7 35.2 43.5 32.1C41.3 29.1 40.4 27.3001 39.5 25.7001C38.6 24 37.7 22.3001 35.5 19.2001C33.3 16.1 31.6 14.9 30 13.7C28.5 12.6 26.8 11.4 24.7 8.30005C22.5 5.20005 21.3 3.70005 20.2 2.20005C19.7 1.50005 19.2 0.900049 18.6 4.88311e-05H17.9C18.6 1.00005 19.2 1.70005 19.8 2.50005Z" fill="currentColor"/>
<path d="M147.3 4.50005C148 8.20005 148.2 10.1 148.4 12C148.6 13.9 148.8 15.8 149.5 19.5C150.2 23.2001 150.2 25.1 150.2 27C150.2 28.9 150.3 30.8 150.9 34.6C151.6 38.3 151.5 40.2 151.5 42.1C151.5 43.7 151.4 45.4001 151.8 48H152.3C151.9 45.3 151.9 43.7 152 42.1C152 40.2 152.1 38.2001 151.4 34.5C150.7 30.8 150.7 28.9 150.7 27C150.7 25.1 150.6 23.2 150 19.4C149.3 15.7 149.1 13.8 148.9 11.9C148.7 10 148.5 8.10005 147.8 4.40005C147.5 2.50005 147.1 1.20005 146.8 4.88311e-05H146.2C146.6 1.20005 147 2.60005 147.3 4.50005Z" fill="currentColor"/>
<path d="M36 0.400049C38.1 3.60005 39.6 4.90005 41.2 6.20005C42.7 7.40005 44.2 8.70005 46.3 11.8C48.3 15 49.1 16.7 49.9 18.4C50.7 20.1 51.5 21.9 53.6 25.1C55.7 28.3 57 29.7 58.4 31.1C59.7 32.5 61 33.9001 63.1 37C65.2 40.2001 66.1 41.8 67 43.5C67.7 44.8 68.4 46 69.7 48H70.3C69 45.9001 68.2 44.5 67.5 43.2001C66.6 41.6001 65.6 39.9001 63.6 36.7001C61.5 33.5 60.2 32.1 58.8 30.7C57.3 29.4 56 28 54 24.8C52 21.6 51.2 19.9 50.4 18.2C49.6 16.5 48.8 14.7 46.7 11.5C44.6 8.30005 43 7.00005 41.5 5.80005C40 4.60005 38.5 3.30005 36.4 0.200049L36.3 0.100049H35.7C35.8 0.100049 35.9 0.300049 36 0.400049Z" fill="currentColor"/>
<path d="M222.2 4.30005C221.6 8.00005 221.2 9.90005 220.8 11.7C220.4 13.5 220 15.4001 219.4 19.1C218.8 22.8001 218.2 24.7 217.7 26.4C217.1 28.2 216.5 30.1 215.9 33.8C215.3 37.5 214.6 39.3 214 41.1C213.4 42.8 212.7 44.5 212.2 47.9001H212.7C213.3 44.7001 213.9 43 214.5 41.3C215.2 39.5 215.8 37.7001 216.4 33.9001C217 30.2001 217.6 28.3001 218.1 26.6C218.7 24.8001 219.3 22.9001 219.9 19.2001C220.5 15.5001 220.9 13.6 221.3 11.8C221.7 10 222.1 8.10005 222.7 4.40005C223 2.60005 223.1 1.20005 223.2 4.88311e-05H222.7C222.6 1.20005 222.5 2.50005 222.2 4.30005Z" fill="currentColor"/>
<path d="M151.2 3.80005C151.8 7.50005 152 9.40005 152.1 11.3C152.3 13.2 152.4 15.1 153 18.8C153.6 22.5 153.6 24.5 153.6 26.3C153.6 28.2 153.6 30.1001 154.2 33.9001C154.8 37.6001 154.7 39.6001 154.6 41.4001C154.5 43.1001 154.5 44.9001 154.9 47.9001H155.4C155 44.9001 155 43.1001 155.1 41.4001C155.2 39.5 155.3 37.5 154.7 33.8C154.1 30.1 154.1 28.2 154.1 26.3C154.1 24.4 154.1 22.5 153.5 18.7001C152.9 15.0001 152.7 13.1 152.6 11.2C152.4 9.30005 152.3 7.40005 151.7 3.70005C151.5 2.20005 151.3 1.00005 151 4.88311e-05H150.5C150.7 1.00005 151 2.30005 151.2 3.80005Z" fill="currentColor"/>
<path d="M20.5 11.4C22.8 14.5 24.5 15.6 26.1 16.8C27.7 17.9 29.3 19.1 31.5 22.1C33.8 25.1 34.7 26.8 35.6 28.5C36.5 30.2001 37.4 31.9001 39.7 34.9001C42 37.9001 43.4 39.3 44.9 40.5C46.3 41.8 47.7 43.1 50 46.1C50.6 46.8 51 47.5 51.5 48.1H52.2C51.7 47.4 51.2 46.7001 50.5 45.8C48.2 42.8 46.8 41.4001 45.3 40.2001C43.9 38.9001 42.5 37.6 40.2 34.6C37.9 31.6 37 29.9001 36.1 28.2001C35.2 26.5 34.3 24.8 32 21.8C29.7 18.7 28 17.6 26.4 16.4C24.8 15.3 23.2 14.1 21 11.1C18.7 8.10005 17.5 6.60005 16.4 5.10005C15.4 3.80005 14.3 2.50005 12.5 4.88311e-05H11.8C13.8 2.60005 14.9 4.00005 16 5.40005C17 6.90005 18.2 8.40005 20.5 11.4Z" fill="currentColor"/>
<path d="M242.7 1.00005C242.6 2.90005 242.5 4.80005 241.6 8.50005C240.7 12.2 240.1 14 239.5 15.8C238.9 17.6 238.3 19.4 237.4 23.1C236.5 26.8001 235.7 28.5 235 30.3C234.3 32 233.5 33.8 232.6 37.5C231.7 41.1 230.9 42.9 230.1 44.6C229.6 45.6 229.1 46.7 228.6 48.1H229.2C229.7 46.8 230.1 45.8 230.6 44.8C231.4 43.1 232.3 41.3 233.2 37.6C234.1 33.9 234.9 32.2001 235.6 30.4C236.3 28.7 237.1 26.9001 238 23.2001C238.9 19.5 239.5 17.7 240.1 15.9C240.7 14.1 241.3 12.3 242.2 8.60005C243.1 4.90005 243.2 2.90005 243.3 1.00005C243.3 0.700049 243.3 0.300049 243.4 4.88311e-05H242.9C242.7 0.300049 242.7 0.600049 242.7 1.00005Z" fill="currentColor"/>
<path d="M33.5 11.3C35 12.5 36.6 13.7 38.8 16.8C41 19.9 41.8 21.6 42.6 23.3C43.4 25 44.3 26.7 46.5 29.9C48.7 33 50.1 34.4 51.5 35.7C52.8 37 54.2 38.4 56.4 41.4C58.6 44.5 59.6 46.1 60.5 47.7C60.6 47.8 60.6 47.9 60.7 48H61.3C61.2 47.8 61.1 47.6 61 47.4C60 45.8 59 44.2 56.9 41.1C54.7 38 53.3 36.6 51.9 35.3C50.6 34 49.2 32.6001 47 29.6C44.8 26.5 44 24.8001 43.2 23.1C42.4 21.4 41.5 19.7001 39.3 16.5C37.1 13.4 35.5 12.1 33.9 10.9C32.4 9.70005 30.8 8.50005 28.6 5.40005C26.8 2.80005 25.7 1.30005 24.7 -0.0999512H24C25 1.30005 26.1 2.80005 28.1 5.70005C30.4 8.90005 32 10.1 33.5 11.3Z" fill="currentColor"/>
<path d="M245.4 9.40005C244.4 13 243.8 14.9001 243.2 16.6C242.6 18.4 242 20.2 241 23.9C240 27.5 239.2 29.3 238.5 31C237.7 32.7001 237 34.5 236 38.2001C235 41.8 234.2 43.6 233.3 45.3C232.9 46.1 232.5 47 232.1 48H232.7C233.1 47.1 233.5 46.3 233.8 45.5C234.6 43.8 235.5 42 236.5 38.3C237.5 34.7001 238.3 32.9001 239 31.2001C239.8 29.5 240.5 27.7001 241.5 24C242.5 20.4 243.1 18.5 243.7 16.8C244.3 15 244.9 13.2 245.9 9.50005C246.9 5.80005 247 3.90005 247.2 2.00005C247.2 1.40005 247.3 0.700049 247.4 4.88311e-05H246.9C246.8 0.700049 246.8 1.40005 246.7 2.00005C246.5 3.90005 246.3 5.80005 245.4 9.40005Z" fill="currentColor"/>
<path d="M232 13.9C231.5 15.7 231 17.6 230.2 21.3C229.4 25 228.7 26.8 228.1 28.5C227.4 30.3 226.7 32.1 226 35.8C225.2 39.5 224.5 41.3 223.7 43C223.1 44.3 222.5 45.7001 221.9 48H222.4C223 45.9001 223.6 44.5 224.1 43.2001C224.9 41.4001 225.6 39.6001 226.4 35.9001C227.2 32.2001 227.9 30.4001 228.5 28.7001C229.2 26.9001 229.9 25.1 230.6 21.4C231.4 17.7 231.9 15.9 232.4 14.1C232.9 12.3 233.4 10.4 234.2 6.70005C234.9 3.60005 235 1.70005 235.1 4.88311e-05H234.6C234.6 1.60005 234.4 3.50005 233.8 6.60005C233.1 10.3 232.5 12.1 232 13.9Z" fill="currentColor"/>
<path d="M129.3 0.500049C130.1 2.20005 130.9 4.00005 131.8 7.60005C132.7 11.3 133.1 13.1 133.4 15C133.7 16.8 134.1 18.7 135 22.4C135.9 26.1 136.1 28 136.3 29.8C136.5 31.7 136.7 33.6 137.6 37.3C138.5 40.9 138.6 42.9 138.7 44.8C138.7 45.8 138.8 46.7 138.9 47.9H139.4C139.2 46.7 139.2 45.7 139.1 44.7C139 42.8 138.9 40.8 138 37.1C137.1 33.4 136.9 31.5 136.7 29.7001C136.5 27.8001 136.3 25.9001 135.4 22.2001C134.5 18.5 134.1 16.7001 133.8 14.8C133.5 13 133.1 11.1 132.2 7.40005C131.3 3.70005 130.5 1.90005 129.7 0.200049C129.7 0.100049 129.6 4.88311e-05 129.6 -0.0999512H129C129.1 0.200049 129.2 0.400049 129.3 0.500049Z" fill="currentColor"/>
<path d="M7.30002 2.50005C9.60002 5.50005 10.9 7.00005 12 8.40005C13.2 9.80005 14.4 11.3 16.7 14.3C19.1 17.3 20.7 18.5 22.4 19.6C24 20.7001 25.6 21.8 27.9 24.8C30.2 27.8 31.2 29.4 32.1 31.1C33 32.7001 34 34.5 36.3 37.4001C38.6 40.4001 40.1 41.7001 41.6 43C42.9 44.2001 44.3 45.4 46.5 48.1H47.2C44.9 45.2 43.4 43.9 42 42.6C40.6 41.4 39.1 40.1 36.8 37.1C34.5 34.1 33.5 32.5 32.6 30.8C31.7 29.2 30.7 27.4 28.4 24.5C26 21.5 24.4 20.3001 22.8 19.2001C21.2 18.1 19.6 17 17.3 14C15 11 13.8 9.50005 12.6 8.10005C11.3 6.60005 10 5.10005 7.70002 2.10005C7.10002 1.40005 6.60002 0.700049 6.20002 4.88311e-05H5.60002C6.00002 0.700049 6.60002 1.60005 7.30002 2.50005Z" fill="currentColor"/>
<path d="M190.7 1.40005C190.6 5.20005 190.5 7.10005 190.3 8.90005C190.1 10.8 190 12.7 189.9 16.5C189.8 20.3 189.5 22.2001 189.2 24C188.9 25.9 188.6 27.8001 188.5 31.6C188.4 35.4001 188 37.3 187.6 39.1C187.2 41 186.8 42.9001 186.7 46.7001C186.7 47.2001 186.7 47.6 186.7 48H187.2C187.2 47.6 187.2 47.1001 187.2 46.7001C187.3 42.9001 187.7 41 188.1 39.2001C188.5 37.3 188.9 35.4001 189 31.6C189.1 27.8001 189.4 25.9 189.7 24.1C190 22.2001 190.3 20.3 190.4 16.5C190.5 12.7 190.6 10.8 190.8 9.00005C191 7.10005 191.1 5.20005 191.2 1.40005C191.2 0.900049 191.2 0.500049 191.2 4.88311e-05H190.7C190.7 0.400049 190.7 0.900049 190.7 1.40005Z" fill="currentColor"/>
<path d="M194.6 1.50005C194.5 5.30005 194.3 7.20005 194.1 9.00005C193.9 10.9 193.7 12.8 193.6 16.6C193.5 20.4 193.1 22.3001 192.8 24.1C192.4 26 192.1 27.9001 192 31.7001C191.9 35.5 191.4 37.3 191 39.2001C190.6 41.1001 190.1 43 190 46.8C190 47.3 190 47.7 190 48.1H190.5C190.5 47.7 190.5 47.3 190.5 46.8C190.6 43 191.1 41.2001 191.5 39.3C191.9 37.4 192.4 35.5 192.5 31.7001C192.6 27.9001 193 26 193.3 24.2001C193.6 22.3001 194 20.4 194.1 16.6C194.2 12.8 194.4 10.9 194.6 9.10005C194.8 7.20005 195 5.30005 195.1 1.50005C195.1 1.00005 195.1 0.500049 195.1 4.88311e-05H194.6C194.7 0.500049 194.7 1.00005 194.6 1.50005Z" fill="currentColor"/>
<path d="M182.8 1.30005C182.9 5.10005 182.8 7.00005 182.7 8.80005C182.6 10.7 182.5 12.6 182.6 16.4C182.7 20.2 182.4 22.1 182.2 23.9C181.9 25.8 181.7 27.7001 181.8 31.5C181.9 35.3 181.5 37.2001 181.2 39C180.9 40.9001 180.5 42.8 180.6 46.6C180.6 47.1 180.6 47.5 180.6 47.9001H181.1C181.1 47.5 181.1 47.1 181.1 46.6C181 42.8 181.4 40.9 181.7 39.1C182 37.2 182.4 35.3 182.3 31.5C182.2 27.7001 182.5 25.8 182.7 24C183 22.1 183.2 20.2 183.1 16.4C183 12.6 183.1 10.7 183.2 8.90005C183.3 7.00005 183.4 5.10005 183.3 1.30005C183.3 0.800049 183.3 0.400049 183.3 4.88311e-05H182.8C182.7 0.400049 182.8 0.800049 182.8 1.30005Z" fill="currentColor"/>
<path d="M178.8 1.40005C178.9 5.20005 178.9 7.10005 178.8 8.90005C178.7 10.8 178.7 12.7 178.8 16.5C178.9 20.3 178.7 22.2001 178.5 24C178.3 25.9 178.1 27.8001 178.2 31.6C178.3 35.4001 178 37.3 177.7 39.1C177.4 41 177.1 42.9001 177.2 46.7001C177.2 47.1001 177.2 47.5 177.2 47.9001H177.7C177.7 47.5 177.7 47.1001 177.7 46.7001C177.6 42.9001 177.9 41 178.2 39.2001C178.5 37.3 178.8 35.4001 178.7 31.6C178.6 27.8001 178.8 25.9 179 24.1C179.2 22.2001 179.4 20.3 179.3 16.5C179.2 12.7 179.2 10.8 179.3 9.00005C179.4 7.10005 179.4 5.20005 179.3 1.40005C179.3 0.900049 179.3 0.500049 179.2 4.88311e-05H178.7C178.8 0.400049 178.8 0.900049 178.8 1.40005Z" fill="currentColor"/>
<path d="M167 2.00005C167.3 5.80005 167.4 7.70005 167.4 9.50005C167.4 11.4 167.5 13.3 167.8 17.1C168.1 20.8001 168 22.8001 167.9 24.6C167.8 26.5 167.7 28.4001 168 32.2001C168.3 35.9001 168.1 37.9001 167.9 39.7001C167.7 41.6001 167.5 43.6 167.8 47.3C167.8 47.5 167.8 47.6 167.8 47.8H168.3C168.3 47.6 168.3 47.4001 168.2 47.2001C167.9 43.5 168.1 41.5 168.3 39.7001C168.5 37.8 168.7 35.8 168.4 32C168.1 28.3 168.2 26.3 168.3 24.5C168.4 22.6 168.5 20.7 168.2 16.9C167.9 13.1 167.8 11.2 167.8 9.40005C167.8 7.50005 167.7 5.60005 167.4 1.80005C167.3 1.10005 167.3 0.400049 167.2 -0.199951H166.7C166.8 0.600049 166.9 1.30005 167 2.00005Z" fill="currentColor"/>
<path d="M209 33C208.5 36.7001 207.9 38.6001 207.3 40.4001C206.7 42.2001 206.1 44.1001 205.6 47.9001C205.6 48 205.6 48 205.6 48.1H206.1V48C206.6 44.3 207.2 42.4 207.8 40.6C208.4 38.8 209 36.9 209.5 33.1C210 29.4 210.5 27.5 211 25.7001C211.5 23.9001 212 22 212.5 18.2001C213 14.5001 213.3 12.6 213.7 10.7C214.1 8.90005 214.4 7.00005 214.9 3.20005C215.1 1.90005 215.1 0.900049 215.2 4.88311e-05H214.7C214.7 0.900049 214.6 1.90005 214.4 3.20005C213.9 6.90005 213.6 8.80005 213.2 10.7C212.8 12.5 212.5 14.4001 212 18.2001C211.5 21.9001 211 23.8001 210.5 25.6C210 27.3001 209.5 29.2001 209 33Z" fill="currentColor"/>
<path d="M205.6 9.80005C205.3 11.6 205 13.6 204.7 17.3C204.4 21 203.9 22.9 203.5 24.7C203.1 26.5 202.6 28.4001 202.3 32.2001C202 35.9001 201.4 37.8 200.9 39.6C200.4 41.4 199.8 43.3 199.5 47.1C199.5 47.4 199.5 47.6001 199.4 47.9001H199.9C199.9 47.7001 199.9 47.4001 200 47.2001C200.3 43.5 200.9 41.6 201.4 39.8C201.9 38 202.5 36.1 202.8 32.3C203.1 28.6 203.6 26.7 204 24.9C204.4 23.1 204.9 21.2 205.2 17.4C205.5 13.6 205.8 11.7 206.1 9.90005C206.4 8.10005 206.7 6.10005 207 2.40005C207.1 1.50005 207.1 0.800049 207.1 0.100049H206.6C206.6 0.800049 206.5 1.50005 206.5 2.40005C206.2 6.10005 205.9 8.00005 205.6 9.80005Z" fill="currentColor"/>
<path d="M209.4 10.2C209.1 12 208.8 13.9001 208.4 17.7001C208 21.4001 207.5 23.3001 207 25.1C206.5 26.9 206 28.8 205.6 32.6C205.2 36.3 204.6 38.2 204.1 40C203.5 41.8 202.9 43.7 202.6 47.5C202.6 47.7 202.6 47.8 202.5 48H203C203 47.8 203 47.7 203 47.5C203.4 43.8 204 41.9 204.5 40.1C205.1 38.3 205.7 36.4 206 32.6C206.4 28.9 206.9 27 207.4 25.2001C207.9 23.4001 208.4 21.5 208.8 17.7001C209.2 14.0001 209.5 12.1 209.8 10.2C210.1 8.40005 210.4 6.50005 210.8 2.70005C210.9 1.60005 211 0.700049 211 -0.0999512H210.5C210.5 0.700049 210.4 1.60005 210.3 2.60005C210 6.50005 209.7 8.40005 209.4 10.2Z" fill="currentColor"/>
<path d="M193.1 46.8C193.1 47.2 193.1 47.6 193 48H193.5C193.5 47.6 193.5 47.3 193.6 46.9C193.8 43.2 194.3 41.3 194.7 39.4C195.2 37.5 195.7 35.6 195.9 31.8C196.1 28 196.5 26.1 196.9 24.3C197.3 22.4 197.7 20.5 197.9 16.7001C198.1 12.9001 198.3 11 198.5 9.20005C198.7 7.30005 199 5.40005 199.1 1.60005C199.1 1.00005 199.1 0.400049 199.2 -0.0999512H198.7C198.7 0.400049 198.7 1.00005 198.6 1.60005C198.4 5.40005 198.2 7.30005 198 9.10005C197.8 11 197.5 12.9001 197.4 16.6C197.2 20.4 196.8 22.2001 196.4 24.1C196 26 195.6 27.9001 195.4 31.7001C195.2 35.4001 194.7 37.3 194.3 39.2C193.7 41.1 193.3 43 193.1 46.8Z" fill="currentColor"/>
<path d="M201.8 9.50005C201.5 11.3 201.3 13.3 201 17C200.7 20.8 200.3 22.6 199.9 24.5C199.5 26.3 199.1 28.3 198.8 32C198.5 35.7001 198 37.6001 197.5 39.4001C197 41.2001 196.5 43.1001 196.2 46.9001C196.2 47.3001 196.2 47.6001 196.1 47.9001H196.6C196.6 47.6001 196.6 47.3001 196.7 46.9001C197 43.2001 197.5 41.3 198 39.5C198.5 37.7001 199 35.8 199.3 32C199.6 28.2001 200 26.4 200.4 24.5C200.8 22.7001 201.2 20.7001 201.5 17C201.8 13.2 202 11.3 202.3 9.50005C202.6 7.70005 202.8 5.70005 203.1 2.00005C203.2 1.30005 203.2 0.600049 203.2 4.88311e-05H202.7C202.7 0.600049 202.7 1.20005 202.6 2.00005C202.3 5.70005 202 7.60005 201.8 9.50005Z" fill="currentColor"/>
<path d="M268 0.800049C266.7 4.40005 266.4 6.30005 266.1 8.20005C265.8 10.1 265.5 12 264.2 15.5C262.9 19 262.1 20.8 261.4 22.5C260.6 24.2001 259.9 26 258.6 29.5C257.3 33 256.4 34.7001 255.5 36.4001C254.6 38.1001 253.7 39.8 252.4 43.3C251.6 45.4 251 46.8001 250.4 47.9001H251C251.6 46.8001 252.2 45.4001 252.9 43.5C254.2 40 255.1 38.3 256 36.6C256.9 34.9 257.8 33.2001 259.1 29.7001C260.4 26.2001 261.2 24.4001 261.9 22.7001C262.7 21 263.4 19.2 264.7 15.7C266 12.1 266.3 10.2 266.6 8.30005C266.9 6.40005 267.2 4.50005 268.5 1.00005C268.6 0.600049 268.8 0.300049 268.9 4.88311e-05H268.3C268.2 0.300049 268.1 0.500049 268 0.800049Z" fill="currentColor"/>
<path d="M45.1 3.70005C46.6 5.00005 48.1 6.20005 50.1 9.40005C52.1 12.6 52.9 14.4001 53.6 16.1C54.3 17.8001 55.1 19.6 57.1 22.9C59.1 26.1 60.5 27.6 61.7 29C63 30.4 64.3 31.8 66.3 35C68.3 38.2001 69.2 39.9001 70.1 41.5C71 43.1 71.9 44.8 73.9 48.1H74.5C74.4 48 74.4 47.9 74.3 47.8C72.3 44.6 71.4 42.9 70.5 41.3C69.6 39.7001 68.7 38 66.7 34.7001C64.7 31.5 63.3 30 62.1 28.6C60.8 27.2001 59.5 25.8001 57.5 22.6C55.5 19.4 54.7 17.6 54 15.9C53.3 14.2 52.5 12.4 50.5 9.10005C48.5 5.90005 46.9 4.50005 45.4 3.30005C44.4 2.40005 43.3 1.50005 42.1 4.88311e-05H41.4C42.8 1.80005 44 2.70005 45.1 3.70005Z" fill="currentColor"/>
<path d="M287.3 0.400049C286.3 2.00005 285.2 3.60005 283.7 7.10005C282.2 10.6 281.7 12.5 281.3 14.3C280.9 16.1 280.4 18 278.9 21.5C277.4 24.9 276.5 26.6 275.6 28.3C274.7 29.9 273.8 31.7 272.3 35.1C270.8 38.5 269.7 40.2001 268.7 41.7001C267.7 43.2001 266.7 44.8001 265.3 47.9001H265.9C267.3 45 268.2 43.4001 269.2 42C270.2 40.4001 271.3 38.8 272.8 35.3C274.3 31.9 275.2 30.2001 276.1 28.5C277 26.9 277.9 25.1 279.4 21.7001C280.9 18.2001 281.4 16.3 281.8 14.5C282.2 12.7 282.7 10.8 284.2 7.30005C285.7 3.90005 286.8 2.20005 287.8 0.700049C288 0.500049 288.1 0.200049 288.3 4.88311e-05H287.7C287.5 0.100049 287.4 0.300049 287.3 0.400049Z" fill="currentColor"/>
<path d="M75.4 12.5C77.1 15.9 78.3 17.4 79.5 19C80.7 20.5 81.8 22 83.5 25.4C85.2 28.8 86 30.5 86.7 32.2001C87.4 33.9001 88.2 35.7 89.9 39.1C91.6 42.5 92.2 44.3 92.8 46.1C93 46.7 93.2 47.4 93.5 48.1H94.1C93.8 47.3 93.6 46.6001 93.3 45.9001C92.7 44.1001 92.1 42.3001 90.4 38.9001C88.7 35.5 87.9 33.8 87.2 32.1C86.5 30.4 85.7 28.6 84 25.2001C82.3 21.8001 81.1 20.3001 79.9 18.7001C78.7 17.2001 77.6 15.7 75.9 12.3C74.2 8.90005 73.6 7.10005 73 5.30005C72.5 3.80005 72 2.30005 70.9 4.88311e-05H70.3C71.4 2.40005 72 4.00005 72.5 5.40005C73.1 7.20005 73.7 9.10005 75.4 12.5Z" fill="currentColor"/>
<path d="M86.9 7.00005C88.4 10.5 89.6 12.1 90.7 13.7C91.8 15.2 92.9 16.8 94.4 20.3C95.9 23.7 96.6 25.5 97.2 27.3C97.8 29.1 98.5 30.9 100.1 34.3C101.6 37.7 102.1 39.6 102.6 41.4C103.1 43.1 103.6 44.9 104.9 48H105.5C104.1 44.8 103.6 43 103.1 41.2C102.6 39.4 102.1 37.5 100.5 34C99 30.6 98.3 28.8 97.7 27C97.1 25.2001 96.4 23.4 94.9 20C93.4 16.5 92.2 14.9001 91.1 13.3C90 11.8 88.9 10.2 87.4 6.70005C86 3.40005 85.4 1.60005 84.9 -0.0999512H84.4C84.8 1.80005 85.4 3.70005 86.9 7.00005Z" fill="currentColor"/>
<path d="M291.2 2.30005C290.2 3.90005 289.1 5.50005 287.5 8.90005C285.9 12.3 285.4 14.3 284.9 16.1C284.4 17.9 284 19.8001 282.4 23.2001C280.8 26.6 279.9 28.3 279 29.9C278.1 31.5 277.2 33.2001 275.6 36.7001C274 40.1001 272.9 41.7001 271.9 43.3C271.1 44.5 270.2 45.8 269.1 48H269.7C270.7 46 271.6 44.8 272.3 43.6C273.3 42 274.4 40.4001 276 37C277.6 33.6 278.5 31.9 279.4 30.3C280.3 28.7 281.2 27 282.8 23.5C284.4 20.1 284.9 18.1 285.4 16.3C285.9 14.5 286.3 12.6 287.9 9.20005C289.5 5.80005 290.6 4.20005 291.6 2.60005C292.1 1.80005 292.6 1.00005 293.2 4.88311e-05H292.6C292.2 0.900049 291.7 1.60005 291.2 2.30005Z" fill="currentColor"/>
<path d="M291.3 10.7C289.6 14.1 289.1 16 288.6 17.9C288.1 19.7 287.6 21.6 286 25C284.3 28.4 283.4 30.1 282.5 31.7001C281.6 33.3 280.6 35 279 38.4001C277.4 41.8001 276.3 43.4001 275.2 44.9001C274.6 45.8001 273.9 46.8 273.1 48.1H273.7C274.4 46.9 275 46.1001 275.6 45.2001C276.7 43.6001 277.8 42 279.5 38.6C281.2 35.2 282.1 33.5 283 31.9C283.9 30.3 284.9 28.6 286.5 25.2001C288.2 21.8001 288.7 19.9 289.2 18C289.7 16.2001 290.2 14.3 291.8 10.9C293.4 7.50005 294.5 5.90005 295.6 4.40005C296.4 3.20005 297.3 2.00005 298.4 4.88311e-05H297.8C296.8 1.90005 296 3.00005 295.2 4.10005C294.1 5.70005 293 7.30005 291.3 10.7Z" fill="currentColor"/>
<path d="M348.1 19.7C347.4 21.5 346.7 23.4 344.4 26.3C342.1 29.3 340.7 30.6 339.3 31.9C337.9 33.2 336.5 34.5 334.2 37.5C331.9 40.5 331 42.3001 330.1 43.9001C329.5 45.1001 328.9 46.3001 327.8 47.9001H328.4C329.4 46.4001 330 45.2 330.6 44.1C331.5 42.4 332.3 40.7001 334.7 37.7001C337 34.7001 338.4 33.4 339.8 32.1C341.2 30.8 342.6 29.5 344.9 26.5C347.3 23.5 348 21.6 348.7 19.7C349.4 17.9 350.1 16 352.4 13.1C354.7 10.1 355.9 8.60005 357 7.10005C357.9 6.00005 358.7 4.80005 360.2 2.90005V2.20005C358.5 4.40005 357.6 5.70005 356.6 6.90005C355.5 8.40005 354.3 9.90005 352 12.9C349.5 16 348.8 17.9 348.1 19.7Z" fill="currentColor"/>
<path d="M317.4 34.5C318.1 32.8 318.9 31 321 27.9C323.1 24.8 324.4 23.4 325.7 22C327 20.6 328.3 19.2001 330.4 16C332.5 12.8 333.1 10.9 333.7 9.00005C334.2 7.20005 334.8 5.20005 336.9 2.10005C337.4 1.30005 337.9 0.600049 338.3 -0.0999512H337.7C337.3 0.500049 336.9 1.10005 336.5 1.80005C334.4 5.00005 333.8 6.90005 333.2 8.80005C332.7 10.6 332.1 12.6 330 15.7C327.9 18.8 326.6 20.2001 325.3 21.6C324 23 322.7 24.4 320.6 27.6C318.5 30.8001 317.7 32.6 316.9 34.3C316.2 36 315.4 37.8 313.3 40.9C311.2 44 310 45.5 308.9 47C308.7 47.3 308.4 47.6 308.2 47.9H308.9C309.1 47.7 309.2 47.5 309.4 47.3C310.5 45.8 311.7 44.3 313.8 41.2C315.8 38.1 316.6 36.3 317.4 34.5Z" fill="currentColor"/>
<path d="M30.2 42.3C27.8 39.4 26.8 37.8 25.8 36.2001C24.8 34.6001 23.8 32.9001 21.4 30C18.9 27.1 17.2 26 15.6 24.9C14 23.9 12.3 22.8 9.90002 19.9C7.50002 17 6.20002 15.6 5.00002 14.2C3.60002 12.8 2.40002 11.4 2.44156e-05 8.60005V9.40005C2.10002 11.9 3.30002 13.3 4.50002 14.6C5.70002 16 7.00002 17.4 9.40002 20.3C11.9 23.2 13.6 24.3 15.2 25.4C16.8 26.4 18.5 27.5 20.9 30.4C23.3 33.3 24.3 34.9001 25.3 36.5C26.3 38.1 27.3 39.8 29.7 42.7C32.1 45.6 33.6 46.8 35.1 48H36C35.8 47.9001 35.7 47.8 35.5 47.6C34.1 46.4 32.6 45.2 30.2 42.3Z" fill="currentColor"/>
<path d="M329.3 6.30005C328.8 8.20005 328.2 10.1 326.2 13.2C324.2 16.4 322.9 17.8001 321.6 19.2001C320.3 20.6 319 22.1 317 25.3C314.9 28.5 314.2 30.3 313.5 32.1C312.8 33.8 312.1 35.6 310 38.8C307.9 42 306.8 43.5 305.7 45C305 45.9001 304.4 46.8 303.5 48.1H304.1C304.9 47 305.5 46.2001 306.1 45.4001C307.2 43.9001 308.4 42.4001 310.4 39.2001C312.5 36 313.2 34.2001 313.9 32.4001C314.6 30.7001 315.3 28.9001 317.4 25.7001C319.4 22.5 320.7 21.1 322 19.7001C323.3 18.3001 324.6 16.8 326.6 13.6C328.7 10.4 329.2 8.40005 329.8 6.50005C330.3 4.70005 330.8 2.90005 332.6 4.88311e-05H332C330.3 2.80005 329.8 4.60005 329.3 6.30005Z" fill="currentColor"/>
<path d="M295.1 12.6C293.4 16 292.8 17.9001 292.3 19.7001C291.8 21.5 291.2 23.4001 289.5 26.7001C287.8 30.1 286.8 31.7 285.9 33.3C284.9 34.9 284 36.6001 282.2 39.9001C280.5 43.3001 279.4 44.8 278.3 46.3C277.9 46.8 277.6 47.3001 277.2 47.9001H277.8C278.1 47.5 278.4 47 278.7 46.6C279.8 45.1 280.9 43.5 282.7 40.1C284.4 36.7 285.4 35.1 286.3 33.5C287.3 31.9001 288.2 30.2 290 26.9C291.7 23.5 292.3 21.6 292.8 19.8C293.3 18 293.9 16.1 295.6 12.8C297.3 9.40005 298.4 7.90005 299.5 6.40005C300.6 4.90005 301.7 3.30005 303.4 4.88311e-05H302.8C301.2 3.10005 300.1 4.60005 299 6.10005C297.9 7.60005 296.8 9.20005 295.1 12.6Z" fill="currentColor"/>
<path d="M279.8 5.50005C278.3 9.00005 277.9 10.9 277.5 12.8C277.1 14.6 276.7 16.5 275.2 20C273.7 23.5 272.9 25.2 272 26.8C271.2 28.5 270.3 30.2001 268.8 33.7001C267.3 37.2001 266.3 38.8001 265.3 40.4001C264.3 42 263.3 43.7001 261.8 47.2001C261.7 47.5 261.5 47.8 261.4 48.1H262C262.1 47.9 262.2 47.7001 262.3 47.4001C263.8 43.9001 264.8 42.3 265.8 40.7001C266.8 39.1001 267.8 37.4001 269.3 33.9001C270.8 30.4001 271.6 28.7001 272.5 27.1C273.3 25.4 274.2 23.7001 275.7 20.2001C277.2 16.7001 277.6 14.8 278 12.9C278.4 11.1 278.8 9.20005 280.3 5.70005C281.5 3.00005 282.3 1.40005 283.1 4.88311e-05H282.5C281.7 1.30005 280.9 2.90005 279.8 5.50005Z" fill="currentColor"/>
<path d="M254.5 4.30005C254.3 6.20005 254.1 8.10005 253 11.7C251.9 15.3 251.2 17.1 250.6 18.8C249.9 20.5 249.3 22.3 248.1 26C247 29.6 246.2 31.3 245.4 33C244.6 34.7001 243.7 36.5 242.6 40.1C241.5 43.7 240.6 45.4 239.7 47.1C239.5 47.4 239.4 47.7001 239.2 48H239.8C239.9 47.8 240 47.5 240.2 47.3C241.1 45.6 242 43.9001 243.1 40.2001C244.2 36.6001 245 34.9001 245.8 33.2001C246.6 31.5 247.5 29.7001 248.6 26.1C249.7 22.5 250.4 20.7001 251 19C251.7 17.3 252.3 15.5 253.5 11.8C254.6 8.20005 254.8 6.20005 255 4.30005C255.1 3.00005 255.3 1.80005 255.7 4.88311e-05H255.2C254.7 1.80005 254.6 3.00005 254.5 4.30005Z" fill="currentColor"/>
<path d="M113.6 5.00005C114.5 6.60005 115.4 8.40005 116.6 11.9C117.8 15.5 118.2 17.3001 118.7 19.1C119.2 20.9 119.6 22.8 120.8 26.4C122 30 122.3 31.9001 122.6 33.7001C122.9 35.6001 123.2 37.5 124.4 41.1C125.4 44.3 125.7 46.2001 125.9 47.9001H126.4C126.2 46.1001 125.9 44.2001 124.8 40.9001C123.6 37.3001 123.3 35.4 123 33.6C122.7 31.7 122.4 29.8001 121.2 26.2001C120 22.6 119.6 20.8 119.1 19C118.6 17.2001 118.2 15.3 117 11.7C115.8 8.10005 114.9 6.40005 114 4.70005C113.3 3.40005 112.6 2.10005 111.8 4.88311e-05H111.2C112.1 2.30005 112.8 3.70005 113.6 5.00005Z" fill="currentColor"/>
<path d="M258.4 5.50005C258.2 7.40005 257.9 9.30005 256.8 12.9C255.6 16.5 254.9 18.3 254.2 20C253.5 21.7001 252.8 23.5 251.6 27.1C250.4 30.7001 249.6 32.4 248.7 34.1C247.9 35.8 247 37.5 245.8 41.1C244.7 44.6 243.7 46.3 242.8 48H243.4C244.3 46.4001 245.2 44.7001 246.3 41.3C247.5 37.7001 248.3 36 249.2 34.3C250 32.6 250.9 30.9 252.1 27.3C253.3 23.7 254 21.9001 254.7 20.2001C255.4 18.5 256.1 16.7 257.3 13.1C258.5 9.50005 258.7 7.50005 259 5.60005C259.2 4.10005 259.4 2.50005 260.1 4.88311e-05H259.6C258.8 2.40005 258.6 4.00005 258.4 5.50005Z" fill="currentColor"/>
<path d="M102.5 0.700049C103.8 4.30005 104.8 6.00005 105.8 7.60005C106.8 9.20005 107.8 10.9 109 14.4C110.3 17.9 110.8 19.8001 111.3 21.6C111.8 23.4 112.4 25.2 113.7 28.8C115 32.3 115.4 34.2 115.7 36.1C116.1 38 116.5 39.9001 117.8 43.4001C118.5 45.3001 118.9 46.8 119.2 48H119.7C119.4 46.7001 119 45.2001 118.3 43.2001C117 39.7001 116.6 37.8001 116.3 35.9001C115.9 34 115.5 32.1001 114.2 28.6C112.9 25.1 112.4 23.2 111.9 21.4C111.4 19.6 110.8 17.8 109.5 14.2C108.2 10.6 107.2 8.90005 106.2 7.30005C105.2 5.70005 104.2 4.00005 103 0.500049C102.9 0.300049 102.9 0.100049 102.8 4.88311e-05H102.2C102.4 0.200049 102.4 0.500049 102.5 0.700049Z" fill="currentColor"/>
<path d="M348.1 10.1C345.8 13.2 345.1 15.1 344.5 16.9C343.9 18.7 343.2 20.6 340.9 23.6C338.6 26.6 337.3 28 335.9 29.3C334.5 30.6 333.1 32 330.9 35C328.6 38 327.7 39.8 326.9 41.5C326.1 43.2001 325.2 44.9001 323 47.9001C323 47.9001 323 48 322.9 48H323.6C325.8 45.1 326.6 43.4001 327.4 41.7001C328.2 40 329.1 38.3 331.3 35.3C333.6 32.3 334.9 30.9 336.3 29.6C337.7 28.3001 339.1 26.9 341.3 23.9C343.6 20.8 344.3 18.9 344.9 17.1C345.5 15.3 346.2 13.4 348.5 10.4C350.8 7.40005 351.9 5.80005 353 4.30005C353.8 3.10005 354.7 1.90005 356.1 4.88311e-05H355.4C354.1 1.70005 353.3 2.90005 352.5 4.00005C351.5 5.50005 350.3 7.10005 348.1 10.1Z" fill="currentColor"/>
<path d="M112.8 13.1C114 16.7001 114.5 18.5 115 20.3C115.5 22.1 116 24 117.2 27.5C118.4 31.1 118.8 33 119.1 34.8C119.4 36.7 119.8 38.6 121 42.2C121.9 44.8 122.3 46.5 122.5 47.9H123C122.8 46.4 122.4 44.6 121.5 42C120.3 38.4 119.9 36.5 119.6 34.7C119.3 32.8 118.9 30.9 117.7 27.3C116.5 23.7 116 21.9 115.5 20.1C115 18.3001 114.5 16.4 113.3 12.9C112.1 9.30005 111.1 7.60005 110.1 5.90005C109.2 4.40005 108.4 2.90005 107.3 -0.0999512H106.7C107.8 3.00005 108.7 4.60005 109.6 6.20005C110.6 7.90005 111.6 9.60005 112.8 13.1Z" fill="currentColor"/>
<path d="M344.2 7.30005C342 10.4 341.3 12.3 340.7 14.2C340.1 16 339.5 17.9 337.3 20.9C335.1 23.9 333.7 25.3 332.4 26.6C331.1 27.9 329.7 29.3001 327.5 32.4001C325.3 35.5 324.4 37.3 323.6 39C322.8 40.7001 322 42.5 319.8 45.5C319.1 46.5 318.5 47.3 318 48H318.7C319.2 47.4001 319.7 46.7001 320.3 45.9001C322.5 42.8001 323.4 41 324.2 39.3C325 37.6 325.8 35.8 328 32.8C330.2 29.8 331.6 28.4 332.9 27.1C334.2 25.8 335.6 24.4 337.8 21.3C340 18.2 340.7 16.3 341.3 14.4C341.9 12.6 342.5 10.7 344.7 7.70005C346.9 4.60005 348 3.10005 349.1 1.50005C349.4 1.00005 349.7 0.600049 350.1 0.100049H349.5C349.2 0.500049 349 0.900049 348.7 1.20005C347.5 2.60005 346.4 4.20005 344.2 7.30005Z" fill="currentColor"/>
<path d="M26.9 45.1C24.4 42.3 23.4 40.6 22.4 39C21.4 37.4001 20.3 35.8001 17.9 32.9001C15.4 30.0001 13.7 29 12 27.9C10.4 26.9 8.70002 25.8 6.20002 23C3.70002 20.1 2.40002 18.7 1.20002 17.3C0.800025 17 0.400024 16.6 2.44156e-05 16.1V16.9C0.300024 17.2 0.500024 17.5 0.800024 17.7001C2.10002 19.1 3.30002 20.5 5.80002 23.3C8.30002 26.2 10 27.3 11.7 28.3C13.3 29.3 15 30.4001 17.5 33.2001C20 36 21 37.7001 22 39.3C23 40.9 24.1 42.5 26.5 45.4001C27.4 46.5 28.2 47.3 28.9 48H29.7C28.9 47.2001 28 46.3 26.9 45.1Z" fill="currentColor"/>
<path d="M340.4 4.50005C338.2 7.60005 337.6 9.60005 337 11.4C336.4 13.2 335.8 15.1 333.7 18.2001C331.5 21.3001 330.2 22.7001 328.9 24C327.6 25.4 326.2 26.8 324.1 29.9C321.9 33 321.1 34.8 320.3 36.5C319.5 38.2001 318.7 40 316.6 43.1C315 45.3 314 46.7001 313.1 47.9001H313.8C314.7 46.8001 315.7 45.5 317.1 43.4001C319.3 40.3001 320.1 38.5 320.9 36.8C321.7 35.1 322.5 33.3 324.6 30.2001C326.8 27.1 328.1 25.7 329.4 24.4C330.7 23 332.1 21.6 334.2 18.5C336.4 15.4 337 13.4 337.6 11.6C338.2 9.80005 338.8 7.90005 340.9 4.80005C342.4 2.60005 343.4 1.20005 344.2 4.88311e-05H343.6C342.7 1.10005 341.8 2.50005 340.4 4.50005Z" fill="currentColor"/>
<path d="M272 2.30005C270.6 5.90005 270.3 7.80005 269.9 9.70005C269.6 11.6 269.2 13.5 267.9 17C266.5 20.5 265.7 22.3 265 23.9C264.2 25.6 263.4 27.3 262.1 30.9C260.8 34.4 259.8 36.1001 258.9 37.7001C258 39.3 257 41 255.6 44.6C255.1 46 254.6 47.1 254.1 48H254.7C255.1 47.1 255.6 46.1 256.1 44.8C257.4 41.3 258.4 39.6 259.3 38C260.2 36.4001 261.2 34.7001 262.6 31.1C264 27.6 264.8 25.8001 265.5 24.2001C266.3 22.5 267.1 20.8001 268.5 17.2001C269.9 13.6 270.2 11.7 270.5 9.80005C270.8 7.90005 271.2 6.00005 272.5 2.50005C272.9 1.50005 273.2 0.700049 273.5 4.88311e-05H272.9C272.6 0.700049 272.3 1.40005 272 2.30005Z" fill="currentColor"/>
</svg>
