<svg width="360" height="48" viewBox="0 0 360 48" fill="none" xmlns="http://www.w3.org/2000/svg">
<path d="M325.7 47.4C326.6 47.7 327.3 48.1 327.9 48.7H329.5C328.4 47.8 327.3 47 325.7 47.4Z" fill="currentColor"/>
<path d="M298.9 48.5C299 48.4 299 48.4 298.9 48.5C298.9 48.4 299 48.4 298.9 48.5Z" fill="currentColor"/>
<path d="M299 48.4C301.1 47.2 303.1 46.1 305.4 44.9C302.6 45.1 300.5 46.2 299 48.4Z" fill="currentColor"/>
<path d="M311.6 28.8V28.7C311.6 28.7 311.6 28.7 311.6 28.8C311.5 28.7 311.5 28.7 311.6 28.8C311.5 28.8 311.5 28.8 311.6 28.8Z" fill="currentColor"/>
<path d="M355 48.5C355.1 48.2 355.3 47.9 355.5 47.6C355.7 47.3 355.8 47.1 355.8 47.1C355.1 46.7 354.4 46.5 354.2 46C352.2 41.4 349 37.8 345.8 34.2C342.3 30.3 338 27.2 333.6 24.2C331.4 22.8 329.1 21.5 327.2 19.8C323.9 16.9 321.3 13.5 319.1 9.7C317.4 6.7 316.4 3.7 316.2 0.6H313.2C313.2 1 313.2 1.5 313.2 2C313 6.4 311.4 10.3 308.8 13.7C303.9 20 297.7 24.9 291.1 29.4C285.9 33 281.2 37 278.3 42.9C277.5 44.5 276.9 46.2 276.2 47.9C276.1 48.2 276 48.4 275.8 48.7H277.5C277.9 47.8 278.4 46.8 279.1 46C279.3 45.8 279.8 45.7 280.6 45.5C281.1 42.4 282.6 39.2 285.7 36.9C283.9 39.9 282 42.8 282.5 46.5C282.7 45.9 282.8 45.3 283 44.7C283.4 43 283.6 41.2 285.4 40C286.6 39.2 287.3 37.3 287.9 35.8C288.9 33.5 290.7 32.2 292.5 30.7C293.6 29.8 294.6 28.9 295.7 28C295.8 28.1 295.9 28.2 296 28.3C295.4 29.3 294.9 30.3 294.3 31.4C292.7 34.1 291.8 36.9 291.9 40C292 41.8 292.1 43.5 292 45.3C292 45.7 291.7 46.1 291.3 46.9C290.5 45.1 289.9 43.8 289.3 42.5C289.1 42.5 289 42.5 288.8 42.6C288.9 43.3 288.8 44.1 289.1 44.7C289.9 46.6 291.2 47.9 293 48.8H295C295.1 48.6 295.2 48.2 295.1 47.8C294.9 46.6 294.8 45.3 294.2 44.2C292 40.1 292.8 32.6 296.8 29.2C298.4 27.9 299.2 25.6 300.6 23.9C301.4 22.8 302 21.1 304 21.7C304.1 21.7 304.5 21.3 304.6 21C305.5 19.8 306.4 18.5 307.4 17.3C307.9 16.8 308.6 16.5 309.3 16.2C309.5 15.6 309.4 14.8 309.8 14.4C310.8 13.4 312.1 12.6 313.1 11.5C313.9 10.7 314.3 9.6 315.1 8.4C316.3 10.4 317.3 12.3 318.6 14.4C318.7 13.7 318.8 13.3 319 12.6C320.9 15.3 322.7 17.7 324.4 20.2C325.4 21.6 326.2 23.3 328.2 23.8C329 24 329.6 24.8 330.3 25.3C331 25.8 331.3 27.2 332.7 26.2C332.8 26.1 333.6 26.6 333.9 26.9C335.3 28.2 336.5 29.9 338.1 30.9C340.9 32.7 343 35 344.9 37.6C345.8 38.8 346.7 40 347.6 41.1C349.3 43.1 350 45.9 350 48.9H351.5C351.3 48 351 47.2 350.8 46.3C351.3 46.5 351.7 46.6 351.8 46.8C352 47.5 352.2 48.2 352.5 48.9L355 48.5C355 48.6 355 48.6 355 48.5Z" fill="currentColor"/>
<path d="M298.8 48.6C298.9 48.6 298.9 48.6 298.8 48.6V48.6Z" fill="currentColor"/>
<path d="M310.5 34.9C311.3 33.3 312.1 31.8 313 30.2C312.9 30.1 312.9 30.1 312.8 30C312.2 30.6 311.6 31.3 311 32C310.9 31.9 310.8 31.9 310.6 31.8C310.9 30.8 311.2 29.9 311.5 28.9C310.2 30.4 309 32 309.3 34.2C309.4 35.1 309.8 35.9 311 35.8C312.4 35.6 313.7 34.3 313.6 32.5C312.7 33.4 311.8 34.4 311 35.3C310.8 35.1 310.7 35 310.5 34.9Z" fill="currentColor"/>
<path d="M126.5 32.3C128.6 30.7 130.7 29 132.8 27.3C133.3 27.6 133.7 27.8 134.1 28.1C135.8 25.7 137.5 23.4 139.2 21.1C139.1 21 139 20.9 138.9 20.8C138.6 20.9 138.3 21 138.1 21.2C134.5 23.9 130.9 26.6 127.4 29.4C126.6 30 126.3 31.2 125.7 32.1C125.6 31 125.5 29.8 125.4 28.7C125.3 27.9 124.8 26.9 125 26.3C125.7 24.7 126.8 23.2 127.7 21.8C127.6 21.6 127.3 21.1 127 20.7C126.2 20.7 125.4 20.6 124.9 20.6C124.8 19.3 124.6 18.2 124.6 17.1C124.6 16.7 124.9 16.3 125.1 15.9C125 15.9 124.9 16 124.9 16C124.7 13.6 124.5 11.2 124.3 8.9C123.6 9.2 123.1 9.5 122.5 9.7C122.7 9.4 122.9 9.2 123.1 8.9C122.5 8.5 121.8 8.2 120.9 7.6C121.2 7.4 121.6 7 122 6.7C122.1 6.8 122.2 7 122.3 7.1C122.5 7.3 122.7 7.7 122.8 7.6C123.1 7.5 123.6 7.3 123.6 7.1C123.9 6 124.1 4.8 124.4 3.6C124.7 3.7 125.1 3.8 125.9 4.1C126.1 2.9 126.3 1.7 126.4 0.6H122.1C122.3 0.8 122.4 1 122.6 1.2C123.9 2 123.8 3.2 123.5 4.2C123.4 4.6 122.2 4.7 121.5 4.8C120.9 4.9 120.3 4.8 119.7 4.9C119.4 5 118.9 5.2 118.8 5.4C118.2 6.3 120 9.8 121.1 10C123.2 10.4 123.6 11.1 122.4 13C124.2 16.2 124.2 16.2 121.8 17.1C123.8 17 123.8 17.8 123.6 19.2C123.4 21.2 123.6 23.3 123.6 25.3C123.6 25.9 123.4 26.5 123 27C122.5 27.6 122 28.2 123.1 28.6C124.5 29.1 124.3 29.9 123.6 30.8C122 32.9 120.5 35 118.7 36.9C116.6 39 114.9 41 116.1 44.4C118.9 42.2 119.1 38.1 122.3 36.4C121.7 37.6 120.9 38.7 120.3 39.9C119.7 41.1 119.4 42.4 118.9 44C120.4 41.9 121.5 40.2 122.7 38.5C123.3 37.7 123.4 36.5 124.9 36.6C125 36.6 125.3 36 125.4 35.7C125.5 34.6 125.5 33.4 125.5 32.3C125.9 32.3 126.3 32.4 126.5 32.3Z" fill="currentColor"/>
<path d="M127 48.6C126.7 48.2 126.3 47.8 126 47.5C126 47.9 125.9 48.3 125.9 48.6H127Z" fill="currentColor"/>
<path d="M312.4 26C311.9 26 311.3 26 310.8 26C310.4 24.8 310.1 23.7 309.7 22.6C309.5 23.2 309.2 23.7 309 24.2C308.4 26.5 309 27.2 311.3 27C311.4 27 311.5 27.1 311.6 27.2C311.6 27.6 311.6 28.1 311.5 28.5C312.4 27.9 312.9 27.1 312.4 26Z" fill="currentColor"/>
<path d="M110.6 27.3C110 28 109.4 28.7 109 29.2C108.2 29.1 107.5 28.8 106.9 29C105 29.4 103 28.6 102 26.9C101.7 26.5 101.8 25.8 101.7 25.3C101.9 25.2 102 25.2 102.2 25.1C102.5 25.8 102.9 26.6 103.3 27.6C104.6 25.6 102.4 24.8 102.4 23.4C101.1 24.6 100.8 26 101.2 27.6C102.1 30.6 104.5 30.5 107.1 30.1C106.5 32 106 33.6 107.4 34.8C108.6 32.3 109.8 29.9 110.9 27.5C110.9 27.4 110.7 27.4 110.6 27.3Z" fill="currentColor"/>
<path d="M130.9 16.9C131.1 16.4 131.1 15.8 131.4 15.5C131.7 15.2 132.3 15.3 132.7 15C133.5 14.5 134.2 14.3 134.3 15.7C135 14.5 135.5 13.5 136 12.5C137.4 13.7 137.4 13.7 140.3 11.3C136.9 10.8 136.9 10.8 137 9.8C137.8 9.5 138.5 9.2 139.2 8.9C139.7 8.6 140.2 8.1 140.7 8C143 7.4 144.3 5.5 145.7 4C146.6 3 147.6 2 148.2 0.7H144.8C143.3 3.6 140.8 5.7 137.4 7C135.7 7.6 134.6 8.8 134.2 10.5C134 11.6 133.4 11.8 132.5 12.1C131.2 12.5 129.9 13 128.8 13.7C128.3 13.9 128.1 15.1 127.8 15C126.5 14.8 126.2 15.5 126.3 16.5C126.3 17.2 126.5 18 126.6 18.7L126.5 18.8C126.6 19.4 126.7 20 126.8 20.6C127.9 20 129.1 19.6 130.1 18.9C130.7 18.6 130.7 17.6 130.9 16.9Z" fill="currentColor"/>
<path d="M110.8 38.5C110.6 37.6 110.4 37 110.2 36.1C109.8 37 109.4 37.8 109 38.8C109.8 38.7 110.3 38.6 110.8 38.5Z" fill="currentColor"/>
<path d="M325.7 25.5C325.6 24.8 324.8 24.2 324.2 23.5C324.2 24.2 324.2 25.1 324.2 25.9C324.1 25.9 323.9 25.9 323.8 25.9C323.7 24.7 323.7 23.5 323.6 22.2C323.5 22.2 323.4 22.2 323.3 22.2C323.3 24.2 323.3 26.3 323.3 28.6C323.8 28.4 324.6 28.4 324.8 28.1C325.3 27.3 325.8 26.4 325.7 25.5Z" fill="currentColor"/>
<path d="M309.8 22.6C309.7 22.6 309.7 22.6 309.8 22.6C310.2 23 310.7 23.4 311.1 23.8C311.4 24.2 311.7 24.6 312 25.1C312.2 24.5 312.6 24 312.6 23.4C312.6 22.9 312.2 22.4 312.1 21.9C312 21.5 311.9 20.9 312.1 20.5C312.4 19.7 313 19.1 313.4 18.4C313 17.9 312.6 17.4 312 16.7C312 17.7 312.2 18.5 312 19.1C311.4 20.3 310.5 21.4 309.8 22.6Z" fill="currentColor"/>
<path d="M307.3 29.3C307.3 27.1 306.4 25.5 307.1 23.6C307.9 21.5 308.3 19.4 310.1 17.7C311 16.9 311.2 15.3 311.5 14.7C311.1 15 310.3 15.5 309.5 16.1C309.2 16.7 308.9 17.4 308.5 17.9C306.6 20 304.9 22.1 305.6 25.3C305.8 26.2 305.3 27.2 305 28.5C305.5 28.7 306.3 28.9 307.3 29.3Z" fill="currentColor"/>
<path d="M323.7 41.4C322.8 40.9 322.1 40.1 320.9 39C320.8 40 320.5 41 320.8 41.7C321.1 42.4 322.1 43.2 322.6 43.2C323.9 43.1 325.2 42.3 326.6 42C328.2 41.6 329 40.6 329.6 39.2C329.8 38.8 329.9 38.4 330.1 38C330.2 38 330.4 38 330.5 38C330.7 38.5 330.8 39.1 331 39.5C331.2 39.9 331.7 40.3 332 40.7C332.3 40.4 332.8 40.1 333 39.7C334.2 36.9 334.9 34 333.5 31C333.3 30.7 333.2 30.1 333.3 29.9C334.4 28.4 332.8 28.3 332.1 27.6C332.1 29.1 332.4 30.6 332.7 32C332.8 32.6 332.8 33.1 332.7 33.7C332.6 34.4 332.4 35.1 332 35.6C331.6 36.1 330.9 36.5 330.3 36.9C330.1 36.4 329.9 35.9 329.9 35.4C329.8 33.7 329.9 32 329.9 30.3C329.6 31.7 329.7 33.1 329.5 34.5C329.4 35 328.5 35.4 328 35.8C327.6 35.2 327.1 34.6 326.9 33.9C326.7 33.1 326.7 32.2 326.5 31.2C325.5 32.3 324.8 33 324.1 33.8C323.7 34.2 323.4 34.6 323.1 35.1C323.6 35.5 324.1 36 324.6 36.3C325 36.5 325.4 36.5 325.8 36.5C325.9 37.6 325.9 38.6 326 39.6C326 40.2 326.1 40.8 326.2 41.4C325.2 41.3 324.3 41.6 323.7 41.4Z" fill="currentColor"/>
<path d="M315.2 44.6C314.7 43.3 314.6 42 314.5 40.8C314.4 38.9 314.3 38.8 312.3 39.4C312.6 38.2 312.9 37.1 313.2 36C313 36 312.8 35.9 312.6 35.9C312.3 37.7 311.9 39.4 311.7 41.2C311.7 41.4 312.2 41.8 312.5 42C312.8 42.1 313.2 42.1 313.6 42.1C313.7 43.1 313.6 44.1 313.9 45C314 45.5 314.6 46.3 314.9 46.3C315.4 46.3 316.2 45.8 316.4 45.3C316.8 44.4 316.9 43.3 317.1 42.3C320.4 40.8 318 38 318.3 35.8C319.5 35.8 320.5 35.8 320.4 34.2C320.3 33 320.5 31.8 319.4 31.1C319.2 31.2 319 31.2 318.9 31.3C319 32.1 319 32.9 319.1 34C318.7 33.6 318.5 33.3 318.3 33.1C317.9 32.7 317.4 32.3 317 31.9C316.8 32.6 316.5 33.4 316.4 34.1C316.4 34.6 316.9 35.2 316.8 35.7C316.6 37.4 316.2 39 315.9 40.7C315.6 42 315.4 43.3 315.2 44.6Z" fill="currentColor"/>
<path d="M304.2 25.9C304 25.9 303.8 25.8 303.5 25.8C303.3 26.8 303.2 27.9 303 28.9C303.1 28.9 303.2 28.9 303.4 28.9C303.6 27.9 303.9 26.9 304.2 25.9Z" fill="currentColor"/>
<path d="M324.6 44.9C325.8 45.1 326.9 45.4 328.1 45.6C328.1 45.4 328.2 45.2 328.2 45C327 44.8 325.9 44.6 324.7 44.4C324.7 44.7 324.7 44.8 324.6 44.9Z" fill="currentColor"/>
<path d="M316.6 16.2C317.5 17.8 316.5 20.1 318.7 21.3C319.5 21.7 319.6 23.4 319.8 24.6C319.9 24.9 319.5 25.4 319.2 25.7C319 26 318.6 26.1 318.3 26.3C318.5 26.6 318.7 27.1 319 27.1C319.4 27.2 320 27 320.3 26.8C321.4 25.7 321.3 23.7 320.1 21.8C319 19.9 317.8 18 316.6 16.2Z" fill="currentColor"/>
<path d="M317.4 28C317.8 28.8 318.1 29.6 318.5 30.4C318.7 30.3 318.9 30.2 319.2 30.1C318.8 29.3 318.5 28.5 318.1 27.7C317.8 27.8 317.6 27.9 317.4 28Z" fill="currentColor"/>
<path d="M329.1 46.1C329.8 47 330.5 47.8 331.2 48.6H332.5C331.8 47.8 331 47.1 330.3 46.3C329.4 45.6 329.3 45.6 329.1 46.1Z" fill="currentColor"/>
<path d="M339.1 33.3C339 33.4 338.8 33.4 338.7 33.5C338.9 34.2 338.8 35.1 339.2 35.5C339.8 36.3 340.8 36.7 341.6 37.3C340.8 36.2 340 34.8 339.1 33.3Z" fill="currentColor"/>
<path d="M347.1 48.6H347.7C347.7 48 347.8 47.5 347.8 46.9C347.6 46.9 347.4 46.9 347.2 46.8C347.2 47.5 347.2 48.1 347.1 48.6Z" fill="currentColor"/>
<path d="M335.9 39.6C333.9 42.6 334.1 44.3 336.4 47.8C339.4 46.1 341.6 41.7 339.9 39.6C338.7 41.3 337.8 43.2 337.4 45.3C337.2 45.3 337 45.3 336.8 45.3C336.3 44 335.9 42.6 335.4 41.3C335.9 41.2 336.3 41 337 40.8C336.5 40.3 336.2 39.9 335.9 39.6Z" fill="currentColor"/>
<path d="M342.2 43.4C341 45.2 340.1 46.9 339.1 48.7H340.8C341.3 46.9 341.8 45.1 342.2 43.4Z" fill="currentColor"/>
<path d="M271.1 27.3C271.1 27.2 271.1 27.2 271.1 27.3V27.3Z" fill="currentColor"/>
<path d="M277.6 37C276.4 37.5 276 38.3 276.4 39.6C277.2 39.5 277.9 39.4 278.7 39.3C278.3 38.4 277.9 37.7 277.6 37Z" fill="currentColor"/>
<path d="M259.7 15.1C262.2 16.6 264 15.1 265.8 13.9C263.8 14.3 261.8 14.7 259.7 15.1Z" fill="currentColor"/>
<path d="M270.8 35.4C271.1 34.4 271.5 33.4 271.8 32.3C272.1 31.3 273.5 30.6 272.4 29.3C272.2 29.7 272 30.1 271.9 30.2C270.8 29.9 269.8 29.7 268.3 29.3C269 30.2 269.4 30.7 269.9 31.3C269.3 34.1 269.5 34.8 270.8 35.4Z" fill="currentColor"/>
<path d="M280.9 25.1C280.6 24.6 280.1 24.3 279.7 23.9C279.5 24 279.4 24.1 279.3 24.2C279.5 24.7 279.7 25.3 280 25.7C280.1 25.9 280.6 25.9 280.9 26C280.8 25.7 281 25.3 280.9 25.1Z" fill="currentColor"/>
<path d="M267.1 31.1C267.5 31.2 268 31.1 268.4 31C268.5 30.8 268.5 30.7 268.6 30.5C267.9 29.8 267.2 29.1 266.5 28.3C266.8 28.3 267.3 28.4 267.9 28.3C269 28.1 270.5 28.7 271.2 27.2C269 27.6 267.1 27.2 266.1 24.9C266 24.6 265 24.4 265 24.5C263.2 27.2 264.4 30.3 267.1 31.1Z" fill="currentColor"/>
<path d="M272.3 26C271.9 26.5 271.5 26.8 271.1 27.2C273.1 27.4 272.6 25.6 273.1 24.9C272.4 24.2 271.8 23.7 271.1 23.1C270.5 23.4 269.7 23.9 268.5 24.5C270 25.1 271 25.5 272.3 26Z" fill="currentColor"/>
<path d="M301.2 25.7C300.9 27.4 300.6 29.2 300.2 30.9C300.3 30.9 300.5 30.9 300.6 31C301 29.3 301.4 27.6 301.8 25.9C301.6 25.8 301.4 25.7 301.2 25.7Z" fill="currentColor"/>
<path d="M285.6 19.8C284.8 19.6 284 19.4 283.2 19.1C282.9 19 282.6 18.7 282.3 18.4C282.6 18.2 282.9 18 283.2 17.9C283.5 17.8 283.8 17.8 284.2 17.8C283.9 17.5 283.4 17.3 283.4 17.1C283.5 15.6 282.3 15 281.5 14.1C281.3 13.8 281.2 13.4 280.9 13.2C280.4 12.7 279.9 12.1 279.3 11.9C278.2 11.5 278.1 11.6 278.5 10.3C280 10.6 281.4 10.9 282.9 11.1C281.9 10.2 280.8 9.4 279.6 9.1C278.5 8.7 277.3 8.7 276.2 8.6C276.2 8.4 276.2 8.3 276.2 8.1C276.9 7.8 277.5 7.5 278.2 7.2C278.1 5.9 277.1 5 275.8 5C276 5.5 276.1 5.9 276.3 6.5C275.8 6.5 275.5 6.5 275.1 6.5C275.2 7.1 275.3 7.5 275.4 8.2C274.3 7.9 273.3 7.7 272.4 7.4C271.9 7.7 271.4 8 270.8 8.3C269.1 9 267.5 9.6 265.8 10.3C264.6 10.8 263.3 11.4 262.4 9.8C260.9 10.4 259.5 11.1 257.9 11.8C258 11.9 258.2 12.1 258.3 12C260.7 11.8 263 11.7 265.5 12.1C266.4 12.3 267.7 11.8 268.3 11.2C269.6 9.9 270.3 9.7 271.9 11C271.1 11.9 270.3 12.9 269.5 13.7C268.6 14.6 267.6 15.4 266.7 16.2C267.8 16.2 269.2 16.6 269.9 16C271.2 14.8 272.3 13.2 273.2 11.7C273.8 10.7 274.2 9.8 275.5 10.8C275.8 10.4 276 10.1 276.4 9.5C276.8 10.7 277.5 11.5 276.7 12.7C276.4 13.1 276.8 14.4 277.2 14.9C277.6 15.3 278.6 15.3 279.3 15.3C280.2 15.3 281.1 15.1 282.3 15C281.7 16.4 281.1 17.3 280.9 18.2C280.8 18.8 281.2 19.9 281.5 20C283 20.2 284.5 20.2 286 20.3C285.5 20.2 285.5 20 285.6 19.8Z" fill="currentColor"/>
<path d="M265.9 17.7C266.5 17.8 266.9 17.9 267.5 18.1C266.5 18.9 265.7 19.6 264.8 20.2C264.9 20.4 264.9 20.6 265 20.7C266.6 20.4 268.1 20.2 269.7 19.9C269.8 19.7 269.8 19.4 269.9 19.2C268.7 18.2 267.6 17.2 266.4 16.2C266.2 16.7 266.1 17.2 265.9 17.7Z" fill="currentColor"/>
<path d="M257.1 2.1C255.3 4.5 252.8 5.5 250.4 5.1C248.1 4.7 246.1 3.1 244 2.1C245.2 3.4 246.5 4.5 248 5.4C249.3 6.1 250.8 6.8 252.3 6.9C253.5 7 253.9 7.4 254.1 8.4C254.2 9.1 254.4 9.9 254.8 10.3C255.3 10.7 256.2 10.6 256.9 10.7C256.9 10.3 256.9 9.8 257 9.4C257.5 8.1 256.2 6.7 257.3 5.4C258.3 4.4 258 3.3 257.1 2.1Z" fill="currentColor"/>
<path d="M83.1 8.5C85.2 10.9 85.3 10.9 88.2 8.8C85.2 6.6 81.5 5.7 79.1 2.6C78.6 2 78.3 1.3 77.9 0.6H76.6C77 1.5 77.5 2.3 78 3.1C79.5 5.1 81.5 6.7 83.1 8.5Z" fill="currentColor"/>
<path d="M271.1 17.2C270.8 17.2 270.5 17.2 270.3 17.2C270.2 17.8 270.2 18.5 270.1 19.1C270.5 19.1 271 19.1 271.4 19.1C271.3 18.5 271.2 17.8 271.1 17.2Z" fill="currentColor"/>
<path d="M45.4 0.6C45.4 0.7 45.4 0.8 45.4 0.9C45.5 0.8 45.5 0.7 45.5 0.6H45.4Z" fill="currentColor"/>
<path d="M357.3 2.1C357.2 1.6 357.1 1.1 357 0.7H356.6C356.7 1.5 356.8 2.4 357 3.4C357.8 2.9 358.3 2.6 359 2.2C359.1 3.2 359.1 4.1 359.2 4.9C359.5 4.6 359.7 4.3 359.9 4V0.6H359C358.6 0.9 358.1 1.3 357.3 2.1Z" fill="currentColor"/>
<path d="M28.8 1.8C28.5 1.4 28.3 1 28.1 0.6H28C28.3 1 28.5 1.4 28.8 1.8Z" fill="currentColor"/>
<path d="M58.7 2.4C55 3.5 51.3 5.2 48.5 0.9C46.9 2.2 46.3 3.4 47 4.2C48.1 5.4 47.9 6.3 47 7.2C48 7.4 49 7.7 49.9 7.7C50.9 7.7 52.2 7.6 52.1 6.3C51.1 5.7 50.4 5.2 49.5 4.7C52.6 3.2 56.3 5.4 58.7 2.4Z" fill="currentColor"/>
<path d="M46.9 7.3C47 7.3 47 7.3 46.9 7.3C46.9 7.2 46.9 7.2 46.8 7.2L46.9 7.3Z" fill="currentColor"/>
<path d="M81.3 0.6H80.2C81 1.8 81.9 3.3 83.8 3C82.9 2.3 81.9 1.6 81.3 0.6Z" fill="currentColor"/>
<path d="M95 10.7C97.4 11.7 99.3 11 101.1 9C102.3 7.7 102.9 6.5 102.8 4.9C101.1 4.2 99.7 4.1 98.3 5.4C97.6 6 96.6 6.5 95.7 6.8C94.9 7.1 94 7.2 93.2 7.4C93.1 7.2 93 7.1 92.9 6.9C93.4 6.1 94 5.2 94.5 4.4C95 3.4 95.1 2.5 94.1 1.5C92.6 2.5 91.6 4.3 89.4 4.3C87.4 4.4 85.5 4.3 83.8 3.1C84 3.6 84 4.2 84.3 4.4C85.9 5.1 87.6 5.7 89.3 6.2C89.5 6.3 90 5.5 90.5 5C90.8 5.3 91.6 5.9 91.5 6.3C91.5 6.8 90.6 7.2 90.2 7.5C91.1 8.1 92.2 8.7 93.3 9.4C93.5 8.9 93.6 8.5 93.8 8.1C93.9 8.4 94 8.5 94 8.7C95.3 8.4 96.5 8 97.8 7.7C98.4 7.6 98.9 7.7 99.5 7.7C99.3 8.2 99.1 9 98.7 9.3C97.5 9.9 96.2 10.3 95 10.7Z" fill="currentColor"/>
<path d="M284.3 30.1C284.6 29.8 284.6 29 284.5 28.4C284.5 28.2 283.7 27.9 283.4 28C281.8 28.6 280.3 28.4 278.8 27.5C278.7 27.4 278.5 27.6 278.3 27.7C279.1 29.2 281.6 28.5 281.8 30.4C279.5 31.7 278.1 30.4 276.8 28.7C276.7 28.8 276.6 29 276.5 29.1C277.6 31.1 278.7 33.1 279.8 35.2C281 34.3 281.1 33.9 280.6 31.8C280.9 31.7 281.1 31.6 281.3 31.6C282.8 31.9 283.5 30.9 284.3 30.1Z" fill="currentColor"/>
<path d="M285.5 7.6C287.4 8.8 289.5 9.3 291.8 9C292.1 9 292.5 8.4 292.6 8.4C294.3 9.6 295.4 8.2 296.8 7.8C295.7 7.1 294.8 6.5 293.8 5.9C293.9 5.8 294 5.6 294.1 5.5C294.8 5.3 295.5 5.1 296.2 5C294.5 4.2 293 3.7 292.4 1.3C291.6 2.5 290.6 3.2 290.6 4C290.5 5 291.2 6.1 291.6 7.2C291.6 7.2 291.6 7.3 291.5 7.3C290.2 7.9 289.1 7.5 288 6.6C285.8 5 283.1 4.9 281.7 6.3C283.1 7.8 282.7 11.5 286.4 10.1C286 10.2 285.6 10.3 285.6 10.3C285.1 9.7 284.8 9.4 284.4 9C284.6 8.5 284.9 7.9 285.1 7.3C285.1 7.5 285.4 7.5 285.5 7.6Z" fill="currentColor"/>
<path d="M272.3 39C273 39.4 273.7 39.6 274.1 40.1C274.6 40.6 274.9 41.3 275.3 41.9C275.5 41.9 275.6 41.9 275.8 41.8C276 41.1 276.1 40.3 276.3 39.6C275.5 39.2 274.7 38.7 273.8 38.2C273.5 38.4 272.9 38.7 272.3 39Z" fill="currentColor"/>
<path d="M311 0.6H307.7C307.5 1.2 307.2 1.8 306.9 2.3C305.3 4.9 302.9 6.7 299.9 7.8C298.3 8.4 297.1 9.5 297.1 11.5C297.1 11.8 296.5 12.3 296 12.4C294.5 13 293 13.4 291.6 14.1C288.9 15.4 288.4 16.9 289.5 19.6C286 22.9 285.6 24.3 287.3 26.3C288.5 25 289.7 23.8 290.9 22.5C289.8 22.5 290 21.8 290.6 21C291.1 20.3 291.7 19.3 292.4 19.1C294.1 18.6 294.1 17.5 294 16.4C295.2 15.9 296.3 15.4 297.3 14.9C298.4 14.4 299.5 13.9 300.6 13.3C301.6 12.8 302.5 12.1 303.4 11.6C302.1 11.4 301 11.3 299.9 11.2C299.8 11 299.8 10.8 299.7 10.6C302.1 8.6 305.3 7.6 307.3 5.2C307.6 4.8 308.4 4.8 309 4.7C308.9 4.7 308.7 4.6 308.6 4.6C308.8 4 308.9 3.3 309.4 2.8C310.3 2.2 310.7 1.4 311 0.6Z" fill="currentColor"/>
<path d="M339.3 21.9C340.4 23.3 341.2 24.4 342.1 25.5C343.5 23.5 343 20.8 341.1 19.7C340.5 19.4 339.9 18.7 339.8 18.1C339.5 15.1 337.6 13.1 334.6 12.7C333.7 12.6 332.8 12.5 331.9 12.4C332.3 9.7 331.9 9 329.4 8.1C329.2 8 329 8 328.8 7.9C325.3 6.3 322.6 4 321.2 0.5H319.9C320.8 2.9 322.6 4.8 324.2 6.9C325 8 326.2 8.7 327.1 9.8C328.5 11.5 330.4 12.5 331.5 14.5C332.1 15.7 334.3 16.2 335.9 17C335.7 17.3 335.4 17.6 335.1 18C337.5 18.9 339.2 20.7 339.3 21.9Z" fill="currentColor"/>
<path d="M360 26.1V24.2C359.6 24.9 359.3 25.4 359 26.1C359.4 26.1 359.7 26.1 360 26.1Z" fill="currentColor"/>
<path d="M360 35V31.1C359.7 31 359.4 30.8 359.1 30.6C358.2 29.9 357.4 29 356.3 28C357.7 30.5 358.8 32.8 360 35Z" fill="currentColor"/>
<path d="M351 35.3C352.2 32.8 353.5 30.3 354.7 27.7C354.6 27.6 354.5 27.6 354.4 27.5C353.7 28.3 353 29.2 352.6 29.6C351.2 29.7 350.1 29.9 349.1 29.9C348.6 29.9 348.1 29.7 347.6 29.5C347.9 29.2 348.2 28.7 348.7 28.5C349.5 28.2 350.4 28.1 351.2 27.9C353.4 27.3 353.9 25.6 352.4 23.9C352.2 23.6 352 23.3 351.8 22.9C351.1 23.4 350.4 23.8 349.3 24.5C350.6 25 351.5 25.4 353 26C351.9 26.6 351.3 27.2 350.5 27.3C347.9 27.8 346.8 25.8 345.6 23.7C344.7 25.4 344.2 26.7 344.7 28.4C345.6 31.3 348.1 30.8 350.3 30.9C349.8 34.4 349.9 34.6 351 35.3Z" fill="currentColor"/>
<path d="M92.9 44.6C92.5 44.9 92.1 45.3 92 45.7C91.9 46 92.4 46.8 92.6 46.7C93.1 46.6 93.7 46.4 94.1 46C96.3 43.9 96.6 41.1 96.5 38.2C96.5 38.1 96.4 38 96.2 37.9C96 38.1 95.8 38.3 95.8 38.4C96.2 40.5 94.2 41.8 93.9 43.6C93.9 44.1 93.2 44.3 92.9 44.6Z" fill="currentColor"/>
<path d="M91.3 44.3C91.8 42.6 92.3 41.2 92.7 39.7C92.8 39.5 92.3 39.1 92.1 38.7C90.9 40.5 90.3 42.1 91.3 44.3Z" fill="currentColor"/>
<path d="M98.2 44.6C97.9 44.5 97.6 44.4 97.3 44.2C96.7 45.7 96 47.1 95.4 48.6H96.9C97.5 47.3 97.7 45.9 98.2 44.6Z" fill="currentColor"/>
<path d="M56.4 48.6H58C58.1 48.2 58.3 47.8 58.4 47.4C57.7 47.9 57 48.3 56.4 48.6Z" fill="currentColor"/>
<path d="M81.6 45.9C81.5 46.1 81.5 46.3 81.4 46.4C82.4 46.8 83.5 47.2 84.6 47.6C84.7 47.4 84.7 47.2 84.8 47C83.7 46.7 82.6 46.3 81.6 45.9Z" fill="currentColor"/>
<path d="M67.8 38.9C68.3 37.7 68.8 36.6 69.3 35.5C66.8 37.7 67.1 40.5 69.7 41.3C69.8 42.3 69.8 43.3 70.1 44.2C70.5 45.4 71.4 45.5 72 44.5C72.6 43.5 72.9 42.3 73.3 41.1C74.8 41 74.8 39.6 74.7 38.4C74.6 37.2 74.1 36 73.8 34.8C76.2 34.7 76.7 34.2 76.1 31.9C75.6 30.1 74.7 28.5 74 26.8C73.8 26.9 73.7 26.9 73.6 27C73.6 28.7 75.5 30.2 74.3 32.2C73.9 31.5 73.6 31 73.3 30.4C73.1 30.6 72.9 30.7 72.7 30.8C72.1 32.8 72.8 34.7 73.3 36.6C71 38.2 72 41.1 71 43.4C70.1 41.8 71.6 38.4 67.8 38.9Z" fill="currentColor"/>
<path d="M81.1 40.7C80.2 40.6 79.3 39.9 78.4 39.4C78 39.1 77.7 38.5 77.3 38C76.1 40.6 77.2 42.6 79.7 42C81.6 41.6 83.2 40.3 84.9 39.2C85.3 38.9 85.5 38.1 85.6 37.4C85.8 36.4 85.7 35.4 85.8 33.9C85.2 34.9 84.8 35.5 84.4 36C84.2 36.2 83.8 36.4 83.6 36.6C83.5 36.3 83.3 35.9 83.3 35.6C83.3 35.2 83.5 34.8 83.5 34.4C83.2 34.5 83.1 34.6 82.9 34.7C82.7 34.8 82.5 34.8 82.3 34.9C82.4 33.2 82.6 31.7 82.7 30.1C81.4 31.4 80.3 32.4 79 33.6C79.4 34.7 80.2 35.5 81.6 35.2C81.8 36.5 81.8 37.6 82.2 38.6C82.6 40 82.4 40.8 81.1 40.7Z" fill="currentColor"/>
<path d="M82.1 25.2C82.2 25 82.1 24.6 81.9 24.5C81.7 24.4 81.2 24.4 81 24.5C80.3 25.3 79.6 26.2 78.9 27.1C79.1 27.2 79.3 27.4 79.4 27.6C81 27.4 81.5 26.2 82.1 25.2Z" fill="currentColor"/>
<path d="M71.2 16.9C71.2 19.2 71.2 21.6 71.2 23.9L71.3 23.8C71.3 21.5 71.3 19.2 71.3 16.8C71.3 16.9 71.2 16.9 71.2 16.9Z" fill="currentColor"/>
<path d="M73.3 15.6C73.2 15.7 73 15.8 72.9 15.8C73.3 17.8 74.2 19.6 75.4 21.3C75.9 22 75.6 23.4 75.7 24.5C75.7 24.5 75.5 24.6 75.4 24.7C75.2 25.1 75.1 25.5 74.9 25.9C75.4 25.9 76.4 26.1 76.5 25.9C76.9 25.1 77.4 24 77.1 23.4C75.9 20.7 74.6 18.2 73.3 15.6Z" fill="currentColor"/>
<path d="M82.3 44.2C83.7 44.8 85.1 45.5 86.6 46.1C86.7 45.9 86.8 45.7 86.9 45.5C85.4 44.9 84 44.3 82.5 43.8C82.4 43.9 82.4 44 82.3 44.2Z" fill="currentColor"/>
<path d="M86.6 36.6C86.8 37.3 87 38 87.2 38.9C87.5 38.7 87.6 38.6 87.8 38.5C89.8 37.7 90.2 36.7 89.5 34.7C89.3 34.1 89.5 33.3 89.7 32.7C90.1 31.5 90.1 31.4 89.2 31C88.5 32.9 87.8 34.8 87.1 36.6C87 36.6 86.8 36.6 86.6 36.6Z" fill="currentColor"/>
<path d="M66.9 32.7C67.2 32.2 67.5 31.7 67.7 31.5C67.2 30.9 66.8 30.3 66.3 29.6C66 30.6 65.4 31.7 65.4 32.7C65.4 33.4 66.1 34.4 66.7 34.7C67.8 35.1 69.7 33.1 69.8 31.7C68.7 31.6 68.4 33.7 66.9 32.7Z" fill="currentColor"/>
<path d="M88.4 29.5C88.6 29.7 88.9 29.9 89.1 30.1C88.9 28.6 89.5 28.5 90.4 29C90.4 28.8 90.4 28.6 90.4 28.5C89.8 28.4 89.3 28.2 88.8 28.1C88.6 28.5 88.5 29 88.4 29.5Z" fill="currentColor"/>
<path d="M68.8 25.5C68.8 25.3 68.8 25.1 68.7 24.8C67.2 25.3 66.3 25.1 66.4 23.3C66.4 22.9 66 22.5 65.7 21.7C65.1 23.4 64.4 24.9 65.7 25.9C66.3 26.4 67.7 25.7 68.8 25.5Z" fill="currentColor"/>
<path d="M87.4 47.1C87.5 47.6 87.6 48.1 87.7 48.7H89.2C88.8 48.1 88.3 47.6 87.9 47C87.8 47 87.6 47 87.4 47.1Z" fill="currentColor"/>
<path d="M78.1 48.6H78.3L78.2 48.5C78.2 48.6 78.2 48.6 78.1 48.6Z" fill="currentColor"/>
<path d="M106.8 48.6H107.6C107.5 48.2 107.3 47.8 107.2 47.4C107.1 47.9 107 48.3 106.8 48.6Z" fill="currentColor"/>
<path d="M23 48.6H23.5C23.5 48.1 23.4 47.6 23.2 47.3C23.2 47.8 23.1 48.2 23 48.6Z" fill="currentColor"/>
<path d="M6.40002 35.9C6.90002 37.2 7.40002 38.4 7.90002 39.7C8.20002 39.7 8.40002 39.7 8.70002 39.7C9.10002 37.3 9.60002 34.8 9.80002 32.3C9.90002 30.7 9.60002 29 9.30002 27.4C9.20002 27 8.50002 26.6 8.10003 26.2C8.00002 26.3 7.80002 26.4 7.70002 26.4C8.60002 29.8 9.60002 33.2 6.40002 35.9Z" fill="currentColor"/>
<path d="M16.2 47.4C17.3 46.4 17.8 45 17.6 43C16.5 44.9 15.4 46.4 14.7 48.1C14.6 48.3 14.6 48.4 14.5 48.6H16.2C16.2 48.2 16.2 47.8 16.2 47.4Z" fill="currentColor"/>
<path d="M0.200024 41.3C2.00002 40.5 3.50002 39.3 5.40002 38.2C4.80002 37.8 4.60002 37.7 4.40002 37.6C5.70002 36 5.60002 35.8 3.30002 35.3C3.50002 35 3.60002 34.7 3.80002 34.4C2.10002 34.6 1.40002 36 2.10002 37.8C2.40002 38.5 3.10002 39.3 2.00002 39.7C1.40002 39.9 0.700024 39.9 2.44156e-05 39.7V41.3C0.100024 41.3 0.100024 41.3 0.200024 41.3Z" fill="currentColor"/>
<path d="M12.9 45.7C14.2 45.2 16.2 41.8 16.1 40.2C14.5 40.3 13.9 41.1 13.8 42.5C13.8 43 13.4 43.5 13.2 44C12.9 43.6 12.6 43.1 12.2 42.7C11.8 42.2 11.3 41.8 10.9 41.4C10.7 41.6 10.6 41.7 10.4 41.8C10.8 42.9 11.2 44 11.7 45.1C11.9 45.6 12.6 45.8 12.9 45.7Z" fill="currentColor"/>
<path d="M2.44156e-05 32.3V34C0.400024 34.2 0.800024 34.4 1.10002 34.3C1.80002 34.1 2.30002 33.6 3.20002 33.1C2.40002 33 1.80002 33 1.60002 33C1.90002 32.2 2.30002 31.4 2.70002 30.6C1.80002 31.1 0.800024 31.7 2.44156e-05 32.3Z" fill="currentColor"/>
<path d="M3.00002 29.7C2.90002 30 2.80002 30.2 2.60002 30.5C2.80002 30.4 2.90002 30.3 3.10002 30.2C3.10002 30.1 3.10002 29.9 3.00002 29.7Z" fill="currentColor"/>
<path d="M0.300024 24.4C0.200024 24.2 0.100024 24 2.44156e-05 23.8V26.6C1.30002 26.2 2.00002 25 1.60002 23.7C1.20002 23.9 0.800024 24.2 0.300024 24.4Z" fill="currentColor"/>
<path d="M45.6 47.5C44.6 46.2 43.9 44.9 43.9 43.2C43.9 42.9 43.8 42.5 43.7 41.9C42.5 45.4 42.8 47.3 44.6 48.7H46.3C46.2 48.2 45.9 47.8 45.6 47.5Z" fill="currentColor"/>
<path d="M53 39.7C53.1 39.6 53.2 39.6 53.4 39.5C53.2 39.9 53.1 40.3 52.9 40.6C53 40.7 53.1 40.7 53.2 40.8C53.9 40.1 54.5 39.3 55.4 38.4C56 40.5 56.9 41.9 58.9 42C60.6 42.1 62.3 42.1 63.9 41.8C64.6 41.7 65.2 40.8 65.6 40.2C65.8 40 65.3 39.3 65.1 38.8C64.7 39.2 64.3 39.6 63.8 39.9C63 40.3 62.2 40.7 61.4 40.7C61 40.7 60.3 39.8 60.2 39.3C59.8 38 59.7 36.7 59.5 35.3C59.5 35 60 34.7 60.2 34.3C59.7 33.4 59.3 32.4 58.8 31.5C58.6 31.6 58.5 31.6 58.3 31.7C58.6 34.5 58.9 37.4 59.1 40.2C59 40.3 58.9 40.4 58.8 40.4C57.3 38.5 55.8 36.7 54.3 34.8C54.5 36.9 52.7 35.4 52.2 36.2C52.6 36.5 53 36.8 53.6 37.2C52.9 37.3 52.5 37.4 51.7 37.5C52.2 38.4 52.6 39.1 53 39.7Z" fill="currentColor"/>
<path d="M60 25.2C60.8 26.4 61.1 28.1 63.3 27.9C61.6 21.8 65.3 17.6 68 12.9C67.6 13 67.4 13.1 67.2 13.3C65.8 15.1 64.4 16.8 63.1 18.6C62.5 19.4 62 20.3 61.9 21.2C61.8 22.7 61.3 23.8 60.1 24.6C61.6 23.9 61.8 24 61.6 26.3C61 26 60.5 25.6 60 25.2Z" fill="currentColor"/>
<path d="M40.7 47C40.7 47.5 40.7 48.1 40.8 48.7H41.7C41.4 48.1 41.1 47.5 40.7 47Z" fill="currentColor"/>
<path d="M57.7 23.9C57.3 25.1 57 26.4 56.6 27.6C56.7 27.6 56.8 27.7 57 27.7C57.4 26.5 57.8 25.3 58.2 24.1C58 24 57.9 23.9 57.7 23.9Z" fill="currentColor"/>
<path d="M8.20002 48.6H9.80002C8.80002 47.6 7.80002 46.7 6.70002 45.7C7.20002 46.7 7.70002 47.7 8.20002 48.6Z" fill="currentColor"/>
<path d="M38.6 41.1C38.5 42.8 38.3 44.4 38.2 46.1C38.3 46.1 38.5 46.1 38.6 46.1C38.8 44.5 39.1 42.8 39.3 41.2C39.1 41.2 38.8 41.1 38.6 41.1Z" fill="currentColor"/>
<path d="M6.10002 48.6H7.50002C6.80002 48.1 6.00002 47.6 5.30002 47.1C5.50002 47.7 5.70002 48.2 6.10002 48.6Z" fill="currentColor"/>
<path d="M2.30002 43.4C3.30002 43.8 4.30002 44.3 5.20002 44.7C5.30002 44.5 5.40002 44.3 5.40002 44.1C4.40002 43.7 3.40002 43.4 2.30002 43C2.40002 43.2 2.40002 43.3 2.30002 43.4Z" fill="currentColor"/>
<path d="M57.6 45.7C57.5 45.6 57.4 45.4 57.3 45.3C55.6 45.9 54.7 47.3 53.7 48.6H54.6C55.6 47.7 56.6 46.7 57.6 45.7Z" fill="currentColor"/>
<path d="M126 47.5C124.7 45.6 124.5 43.3 125 41.3C125.3 39.9 125 39 124.7 38C124.3 40.1 123.7 42.3 123.5 44.5C123.4 45.9 123.7 47.3 123.9 48.6H124.8C125.2 48.2 125.6 47.8 126 47.5Z" fill="currentColor"/>
<path d="M21 8.2C22.2 7.4 22.5 6.2 22 5.2C21.7 4.6 20.5 4 19.7 4C18.8 4 18 4.8 17.1 5.2C15.7 5.8 14.2 6.4 12.7 6.7C11.8 6.9 10.7 6.5 9.70002 6.3C10.8 7.1 11.8 8 12.9 8.8C13.6 7.6 17 6.8 19 7.3C18.7 10.1 16.1 9.5 14.3 10.4C16.2 10.4 17.9 10.4 19.6 10.4C19.5 10.2 19.4 10.1 19.3 9.9C19.9 9.3 20.4 8.6 21 8.2Z" fill="currentColor"/>
<path d="M8.10003 13.1C8.60003 13.2 9.10002 13.4 9.40002 13.8C10.6 15 11.7 16.4 13 17.5C14.4 18.7 15.9 19.7 16.6 21.6C16.9 22.4 17.4 23.1 17.9 24.2C18.3 23.4 18.5 23.1 18.5 22.8C18.5 21 17.7 19.5 16.4 18.2C15.9 17.7 15.4 17 15.4 16.4C15.2 13.6 14.1 12.2 11.4 11.6C10.2 11.3 9.00002 11.2 7.90002 11C8.40002 8.4 8.10002 8 5.80002 7C4.50002 6.3 3.30002 5.6 2.00002 4.9C1.30002 4.5 0.700024 4 2.44156e-05 3.6V4.6C0.500024 5.3 1.10002 6 1.70002 6.5C3.20002 7.8 3.80002 10 6.00002 10.6C6.20002 10.7 6.60002 11.2 6.60002 11.4C6.10002 12.9 7.20003 12.9 8.10003 13.1Z" fill="currentColor"/>
<path d="M282.5 48.1C282.3 48.1 282.1 48.2 281.8 48.2C281.8 48.4 281.9 48.5 281.9 48.7H282.5C282.5 48.5 282.5 48.3 282.5 48.1Z" fill="currentColor"/>
<path d="M2.20002 20.7C2.40002 21 2.80002 21.2 3.20002 21.4C4.00002 21.8 5.00002 22 5.50002 22.6C6.60002 23.9 8.00002 24.6 9.40002 25.6C12.5 27.6 15.4 30.1 18.1 32.6C20.2 34.6 21.3 37.5 23.6 39.5C23.8 39.7 23.7 40.1 23.8 40.6C22.4 40.5 21.1 40.5 19.9 40.4C19.9 40.6 19.8 40.7 19.8 40.9C20.5 41.1 21.2 41.3 21.8 41.3C24.3 41.2 25.5 42 25.8 44.6C25.9 45.9 26 47.3 25.9 48.7H27.4C27.2 47.5 26.9 46.3 26.7 44.8C27.7 45.5 28.4 46.9 29 48.7H33.4C33.8 47.5 34.3 46.4 34.9 45.3C35.4 44.3 35.7 44.3 36.5 44.8C38 43.5 37.3 41.9 37.1 40.8C37.7 40.2 38.1 39.8 38.4 39.4C39.2 38.4 39.9 37.2 40.8 36.3C41.2 35.9 42 35.9 42.6 35.7C44.1 34.4 45.4 32.6 46.9 31.1C48.4 29.6 50.2 28.3 51.8 26.9C51.9 27 52 27.2 52.1 27.3C51.4 28.5 50.7 29.6 50.1 30.8C48.8 33.6 47.3 36.6 48.2 39.8C48.6 41.4 48.2 42.7 48.4 44.2C48.4 44.5 48.1 44.9 48 45.2C47.3 44.8 46.7 44.5 46.2 44.2C47.1 46.6 48.8 47.6 51.1 48.2C51.6 46.7 51.8 45.6 51 44.3C48 39.3 48.4 34.3 51.8 29.5C53.6 27 55.5 24.5 57.4 22.1C57.8 21.5 58.4 20.8 59 20.7C60.9 20.4 61.7 18.8 62.8 17.5C64.4 15.6 65.9 13.5 67.7 11.8C69.2 10.5 70.5 9.3 71.2 7.5C71.2 7.4 71.4 7.5 71.7 7.4C72.6 9.2 73.4 10.9 74.3 12.8C74.8 12.4 75.1 12.2 75.4 11.9C77.1 14.3 78.8 16.6 80.4 19C81.5 20.5 82.3 22.2 84.4 22.8C85.8 23.2 87.1 23.9 88.4 24.4C88.2 24.5 87.8 24.9 87.5 25.2C88.7 26 90 26.6 91 27.6C92.4 28.9 93.6 28 95.1 27.9C94.9 27.4 94.8 27.2 94.7 27.1C93.3 26.1 91.9 25.1 90.5 24.2C88.4 22.8 86.1 21.7 84.2 20.1C80.6 16.9 77.7 13.2 75.2 9C73.8 6 73 3.3 72.8 0.6H69.6C69.3 4.4 68.1 8 66 11.1C62.3 16.6 57.3 21 51.9 24.8C46.9 28.4 41.9 31.7 37.8 36.4C36.1 38.4 34.6 40.5 33.8 43.1C33.3 44.8 32.5 46.5 31.8 48.1C31.6 48.1 31.4 48.1 31.2 48C30.5 46.1 29.9 44.2 29.2 42.2C30.1 42.1 30.6 42 31.1 41.9C30.6 41.5 30 41.5 29.5 41.3C28.9 41.1 28.2 40.9 27.8 40.4C26.4 38.6 25.1 36.7 23.7 34.9C23.1 34.1 22.2 33.5 21.4 32.7C19.1 30.4 17.1 27.8 14.5 25.7C12 23.7 9.00002 22.2 6.30002 20.3C4.10002 18.8 1.80002 17.3 0.200024 15.1C0.100024 15 2.44156e-05 14.8 -0.0999756 14.7V17.4C0.700024 18.6 1.50002 19.7 2.20002 20.7Z" fill="currentColor"/>
<path d="M307.2 35.5C305.9 33.9 304.8 32.4 303.6 30.9C303.8 31.9 304.1 32.9 304.5 33.7C305 34.7 304.8 35.2 303.7 35.4C305 36.1 306.1 36.8 307.2 35.5Z" fill="currentColor"/>
<path d="M126 47.4C126 47.5 126 47.5 126 47.4V47.4Z" fill="currentColor"/>
<path d="M11.5 5.2C12.2 5.3 13.5 5 13.7 4.6C14.2 3.7 14.8 2.5 13.7 1.3C13.1 1.8 12.6 2.2 12 2.6C11.4 3 10.9 3.3 10.3 3.5C8.50002 4.2 8.30002 4.9 9.60003 6.3C9.90003 5.3 10.4 4.9 11.5 5.2Z" fill="currentColor"/>
<path d="M242.1 0.6H239.2C239.6 1.5 240.1 2.3 240.9 3.1C241.3 3.5 241.7 3.9 241.9 4.4C242.2 5.5 242.8 5.5 243.6 5.1C243.3 4.6 242.9 4.1 242.6 3.7C241.5 2.7 240.9 1.6 242.1 0.6Z" fill="currentColor"/>
<path d="M288.4 41.3C288.6 40.6 288.5 39.8 288.6 39.1C288.4 39.1 288.1 39 287.9 39C287.7 39.7 287.5 40.4 287.4 41.2C287.3 41.8 287.6 42.6 287.3 43.1C286.2 45.1 287.1 46.9 287.7 48.6H289.6C287.8 46.4 287.4 44 288.4 41.3Z" fill="currentColor"/>
<path d="M29.6 23.4C28.3 22.5 27.1 21.4 25.5 23.3C26.5 23.8 27.4 24.2 28.5 24.7C28.2 25.1 27.8 25.5 27.5 25.9C29.3 26 29 24.3 29.6 23.4Z" fill="currentColor"/>
<path d="M110 44.5C109.1 41.9 107.9 39.6 105.8 37.8C104.8 36.9 103.7 36 103.1 34.9C101.5 31.9 98.5 30.4 96.3 28C96.2 27.9 96 28 95.8 28.1C95.9 28.5 96 28.8 96.1 29.1C95.4 29.1 94.8 29 94.2 29C94.1 29.2 94 29.4 94 29.5C97.1 31.6 99.3 34.4 101.7 37.2C104.1 40.1 106 43.3 107 47C107.1 46.9 107.2 46.9 107.4 46.8C107.4 46.5 107.4 46.1 107.4 45.8C107.5 45.7 107.6 45.7 107.7 45.6C108.3 46.6 109 47.5 109.3 48.6C109.3 48.6 109.3 48.6 109.3 48.7H111.8C111.8 48.5 111.7 48.3 111.6 48.1C111.2 46.8 110.4 45.7 110 44.5Z" fill="currentColor"/>
<path d="M60.1 34.3C61.1 35.1 62.1 35.6 63.3 34.3C62.2 33.1 61.1 31.9 60.1 30.7C60.3 31.6 60.7 32.3 60.9 33.1C61 33.5 60.4 34 60.1 34.3Z" fill="currentColor"/>
<path d="M99 24.6C99 23.5 99.1 22.6 98.9 21.8C98.9 21.6 98.1 21.5 97.6 21.4C96.5 23 96.6 23.3 99 24.6Z" fill="currentColor"/>
<path d="M35.6 47.4C35.5 47.8 35.5 48.2 35.4 48.7H36.1C36.1 47.4 36.1 46.2 36.3 44.9C36.1 45.7 35.7 46.5 35.6 47.4Z" fill="currentColor"/>
<path d="M296.1 32.5C296 34.4 295.8 36.2 295.7 38.1C296.3 38.1 296.7 38.2 297.6 38.2C295.3 39.5 296.3 40.8 297 42.4C297.8 41.3 298.4 40.4 299.2 39.3C299.5 40.1 299.5 40.7 299.9 41C300.6 41.7 301.5 42.9 302.3 42.9C303.9 43 305.4 42.8 307 43.2C307.6 43.3 308.5 42.8 309 42.4C310.3 41.2 310.1 40.3 308.6 39.6C308.3 40 308.1 40.4 307.8 40.7C307.2 41.5 306.3 42.3 305.3 41.6C304.7 41.2 304.5 40.1 304.3 39.3C304 38.3 303.7 37.3 303.6 36.3C303.5 36 303.8 35.6 303.9 35.2C303.7 34.3 303.9 33.2 302.2 32.7C302.5 35.8 302.8 38.6 303.1 41.4C303 41.5 302.8 41.5 302.7 41.6C301.4 39.7 300.2 37.9 299 36.1C298.4 36.4 297.8 36.6 297.3 36.9C297.1 36.3 296.8 35.6 296.8 35C296.7 34.1 296.8 33.3 296.8 32.4C296.4 32.6 296.2 32.5 296.1 32.5Z" fill="currentColor"/>
<path d="M62 6.1C63.7 4.4 65.3 2.5 66.8 0.7H63.7C62.1 3.3 59.7 5.5 56.4 6.7C55.3 7.1 54 8.3 53.7 9.3C53.3 10.9 52.7 11.7 50.9 11.7C51 12.3 51.1 12.8 51.2 13.6C50.4 13.3 49.9 13 48.9 12.6C46.4 13.5 44.2 15.7 45.8 18.6C42.4 21.9 41.9 23.4 43.1 24.6C44.3 23.6 45.5 22.6 46.7 21.6C45.6 19.1 48.3 21.1 48.7 20.3C48.3 20.1 48 19.9 47.7 19.7C48.6 18.4 50.9 18.1 50.1 15.8C50 15.6 50.6 15.2 50.9 15C53.7 14 56.4 13 58.9 11.3C59.2 11.1 59.4 10.7 59.7 10.5C59.6 10.3 59.6 10.2 59.5 10C58.1 11.6 57.3 10.3 55.9 9.6C57.2 8.8 58.3 8.3 59.4 7.6C60.3 7.2 61.3 6.8 62 6.1Z" fill="currentColor"/>
<path d="M66.4 20.4C66.6 20.6 66.8 20.7 67.1 20.9C67.7 20 68.3 19 68.9 18.1C68.7 18 68.5 17.9 68.4 17.8C67.7 18.6 67.1 19.5 66.4 20.4Z" fill="currentColor"/>
<path d="M38.6 30.2C40.2 30.1 41.2 27.8 40.5 26.2C39.8 26.6 39.1 27.1 38.3 27.3C37.6 27.5 36.7 27.3 35.9 27.3C35.9 27.4 35.9 27.5 35.9 27.6C36.8 27.9 37.7 28.2 38.8 28.5C37.1 30.2 36.6 30.2 32.9 27.9C34 30 35 31.9 36.2 34.2C36.5 33.3 36.9 32.7 36.8 32.2C36.7 30.8 37 30.3 38.6 30.2Z" fill="currentColor"/>
<path d="M27.5 26C27.4 25.9 27.4 25.9 27.5 26C27.4 26 27.4 26 27.5 26Z" fill="currentColor"/>
<path d="M44.4 8.8C44.9 8.1 45.2 7.5 46.2 7.9C46.3 7.9 46.6 7.5 46.8 7.3C44.1 5.8 41.6 3.6 37.9 5C38.4 6.3 38.9 7.6 39.5 9.1C37.1 9.2 35.2 6.3 32.6 7.9C33.1 11.1 34.7 13.4 38.1 14.2C37.6 15.3 37.1 16.2 36.8 17.2C36.7 17.7 36.9 18.7 37.1 18.8C38.4 19.1 39.7 19.1 41 19.3C41 19.1 41.1 19 41.1 18.9C40.8 18.7 40.6 18.6 40.3 18.5C38.6 17.8 38.5 17.6 39.3 15.9C39.5 15.5 39.3 14.6 39 14.3C37.8 13 36.4 11.9 35.2 10.7C34.8 10.3 34.6 9.8 34.3 9.3C36.4 9.5 38.2 9.8 39.9 9.9C41.1 10 41.6 10.3 41.3 11.5C43.1 11.4 43.6 9.9 44.4 8.8Z" fill="currentColor"/>
<path d="M26.8 33.8C28.1 31.3 29.3 28.9 30.6 26.4C30.5 26.3 30.3 26.3 30.2 26.2C29.5 27.2 28.9 28.2 28.1 29.3C27.3 26.9 25.4 29.3 24.2 28.3C24.1 27.8 24 27.2 23.9 26.7C25.2 26.7 26.7 27.6 27.5 25.9C24.9 26.3 22.7 26 21.8 22.9C20.5 24.4 20.5 25.8 20.9 27.3C21.7 30.2 24.4 29.3 26.5 29.7C26.1 31.3 25.4 32.7 26.8 33.8Z" fill="currentColor"/>
<path d="M46.8 7.2C46.8 7.3 46.9 7.3 46.9 7.3L46.8 7.2Z" fill="currentColor"/>
<path d="M90 14.9C90.3 15.1 90.8 15.2 90.8 15.5C91.4 17.4 92.9 18.3 94.4 19.2C94.8 19.4 95.6 19.7 95.6 20.1C95.8 21.3 96.6 21.4 97.5 21.5C98.4 20.6 98.4 19.6 97.2 19.2C95.7 18.6 95.9 17.2 95.3 16.2C95 15.7 95.1 15 94.8 14.5C93.5 12.5 89.4 11.1 87.2 12C86.9 12.1 86.6 12.4 86.6 12.7C86.6 12.9 86.9 13.3 87.1 13.4C87.4 13.6 87.8 13.5 88.2 13.6C88.1 13.8 88.1 13.9 88 14C88.7 14.2 89.4 14.5 90 14.9Z" fill="currentColor"/>
<path d="M232.9 20.7C233.4 22.4 233.8 24.1 234.2 25.3C234.4 24.6 234.7 23.2 235.1 21.6C235 21.4 234.6 20.9 234.2 20.5C233.7 20.6 233.2 20.7 232.9 20.7Z" fill="currentColor"/>
<path d="M140.9 25.7C140.6 26.3 140.3 26.9 140.1 27.4C140.7 27.1 141.2 26.9 142.1 26.5C141.7 26.3 141.3 26 140.9 25.7Z" fill="currentColor"/>
<path d="M139.6 36.1C140.2 35.4 140.5 35 140.8 34.5C140.4 33.7 140.8 32.4 139.2 32.2C139.3 33.4 139.4 34.6 139.6 36.1Z" fill="currentColor"/>
<path d="M140.8 34.5C140.9 34.6 140.9 34.6 140.8 34.5C140.9 34.5 140.9 34.5 140.8 34.5Z" fill="currentColor"/>
<path d="M138.6 48.6H139.4C139.4 48.4 139.5 48.3 139.5 48.1C139.1 48.3 138.9 48.5 138.6 48.6Z" fill="currentColor"/>
<path d="M136.1 39.1C136.3 39.6 136.4 40 136.6 40.3C137.5 41.2 138.4 42.6 139.4 42.6C140.9 42.7 142.3 42.4 143.8 43C144.9 43.4 146.7 42 146.9 41C147 40 146.5 39.3 145.3 39.2C145.1 39.7 145.1 40.2 144.8 40.3C144.1 40.7 143.2 41.2 142.4 41.2C142 41.2 141.5 40.2 141.3 39.6C141 38.7 140.9 37.6 140.7 36.6C139.5 36.8 138.8 37.1 139.7 38.5C140.1 39.1 140 40.2 140.1 41C138.9 40.2 138.2 38.8 137.1 38.4C135.9 37.9 134.3 38.3 132.7 38.3C133.1 39.6 133.4 40.7 133.8 42.2C134.8 40.9 135.4 40.1 136.1 39.1Z" fill="currentColor"/>
<path d="M145.2 14.8V14.9L145.3 14.8H145.2Z" fill="currentColor"/>
<path d="M144.3 34.9C143.1 33.5 141.9 32 140.7 30.6C140.6 30.6 140.6 30.6 140.5 30.7C141 32 141.5 33.3 142.2 34.8C141.5 34.7 141.2 34.6 140.9 34.6C142.4 36 143.3 36.1 144.3 34.9Z" fill="currentColor"/>
<path d="M157.8 33.7C157.7 33.2 157.8 32.6 157.6 32.1C156.9 30.6 156.2 29.1 155.4 27.6C155.2 27.7 155 27.8 154.8 27.9C155.2 28.8 155.7 29.6 156 30.5C156.4 31.5 156.2 32.5 154.8 32.4C154.7 32 154.6 31.6 154.5 31.1C154.3 31.1 154 31.2 153.8 31.2C154 32.8 154.1 34.4 154.3 36.1C154.6 36.3 155 36.4 155.3 36.5C155.3 36.3 155.2 36.2 155.2 36C155.7 35.7 156.1 35.3 156.6 35.2C157.6 35.1 158 34.6 157.8 33.7Z" fill="currentColor"/>
<path d="M144.3 19C142.7 20.6 142.7 21 143.8 22.7C144 22.5 144.3 22.3 144.5 22C145.2 20.5 145.9 19.1 146.6 17.6C146.7 17.4 146.7 17 146.7 16.8C146.6 16.7 146.5 16.7 146.3 16.6C145.7 17.4 145.1 18.3 144.3 19Z" fill="currentColor"/>
<path d="M163.6 46.5C163.5 46.7 163.3 46.8 163.2 47C163.6 47.3 164.1 47.6 164.5 48C164.7 48.2 164.9 48.4 165.1 48.6H167.5C166.2 47.9 164.9 47.2 163.6 46.5Z" fill="currentColor"/>
<path d="M35.8 22.8C35.7 23.6 35.6 24.1 35.5 24.7C36.1 24.7 36.6 24.7 37.6 24.7C36.9 23.9 36.4 23.4 35.8 22.8Z" fill="currentColor"/>
<path d="M141.3 21.3C142.6 19.6 143.8 17.9 145 16.2C145.2 15.9 145.1 15.4 145.2 15C143.8 16.1 142.4 17.2 141.1 18.5C139.6 19.8 139.7 19.9 141.3 21.3Z" fill="currentColor"/>
<path d="M143 23.6C143 24.7 143 25.8 142.8 26.9C142.5 28.4 143.3 28.5 144.5 28.4C144.3 26.4 144.1 24.6 143.9 22.7C143 22.5 143 23 143 23.6Z" fill="currentColor"/>
<path d="M162.9 44.5C168.3 47 168.6 47.2 168.2 48.6H170.5C168 45.5 165.1 44 162.9 44.5Z" fill="currentColor"/>
<path d="M130.2 32.7C130.4 32.8 130.6 32.9 130.9 33C131.6 31.7 132.3 30.3 133 29C132.8 28.9 132.5 28.8 132.3 28.6C131.6 30 130.9 31.4 130.2 32.7Z" fill="currentColor"/>
<path d="M153.1 18.9C151.8 19 152.2 19.6 152.2 20.1C153 20.1 153.7 20.1 154.4 20.1C154.4 19.9 154.4 19.6 154.3 19.4C155.1 19.7 155.9 20.2 155.9 20.7C156.1 22.1 157 22.3 158.1 22.5C156.9 20.4 155.6 18.3 154.2 15.9C154 17.3 154.8 18.9 153.1 18.9Z" fill="currentColor"/>
<path d="M150.2 36.6C150.1 36.5 150.1 36.2 150.1 36C149.9 36 149.8 36 149.6 35.9C149.3 37.5 148.9 39.1 148.7 40.7C148.7 40.9 149.3 41.4 149.7 41.5C150 41.6 150.4 41.5 150.9 41.5C150.9 43.1 150.6 44.6 152 45.6C154.1 44.9 154.4 43.3 154 41.6C156.5 40.7 156.8 38.6 155 37C154.7 36.7 154.5 36.3 154.2 36C153.6 38.7 152.9 41.4 152.2 44.4C152 43.9 151.9 43.8 151.9 43.7C151.4 41.4 152.7 38.6 150.2 36.6Z" fill="currentColor"/>
<path d="M157.7 26.3C158.2 25.7 158.4 24.8 158.5 24C158.6 23.6 158.3 23.1 158.1 22.6C157.4 23.6 156.7 24.7 155.9 25.9C156.3 26 157.4 26.6 157.7 26.3Z" fill="currentColor"/>
<path d="M146.5 33.6C146.7 34.2 147.4 35.1 148 35.2C149.2 35.4 150.8 33.5 151.1 32.2C150.2 32.7 149.4 33.2 148.5 33.7C148.4 33.6 148.3 33.4 148.2 33.3C148.9 32 149.6 30.6 150.3 29.3C150.2 29.3 150.1 29.2 150.1 29.2C149.5 29.9 148.9 30.6 147.9 31.8C148 30.8 148 30.1 148.1 29.5C146.9 30.6 146.1 32 146.5 33.6Z" fill="currentColor"/>
<path d="M149.3 26C147.5 25.6 147.5 23.9 146.5 22.7C146.3 23.9 146.1 25.2 146.4 26.3C146.5 26.7 147.9 26.6 148.9 26.8C148.7 27.5 148.4 28.4 148.2 29.3C148.7 28.6 149.2 27.9 149.6 27.1C149.7 26.8 149.5 26 149.3 26Z" fill="currentColor"/>
<path d="M174.1 36.7C173.4 40.2 170.6 43.6 173.9 47.4C175.6 46.6 177 45.2 177.8 43.4C178.3 42.1 178.8 40.7 177.6 39.3C176.5 41.5 175.6 43.5 174.7 45.5C174.5 45.4 174.2 45.4 174 45.3C173.2 42.5 174.3 39.6 174.1 36.7Z" fill="currentColor"/>
<path d="M160.5 28.1C162.6 27.8 163.8 26.2 163.1 24.7C162.6 24.9 162 25.2 161.4 25.5C161.2 24 161 22.8 160.8 21.1C160.8 22.6 160.8 23.7 160.8 24.8C160.7 25.9 160.5 27 160.5 28.1Z" fill="currentColor"/>
<path d="M176.6 32.7C176.5 33.5 176.4 34.1 176.3 34.9C177 35 177.5 35.1 178.4 35.2C177.8 34.2 177.2 33.5 176.6 32.7Z" fill="currentColor"/>
<path d="M167 38.5C167.3 37 167.4 35.5 167.4 34C167.4 32.2 167.3 30.3 167.2 28.5C167 28.5 166.8 28.5 166.6 28.5C166.7 29.4 166.8 30.3 166.8 31.2C166.8 32.4 167 33.9 166.5 34.9C165.5 36.4 165.6 37.9 165.7 39.5C166.1 39.2 166.9 38.9 167 38.5Z" fill="currentColor"/>
<path d="M165.6 39.6C165.6 39.5 165.6 39.5 165.6 39.6V39.6Z" fill="currentColor"/>
<path d="M158.2 41.4C158.6 42 159.3 42.6 160 42.8C162.2 43.2 163.7 41.5 165.6 40.8C165.7 40.7 165.6 40.1 165.6 39.7C165 39.7 164.4 39.7 163.9 39.7C164 39.8 164.1 39.9 164.1 40C163.7 40.4 163.3 41.1 162.8 41.2C160.7 41.8 159.8 40 158.7 38.6C157.9 39.5 157.6 40.3 158.2 41.4Z" fill="currentColor"/>
<path d="M162.2 35.8C163.2 36.1 163.4 36.5 163.1 37.5C163 37.8 163.1 38.1 163.1 38.6C165.4 38.3 165.2 36.6 164.8 34.9C164.4 33.6 164.2 32.2 163.9 30.9C162.8 31.9 161.5 33.2 160 34.6C160.8 35 161.4 35.6 162.2 35.8Z" fill="currentColor"/>
<path d="M180.1 42.4C179.9 42.4 179.7 42.3 179.6 42.3C179.3 43.3 179.1 44.3 178.7 45.2C178.2 46.2 177.5 47.1 177 48C176.9 48.2 176.8 48.4 176.7 48.6H178.8C179.2 46.6 179.7 44.5 180.1 42.4Z" fill="currentColor"/>
<path d="M258.9 39.4C258 39.8 259.4 41.8 257.5 41.3C257.4 42.7 257.3 44.1 257.2 45.6C256.6 45.5 256.2 45.4 255.4 45.3C255.5 42.8 255.6 40.3 255.8 37.8C253.8 41.2 252.7 44.4 255.6 47.9C258.4 46.6 259.1 43.4 260.6 41.6C260 39.5 259.4 37.6 258.8 35.8C259 35.7 259.2 35.6 259.4 35.5C259.8 36.3 260.3 37.1 260.7 37.9C260.9 37.8 261 37.7 261.2 37.5C260.2 36.3 259.2 35 258.3 33.7C258.5 35.3 258.7 36.8 258.9 38.4C259 38.8 259 39.3 258.9 39.4Z" fill="currentColor"/>
<path d="M145.4 14.8V14.7C145.4 14.7 145.3 14.8 145.2 14.8H145.4Z" fill="currentColor"/>
<path d="M227.8 25.2C227.7 25.8 228.1 26.9 228.5 27C229.5 27.3 230.5 27.1 231.7 27.1C231.7 26.6 231.7 26.2 231.7 25.7C231 25.8 230.4 25.8 229.5 25.9C229.6 24.6 229.6 23.4 229.7 22.2C227.9 22.4 228.1 24 227.8 25.2Z" fill="currentColor"/>
<path d="M182.4 41.7C182.2 42.3 182 43 181.9 43.6C181.8 44.7 182.7 44.8 183.4 45.1C183.2 44 183 42.9 182.9 41.8C182.7 41.8 182.5 41.8 182.4 41.7Z" fill="currentColor"/>
<path d="M258.3 33.6C258.4 33.6 258.4 33.6 258.3 33.6V33.6Z" fill="currentColor"/>
<path d="M34.9 37.5C34.5 37.2 34 36.9 33.6 36.6C33.3 37.1 32.9 37.7 32.6 38.2C33.3 38.1 34.1 38 34.8 37.9C34.8 37.8 34.9 37.7 34.9 37.5Z" fill="currentColor"/>
<path d="M113.1 48.4C113.5 48 114 47.6 114.3 47.2C114.5 46.9 114.5 46.5 114.6 46.2C114.2 46.3 113.7 46.4 113.6 46.6C113.2 47.1 113.1 47.7 112.8 48.3C112.9 48.3 113 48.3 113.1 48.4Z" fill="currentColor"/>
<path d="M258.3 33.6V33.7C258.4 33.7 258.3 33.7 258.3 33.6Z" fill="currentColor"/>
<path d="M358.2 10.4C358.9 10.5 359.5 10.6 360 10.7V9.5C359.3 9.3 358.6 9.1 357.9 8.9C356.8 8.7 356.4 9.3 356.7 10.5C357.3 12.5 358.3 14.1 360 14.9V12.7C359.6 12.3 359.2 12 358.9 11.6C358.6 11.3 358.4 10.9 358.2 10.4Z" fill="currentColor"/>
<path d="M357.2 46.3C356.9 46.9 356.8 47.6 356.4 48.1C356.3 48.3 356.1 48.4 355.9 48.6H357.8C358.1 47.8 358.5 47 358.9 46.2C359.1 45.9 359.5 45.7 359.9 45.4V41.1C359 42.9 358.1 44.6 357.2 46.3Z" fill="currentColor"/>
<path d="M22.1 10.6C23 10.3 24 10.4 24.8 9.1C25.8 7.4 27.3 9.1 28.9 9.4C26.4 11.5 24.2 13.4 21.9 15.3C22.5 15.7 23.2 16.2 23.9 16.7C23.2 17.3 22.4 18 21.7 18.7C21.8 18.9 21.9 19.1 22 19.3C23 19.1 24 19 24.9 18.7C26 18.4 26 17.7 25.3 17C24.7 16.4 24.1 15.9 23.1 15C26.7 14.8 28.5 12.9 29.3 10C29.6 9.3 30 8 29.6 7.5C29.2 7 27.8 6.8 27 7.1C24.8 7.8 22.7 8.7 20.5 9.6C20.5 9.8 20.5 10.1 20.5 10.3C21.1 10.4 21.7 10.7 22.1 10.6Z" fill="currentColor"/>
<path d="M274.7 48C273.3 44.1 271.2 40.6 268.3 37.5C266.4 35.5 264.6 33.5 262.6 31.7C260.7 29.9 258.8 28.2 256.8 26.6C255.6 25.7 254.1 25.3 252.9 24.4C251.2 23.2 249.8 21.7 248 20.7C246.8 20 246.6 19.4 246.9 18.2C246.9 18 246.9 17.8 246.9 17.6C246.8 17.5 246.7 17.5 246.6 17.4C246.4 17.8 246.3 18.2 246.1 18.6C246 18.5 245.8 18.4 245.7 18.3C245.7 17.6 245.8 16.8 245.8 16C247.8 17.3 249.6 18.5 251.5 19.6C251.7 19.1 251.8 18.7 251.8 18.4C252.9 20.1 253.9 21.7 254.9 23.3C255 23.3 255.1 23.2 255.2 23.2C255.1 22.7 255 22.2 254.9 22C255.8 21.7 256.5 21.4 257.3 21.1C257 20.6 256.8 20.1 256.3 19.1C256.9 19.5 257.6 19.7 257.6 19.9C257.4 21.4 258.8 21.8 259.5 22.7C260.2 23.6 260.7 24.8 261.3 25.8C262.8 24.6 263 24 262.2 21.8C262.6 21.7 263 21.6 263.7 21.3C262.9 20.8 262.4 20.5 261.8 20.2C260.5 19.5 258.7 19.2 259.2 17C259.3 16.6 258.9 16 258.6 15.5C257.4 13.3 255.5 12.3 253 12.4C252.4 12.4 251.8 12.1 251.3 11.9C251 11.7 250.8 11.4 250.5 11.1C250.3 11.5 250 11.8 249.9 12.2C249.7 12.6 249.6 13 249.6 13C249.9 14 250.2 14.6 250.4 15.2C249.7 15.1 249.1 15.1 248.4 14.9C246.9 14.6 245.4 14.3 243.9 13.7C242.5 13.2 240.9 12.7 239.9 11.7C238.8 10.7 238.2 9.1 237.4 7.7C237.1 7.2 237.1 6.7 237.1 6.6C238.2 6.3 239.2 6.3 239.9 5.9C240.5 5.5 239.6 2.9 238.8 2.6C238.6 2.5 238.1 2.4 238 2.5C235.6 4.8 236 2.6 235.8 1.2C235.8 1.1 235.7 1 235.7 0.9C235.7 0.8 235.6 0.7 235.6 0.6H232.5C232.5 1.3 232.6 2.1 232.4 2.8C231.9 4.9 231.1 6.8 230.5 8.9C229.9 10.8 227.1 11.4 227.4 13.8C227.4 13.9 227.2 14 227.1 14.2C222.8 19.6 217.5 23.9 211.8 27.7C207.3 30.7 203.3 34.2 199.7 38.2C198.8 39.2 198.1 40.5 197.2 41.7C196.7 41.1 196.4 40.5 196 40C195.9 40 195.7 40 195.6 40C196.3 41.9 195.9 43.4 194.3 44.3C194.4 45.1 194.5 45.8 194.6 46.4C194.1 46.5 193.7 46.6 193.7 46.6C193.4 46 193.2 45.5 192.9 45.1C192.2 44.3 191.3 43.6 190.8 42.7C189.6 40.5 188.5 38.2 185.4 38C185.8 37.8 186.2 37.5 186.8 37.2C186.3 36.6 185.8 36.1 185.3 35.5C184.9 35.8 184.7 36 184.4 36.3C184.2 35.3 184.2 34.2 183.7 33.7C181.7 31.7 179.6 29.7 177.3 28C173.9 25.5 170.3 23.2 166.9 20.8C167.1 22 167 23.6 167.7 24.3C169.1 25.6 169.3 27.3 169.8 28.9C170.1 29.7 169.9 30.8 170.3 31.4C171 32.4 170.5 33 170.2 33.8C170 34.3 169.9 34.9 169.7 35.5C169.9 35.6 170 35.7 170.2 35.8C169.7 36 169.2 36.3 168.6 36.5C168.9 38.2 168.4 40.3 170.3 41.7C170.9 39.6 171.7 37.6 171.9 35.6C172 33.6 171.4 31.6 171.2 29.4C171.3 29.4 171.6 29.3 172 29.2C171.3 28.3 170.7 27.5 170.1 26.7C170.2 26.6 170.4 26.5 170.5 26.3C170.9 26.6 171.4 26.9 171.8 27.2C174 28.9 176.3 30.6 178.5 32.4C179.6 33.3 180.5 34.4 181.4 35.4C182 36.1 182.5 36.8 183.6 36.7C183.9 36.7 184.7 37.2 184.7 37.5C184.5 39.3 185.7 40.6 186.3 42.1C186.9 43.4 186.5 44.1 185.2 44.4C185.2 43.8 185.2 43.1 185.2 42.5C185 42.5 184.8 42.5 184.7 42.4C184.6 43 184.5 43.6 184.3 44.1C184.1 44.5 183.9 44.9 183.7 45.3C183.7 45.3 183.7 45.3 183.7 45.4C183.7 45.4 183.7 45.4 183.7 45.5C183.4 46 183.1 46.5 182.7 47C182.6 46.9 182.5 46.7 182.3 46.4C182.5 47.2 180.7 48.1 181.9 48.9H186.9C186.6 47.4 184.6 45.8 187.3 44.3C188.6 45.9 187.6 47.4 187.1 48.9H201.4C201.4 48.1 201.4 47.3 201.3 46.6C201.1 45.3 199.9 45.3 198.1 46.5C198.2 46 198.2 45.5 198.2 45.5C199.7 45.2 199.7 43.8 200.1 42.7C201 40.3 202.5 38.4 204.2 36.7C204.3 36.8 204.4 36.8 204.6 36.9C204.1 37.7 203.6 38.5 203.1 39.4C202.6 40.3 202.1 41.2 201.8 42.2C201.5 43.1 201.3 44.1 201.3 45.2C202.6 43.6 201.8 40.8 204.8 39.8C204.7 40.9 204.7 41.7 204.7 42.6C204.7 42.7 204.7 42.7 204.7 42.8C205.6 44.6 205 46.4 205 48.3C205 48.5 205.1 48.7 205.2 48.9H208.7C207.7 47.8 206.9 46.6 207 44.9C207 44.4 207.3 43.8 207.6 43.3C208.3 46.2 209.9 47.9 212.4 48.9H214C213.9 46.4 213.5 44.4 212.6 42.2C211 38.3 212.1 34.3 214.5 30.8C216.4 28 218.6 25.3 220.8 22.7C221.3 22 222 21.1 223.2 21.9C225.1 19.5 227.1 17 229 14.4C229.2 14.5 229.3 14.6 229.5 14.6C229.4 15 229.4 15.4 229.2 15.7C228.3 16.9 227.3 18.1 226.3 19.2C224.9 20.7 224.3 22.4 224.7 24.4C224.8 24.8 224.6 25.2 224.6 25.1C223.9 25.2 223 25.2 223 25.4C222.6 26.8 222 28.4 222.3 29.7C222.6 31.6 223.6 33.4 224.3 35.3C223.9 35.3 223.6 35.2 223.3 35.2C224.5 36.5 225.2 36.5 226.4 35.1C222.9 31.4 222.1 29.6 222.7 27.3C223.8 27.9 224.9 28.6 226.1 29.2C226.1 27.3 226 25.7 226.1 24.3C226.3 22.8 226.4 21.2 227.9 20.3C228.5 20.9 229.2 21.5 229.8 22.1C230.6 22.2 231.5 22.3 232.5 22.5C232 21.4 231.5 20.3 231.1 19.4C230 19.5 229 19.6 227.9 19.7C227.8 19.5 227.7 19.4 227.7 19.2C228.5 18 229.2 16.8 230.1 15.7C230.3 15.4 231.2 15.3 231.5 15.5C232.5 16.3 233.5 17.2 234.3 18C234.4 17.5 234.6 16.6 234.9 15.5C234.3 15.2 233.5 14.9 232.7 14.6C233 14.1 233.3 13.6 233.6 13C233.2 12.8 232.8 12.6 232.2 12.3C233.2 11.8 233.9 11.4 234.8 11C233.4 10.2 233.4 9.2 234.6 8C235.2 9.3 235.9 10.3 236.1 11.5C236.2 12 235.3 12.7 234.7 13.4C235.8 13.5 235.7 16.2 238 14.6C238.3 15.1 238.6 15.7 238.9 16.2C239.2 15.9 239.5 15.5 239.9 15C241 16.5 242 17.9 243.1 19.3C243.9 20.3 244.6 21.3 245.5 22.1C246.1 22.7 246.9 23.2 247.7 23.6C250 24.8 250.9 26.9 251.4 29.2C251.6 30.1 251.9 31 252 31.9C252 32.7 251.8 33.4 251.6 34.2C251.5 34.6 251.2 35 251.3 35.3C251.7 36.7 250.1 36.3 249.8 37C249.4 36.7 249 36.4 248.6 36.1C246.9 35.4 246.9 35.4 246.7 33.4C245.8 34.1 244.9 34.9 243.9 35.7C243.8 35.6 243.7 35.5 243.6 35.4C243.8 35 243.9 34.6 244.2 33.9C243.4 34 242.8 34.1 242.1 34.1C242.5 35.4 242.9 36.1 244.2 36.1C244.5 36.1 245.1 36.5 245.2 36.8C245.4 38 245.5 39.2 245.6 40.3C245.7 41.2 244.4 41.9 243.5 41.3C242.4 40.7 241.5 39.7 240.5 38.8C239.7 39.5 239.7 40.5 240.1 41.5C240.5 42.6 241.5 43.4 242.5 43C244.5 42.3 246.4 41.2 248.3 40.2C248.7 40 248.7 39.3 248.9 38.8C249.1 38.4 249.3 38.1 249.6 37.5C250.4 39.1 251 40.4 251.7 41.9C253.1 38.1 255 34.6 253.1 30.7C254.2 31 255.3 31.1 256.3 31.5C256.8 31.7 257.1 32.2 257.5 32.6C257.9 32.9 258.3 33.3 258.6 33.6C258.7 33.1 258.7 32.6 258.8 31.8C259.5 32.2 260.2 32.5 260.7 32.9C264.4 36.2 267.6 40.1 269.3 44.8C269.7 46 269.8 47.4 269.8 48.7H271C270.9 48.2 270.8 47.8 270.7 47.3C270.7 47.1 270.7 46.8 270.7 46.4C272.1 46.8 272.4 47.7 272.6 48.7H275.2C274.8 48.4 274.7 48.2 274.7 48ZM251.7 13.3C251.8 15.1 252.6 15.8 254.2 15.6C252.4 17 252 17 250.3 15.2C250.7 14.7 251.1 14.1 251.7 13.3ZM211.8 33.6C210.4 36.1 210.5 38.8 210.7 41.6C210.8 42.8 210.6 44.1 210.5 45.3C210.3 45.4 210 45.4 209.7 45.5C209.3 44.9 208.9 44.3 208.6 43.7C208.3 43.2 208.3 42.6 208 42.1C207.1 40.7 207.3 39.7 208.8 38.5C207.5 38.7 206.3 39 204.8 39.2C206.2 33.6 210.8 31 214.7 27.9C213.8 29.8 212.8 31.7 211.8 33.6Z" fill="currentColor"/>
<path d="M130.7 47.5C130.9 47.9 131.1 48.2 131.3 48.6C131.8 48.1 132.3 47.6 132.7 47.2C131.9 47 131.4 46.8 131.2 46.7C131.5 45.8 132 45.1 131.8 44.5C131.2 42.5 130.4 40.6 129.7 38.7C129.6 38.5 129.5 38.2 129.4 37.9C129.2 38 129 38.1 128.8 38.2C128.8 40.9 128.8 43.6 128.8 46.8C128.1 45.7 127.7 45.1 127.3 44.4C127 46.5 128.9 47.9 130.7 47.5Z" fill="currentColor"/>
<path d="M166.7 20.5C166.1 20.3 165.4 20.1 165 19.6C161.8 16.3 158.8 12.9 156.5 8.8C155 6.1 154.2 3.4 154 0.6H150.7C150.7 1.9 150.7 3.3 150.6 4.6C150.3 5 149.8 5.3 149.7 5.7C148.8 8.6 147.6 11.3 145.6 13.6C145.4 13.8 145.4 14.2 145.4 14.6C145.9 14.3 146.4 14 146.9 13.7C147.3 13.4 147.5 13 147.8 12.7C149.1 11.1 151.6 10.7 152 8.2C152 7.9 152.3 7.7 152.6 7.3C153.8 9.5 154.9 11.6 155.9 13.8C156 13.8 156.1 13.7 156.2 13.7C156.2 13.3 156.2 12.8 156.1 12.4C158.1 14.7 159.9 17.1 161.7 19.5C162.8 21 163.6 22.9 165.8 23C166.2 22.1 166.4 21.3 166.7 20.5ZM151.9 5.4C151.5 5.1 151.1 4.9 150.7 4.6C151.2 4.2 151.6 3.8 152.1 3.4C152.3 3.5 152.4 3.6 152.6 3.6C152.3 4.2 152.1 4.8 151.9 5.4Z" fill="currentColor"/>
<path d="M248.5 36.1C249.1 34.9 249.4 33.7 249.2 32.4C249 32.4 248.9 32.4 248.8 32.4C248.6 33.6 248.5 34.8 248.5 36.1Z" fill="currentColor"/>
<path d="M248 46.7C247.1 47.1 246.2 47.4 245.6 47.6C246 47.9 246.6 48.2 247.1 48.5H248.7C248 48.3 247.5 47.8 248 46.7Z" fill="currentColor"/>
<path d="M245.6 30.8C244.9 31.8 244.4 32.6 243.8 33.4C245.6 33.6 245.8 33.3 245.6 30.8Z" fill="currentColor"/>
<path d="M32 40.3C32.1 39.6 32.3 39 32.5 38.3C32 38.3 31.4 38.3 30.5 38.3C30.8 39 31.2 39.7 31.5 40.3C31.6 40.3 31.8 40.3 32 40.3Z" fill="currentColor"/>
<path d="M222.1 22.5C219.1 26.2 218.6 30.1 219.5 34.7C219.7 32.3 219.6 30.3 220 28.5C220.5 26.5 221.3 24.7 222.1 22.5Z" fill="currentColor"/>
<path d="M242.3 22.2C242.1 22.6 241.9 23.3 241.6 23.9C240.9 23.4 240.1 23.1 239.6 22.5C238.6 21.1 237.8 19.6 236.9 18C236.2 19.8 236.2 19.8 237.6 21.5C237.9 22.7 238.2 23.8 238.6 25.3C238.2 25.6 237.8 26 237.4 26.3C237.7 26.5 238.1 27 238.4 27C238.9 26.9 239.5 26.6 239.9 26.3C240.3 25.9 240.4 25.3 240.7 24.7C242.5 25.5 242.8 26.8 242.1 28.6C244 28.5 244.9 27.3 245.2 26.1C245.4 25.4 244.6 24.3 244 23.5C243.5 22.9 242.7 22.5 242.3 22.2ZM238.7 25.2C238.7 25.1 238.8 25.1 238.7 25.2V25.2Z" fill="currentColor"/>
<path d="M230.8 30.7C230.6 31.1 230.3 31.6 229.9 32.4C229.8 31.1 229.7 30.2 229.6 29.3C229.4 29.3 229.2 29.3 229.1 29.3C228.8 30.6 228.3 31.9 228.2 33.2C228 35.1 229.7 36.6 231 35.7C231.9 35.1 232.5 33.9 233.2 33C233.1 32.9 233 32.8 232.9 32.7C232.1 33.1 231.2 33.5 230.4 33.9C230.3 33.8 230.3 33.6 230.2 33.5C230.6 32.7 230.9 31.8 231.3 31C231.1 30.8 231 30.8 230.8 30.7Z" fill="currentColor"/>
<path d="M141.5 44.7C138.7 45.1 136.8 46.8 135.2 48.7H136.1C137.6 46.9 139.8 46 141.5 44.7Z" fill="currentColor"/>
<path d="M215.4 30.8C214 34.6 214.3 38.3 215.5 42.6C216.4 41.3 217.1 40.5 217.9 39.4C218.3 40.3 218.6 41.2 219.1 41.9C220.8 44.2 223.4 42.1 225.5 43.3C226 43.6 227.3 42.8 228.1 42.3C228.5 42 228.7 41.2 228.7 40.6C228.7 40.3 227.9 39.6 227.8 39.7C227.3 39.9 227 40.5 226.6 40.7C225.9 41.1 225 41.6 224.2 41.6C223.1 41.6 223 40.6 222.9 39.7C222.8 38.6 222.6 37.4 222.3 36.4C222.1 35.6 222.3 35.3 223 35.2C222.5 34.3 221.9 33.4 221.4 32.4C221.2 32.5 221.1 32.5 220.9 32.6C221.1 35.5 221.4 38.4 221.6 41.7C220.3 40.4 219.3 39.4 218.2 38.3C218.3 38.2 218.4 38.2 218.6 38.1C218.3 37.3 218 36.5 217.8 35.7C217.6 35.7 217.5 35.6 217.3 35.6C216.8 36.6 216.3 37.6 215.8 38.6C215.5 37.1 215.3 35.8 215.4 34.4C215.4 33.2 215.7 32 215.9 30.8C215.7 30.8 215.6 30.8 215.4 30.8Z" fill="currentColor"/>
<path d="M245.3 45.1C245.8 45.3 246.2 45.5 246.6 45.7C246.8 45.8 246.9 45.8 247.1 45.9C247.4 46.2 247.7 46.5 248.1 46.8C248.6 47 249.2 47.2 249.7 47.4C250.2 47.6 250.6 47.8 251.1 48C248.7 45.3 247.2 44.5 245.3 45.1Z" fill="currentColor"/>
<path d="M267.2 48.6C267.2 47.6 267 46.6 266.7 45.9C266.7 46.9 266.7 47.8 266.7 48.6H267.2Z" fill="currentColor"/>
<path d="M260.4 48.6C260.8 47 261.2 45.4 261.5 43.9C260.3 45.5 259.4 47 258.5 48.6H260.4Z" fill="currentColor"/>
<path d="M264.9 46.5C265.1 46.5 265.4 46.5 265.6 46.5C265.5 45.9 265.7 45.1 265.4 44.6C265.1 44.1 264.3 44 263.7 43.7C263.6 44.8 263.6 46 263.5 47.2C263.6 47.2 263.7 47.2 263.8 47.2C263.9 46.5 264 45.8 264.3 44.7C264.5 45.6 264.7 46.1 264.9 46.5Z" fill="currentColor"/>
<path d="M250.6 48.6H251.8C251.6 48.3 251.3 48 251.1 47.8C250.9 48.1 250.7 48.3 250.6 48.6Z" fill="currentColor"/>
<path d="M237.4 34C237.2 33.4 237.1 33.1 236.8 32.2C236.5 33.1 236.2 33.5 236.1 34C235.9 35.3 236.1 36.8 235.5 37.8C234.7 39.3 234.6 40.9 234.5 42.5C234.5 42.9 234.5 43.4 234.3 43.8C234.2 44.1 233.7 44.2 233.5 44.4C233.5 43.1 233.5 42 233.5 41C233.4 38.9 233.4 38.9 231.1 39.3C231.4 38.8 231.4 38.2 231.7 38.1C232.1 37.9 232.6 38 233.4 38C232.7 37.8 232.3 37.7 231.9 37.5C231.9 36.9 231.9 36.3 231.9 35.6C229.5 40.6 229.6 41.5 232.6 42.5C232.6 43.2 232.4 43.9 232.6 44.6C232.8 45.3 233.4 45.8 233.8 46.4C234.4 45.9 235.2 45.5 235.5 44.9C235.8 44.2 235.7 43.2 235.8 42.5C239.3 40.9 237.1 38.2 237.3 36C239.5 35.4 239.9 34.9 239.3 32.7C238.8 31 237.9 29.4 237.2 27.8C237 27.9 236.8 27.9 236.6 28C236.8 28.6 236.9 29.1 237 29.7C237.3 31 237.6 32.2 237.9 33.5C238 33.5 237.6 33.7 237.4 34Z" fill="currentColor"/>
<path d="M222.8 45.5C222.7 45.4 222.6 45.2 222.5 45.1C220.3 45.6 218.6 46.8 217.4 48.7H217.8C219.5 47.6 221.1 46.5 222.8 45.5Z" fill="currentColor"/>
<path d="M220.7 48.6H221.4C221.2 48.6 221.1 48.5 220.9 48.5C220.9 48.5 220.8 48.6 220.7 48.6Z" fill="currentColor"/>
<path d="M249.3 31C248.8 29.1 248.3 27.2 247.8 25.4C247.7 25.4 247.5 25.5 247.4 25.5C247.9 27.4 248.3 29.2 248.8 31.1C248.9 31.1 249.1 31.1 249.3 31Z" fill="currentColor"/>
<path d="M176 10.3C175.5 11.6 176.1 11.7 177.2 11.7C179.8 11.6 182.5 11.6 185.1 11.6C185.4 11.6 185.6 11.8 186.1 12C186 11 186 10.1 185.9 9.1C184.5 9.5 183.3 9.9 182.1 10.3C182.4 9.7 183.1 9.6 183.3 9.2C183.8 8.1 184.4 7 184.5 5.8C184.5 5.5 182.8 4.7 182 4.8C180.8 5 179.7 5.9 178.5 6.5C177.3 7 176.1 7.5 174.9 8C176.9 3.5 176.9 3.5 175.6 2C173.5 3.8 173.3 5.8 174.9 10C176.7 9.4 178.3 8.2 180.3 8.7C178.9 9.3 178.2 11.9 176 10.3Z" fill="currentColor"/>
<path d="M188.4 8.4C186.4 8.8 186.2 9.1 187.4 11.1C187.8 10.6 188.2 10.1 188.6 9.6C189.2 9.9 189.8 10.1 190.7 10.5C189.8 11.2 189.1 11.7 188.4 12.3C187.8 12.8 187 13.3 186.7 14C186.3 14.8 185.9 15.4 185 15.5C184.2 15.6 183.7 16 184.2 16.8C184.4 17.2 184.8 17.4 185.2 17.6C185.4 17.1 185.6 16.7 185.9 16C190.1 15.1 192.1 12.7 192.1 7.8C190.8 8 189.6 8.2 188.4 8.4Z" fill="currentColor"/>
<path d="M167.4 0.6H166.3C166.7 0.8 167 0.9 167.4 0.9C167.4 0.8 167.4 0.7 167.4 0.6Z" fill="currentColor"/>
<path d="M186 20.2C186.8 20 187.4 19.9 188.5 19.7C187.9 18.8 187.4 18.1 186.6 17C186.3 18.4 186.2 19.2 186 20.2Z" fill="currentColor"/>
<path d="M169.7 6.4C170.6 7.1 171.6 7.8 172.9 8.6C173 6.8 173.1 5.5 173.3 3.7C172.1 4.3 171.1 4.8 170.1 5.4C169.8 5.6 169.6 6.3 169.7 6.4Z" fill="currentColor"/>
<path d="M191.1 26.8C191.3 26.1 191.6 25.4 191.8 24.7C191.7 24.7 191.6 24.8 191.4 24.8C190.6 23.2 189.9 21.7 189 19.9C188.6 21.5 188.4 22.9 188 24.5C188.3 24.8 188.9 25.5 189.4 26.1C189.8 25.8 190.1 25.6 190.6 25.2C190.6 26 190.6 26.4 190.6 26.8C190.8 26.8 190.9 26.8 191.1 26.8Z" fill="currentColor"/>
<path d="M195.9 1.4C195.7 1.2 195.5 1.1 195.5 1C194.9 1.3 194.6 1.3 194.4 1.5C194.2 1.8 194 2.1 193.8 2.5C193.9 2.6 194 2.7 194.2 2.8C195.2 2.4 196.3 2.1 197.5 1.6C197.6 2.2 197.7 2.8 197.8 3.7C198.5 3 198.9 2.4 199.5 1.9C200.1 1.4 200 1 199.7 0.6H196.6C196.3 0.9 196.1 1.1 195.9 1.4Z" fill="currentColor"/>
<path d="M142.2 0.6H141.2C139.7 1.9 138.1 3.2 136.5 4.5C138.7 4.3 141.3 2.4 142.2 0.6Z" fill="currentColor"/>
<path d="M182 14.4C180.7 14.6 179.4 14.8 178.1 15C178.1 15.1 178.1 15.2 178.1 15.4C179.4 15.2 180.8 15.1 182.1 14.9C182.1 14.7 182 14.5 182 14.4Z" fill="currentColor"/>
<path d="M199.8 25.4C199.3 24.8 198.8 24.3 198.1 23.5C198 25.7 198.3 26 199.8 25.4Z" fill="currentColor"/>
<path d="M183.8 20.4C185.4 20.5 185.6 20.2 185.1 18.7C183.7 18.5 182.4 18.4 181 18.2C181.2 20.2 181.2 20.2 183.8 20.4Z" fill="currentColor"/>
<path d="M349.5 14.1C348.4 15.1 347.2 15.8 346.1 16.6C350.8 16.3 353 14.9 353.9 9.8C354.1 9 353.8 8.5 352.9 8.5C350.5 8.4 348.4 8.8 346.5 10.4C345.9 10.9 344.8 10.8 343.9 11C343.8 10.8 343.8 10.6 343.7 10.4C344.2 10.1 344.7 9.8 345.2 9.5C346.3 8.7 346.9 7.5 346.3 6.3C345.7 5.3 344.5 5 343.3 5.6C342.1 6.2 341 6.9 339.9 7.5C339 8 338 8.5 336.7 7.8C338.5 6.2 339.2 4.5 338.1 2.2C337.8 2.4 337.7 2.4 337.6 2.6C333.7 7.4 327.2 5.6 324.8 1.1C324.7 0.9 324.6 0.8 324.5 0.6H323.4C323.5 0.8 323.6 1 323.8 1.2C325.3 3.4 327.4 5 330 6.3C331.6 7.1 334.5 5.6 334.8 8.8L334.9 8.9C335.7 9.4 336.5 10 337.3 10.5C337.3 10.3 337.3 10.2 337.3 10C338.4 9.7 339.4 9.3 340.5 9.1C341 9 341.5 9.4 342.1 9.5C341.8 10 341.5 10.5 341.1 11C341 11.2 340.6 11.1 340.4 11.2C340.4 11.4 340.4 11.6 340.4 11.8C342.9 12 345.5 12.2 347.9 12.4C349.6 9.4 350 9.2 352.5 11.1C351.4 12.1 350.5 13.2 349.5 14.1Z" fill="currentColor"/>
<path d="M205.3 19.8C204.4 19.5 203.6 19.3 202.6 19C202.5 19.1 202.2 19.3 201.9 19.5C201.5 19 201.2 18.6 200.9 18.2C202.3 16.4 202.2 15.5 200.4 14.1C199.3 13.2 198.2 12.3 197.2 11.3C196.9 11 196.9 10.4 196.6 9.8C199.6 10.8 202.3 10.8 204.9 10.5C204.1 9.7 203.5 9.1 202.7 8.4C203.4 8.2 203.9 7.9 204.4 7.8C204.9 7.7 205.4 7.9 206 7.9C205.9 5.8 205.4 5.3 203.4 5.2C202.7 5.2 202.1 5.2 201.4 5.2C200.1 5.2 199.9 5.9 200.4 6.9C200.8 7.8 201.3 8.7 201.9 10C199.2 9.4 197.2 7.2 194.4 8.6C194.8 10.6 195.4 12.5 197.2 13.6C199.5 15 199.6 15 199 17.5C198.8 18.3 198.4 19.6 199.8 19.7C201.6 19.9 203.4 19.7 205.3 19.7C205.3 19.9 205.3 19.8 205.3 19.8Z" fill="currentColor"/>
<path d="M207.6 4.9C207.8 3.4 208.2 2.1 208.5 0.7H203.7C205 2 206.2 3.4 207.6 4.9Z" fill="currentColor"/>
<path d="M188.5 6.3C190 4.3 188.5 2.5 188.4 0.6H187.9C188 2.5 188.2 4.4 188.5 6.3Z" fill="currentColor"/>
<path d="M136.4 0.6H135.9C135.9 0.7 135.9 0.8 135.9 1C136.1 0.9 136.2 0.8 136.4 0.6Z" fill="currentColor"/>
<path d="M180.7 2C180.9 1.7 181.1 1 181.3 1C182 1 182.4 0.8 182.6 0.6H177.7C178 1.7 178.7 2.7 179.6 3.7C180 3.1 180.4 2.6 180.7 2Z" fill="currentColor"/>
<path d="M193.5 39.2C192.9 38.6 192.2 38.1 191.2 37.4C191 38.1 190.8 38.7 190.8 39.2C190.8 39.4 191.5 39.5 192.2 39.8C192.6 40.3 193.2 41 194.2 42.2C194.6 40.8 194.9 40 195.2 39.1C195.8 39.2 196.5 39.3 197.2 39.3C197.3 39.1 197.4 39 197.4 38.9C196.9 38.4 196.4 38 195.7 37.3C196.1 37 196.7 36.6 197.2 36.1C197.4 35.9 197.5 35.3 197.4 35.1C197.3 34.9 196.8 34.7 196.5 34.7C195.6 34.6 194.7 34.7 193.8 34.7C192.9 35 192.7 36.1 193.8 36.2C195.2 36.4 195 37.1 195 38C195 38.4 195.2 38.8 195.3 39.2C194.7 39.7 194.2 39.8 193.5 39.2Z" fill="currentColor"/>
<path d="M207.4 8.1C208.5 9.1 209.9 8.2 210.9 8.5C212.9 9.1 214.2 8.2 215.7 7.4C214.9 7.1 214.1 7 213.3 6.9C212.3 6.7 211.6 5.6 211.7 5C212.7 5.1 213.6 5.1 214.9 5.2C213.3 3.8 212.2 2.9 210.8 1.7C210.4 2.1 209.5 2.6 209.5 3.3C209.4 4.5 209.8 5.8 210 7.2C209.2 7.2 208.2 7.2 206.8 7.2C207.1 7.6 207.2 7.9 207.4 8.1Z" fill="currentColor"/>
<path d="M217.4 14.8C218.5 14.4 219.5 13.6 220.7 13C220.4 12.8 219.9 12.5 219.4 12.2C216.8 11.1 214.4 12.3 212.1 13.1C210.9 13.5 209.7 14.4 208.7 15.5C207.8 16.5 207.4 17.5 207.8 18.1C208.7 19.5 207.9 19.9 207 20.5C205.1 21.9 204.7 24.7 205.5 25.4C206.8 24.2 208 23.1 209.3 21.9C209.1 21.8 208.9 21.8 208.6 21.7C209.4 20.9 210.1 19.6 210.7 19.6C212.7 19.6 212.7 18.6 212.5 17.2C212.5 16.8 212.6 16.3 212.6 16.2C213.6 15.7 214.4 15.3 215.3 14.9C215.3 14.8 215.2 14.7 215.1 14.6C215.9 14.8 216.7 15 217.4 14.8Z" fill="currentColor"/>
<path d="M200.2 30.9C200.1 30.9 200.1 30.9 200 31C200.1 31 200.2 31 200.2 30.9Z" fill="currentColor"/>
<path d="M199.4 33.3C199.5 32.5 199.2 31.5 200.1 31C198 31.6 197 29.7 195.3 28.8C194.7 29.6 194.1 30.4 193.3 31.5C193.4 31.5 193 31.6 192.5 31.7C192.7 30.1 192.8 28.7 193 27.2C192.8 27.2 192.7 27.1 192.5 27.1C192.2 27.5 192 28 191.6 28.2C191.3 28.4 190.5 28.5 190.4 28.4C189.6 27.1 188.5 27.2 187.2 27.2C186.7 27.2 186.1 26.9 185.8 26.6C185 25.8 184.3 24.8 183.6 23.9C181.7 26.1 182 29.3 183.9 30C184.2 29 184.6 28 185 26.8C186 28.3 186 28.3 189.2 28.2C189 29.6 188.7 29.7 186.5 29C186.8 29.4 186.4 29.9 185.3 30.8C186.3 30.8 187.4 30.8 188.5 30.8C187.2 35 187.8 34.5 189.4 35.6C189.7 34 189.6 32.3 191.3 31.3C191.5 31.5 191.7 31.7 191.7 31.9C191.7 32.1 191.5 32.3 191.5 32.5C191.5 32.8 191.5 33.2 191.6 33.5C191.7 33.6 192.1 33.7 192.3 33.7C193.3 33.7 194.4 33.6 195.6 33.5C195.3 33.1 195 32.6 194.7 32.2C195 31.8 195.3 31.4 195.8 30.7C196.7 32.3 197.4 33.8 198.5 35.7C199 34.5 199.4 34 199.4 33.3Z" fill="currentColor"/>
<path d="M209.5 21.8C209.4 21.9 209.3 21.9 209.3 22C209.6 22.1 209.8 22.2 210 22.3C209.8 22.1 209.7 22 209.5 21.8Z" fill="currentColor"/>
<path d="M245.7 8.6C246.7 8.5 247.7 8.4 248.9 8.3C246.9 7.1 245.2 6.1 243.5 5.1C243.4 5.6 243.4 6.1 243.3 6.3C244.3 7.3 245 8 245.7 8.6Z" fill="currentColor"/>
<path d="M220.7 6.7C219.8 7.2 218.7 7.3 217.7 7.5C217.4 7.9 216.9 8.4 216.7 9.1C216.5 9.5 216.7 10.1 216.8 10.6C217.9 10.2 219.2 10.1 220 9.5C220.8 8.9 221.2 8.7 221.8 9.6C221.9 9.8 222.4 10 222.6 9.9C222.8 9.7 223 9.4 223.1 9C223.3 8.6 223.4 7.7 223.6 7.7C225 7.5 225.4 6.4 226.1 5.5C227.2 4.2 228.5 3.1 229.6 1.9C229.9 1.6 230 0.9 229.9 0.6H226.9C225.5 3.4 223.2 5.2 220.7 6.7Z" fill="currentColor"/>
<path d="M202.7 30.1C203.2 29.1 203.8 28.2 202.9 26.9C201.2 28.5 199.2 28.5 197.1 27.2C198.4 29.6 200.6 28.4 202.1 29C201.4 29.8 200.8 30.4 200.3 31C201.2 31.1 202.1 31.2 202.7 30.1Z" fill="currentColor"/>
<path d="M179.9 25.4C181.2 23 180.5 20.5 178.6 19.2C178 18.8 177.4 18.1 177.3 17.5C176.9 13.6 174.6 12.4 172.1 12.2C171.3 12.2 170.5 12.1 169.6 12C169.8 10.2 169.9 8.6 167.8 8.2C167.6 8.8 167.2 9.4 167.3 9.9C167.6 11.2 167.7 12.8 168.6 13.7C169.9 15 171.8 15.7 173.6 16.7C173.3 17.1 173 17.4 172.7 17.8C176.7 18.8 178 22.2 179.9 25.4Z" fill="currentColor"/>
<path d="M127 8.3C129.1 8 131.2 7.8 133.3 7.5C133.3 7.3 133.3 7.2 133.3 7C132.3 6.4 131.4 5.7 130.1 4.9C131.3 4.7 132.2 4.6 133.1 4.4C131.5 3.3 130.2 2.4 128.9 1.4C126.9 3.8 126.5 2.9 129 6.3C128.3 6.9 127.5 7.4 126.7 7.9C126.9 8.1 127 8.2 127 8.3Z" fill="currentColor"/>
<path d="M222.4 2.5C223.5 2.3 224.2 1.7 224.2 0.6H222C222.1 1.1 222.2 2 222.4 2.5Z" fill="currentColor"/>
<path d="M216.4 4.5C216.6 4.8 216.7 5 216.8 5.2C217 5.6 217.1 6 217.2 6.4C217.6 6.1 217.9 5.7 218.3 5.4C218.7 5.1 219.1 4.9 219.5 4.7C219.9 4.4 220.4 4.1 220.8 3.8C220.7 3.6 220.6 3.5 220.6 3.4C220 3.6 219.3 3.8 218.7 4C218.1 4.2 217.4 4.3 216.4 4.5Z" fill="currentColor"/>
<path d="M87.8 1.1C87.7 0.9 87.7 0.8 87.6 0.6H85.5C86.3 1 87 1.2 87.8 1.1Z" fill="currentColor"/>
<path d="M166.2 7.5C165.5 6.6 164.1 6.2 163 5.6C162.6 5.4 162 5.5 161.6 5.4C161.8 5.8 161.9 6.3 162.2 6.6C162.8 7.4 163.5 8.1 164.2 8.9C164.7 9.6 165.2 10.3 165.8 11C166.1 10.9 166.4 10.8 166.7 10.6C166.5 9.6 166.8 8.2 166.2 7.5Z" fill="currentColor"/>
<path d="M168.8 5.5C166 4.4 163.7 2.8 162.1 0.6H161.3C163 3.5 166.2 5.8 168.8 5.5Z" fill="currentColor"/>
<path d="M159 2.5C160 3 160.2 2.3 160.2 1.9C159.6 1.5 159.2 1.1 158.9 0.6H157.7C158 1.6 158.5 2.3 159 2.5Z" fill="currentColor"/>
<path d="M7.20002 0.7L6.90002 0.6C7.00002 0.7 7.10002 0.7 7.20002 0.7Z" fill="currentColor"/>
<path d="M60.3 0.6C60.1 0.9 60 1.2 59.8 1.5C60 1.2 60.3 0.9 60.5 0.6H60.3Z" fill="currentColor"/>
<path d="M45.4 3.9C45.4 2.9 45.4 2 45.4 1C45.1 0.9 44.9 0.8 44.7 0.6H42.1C43 1.8 44 3 45 4.1C45.1 4.1 45.3 4 45.4 3.9Z" fill="currentColor"/>
<path d="M107.9 14.1C108.9 12.8 109.7 11.1 110.3 9.6C110.9 8 110.3 7.1 108.6 7.5C105.9 8.2 103.2 9.2 100.6 10.2C100.6 10.4 100.6 10.6 100.6 10.8C101 11.1 101.4 11.6 101.7 11.5C102.8 11.2 103.8 10.7 104.8 10.3C105.5 10 106.2 9.5 106.9 9.2C107.5 9 108.1 8.9 108.7 8.8C109 8.7 109.3 8.7 109.6 8.7C109.6 9 109.8 9.4 109.6 9.6C108.8 10.5 107.9 11.3 107 12C106.8 12.2 106.2 12.4 106.2 12.5C106.5 14.4 104.4 14.2 103.8 15.3C105.5 15.6 107 15.3 107.9 14.1Z" fill="currentColor"/>
<path d="M18.1 2.4C18.4 1.9 18.5 1.2 18.8 0.7H16.4C16.7 1.4 17.2 2 17.8 2.6C17.9 2.5 18.1 2.5 18.1 2.4Z" fill="currentColor"/>
<path d="M35.2 0.9C35.3 1.5 35.4 2 35.4 2.5C36.4 1.9 37.2 1.5 38.2 0.9C38.3 1.4 38.4 1.8 38.4 2.1C38.6 2.1 38.8 2.1 38.9 2.1C39 1.6 39.1 1.1 39.2 0.5H33.7C33.5 0.8 33.4 1 33.2 1.2C33.3 1.3 33.3 1.4 33.4 1.5C34 1.4 34.6 1.2 35.2 0.9Z" fill="currentColor"/>
<path d="M103.9 15.2C103.8 15.2 103.8 15.1 103.9 15.2V15.2Z" fill="currentColor"/>
<path d="M26.1 0.6H26C26 0.7 26.1 0.7 26.1 0.6C26.1 0.7 26.1 0.7 26.1 0.6Z" fill="currentColor"/>
<path d="M121.5 26.9C119.8 27.2 118.2 27.6 116.5 27.9C116.5 28 116.4 28.1 116.4 28.2C117.6 28.4 118.9 28.5 120.1 28.7C119.6 29.3 119.2 29.8 118.8 30.4C118.7 30.6 118.7 30.7 118.6 30.9C117 30.2 115.3 29.6 113.7 28.9C114.6 30.7 115.6 32.6 116.7 34.7C118.3 33.8 117.7 32.6 117.4 31.4C121.6 29.7 122.3 28.9 121.5 26.9Z" fill="currentColor"/>
<path d="M119.5 9.7C118.2 9.1 116.9 8.5 115.6 8C115.3 7.9 114.9 7.8 114.6 7.9C114.1 8.2 113.2 8.6 113.3 9C113.3 11.4 115.2 13.6 117.5 14.3C117.8 14.4 118.2 14.5 118.5 14.7C118.1 15.6 117.6 16.4 117.4 17.2C117.2 17.8 117.2 18.6 117.5 19C117.8 19.3 118.6 19.2 119.2 19.3C119.4 18 119.2 17 119.6 16.4C120.4 15.2 119.7 14.6 119 14C117.9 13 116.7 12 115.6 11C115.2 10.6 115 10.1 114.6 9.4C116.5 9.7 117.9 10 119.3 10.3C119.5 10.1 119.5 9.9 119.5 9.7Z" fill="currentColor"/>
<path d="M7.60002 4.5C5.60002 3.5 3.60002 2.5 1.60002 1.5C3.90002 4.3 6.20002 5.4 7.60002 4.5Z" fill="currentColor"/>
<path d="M101.5 19.6C101.6 19.8 101.6 20 101.7 20.2C103.3 19.9 105 19.6 106.6 19.3C106.7 19.1 106.7 18.9 106.8 18.7C106 18 105.2 17.3 104.5 16.5C104.2 16.2 104.1 15.6 103.9 15.2C103.4 15.3 102.8 15.5 102 15.7C102.9 16.5 103.5 17 104.3 17.8C102.9 17.8 101.5 17.8 100.2 17.8C100.2 17.9 100.2 18 100.2 18C101 18.2 101.9 18.4 103.1 18.7C102.2 19.2 101.9 19.4 101.5 19.6Z" fill="currentColor"/>
<path d="M116.6 23.4C116.4 24 116.2 24.6 115.9 25.6C116.8 25.4 117.4 25.3 118.2 25.1C117.5 24.5 117.1 24 116.6 23.4Z" fill="currentColor"/>
<path d="M113.8 2.2C114.4 1.9 115 1.6 115.7 1.3C116 1.9 116.2 2.4 116.4 3C117.1 2.3 117.8 1.7 118.7 0.8C118.6 0.8 118.5 0.7 118.4 0.6H114.6C114.2 1 113.9 1.5 113.5 1.9C113.6 2 113.7 2.1 113.8 2.2Z" fill="currentColor"/>
<path d="M106.6 6.2C107.8 4.1 107.8 2.6 106.6 1.2C106.6 2.8 106.6 4.6 106.6 6.2Z" fill="currentColor"/>
<path d="M110.1 24.6C109.3 23.7 108.8 23 108.3 22.3C107.7 22.7 107 23.2 106.2 23.7C107.1 25.1 108.4 24.7 110.1 24.6Z" fill="currentColor"/>
<path d="M97.4 2.4C97.5 2.6 97.9 3 98.1 3C98.4 2.8 99 2.5 99 2.1C99.1 1.5 99.2 0.9 99.6 0.6H96.8C97 1.2 97.2 1.8 97.4 2.4Z" fill="currentColor"/>
<path d="M355.9 41.5C356.1 41.5 356.4 40.9 356.7 40.6C357.1 40.1 357.6 39.7 357.9 39.3C358.1 39 358.2 38.6 358.3 38.2C357.9 38.2 357.4 38 357.1 38.2C356.7 38.5 356.5 39.1 356.1 39.6C355.2 39.1 354.3 38.6 353.4 38C353.2 38.3 353 38.7 353 38.6C353.8 39.5 354.3 40.1 354.8 40.6C355.1 41 355.4 41.5 355.9 41.5Z" fill="currentColor"/>
<path d="M260.9 3.9C262.9 3.8 261.3 0.5 263.7 1C263.7 0.9 263.7 0.7 263.7 0.6H259.2C259.8 1.7 260.4 2.8 260.9 3.9Z" fill="currentColor"/>
<path d="M264 9.7C265.3 9.4 266.4 7.9 265.8 6.4C265.6 5.8 264.2 5 263.6 5.1C262 5.6 260.6 6.6 259 7.4C259.1 7.5 259.1 7.7 259.2 7.8C259.8 7.7 260.4 7.5 260.9 7.5C261.4 7.6 262.2 7.8 262.4 8.2C262.6 8.5 262.3 9.2 262.2 9.7C262.8 9.7 263.4 9.8 264 9.7Z" fill="currentColor"/>
<path d="M250.7 2.1C250.5 1.6 250.4 1.1 250.2 0.7H247.4C248.4 1.3 249.5 1.9 250.7 2.1Z" fill="currentColor"/>
<path d="M243.7 1.4C243.7 1.2 243.7 0.9 243.6 0.7H242.1C242.7 0.9 243.2 1.1 243.7 1.4Z" fill="currentColor"/>
<path d="M262.2 9.8C262.2 9.7 262.2 9.7 262.2 9.8V9.8Z" fill="currentColor"/>
<path d="M268.5 0.7C268.9 1.3 269.3 1.9 269.7 2.5C270.1 1.3 270.7 1.9 271.4 2.3C271.9 2.6 272.4 3 272.9 3.3C273 3.1 273 3 273.1 2.8C272.5 2.1 271.9 1.2 271.2 0.6H268.6C268.6 0.7 268.6 0.7 268.5 0.7Z" fill="currentColor"/>
<path d="M341.6 4.2C342.1 3.6 342.4 3 342.8 2.4C343 2 343.3 1.7 343.7 1.4C344.1 1.1 344.9 0.8 344.8 0.6H339.8C340.3 1.8 341.1 3 341.6 4.2Z" fill="currentColor"/>
<path d="M275.7 2.7C276.3 2.9 277.1 3.1 278.1 3.4C278.2 3 278.3 2.5 278.5 2.1C278.6 2.1 278.7 2.2 278.9 2.2C278.9 2.9 278.8 3.7 278.8 4.7C279.8 3.5 280.6 2.6 281.5 1.6C281.2 1.2 280.8 0.8 280.5 0.6H278.2C277.3 1.4 276.5 2.1 275.7 2.7Z" fill="currentColor"/>
<path d="M298.7 2C299.2 1.5 299.7 1.1 300.2 0.6H298.9C298.8 1 298.7 1.5 298.7 2Z" fill="currentColor"/>
<path d="M344.6 20.6C346.5 20.9 348.6 21.4 350 19.3C349 18.3 348.4 16.9 346.7 17.5C346.6 17.5 346.6 17.7 346.5 17.9C346.9 18 347.3 18.1 347.7 18.2C347.7 18.4 347.7 18.6 347.8 18.8C346.3 19 344.7 19.1 342.8 19.3C343.4 19.7 343.9 20.5 344.6 20.6Z" fill="currentColor"/>
<path d="M331.5 2.2C331.3 1.6 330.9 1.1 330.8 0.6H327.7C328.8 1.5 330.1 2 331.5 2.2Z" fill="currentColor"/>
<path d="M349 0.8C349.6 1.8 350 2.4 350.3 3.1C350.4 2.3 350.5 1.5 350.7 0.7H349.6C349.4 0.7 349.2 0.7 349 0.8Z" fill="currentColor"/>
<path d="M115.9 38.3C115.4 37.9 114.9 37.5 114.2 37C113.9 37.3 113.5 37.8 112.8 38.6C114.1 38.7 114.9 38.7 115.7 38.7C115.8 38.6 115.8 38.5 115.9 38.3Z" fill="currentColor"/>
<path d="M288.3 4.7C288.4 4.8 288.6 4.8 288.7 4.8C289.2 3.4 289.6 2 289.7 0.7H288.2C288.1 1.1 287.9 1.5 287.7 2C287.5 1.6 287.3 1.1 287.1 0.7H284.5C284.6 1 284.8 1.2 285 1.4C286.3 2.4 287.2 3.7 288.3 4.7Z" fill="currentColor"/>
<path d="M305.3 0.6H304.6C304 1.4 303.4 2.2 302.8 3.2C304.3 2.7 304.9 1.7 305.3 0.6Z" fill="currentColor"/>
<path d="M301.9 3.7C300.5 4.1 299.1 4.4 297.4 4.9C300.5 5.4 301.2 5.2 301.9 3.7Z" fill="currentColor"/>
</svg>
