<?xml version="1.0" encoding="UTF-8" standalone="no"?>
<svg
   width="96"
   height="128"
   viewBox="0 0 96 128"
   fill="none"
   version="1.1"
   id="svg4308"
   sodipodi:docname="skill.svg"
   inkscape:version="1.1.2 (b8e25be8, 2022-02-05)"
   xmlns:inkscape="http://www.inkscape.org/namespaces/inkscape"
   xmlns:sodipodi="http://sodipodi.sourceforge.net/DTD/sodipodi-0.dtd"
   xmlns="http://www.w3.org/2000/svg"
   xmlns:svg="http://www.w3.org/2000/svg">
  <sodipodi:namedview
     id="namedview4310"
     pagecolor="#ffffff"
     bordercolor="#666666"
     borderopacity="1.0"
     inkscape:pageshadow="2"
     inkscape:pageopacity="0.0"
     inkscape:pagecheckerboard="0"
     showgrid="false"
     inkscape:zoom="4.875"
     inkscape:cx="47.897436"
     inkscape:cy="64"
     inkscape:window-width="1296"
     inkscape:window-height="846"
     inkscape:window-x="0"
     inkscape:window-y="38"
     inkscape:window-maximized="0"
     inkscape:current-layer="g4301" />
  <g
     clip-path="url(#clip0_2266_28667)"
     id="g4301">
    <path
       d="M0 4C0 1.79086 1.79086 0 4 0H92C94.2091 0 96 1.79086 96 4V124C96 126.209 94.2091 128 92 128H4C1.79086 128 0 126.209 0 124V4Z"
       fill="#FFFBF2"
       id="path4254" />
    <rect
       opacity="0.3"
       width="96"
       height="83.2"
       fill="#faction"
       id="rect4256" />
    <rect
       y="83.2"
       width="96"
       height="44.8"
       fill="#FFFBF2"
       stroke="#border"
       id="rect4258" />
    <path
       d="M8.57129 27.2C8.57129 44.8 1.71415 48 1.71415 65.5999C1.71415 87.9999 10.2856 87.9999 10.2856 105.6C10.2856 112.927 8.42855 118.839 6.16409 123.2H90.1641C92.4286 118.839 94.2856 112.927 94.2856 105.6C94.2856 87.9999 85.7141 87.9999 85.7141 65.5999C85.7141 48 92.5713 44.8 92.5713 27.2C92.5713 13.12 87.9999 4.79998 85.7141 3.19998V-3.20001H99.4284V131.2H83.9999H-0.000139475H-3.42871V3.19998H1.71415C3.99986 4.79998 8.57129 13.12 8.57129 27.2Z"
       fill="#faction"
       stroke="#border"
       id="path4260" />
    <path
       d="M-3 -3H99V12H-3V-3Z"
       fill="#FFFBF2"
       stroke="#border"
       id="path4262" />
    <path
       d="M6 11C6 6.58172 9.58172 3 14 3C18.4183 3 22 6.58172 22 11C22 15.4183 18.4183 19 14 19C9.58172 19 6 15.4183 6 11Z"
       fill="#faction"
       id="path4280" />
    <mask
       id="path-16-inside-1_2266_28667"
       fill="white">
      <path
         fill-rule="evenodd"
         clip-rule="evenodd"
         d="M26 12.3977C26 19.9101 21.5 26 14 26C6.5 26 2 19.9101 2 12.3977C2 12.1806 2.00449 11.9646 2.01337 11.75L6.5 11.75C6.5 15.685 9.85786 18.875 14 18.875C18.1421 18.875 21.5 15.685 21.5 11.75L25.9866 11.75C25.9955 11.9646 26 12.1806 26 12.3977Z"
         id="path4286" />
    </mask>
  </g>
  <defs
     id="defs4306">
    <clipPath
       id="clip0_2266_28667">
      <path
         d="M0 4C0 1.79086 1.79086 0 4 0H92C94.2091 0 96 1.79086 96 4V124C96 126.209 94.2091 128 92 128H4C1.79086 128 0 126.209 0 124V4Z"
         fill="white"
         id="path4303" />
    </clipPath>
  </defs>
</svg>
